<?xml version="1.0" encoding="utf-8" ?>
<svg baseProfile="full" height="300mm" version="1.1" viewBox="0,0,200,300" width="200mm" xmlns="http://www.w3.org/2000/svg" xmlns:ev="http://www.w3.org/2001/xml-events" xmlns:xlink="http://www.w3.org/1999/xlink"><defs /><rect fill="#222222" height="300" width="200" x="0" y="0" /><text fill="#FFFFFF" style="font-size:12px; font-family:Arial; font-weight:bold;" x="10" y="20">Over 3km Runs</text><text fill="#FFFFFF" style="font-size:4px; font-family:Arial" x="10" y="280">Runner</text><text fill="#FFFFFF" style="font-size:9px; font-family:Arial" x="10" y="290">Zheng</text><text fill="#FFFFFF" style="font-size:4px; font-family:Arial" x="65" y="280">SPECIAL TRACKS</text><rect fill="yellow" height="2.6" width="2.6" x="65" y="283" /><text fill="#FFFFFF" style="font-size:3px; font-family:Arial" x="70" y="285.5">Over 5.0 km</text><rect fill="red" height="2.6" width="2.6" x="65" y="287" /><text fill="#FFFFFF" style="font-size:3px; font-family:Arial" x="70" y="289.5">Over 10.0 km</text><text fill="#FFFFFF" style="font-size:4px; font-family:Arial" x="120" y="280">STATISTICS</text><text fill="#FFFFFF" style="font-size:3px; font-family:Arial" x="120" y="285">Number: 10</text><text fill="#FFFFFF" style="font-size:3px; font-family:Arial" x="120" y="290">Weekly: 1.4</text><text fill="#FFFFFF" style="font-size:3px; font-family:Arial" x="141" y="285">Total: 54.5 km</text><text fill="#FFFFFF" style="font-size:3px; font-family:Arial" x="141" y="290">Avg: 5.4 km</text><text fill="#FFFFFF" style="font-size:3px; font-family:Arial" x="167" y="285">Min: 3.2 km</text><text fill="#FFFFFF" style="font-size:3px; font-family:Arial" x="167" y="290">Max: 10.6 km</text><polyline fill="none" points="28.40975609747693,42.3010715112905 28.58536585350521,42.823037555092014 29.11219512182288,46.42933717445703 28.980487804859877,47.99522432155209 28.89268292672932,49.94071532145608 28.629268292570487,51.838749819260556 28.497560975607485,52.313257594709285 27.926829268457368,52.59796209685737 25.380487804766744,52.930117194890045 22.790243902476504,53.49952554720221 19.89268292672932,53.78422953985864 17.12682926817797,53.83168019348523 15.063414634205401,54.021482773765456 14.668292682850733,54.1163840435911 14.712195121916011,54.16383467341075 14.668292682850733,54.30618654243881 13.834146341308951,55.87205508432817 13.570731707382947,57.10576708818553 13.482926829252392,57.912423695554025 13.52682926831767,58.43437744805124 13.746341463411227,58.956330789544154 14.05365853663534,59.478283720090985 15.019512195140123,60.71198901341995 15.282926829298958,61.18649043800542 15.678048780420795,62.18294232431799 16.5999999998603,62.894692754838616 17.258536585373804,62.942142756364774 17.65365853672847,63.13194272853434 17.785365853691474,63.3691926173633 17.82926829252392,63.891142073844094 17.434146341402084,65.74168683611788 16.863414634019136,66.92793076194357 16.29268292686902,67.73457541933749 16.204878048738465,68.16162219346734 16.248780487803742,68.35142067162087 16.731707317056134,68.96826534991851 16.775609756121412,69.63255897728959 16.95121951191686,70.05960452900035 16.775609756121412,70.15450350317406 14.185365853598341,70.96114423515974 13.921951219672337,71.19839132251218 13.746341463411227,71.62543586583342 13.131707316963002,72.19482816255186 13.0,72.38462548598181 13.0,72.5269734429894 13.17560975626111,72.90656784566818 13.790243902476504,73.85555290151387 14.448780487524346,74.4723924594 14.88780487794429,74.7096382904565 15.94146341457963,74.80453659914201 16.248780487803742,74.89943489414873 16.64390243915841,75.27902793855174 17.47804878046736,75.80096801993204 18.312195122009143,76.70249992003664 18.795121951028705,76.93974495312432 19.278048780513927,77.03464294265723 20.682926829438657,76.892295953352 21.736585365841165,76.65505090315128 24.985365853644907,76.60760188294807 25.687804877990857,76.46525480202399 27.35609756084159,75.89586617232999 29.331707317149267,75.61117167433258 30.16585365869105,75.32647705392446 30.604878048645332,75.51627348107286 31.087804878130555,75.51627348107286 31.35121951205656,75.61117167433258 32.4048780486919,76.37035673088394 33.41463414626196,77.22443888086127 33.72195121948607,77.41423476469936 34.29268292686902,77.46168372721877 35.12682926817797,77.3193368295324 35.785365853691474,77.082091932185 36.6634146340657,76.892295953352 38.11219512182288,76.32290769036626 39.69268292700872,76.03821337554837 40.439024390419945,75.753518938669 41.53658536588773,74.94688403652981 43.029268292710185,73.238712769642 43.68780487799086,72.28972683107713 44.565853658597916,70.67644761828706 45.35609756107442,69.63255897728959 45.6634146340657,68.96826534991851 45.92682926822454,68.11417256551795 45.88292682915926,67.07027989038033 45.970731707289815,66.02638557180762 46.146341463318095,65.64678723039106 46.62926829280332,64.9824896096834 49.70243902457878,62.32529247156344 52.204878048971295,60.3798378140782 53.69756097556092,58.8614302125643 55.58536585373804,57.24811832548585 57.12195121939294,55.777154065785 60.0634146342054,53.54697622108506 61.380487804766744,52.0760037493892 63.22439024387859,50.557577129337005 64.8048780488316,49.08659802447073 65.68292682920583,48.706989983737 66.47317073168233,48.13757751509547 67.0,48.23247962712776 66.73658536584117,48.09012645407347 66.47317073168233,48.185028572857846 65.5951219513081,49.32385293964762 65.06829268299043,49.893264389480464 62.741463414626196,51.41169253102271 60.678048780420795,53.21482143207686 60.01951219490729,53.68932822259376 58.48292682925239,55.25519822142087 54.70731707313098,58.57672840019222 52.11707317084074,60.949239768087864 50.36097560985945,62.704892714798916 48.69268292677589,64.84014003298944 48.07804878032766,65.45698797801742 47.11219512182288,67.44987741694786 46.36585365841165,69.77490752510494 45.795121951261535,70.81879594206112 40.746341463178396,76.84484695002902 40.35121951205656,77.17698990128702 40.04390243906528,77.3193368295324 39.64878048771061,77.3193368295324 37.1902439026162,77.36678579886211 36.88292682915926,77.46168372721877 34.3365853659343,77.55658164201304 33.63414634135552,77.6989284887677 32.2731707317289,76.74994893337134 31.70243902434595,76.18056054826593 31.263414634158835,75.08923144353321" stroke="#4dd2ff" stroke-linecap="round" stroke-linejoin="round" stroke-width="0.5"><title>2026-03-24 4.0km</title><desc>17833902173</desc></polyline><polyline fill="none" points="106.48341787821846,33.01835681835655 106.26306642091367,33.05507045115519 106.21221608459018,33.0 105.90711406682385,33.110140890363255 105.39861070382176,33.36713611474261 105.34776036749827,33.78934198805655 105.34776036749827,34.15647695725784 105.26300980703672,34.30333079575212 105.22910958289867,34.6337516206695 105.195209358586,34.798961871289066 105.17825924651697,35.73515125346603 105.16130913444795,35.790221109229606 105.05960846180096,35.84529095303151 104.99180801340844,35.99214381117781 104.95790778921219,36.10228339882451 104.97485790133942,36.267492690414656 104.92400756507413,36.340919007590855 104.07650196005125,36.542841269954806 103.82225027860841,36.83654609115911 103.3137469154899,36.81818954985647 103.05949523404706,36.50612814335909 102.50014153472148,36.377632158153574 101.92383772332687,36.4327018740878 101.31363368779421,36.542841269954806 100.31357707385905,36.1940663518908 99.90677438350394,36.1940663518908 99.41522113257088,36.35927558357071 99.44912135670893,37.02011143125128 99.4321712446399,37.36888521051151 99.34742068412015,37.7176585089328 99.21181978733512,38.12150067482435 99.17791956319707,38.727262715023244 99.11011911480455,38.96589584778121 98.88976765749976,39.4064487322903 98.75416676065652,39.82864452677313 98.65246608812595,40.32426477782428 98.60161575180246,40.819884058015305 98.51686519134091,41.040158982010325 98.56771552754799,41.0768714506994 99.05926877842285,41.278789933247026 99.12706922687357,41.35221479606116 99.11011911480455,41.462352050308255 98.99146833008854,41.829475884878775 98.99146833008854,42.031393766839756 99.07621889055008,42.23331148768193 99.21181978733512,42.453585181137896 99.39827102050185,42.6187903254031 99.49997169303242,42.7839953618095 99.55082202935591,42.985912482006825 99.56777214148315,43.31632196753344 99.6016723656794,43.40810230359784 99.75422337459167,43.4815265484649 100.02542516810354,43.4815265484649 100.26272673759377,43.518238662945805 100.70342965214513,43.26125374989351 100.80513032473391,43.26125374989351 100.55087864329107,43.35303410592314 100.44917797064409,43.44481442870165 100.3983276343788,43.53659471817082 100.3983276343788,43.683443112066016 100.46612808271311,43.867003484556335 100.5678287553601,44.068919740544516 100.78818021266488,44.14234379370464 100.88988088525366,44.289191836011014 100.97463144583162,44.69302351305669 100.99158155790064,44.87658315313456 101.04243189410772,44.96836292327498 101.1441325667547,44.9867188733333 101.21193301520543,44.95000697192154 101.33058379980503,44.54617570506525 101.38143413612852,44.491107755107805 101.43228447245201,44.4727517690917 101.82213705073809,44.52781972306548 102.21198962902417,44.52781972306548 102.34759052580921,44.45439578179503 102.43234108632896,44.45439578179503 102.60184220736846,44.50946373974148 102.9069442251348,44.50946373974148 102.99169478565454,44.54617570506525 103.05949523404706,44.637955595040694 103.09339545830153,44.7480914190819 103.09339545830153,44.8398712357739 102.7374431041535,45.537396755069494 102.51709164690692,45.84944702274515 102.38149075006368,46.25327620966709 102.21198962902417,46.51025808398845 102.12723906856263,46.859018781688064 102.09333884436637,47.262846357465605 102.02553839597385,47.28120214107912 101.7712867144146,47.15271162799036 101.43228447245201,46.93244202522328 101.05938200629316,46.80395133505226 100.48307819489855,46.47354640364938 99.65252270194469,45.75766757217934 99.56777214148315,45.720955782657256 99.1440193389426,45.77602346499043 98.94061799382325,45.75766757217934 98.6355159759405,45.55575266380038 98.36431418242864,45.26205796399154 98.22871328564361,45.17027830040024 97.8897110435646,45.09685454555438 97.80496048304485,45.11521048625582 97.73716003465233,45.17027830040024 97.65240947419079,45.33548167088884 97.4829083532095,46.17985276906984 97.24560678377748,46.96915363901644 97.05915555072716,48.143922467701486 96.77100364502985,49.61237583433103 96.72015330870636,50.10797692232882 96.65235286025563,50.438377108439454 96.56760229979409,50.71371026734414 96.56760229979409,50.732065800606506 96.6354027481866,50.64028812092147 96.66930297238287,50.69535473275755 96.65235286025563,50.82384344705497 96.58455241186311,51.02575415199681 96.41505129088182,51.33779765186773 96.33030073042028,51.57641889217484 96.17774972150801,52.47583539097104 96.0082486004685,52.97143087135919 95.94044815207599,53.577157362757134 95.78789714316372,53.99932951461233 95.65229624643689,54.58669829349674 95.66924635850592,54.78860599643667 95.49974523746641,55.35761774709681 95.44889490120113,55.83485242257302 95.4319447890739,56.587412967084674 95.48279512533918,57.00958009772876 95.41499467700487,57.6520069889375 95.34719422855414,58.037462340973434 95.22854344395455,58.367852175506414 95.21159333176911,58.62482174865727 95.10989265918033,59.06534040997212 95.0929425470531,59.671052317440626 94.9742917623953,60.129924009685055 94.8556409777375,60.80905258753046 94.83869086561026,60.93753616754839 94.90649131394457,61.26792221667711 94.77089041715953,61.39640556379163 94.70308996876702,61.763500481902156 94.68613985669799,62.03882132116996 94.72004008089425,62.40591530763777 94.78784052934498,62.69959011353785 94.90649131394457,62.864782042088336 95.16074299550382,63.066683141791145 95.39804456487764,63.342002563600545 95.68619647057494,63.56225788548181 95.82179736741818,63.764158428879455 96.12689938518452,64.0761862245854 96.55065218766686,64.36985909272335 96.83880409336416,64.51669539909926 96.88965442974586,64.59011352030211 96.8557542054914,64.60846804729954 96.6862530845101,64.64517709724896 96.36420095455833,64.68188614190149 95.75399691902567,64.62682257295819 95.2624436680926,64.86543128525955 95.27939378027804,64.90214029797062 95.39804456487764,64.86543128525955 95.22854344395455,64.93884930538479 95.24549355596537,65.74644612103293 95.33024411648512,66.33378764148802 95.2624436680926,66.57239474494418 95.22854344395455,66.95783651391685 95.2624436680926,67.06796262583521 95.48279512533918,67.34327769603988 95.48279512533918,67.39834067417542 95.19464321964188,67.6736553850933 94.68613985669799,68.07744975287642 94.26238705427386,68.24263817223255 94.14373626949964,68.31605521292659 93.95728503639111,68.53630620724289 93.80473402747884,68.79326545840013 93.63523290655576,68.92174498618988 93.550482346036,69.417308268341 93.550482346036,69.67426662532671 93.51658212178154,69.91287058046146 93.87253447587136,69.96793299970159 94.10983604530338,70.09641193140124 94.39798795100069,70.16982843450387 94.82174075348303,70.46349423409265 94.99124187458074,70.66538927369402 95.7200966947712,71.0875329272094 96.22860005777329,71.67486205682508 96.3981011788128,71.80334012235107 96.72015330870636,71.93181812264083 97.31340723217,72.0419420710241 97.58460902579827,72.18877392770082 97.72020992258331,72.31725173241284 97.7710602589068,72.48243738552264 97.75411014672136,73.01470153476112 97.7710602589068,73.17988673289074 97.78801037103403,73.2533023418946 97.9405613798881,73.38177960641042 98.27956362190889,73.43684127127926 98.73721664858749,73.43684127127926 99.16096945106983,73.54696456507372 99.65252270194469,73.62038006763032 99.940674607642,73.74885714593984 99.99152494396549,73.82227258996863 100.02542516810354,73.96910341420153 99.99152494396549,74.13428798969835 99.85592404718045,74.40959537602612 99.46607146889437,74.90514791703026 99.19486967526609,75.08868564908335 99.09316900273552,75.19880822444975 98.90671776956879,75.54752939713944 98.70331642439123,75.78612781754055 98.55076541547896,76.09814079728676 98.38126429443946,76.35509237431688 98.21176317351637,76.9424092854606 98.07616227673134,77.18100639151817 97.95751149195712,77.30948166320741 97.8897110435646,77.78667495878472 97.6015591378673,78.44740265261498 97.27950700797373,79.89732682722388 97.00830521440366,80.13592114910716 96.95745487808017,80.22768813614675 96.60150252393214,80.13592114910716 96.65235286025563,80.13592114910716 96.70320319657912,80.20933474137564 96.6354027481866,80.28274831236922 96.73710342077538,80.1726279479335 96.8049038691679,80.22768813614675 96.78795375704067,80.11756774771493 96.6862530845101,80.11756774771493 96.73710342077538,80.15427454916062 96.53370207559783,80.13592114910716 96.56760229979409,80.08086094094324 96.73710342077538,80.08086094094324 97.00830521440366,80.15427454916062 97.11000588705065,80.20933474137564 97.17780633532675,80.26439492164354 97.17780633532675,80.33780847664457 96.90660454181489,81.2187694770837 96.94050476595294,81.56748235978012 96.82185398135334,81.75101526305662 96.33030073042028,82.26490668469341 96.19469983363524,82.44843908253824 96.10994927311549,82.74209064245224 95.77094703103648,83.58633698061749 95.66924635850592,83.75151528282731 95.53364546172088,83.82492782700865 95.4319447890739,83.95339972809597 95.21159333176911,84.32046194355644 95.0929425470531,84.59575825602224 95.17769310757285,84.65081748258672 95.87264770374168,84.43058050447144 96.02519871259574,84.44893359328853 96.07604904886102,84.52234593528556 96.09299916104646,85.10964390535082 96.02519871259574,85.45835143068689 95.97434837627225,85.5501164891175 95.82179736741818,85.7336465062981 95.78789714316372,85.84376445275848 95.78789714316372,86.08235317250364 95.83874747948721,86.48611818619247 95.73704680689843,86.70635337695421 95.80484725534916,87.0 95.48279512533918,86.76141214468225 95.46584501327015,86.77976506460982 95.49974523746641,86.85317673100508 95.49974523746641,86.92658837613999 95.66924635850592,86.92658837613999 95.66924635850592,86.87152964431152 95.77094703103648,86.87152964431152" stroke="#ffa000" stroke-linecap="round" stroke-linejoin="round" stroke-width="0.5"><title>2026-03-21 5.9km</title><desc>17833902373</desc></polyline><polyline fill="none" points="148.40975609747693,42.44342716888059 148.49756097560748,43.15519858838525 148.54146341467276,44.6261904334533 148.9365853657946,46.47678844095208 149.02439024392515,47.28345775051275 148.8048780488316,51.1269862743211 148.71707317070104,51.506592820747755 148.49756097560748,51.743846801808104 146.4780487807002,52.692861877032556 145.51219512196258,53.02501683239825 140.55121951224282,53.59442494018003 137.08292682934552,53.87912881071679 136.02926829271019,54.1163819427602 135.89756097551435,54.16383255895926 135.80975609761663,54.306184387241956 135.59024390252307,55.82460198691115 135.8536585366819,58.481824418122414 135.80975609761663,59.335929366527125 135.9853658536449,60.66453487670515 135.8536585366819,61.37628673348809 135.5463414634578,62.135487871884834 135.41463414626196,62.657438150199596 136.24878048780374,62.704888155160006 136.29268292686902,63.51153771934332 136.1609756096732,64.88758471084293 136.1609756096732,66.35852833685931 136.8195121951867,68.54121286491863 137.17073170724325,69.15805719018681 137.30243902443908,69.63255243457388 137.6097560976632,70.01214838551823 136.86341463425197,70.24939574452583 135.01951219514012,70.48664301860845 134.18536585359834,70.67644077673322 133.13170731719583,71.76777683192631 133.0,72.00502356287325 133.0,72.1948208863032 133.13170731719583,72.52696607180405 134.53658536588773,73.80809594306629 134.84390243911184,73.99789275048533 135.5463414634578,74.04534194385633 136.24878048780374,74.28258785972139 137.08292682934552,75.18412156612612 138.8390243903268,76.56014433369273 139.23414634144865,76.74994035344571 139.58536585373804,76.74994035344571 140.68292682920583,76.41779728326946 142.43902439018711,76.27545020234538 143.93170731700957,76.32289923267672 144.59024390252307,76.46524630347267 144.89756097574718,76.46524630347267 146.30243902443908,76.18055213120533 148.58536585373804,75.42136707465397 149.55121951224282,75.37391797965392 150.16585365845822,75.18412156612612 150.78048780490644,75.23157067451393 151.17560975602828,75.08922333887313 151.52682926831767,75.18412156612612 152.09756097570062,75.5637143389904 153.50243902439252,76.93973631883273 154.02926829271019,77.1769811991835 155.2585365853738,77.08208325720625 156.1804878048133,76.79738934984198 157.71707317070104,76.51269532035803 158.77073170733638,76.22800116852159 160.08780487813056,76.22800116852159 160.57073170738295,76.08565404679393 161.31707317079417,75.51626525417669 162.54634146322496,74.28258785972139 162.8536585366819,73.85554514994146 163.9512195121497,72.85911109094741 164.65365853649564,72.38461815560004 165.39999999990687,71.24583372531924 165.57560975616798,70.81878905976191 165.7951219510287,69.82235043717083 166.23414634144865,68.4937632777146 166.3219512195792,67.68711977492785 166.19024390238337,66.92792499350617 166.23414634144865,66.16872934269486 166.36585365864448,65.55188223643927 166.62926829280332,65.07738407183206 167.06829268299043,64.69778529560426 167.94634146336466,64.12838672392536 171.5463414634578,61.13903619948542 176.19999999995343,56.72616079123691 179.88780487817712,53.64187559380662 181.02926829294302,52.550509702414274 181.86341463425197,51.601494423288386 183.31219512200914,50.272870750399306 185.33170731691644,48.70698943169555 186.3853658537846,47.66306649771286 187.0,47.14110441424418 186.8243902437389,46.9987510474748 186.64878048794344,46.9987510474748 186.47317073168233,47.94777291541686 186.2097560975235,48.56463640113361 185.33170731691644,49.60855791537324 183.13658536598086,51.17443710460793 180.89756097551435,53.02501683239825 179.44878048775718,54.40108558908105 175.40975609747693,57.817519808828365 174.44390243897215,58.8139764732332 173.30243902420625,59.71553121251054 172.5121951221954,60.569634571438655 171.01951219537295,61.80333748087287 170.14146341453306,62.60998814186314 168.73658536584117,64.27073641272727 167.85853658546694,65.55188223643927 167.287804878084,67.1651734560146 166.62926829280332,69.53765341278631 166.23414634144865,70.29684520605952 164.65365853649564,72.33716884331079 161.0536585364025,76.56014433369273 160.61463414644822,76.93973631883273 160.08780487813056,77.08208325720625 157.6292682925705,77.22443016502075 154.20487804873846,77.55657283117762 153.59024390252307,77.5091238890891 153.2390243904665,77.31932808662532 151.74634146364406,75.89585783693474 151.39512195135467,75.27901977970032 151.04390243906528,74.8994268438546 151.08780487813056,74.51983369077789 150.42926829261705,74.23513868334703 150.0780487805605,73.80809594306629 149.77073170733638,73.0489081699634 149.77073170733638,72.71676324598957 150.12195121939294,70.81878905976191 150.34146341471933,70.53409246332012" stroke="#4dd2ff" stroke-linecap="round" stroke-linejoin="round" stroke-width="0.5"><title>2026-03-12 4.1km</title><desc>17691059793</desc></polyline><polyline fill="none" points="13.375434530433267,94.94348925276427 13.625724217388779,96.36373293364886 13.688296639360487,98.18975738622248 13.625724217388779,100.48919056565501 13.250289686955512,102.38283721753396 13.625724217388779,107.1845670711482 13.750869061099365,113.67700807086658 13.31286210869439,122.94218515936518 13.375434530433267,126.3236140240333 13.125144843244925,127.40566870529437 13.0,128.21720890305005 13.125144843244925,128.8934918687446 13.563151796115562,130.04317179997452 14.126303591998294,130.92233786225552 15.002317497041076,131.66624696855433 16.44148319796659,132.34252746606944 16.378910776227713,132.88355151575524 15.940903823589906,133.01880747964606 15.628041714662686,133.69508700922597 15.440324449446052,134.57424967421684 15.377752027707174,135.65629490837455 15.565469292690977,136.7383389035822 16.75434530689381,140.11971840343904 17.004634993849322,141.81040361634223 17.192352259298787,142.21616761747282 17.943221320630983,142.9600678337738 19.820393974427134,144.0421034664614 21.009269988164306,143.97447627579095 23.199304750654846,143.70396746433107 27.391657010186464,142.6219314444461 29.70683661615476,142.55430415202864 30.833140208385885,141.94565830286592 34.65005793701857,139.10530582384672 35.213209733134136,138.63191291398834 35.7763615292497,137.68512638297398 36.15179606014863,135.65629490837455 37.465816917596385,133.15406342432834 37.7161066045519,132.00438727793517 37.90382387000136,129.29926141595934 38.02896871371195,128.8934918687446 39.28041714942083,127.06752675032476 40.46929316339083,125.917843199044 42.28389339498244,123.55084324796917 43.159907300025225,122.87455645867158 45.9130938583985,121.25146618951112 46.85168018518016,120.57517775456654 47.852838933700696,119.69600206555333 49.792584009235725,117.39661562693072 55.98725376604125,112.18916094861925 61.493626883020625,106.9140477280016 62.61993047501892,106.17011913523311 63.683661645511165,105.0880401362665 65.49826187710278,103.73543964495184 66.74971031281166,102.38283721753396 66.87485515652224,102.38283721753396 67.0,102.85624828742584 66.87485515652224,103.19439890637295 66.37427578214556,104.00595989823341 65.31054461165331,105.15567011001986 64.18424101965502,106.10248923389008 61.806488991715014,107.59034594055265 60.179606025340036,108.87531121092616 57.86442641913891,111.17471838567872 55.736964078620076,112.86545538553037 54.04750869050622,114.69144794729073 51.10660486645065,116.99084096879233 44.03592120506801,123.34795726201264 42.90961761283688,124.90341537457425 41.34530706820078,126.52649937110255 40.78215527208522,127.40566870529437 39.53070683637634,130.51656901213573 38.59212050959468,133.28931934951106 37.90382387000136,134.70950539631303 32.397450753021985,141.40463944117073 29.76940903812647,144.31261218106374 26.953650057781488,144.5154936662293 26.453070683637634,144.65074796555564 22.886442641494796,144.7860022454406 21.071842409903184,145.05651074717753 20.32097334880382,144.9888836289174 18.568945538485423,143.83922187966527 17.44264194648713,142.8248132924782 17.192352259298787,142.41904955275822 17.192352259298787,141.94565830286592 16.75434530689381,140.99887509155087 15.50289687118493,140.05209093197482 15.127462340518832,139.64632600161713 14.87717265309766,138.7671680553467 15.064889918547124,135.99443378986325" stroke="#4dd2ff" stroke-linecap="round" stroke-linejoin="round" stroke-width="0.5"><title>2026-03-10 3.2km</title><desc>17665858677</desc></polyline><polyline fill="none" points="73.0,110.36226932879072 73.82864450151101,109.79684524936602 74.28900255775079,109.59123635926517 75.20971867023036,109.53983412572416 75.48593350406736,109.59123635926517 75.62404092075303,109.69404081330867 75.99232736602426,110.41367149120197 76.2685421993956,111.39031172846444 77.2352941178251,112.36695035704179 77.78772378526628,113.34358737710863 78.34015345270745,114.73143721721135 79.07672634278424,115.60526693152497 79.62915601045825,116.68470185942715 79.99744245526381,116.99311147799017 80.5959079284221,117.19871780119138 81.05626598489471,117.14731622702675 81.88491048617288,116.83890668867389 82.39130434812978,116.47909535799408 83.21994884917513,116.11928380886093 84.23273657308891,115.29685659118695 84.87723785173148,114.93704432476079 85.56777493632399,114.73143721721135 86.21227621496655,114.73143721721135 86.71867007692344,114.98844609037042 87.77749360632151,115.91367711155908 88.19181585684419,116.53049699007533 88.56010230188258,117.19871780119138 89.94117647060193,119.10057291091653 90.26342711015604,119.71738947427366 91.92071611247957,118.43235424306476 92.84143222519197,117.96974087820854 93.80818414315581,117.30152093607467 97.35294117662124,115.39966005581664 98.04347826121375,114.88564255461097 98.3657289003022,114.78283900086535 98.8721227622591,115.8108737358707 99.19437340181321,116.11928380886093 99.42455242970027,116.06788214133121 100.20716112526134,115.50246350257657 100.39130434789695,115.45106178132119 100.66751918173395,115.55386521940818 101.2199488489423,116.06788214133121 102.55498721217737,118.22674834774807 102.78516624076292,119.04917150159599 102.83120204601437,120.02579751540907 103.06138107413426,121.20802685362287 103.24552429676987,121.77344005170744 103.38363171368837,121.92764355771942 103.79795396421105,122.28745158220408 104.94884910504334,122.75006157858297 105.68542199512012,122.75006157858297 106.0997442456428,122.85286375094438 106.83631713571958,123.41827538079815 108.81585677759722,125.62851566937752 109.3682864450384,125.83411899831844 110.56521739135496,126.14252385811415 111.85421994887292,126.7593330963864 113.28132992330939,128.1471515368321 115.26086956518702,130.51157547323965 115.53708439902402,130.66577670676634 115.8132992326282,130.71717710915254 117.47058823541738,130.35737419960788 118.20716112526134,130.04897153179627 118.80562659865245,129.89477013784926 121.47570332488976,129.74056870368076 125.02046035812236,128.86675981985172 126.40153452684171,128.81535925721982 126.76982097188011,128.60975696175592 126.95396419428289,128.24995277350536 126.95396419428289,127.73594641155796 126.67774936067872,126.6565316010965 126.5856777492445,125.93692063592607 126.63171355519444,124.24069133412559 126.53964194352739,123.88088449486531 126.30946291564032,123.46967641124502 125.11253196932375,122.85286375094438 123.91560102277435,122.0818470234517 122.21227621473372,121.31082929339027 120.69309462909587,120.8482181741274 119.54219948849641,120.12860016018385 117.93094629165716,118.58655861800071 117.10230179014616,117.14731622702675 115.90537084406242,115.34825832565548 115.07672634278424,113.90900807449361 114.66240409202874,113.4463911804487 114.24808184150606,113.24078355601523 113.78772378526628,113.18938163883286 112.86700767255388,113.60059685184387 111.90025575459003,114.83424077986274 111.53196930955164,115.09124960849294 110.79539641947486,114.88564255461097 109.32225063932128,113.85760621528607 108.723785166163,113.24078355601523 108.03324808203615,112.21274436480599 107.80306905368343,112.0585383324069 107.57289002556354,112.1099403477856 106.97442455240525,112.52115630934713 105.77749360608868,113.08657779102214 105.13299232744612,113.5491949658026 104.99488491052762,113.70340061053867 104.99488491052762,113.90900807449361 105.13299232744612,114.32022278837394 105.54731457796879,114.88564255461097 105.63938618940301,116.63330024085008 105.50127877248451,117.60993023373885 104.94884910504334,119.25477711186977 104.39641943736933,120.23140278708888 104.12020460353233,120.59121184085961 103.47570332488976,120.7968169162632 103.29156010225415,121.00242192065343 103.29156010225415,121.31082929339027 103.47570332488976,121.82484122476308 104.02813299233094,122.28745158220408 104.67263427120633,122.5444571802509 106.23785166232847,122.80146266700467 106.65217391308397,123.00706697622081 107.34271099744365,123.67528048873646 108.81585677759722,125.52571397810243 109.32225063932128,125.83411899831844 110.28900255751796,126.24532544228714 111.30179028143175,126.6051308469032 111.71611253195442,126.81073383725015 112.9590792839881,127.73594641155796 114.80051150894724,129.94617060694145 115.35294117638841,130.4601750531583 115.62915601045825,130.61437630007276 116.5959079284221,130.71717710915254 117.24040920706466,130.61437630007276 118.43734015338123,130.25457332812948 119.68030690541491,130.04897153179627 121.24552429676987,130.04897153179627 122.35038363165222,129.6377677253331 123.36317135556601,129.12376256642165 124.42199488496408,129.02096148114651 125.29667519195937,128.81535925721982 126.53964194352739,128.76395868998952 126.8618925830815,128.50695578748127 126.95396419428289,128.1471515368321 127.0,127.73594641155796 126.63171355519444,126.5023293250706 126.5856777492445,124.18929037050111 126.447570332326,123.77808250073576 125.80306905368343,123.16127016127575 123.1790281329304,121.77344005170744 120.55498721217737,120.7968169162632 119.58823529398069,120.23140278708888 118.85166240413673,119.35757989040576 117.60869565210305,118.17534686269937 117.14833759586327,117.45572560484288 116.5959079284221,116.37629208056023 115.53708439902402,114.83424077986274 114.20204603578895,112.67536222137278 113.46547314571217,111.6987241008319 112.49872122751549,110.05385626142379 112.22250639391132,109.43702964525437 112.08439897699282,109.28282289078925 111.80818414338864,109.38562739820918 110.38107416871935,110.36226932879072 108.8618925830815,111.13330129568931 108.53964194376022,111.13330129568931 108.26342711015604,111.03049709129846 107.98721227631904,110.51647580234567 107.52685422007926,110.15666063508252 106.65217391308397,110.41367149120197 104.94884910504334,111.2361054822104 102.96930946293287,112.46975432982435 102.50895140669309,113.08657779102214 100.66751918173395,114.01181177975377 99.37851662398316,114.88564255461097 97.39897698210552,115.91367711155908 96.70843989797868,116.37629208056023 94.6828644501511,117.35292249673512 91.552429667674,119.30617850337876 90.03324808203615,120.12860016018385 89.48081841436215,120.5398105608765 88.65217391308397,120.8482181741274 87.8235294118058,120.95102067629341 86.90281329955906,121.3622305066092 86.25831202045083,121.82484122476308 85.24552429676987,122.85286375094438 83.95652173925191,123.5210774372099 83.4961636827793,123.46967641124502 83.12787723797373,123.05846804234898 82.98976982105523,122.33885271067265 82.85166240413673,121.82484122476308 82.34526854241267,121.05382316053146 81.70076726353727,120.43700798728969 81.19437340181321,119.20337571605342 80.5959079284221,118.22674834774807 79.49104859353974,118.02114238101058 79.03069053706713,117.8155363429687 78.70843989797868,117.8155363429687 77.00511508970521,118.63796006742632 76.22250639414415,119.20337571605342 75.20971867023036,119.6659881186788" stroke="#4dd2ff" stroke-linecap="round" stroke-linejoin="round" stroke-width="0.5"><title>2026-02-24 4.7km</title><desc>17506081930</desc></polyline><polyline fill="none" points="133.0,116.6421270580613 133.31658291444182,116.23814935149858 135.21608040179126,114.62223572307266 136.30150753771886,114.21825661550974 137.3417085427791,113.71328233706299 138.06532663293183,113.51129250309896 139.06030150759034,113.41029755992349 139.46733668330126,112.95582009886857 139.69346733670682,112.90532258123858 139.9648241205141,112.90532258123858 140.59798994963057,113.15781012526713 141.27638190961443,113.25880511238938 141.95477386936545,112.75383000227157 143.2211055275984,112.24885445443215 143.98994974861853,111.79437608696753 144.93969849240966,111.49139031174127 145.84422110556625,110.98641366953962 146.2964824119117,110.83492059161654 146.70351758785546,110.83492059161654 147.1105527637992,110.93591598130297 147.42713567824103,111.18840437906329 148.06030150712468,111.9458689155872 148.69346733670682,112.3498495988897 149.23618090432137,113.10731262521585 149.5979899498634,114.1172617948032 150.1859296481125,114.31925141863758 150.59296482405625,114.92521986976499 150.77386934659444,115.02621455019107 151.99497487419285,114.4202462041867 153.57788944710046,113.30930259928573 155.70351758785546,112.29935202893103 156.51758793951012,111.99636651633773 158.4170854270924,110.88541828870075 158.68844221089967,110.83492059161654 159.05025125597604,110.93591598130297 159.32160804024898,111.44089266727678 159.77386934659444,111.84487370098941 160.5427135678474,111.39039501833031 160.94974874379113,111.33989736513468 161.4020100501366,111.64288321917411 161.80904522608034,112.04686411260627 162.75879396987148,113.61228742892854 162.98492462281138,114.4202462041867 163.12060301494785,115.98566314240452 163.30150753748603,116.79361862590304 163.5276381908916,117.2480930929305 163.79899497446604,117.60157298884587 164.3869346731808,117.90455558593385 164.88442211039364,118.10654389654519 166.693467336474,118.20753802562831 167.19095477368683,118.40952623105841 167.59798994963057,118.86399943754077 168.50251256255433,120.0759262542706 169.7688442207873,121.38884412741754 170.71859296481125,121.74232151074102 171.53266331646591,121.8938117523212 172.43718592938967,122.34828224044759 174.2010050250683,124.57013285631547 175.01507537672296,125.47906930220779 175.693467336474,125.98403338168282 176.28140703518875,126.08502614498138 178.8592964822892,125.68105498654768 179.2211055275984,125.78204780246597 179.31155778863467,125.88304060086375 179.4020100501366,126.13552252016962 179.17587939696386,126.69098235754063 178.9497487435583,126.84247131214943 178.27135678357445,127.09495281567797 177.7286432159599,127.44842673675157 177.2763819093816,127.95338910922874 177.14070351747796,128.30686250969302 177.0954773868434,128.86232027667575 177.77386934659444,132.95249298133422 177.99999999976717,133.4574505830533 178.3618090453092,133.96240774722537 178.72361809038557,134.16439049021574 179.35678391950205,134.3158775016782 180.0351758794859,134.16439049021574 180.48743718583137,133.81092064385302 180.7135678390041,133.60893777827732 180.89447236177512,133.10398030775832 180.98492462281138,132.59902239969233 180.84924623090774,131.79108883620938 180.39698492456228,129.82174608157948 180.12562814052217,128.25636632269016 179.89949748734944,127.75140421278775 179.58291457267478,127.34743420989253 179.26633165800013,127.14544910332188 178.81407035165466,126.99396022746805 178.1356783916708,127.0444565237849 177.7286432159599,127.24644166533835 177.23115577851422,127.75140421278775 177.05025125597604,128.30686250969302 177.0050251253415,128.6098395391018 177.05025125597604,129.67025790177286 177.3668341706507,132.59902239969233 177.63819095445797,133.4069548426196 178.1356783916708,134.01290343963774 178.63316582888365,134.36637316341512 179.49246231117286,134.41686882072827 179.8090452258475,134.3158775016782 180.57788944686763,133.81092064385302 181.03015075344592,133.25546759489225 181.03015075344592,132.59902239969233 180.84924623090774,131.43761754990555 180.7135678390041,129.82174608157948 180.57788944686763,129.31678532861406 180.39698492456228,128.96331254113466 180.26130653265864,128.20587013132172 180.0351758794859,127.70090797776356 179.8542713567149,127.44842673675157 179.1306532660965,127.09495281567797 178.72361809038557,126.94346392672742 178.2261306529399,126.99396022746805 177.63819095445797,127.29693793988554 177.14070351747796,127.90289289160864 176.95979899470694,128.25636632269016 176.91457286430523,128.76132799475454 177.32160804024898,131.94257646478945 177.59296482405625,133.20497183687985 177.77386934659444,133.5079463191796 178.3618090453092,134.0633991275099 179.08542713546194,134.41686882072827 179.44723618077114,134.51786012225784 180.0351758794859,134.2653818356921 180.53266331646591,133.86141634942032 180.75879396963865,133.55844205105677 180.93969849217683,132.95249298133422 180.39698492456228,129.67025790177286 179.89949748734944,127.95338910922874 179.62814070354216,127.59991549456026 179.26633165800013,127.29693793988554 178.72361809038557,127.09495281567797 178.1356783916708,127.0444565237849 177.68341708532535,127.1959453864838 177.41206030128524,127.49892299377825 177.14070351747796,127.95338910922874 177.05025125597604,128.66033569542924 177.3668341706507,131.23563386156457 177.77386934659444,133.30596334853908 178.0904522612691,133.76042493403656 178.72361809038557,134.16439049021574 179.26633165800013,134.2653818356921 180.0351758794859,134.11389481107472 180.30653266306035,133.96240774722537 180.7135678390041,133.5079463191796 180.98492462281138,132.95249298133422 181.03015075344592,132.54852658486925 180.66834170836955,130.47819440613966 180.53266331646591,128.76132799475454 180.12562814052217,127.49892299377825 179.94472361775115,127.34743420989253 179.08542713546194,126.89296762167942 178.2261306529399,126.84247131214943 177.77386934659444,126.99396022746805 177.32160804024898,127.34743420989253 176.91457286430523,127.95338910922874 176.8241206028033,128.40785487025278 176.8241206028033,130.02373026037822 177.32160804024898,133.0029887612327 177.50251256255433,133.4069548426196 177.99999999976717,134.11389481107472 178.2261306529399,134.3158775016782 178.6783919595182,134.46736447361764 179.26633165800013,134.46736447361764 180.12562814052217,134.2653818356921 180.53266331646591,133.96240774722537 180.84924623090774,133.60893777827732 181.03015075344592,133.20497183687985 181.1658291455824,132.59902239969233 180.66834170836955,129.97323422215413 180.48743718583137,128.66033569542924 180.30653266306035,128.05438153125579 180.08040200988762,127.54941924626473 179.67336683394387,127.1959453864838 179.26633165800013,126.99396022746805 178.76884422102012,126.89296762167942 178.1356783916708,126.89296762167942 177.68341708532535,127.0444565237849 177.14070351747796,127.44842673675157 177.05025125597604,127.59991549456026 176.91457286430523,128.30686250969302 176.8241206028033,128.96331254113466 177.0050251253415,130.2257143688621 177.7286432159599,133.25546759489225 177.8643216076307,133.55844205105677 178.2261306529399,133.96240774722537 178.6783919595182,134.2148861651076 178.99497487419285,134.3158775016782 179.53768844204023,134.3158775016782 180.26130653265864,134.01290343963774 180.8040201002732,133.55844205105677 181.0753768843133,132.90199719712837 181.03015075344592,131.84158471680712 180.21608040179126,128.25636632269016 179.7638190954458,127.54941924626473 179.31155778863467,127.1959453864838 178.81407035165466,126.94346392672742 178.3618090453092,126.89296762167942 177.7286432159599,127.0444565237849 177.32160804024898,127.39793047553394 177.05025125597604,127.85239666973939 176.95979899470694,128.50884721340844 177.0954773868434,130.3267063969397 177.2763819093816,131.53860936802812 177.41206030128524,131.99307233223226 177.5477386934217,133.0029887612327 177.68341708532535,133.4574505830533 178.04522613040172,133.96240774722537 178.8592964822892,134.36637316341512 179.94472361775115,134.3158775016782 180.89447236177512,133.60893777827732 181.0753768843133,133.35645909776213 181.2110552759841,132.85150140844053 180.89447236177512,131.48811346123694 180.75879396963865,130.4276984074968 180.66834170836955,129.97323422215413 180.57788944686763,129.01380866678664 180.39698492456228,128.05438153125579 180.21608040179126,127.65041173843201 179.62814070354216,127.0444565237849 179.31155778863467,126.53949336346705 179.26633165800013,126.18601889087586 179.31155778863467,125.83254420378944 179.67336683394387,125.68105498654768 180.98492462281138,125.42857287026709 181.8442211051006,125.12559418624733 182.8391959797591,124.87311182921985 183.65326633141376,124.62062936276197 186.23115577874705,124.21665718877921 186.59296482405625,123.96417443780228 187.0,123.30771877319785 186.95477386913262,122.75225570995826 186.59296482405625,121.28785054991022 186.59296482405625,119.92443554016063 186.50251256255433,119.52046010969207 186.32160804001614,119.21747835283168 185.59798994963057,118.7125084080617 184.6030150752049,118.25803508347599 183.74371859268285,117.75306430703495 180.89447236177512,116.59162986010779 179.53768844204023,115.83417136454955 178.6783919595182,115.12720921338769 177.50251256255433,113.61228742892854 176.77889447216876,111.84487370098941 176.19095477368683,111.13790670817252 175.64824120607227,109.92596129595768 175.24120603012852,109.3704854727257 174.60804020077921,108.00704256974859 173.88442211039364,107.19907489902107 173.56783919595182,107.1485768823186 173.34170854254626,106.94658477196936 172.43718592938967,105.83562691346742 172.03015075367875,105.48213987774216 171.48743718583137,105.78512877854519 170.94472361798398,105.98712129163323 169.81407035165466,106.79509064333979 167.64321608026512,107.75455279287416 165.6984924620483,108.86550699191866 164.88442211039364,109.42098329664441 164.43216080404818,109.57247674249811 162.39698492456228,110.78442289010854 161.80904522608034,110.98641366953962 161.44723618077114,111.0369113534689 161.08542713546194,110.32994338020217 160.72361809038557,109.97645907185506 159.77386934659444,110.48143658967456 159.32160804024898,110.58243204065366 158.68844221089967,111.13790670817252 157.87437185901217,111.44089266727678 156.74371859268285,112.14785929227946 153.93969849240966,113.56178996822564 153.2613065324258,114.1172617948032 152.3115577888675,114.57173834985588 151.5879396982491,115.27870117523707 150.7286432159599,115.83417136454955 150.36683417088352,116.03616039291956 149.64321608026512,116.03616039291956 148.2412060298957,116.6421270580613 147.02010050229728,117.39958450308768 145.12060301494785,118.35902918630745 144.39698492456228,118.91449643846136 144.26130653265864,118.91449643846136 144.08040200988762,118.76300542225363 143.8090452258475,118.25803508347599 143.58291457267478,118.00554974999977 143.58291457267478,117.65207009931328 143.26633165823296,117.09660164336674 143.13065326632932,116.69262425170746 142.0,115.22820385894738 141.4572864321526,114.01626695663435 141.27638190961443,113.915272100945 140.6884422111325,114.1172617948032 140.14572864305228,113.81427722773515 139.64824120607227,114.06676437787246" stroke="#ff9d00" stroke-linecap="round" stroke-linejoin="round" stroke-width="0.5"><title>2026-02-23 6.0km</title><desc>17493745395</desc></polyline><polyline fill="none" points="13.0,204.49912000191398 13.05875952122733,204.88016054863692 13.23503808490932,204.94366727457964 13.49945593031589,204.88016054863692 13.852013057563454,204.59438016923377 14.087051142356358,203.99106543062953 14.586507072788663,203.2607359653921 15.056583242607303,202.27637695797603 15.144722524448298,202.0223484725284 15.232861806289293,201.482537458156 15.409140369854867,201.00623307644855 16.084874863852747,199.92660791857634 17.26006528828293,198.62470349881914 18.52339499455411,197.67208808849682 19.49292709468864,196.84648641187232 20.550598476431333,195.70334309255122 22.930359085905366,193.73458936047973 24.017410228494555,192.68670074705733 24.928182807401754,191.95635267402395 25.486398258828558,191.35302075036452 26.485310119693168,190.46389852516586 27.131664852960967,190.05109117203392 28.071817192598246,188.97143935557688 28.277475516777486,188.62213967589196 28.36561479861848,188.1458214877348 28.453754080459476,187.95529406925198 28.65941240475513,187.73301197760156 28.806311207823455,187.6695027880487 28.894450489548035,187.6695027880487 29.27638737752568,187.44722055320744 29.33514689875301,187.28844746015966 29.188248095684685,186.71686385464272 29.188248095684685,185.60544917994412 29.42328618047759,184.49403172082384 29.45266594120767,183.92244451469742 29.30576713825576,183.79542503558332 29.511425462318584,183.66840551997302 30.216539717046544,183.6048957486346 31.186071817064658,183.35085657206946 32.86071817181073,183.192082012858 33.477693144697696,183.192082012858 33.800870511331595,183.47787617857102 34.3003264417639,183.66840551997302 34.41784548421856,183.6048957486346 34.329706202377565,183.38261147710728 34.388465723604895,183.31910166479065 35.240478781284764,183.28734675521264 35.534276387305,182.77926789296907 35.50489662680775,182.6204931292159 35.563656147918664,181.9536385006504 35.534276387305,181.50906819140073 35.622415669145994,181.19151769770542 35.681175190373324,180.4293955853209 35.798694232827984,180.14359945559409 35.65179542975966,180.17535459029023 38.20783460279927,179.6037618193077 38.11969532095827,179.6037618193077 38.2665941240266,179.4132307319378 38.35473340586759,179.4132307319378 38.61915125127416,180.20710972254165 38.7660500544589,181.2867828696908 38.91294885741081,181.66784335300326 39.676822633249685,182.81102283889777 40.3231773666339,183.6366506354825 40.763873775838874,184.04946395743173 41.02829162136186,184.39876723760972 41.29270946676843,184.4622768953268 41.55712731229141,184.36701240530238 41.70402611524332,184.4622768953268 42.20348204567563,183.70016040233895 43.0554951033555,182.81102283889777 44.495103373075835,182.6204931292159 44.99455930350814,182.5887381696084 45.141458106576465,182.7157579943305 45.22959738841746,182.90628766309237 45.72905331873335,183.4461212803435 46.287268770392984,184.49403172082384 46.55168661591597,184.8750894490222 46.66920565837063,185.28790161863435 46.55168661591597,185.60544917994412 46.31664853100665,185.82773233760963 45.67029379750602,186.17703421751503 45.611534276395105,186.2405436207191 46.110990206710994,186.65335451959982 46.3460282915039,186.71686385464272 47.28618063102476,186.30405301478459 48.37323177361395,185.66895866495906 49.5778019586578,185.19263730585226 51.54624591942411,184.2082382098597 52.39825897710398,183.6366506354825 53.2796517952811,182.87453272397397 54.57236126216594,181.9853935057472 55.10119695321191,181.76310842265957 56.276387377642095,181.69959837847273 56.775843307957985,181.5408232282498 57.45157780207228,181.25502781462274 58.36235038086306,180.55641602832475 58.77366702933796,180.30237510596635 58.94994559301995,179.7942928247503 59.03808487486094,179.69902733230265 59.47878128383309,179.6037618193077 60.15451577794738,179.95306860012352 60.418933623470366,180.0483340380888 60.68335146899335,180.01657889439957 60.947769314516336,179.85780314181466 61.388465723604895,179.44498591890442 61.53536452667322,179.03216831185273 61.65288356912788,178.90514743237873 61.770402611466125,178.90514743237873 62.09357997821644,179.00041309540393 62.857453754055314,178.39706355080125 63.32752992375754,177.8572237888875 63.59194776916411,177.44440470411791 63.85636561468709,177.25387268935447 64.32644178450573,176.74578691628994 64.44396082696039,176.45998841317487 64.44396082696039,175.79312452315935 64.09140369959641,174.45939373524743 64.09140369959641,174.17359375898377 64.82589771482162,171.02978186513064 65.11969532095827,169.34672189498087 65.58977149077691,167.1873148434097 65.88356909679715,166.13936351437587 66.05984766047914,165.85355817666277 66.17736670281738,165.40897172974655 66.0892274210928,164.26574739121133 66.14798694232013,163.56710884469794 65.94232861802448,162.2968541221344 66.0010881392518,161.66172539643594 65.79542981495615,161.24889123695903 66.03046789986547,160.16916931059677 66.03046789986547,159.85160353782703 65.97170837863814,159.53403753763996 65.85418933618348,159.31174120222568 65.41349292709492,158.83539153676247 65.11969532095827,158.6448515272641 63.62132752989419,158.00971757119987 62.857453754055314,157.5651232607197 62.38737758435309,157.18404206828563 62.122959738830104,156.92998775810702 61.799782372196205,156.48539236510987 61.18280739930924,155.342145021772 61.094668117468245,155.11984658497386 61.124047878198326,155.05633272542036 61.388465723604895,155.11984658497386 62.03482045698911,155.69147091158084 63.56256800866686,156.739446929947 65.58977149077691,158.2955279640446 66.55930359091144,159.18471467471682 66.91186071827542,159.66106396497344 67.0,159.88336012529908 67.0,160.2961955559731 66.79434167570435,161.69348185425042 66.70620239386335,162.83671282374416 66.0010881392518,165.37721553794108 65.88356909679715,165.94882664302713 65.70729053311516,167.1873148434097 64.94341675727628,170.3311539735878 64.5908596299123,172.10947735107038" stroke="#4dd2ff" stroke-linecap="round" stroke-linejoin="round" stroke-width="0.5"><title>2026-01-03 4.3km</title><desc>17507819708</desc></polyline><polyline fill="none" points="80.49088177544763,168.609629648985 80.54868657013867,168.59289986437943 80.63539376220433,168.64308921319025 80.77990574913565,168.62635943193163 80.99667372938711,168.59289986437943 81.28569770307513,168.47579132429382 81.73368486232357,168.4088721210428 82.64411037944956,168.2081143478281 83.69904788344866,167.94043693537242 83.84355987032177,167.94043693537242 84.04587665188592,168.00735632931173 84.6817293940112,168.4088721210428 84.88404617563356,168.57617007802764 84.9563021690119,168.67654877048335 85.01410696381936,168.91076548112324 85.11526535457233,169.94800690149714 85.12971655325964,170.53354352209135 85.17307014932157,170.68410974442668 85.21642374538351,170.78448714938713 85.30313093750738,170.85140538529959 85.56325251387898,170.98524177538638 86.19910525600426,171.1525371096941 87.0661771770101,171.20272567681968 88.43904105213005,171.20272567681968 88.68471142975613,171.21945519575092 89.04599139688071,171.3198322737444 89.21940578112844,171.33656178075762 90.27434328506934,171.1358075839089 90.80903763638344,170.9183235939854 91.66165835881839,170.8179462707485 92.22525510756532,170.65065059585322 92.58653507463168,170.4666251567396 92.71659586281748,170.34951795185043 95.60683559981408,167.52219010551926 95.83805477875285,167.27124149663723 96.09817635512445,166.90318284381647 96.70512669987511,166.38455334289756 96.9652482761885,166.13360299679334 97.6155522170011,165.23017857769446 97.84677139599808,164.84538518717454 98.19360016443534,164.46059089568735 98.36701454868307,164.17617714454536 99.11847688024864,163.20582064188784 99.43640325131128,162.72064024167776 100.33237756974995,161.48258721163438 100.53469435137231,161.16470722590748 100.80926712631481,160.77990431524813 101.08383990143193,160.37836988238269 101.9653630211833,159.24068366069696 102.32664298824966,158.8726070200646 102.47115497512277,158.63837600125407 103.1503613133682,157.76837215090927 103.33822689624503,157.46721589862136 103.54054367780918,157.28317569493083 103.75731165811885,157.03221144863346 103.8295676514972,156.88163271684607 104.29200600943295,156.2123922392202 104.42206679761875,156.14546804151905 104.68218837393215,156.0785438165476 105.21688272530446,155.86103989722324 106.9943801634945,155.0077525099914 107.84700088598765,154.75678478798363 108.1793784556794,154.60620397080493 108.84413359523751,154.37196686968673 109.33547435054788,154.17119194590487 109.55224233074114,154.05407312697207 109.98577829130227,153.90349166576925 111.24303257692372,153.60232832920155 111.358642166364,153.5186717488541 111.63321494142292,153.23423905709933 111.90778771636542,153.06692547895364 112.22571408748627,153.0 112.35577487561386,153.01673137227772 112.4135796703631,153.06692547895364 112.63034765061457,153.60232832920155 112.77485963748768,154.22138569984236 112.94827402173541,154.68985999737924 113.04943241243018,155.442762319959 113.16504200198688,156.0785438165476 113.20839559804881,156.71432285297487 113.28065159148537,157.09913528514153 113.30955398880178,157.60106319002807 113.28065159148537,157.66798679484054 113.25174919416895,157.70144858697313 113.00607881642645,157.76837215090927 112.96272522036452,157.81856480597344 112.97717641905183,157.86875744565623 113.12168840598315,158.03606613395095 113.5985779624898,158.42087547056144 113.7286387506756,158.63837600125407 114.01766272442183,158.7052991835517 114.24888190330239,158.88933779437502 114.61016187054338,159.34106805596093 114.95699063886423,159.8764504614519 115.4483313941746,160.52894540970738 116.05528173892526,161.59970073554723 116.19979372579837,161.9008494138252 116.54662249423563,162.40276265106513 116.74893927585799,162.77083138404123 117.2836336272303,163.59061787161045 117.39924321667058,163.87503263626422 117.52930400485639,163.97541420033667 117.87613277323544,164.51078150652756 117.99174236273393,164.56097210208827 118.15070554829435,164.5777022971888 118.39637592592044,164.47732110098877 118.52643671410624,164.46059089568735 118.61314390611369,164.51078150652756 118.68539989960846,164.59443249055767 118.68539989960846,164.67808343206707 118.65649750217563,164.76173433091026 118.46863191929879,164.92903600088903 118.36747352854582,165.06287721425178 118.32411993242567,165.1799881865154 118.3385711311712,165.3305593139812 118.49753431667341,165.64843124101753 118.69985109823756,165.9328424439882 119.09003346273676,166.56858335316065 119.6825326088001,167.7229487166769 119.88484939048067,168.2415739936987 119.9282029864844,168.5259807088587 119.87039819179336,169.21190076148196 119.98600778123364,169.81416966670076 119.98600778123364,170.09857366033248 119.9426541851717,170.33278834434168 119.8125933969859,170.65065059585322 119.69698380754562,170.76775758621807 118.3385711311712,171.57077470044896 118.25186393904733,171.63769261620473 117.84723037586082,171.721339972617 117.71716958773322,171.82171674401616 117.5437552035437,172.0893878348288 117.00906085217139,173.1767971583322 116.85009766661096,173.61175887320132 116.72003687848337,173.82923929898243 116.64778088504681,174.56532475855784 116.60442728898488,175.3014069215278 116.64778088504681,176.12113090504135 116.85009766661096,176.6731876105914 116.92235365998931,177.1750557338819 116.92235365998931,177.49290475266753 116.90790246141842,177.79402430876507 116.83564646792365,178.19551619209233 116.66223208373412,178.6471933886205 116.28650091792224,179.36652858361776 116.14198893110733,179.71783067430079 115.92522095079767,180.0858606306283 115.79516016267007,180.40370402067492 115.49168499023654,181.13976003798598 115.33272180473432,181.6583429802413 115.27491700998507,181.992911752066 115.20266101654852,182.193652688351 114.91363704280229,182.86278737206885 114.79802745336201,183.06352724602039 114.53790587699041,183.4148214355955 114.26333310204791,183.6824736475537 114.14772351254942,183.91666897552204 114.03211392310914,184.2512331510079 113.64193155855173,184.85344695099047 113.30955398880178,185.2716496807261 112.9338228229899,185.8236756549304 112.76040843874216,186.17496394610498 112.70260364399292,186.5262514865608 112.81821323354961,187.07827324784012 112.76040843874216,187.9313941419532 112.77485963748768,188.2492223627487 112.76040843874216,188.3495890416234 112.99162761779735,189.03542637424835 113.12168840598315,189.82162662591145 113.07833480986301,190.13945119235723 113.09278600855032,190.32345460790384 113.13613960455405,190.5910955719737 113.20839559804881,190.95910118619213 113.22284679667791,191.3605609166989 113.17949320061598,191.57801786142227 113.23729799542343,191.87911161774537 113.20839559804881,192.0463856885035 113.22284679667791,192.28056910169835 113.17949320061598,192.61511625624553 113.13613960455405,192.74893492739648 112.73150604142575,193.51839017303428 112.61589645192726,193.95329806674272 112.50028686248697,194.20420594366442 112.24016528611537,194.50529489055043 111.96559251117287,194.72274767594354 111.2141301794909,195.49219368420017 111.01181339792674,195.75982623426535 110.88175260974094,195.96055036097823 110.76614302030066,196.21145517473633 110.52047264267458,196.88053280627355 110.43376545055071,197.34888552839402 110.44821664917981,197.64996871667972 110.41931425180519,197.85069053595362 110.1736438741791,198.5030347561842 110.0435830859933,198.7204822545027 109.92797349655302,198.85429595668393 109.26321835699491,199.43972962324915 109.19096236361656,199.6404492576985 109.06090157543076,199.84116864710813 108.80077999911737,200.89494142172043 108.80077999911737,201.0287533543451 108.8296823965502,201.6643585471611 108.91638958861586,202.0490657597984 108.85858479386661,202.23305584769696 109.03199917811435,202.70139332425606 109.14760876755463,203.83877878561907 109.16205996630015,204.08967157827283 109.14760876755463,204.24020707019372 109.06090157543076,204.39074242429342 108.88748719124123,204.52455151217873 108.46840242942562,204.69181271900015 108.36724403855624,204.7419910478784 108.33834164123982,204.79216936140438 108.23718325037044,204.79216936140438 108.00596407148987,204.85907375568058 107.919256879366,204.85907375568058 107.50017211749218,204.95943029603222 106.64755139511544,205.0597867750912 106.47413701086771,205.0597867750912 106.30072262661997,205.12669106048997 105.99724745430285,205.19359531864757 105.31804111605743,205.2939516548795 104.89895635418361,205.37758188825683 104.33535960549489,205.42776000783488 103.84401885024272,205.37758188825683 102.57231336599216,204.97615638011484 101.60408305400051,205.04306069952145 101.45957106724381,205.10996499168687 101.25725428562146,205.04306069952145 101.09829110006103,205.07651284903113 100.93932791455882,205.0597867750912 100.69365753687453,205.09323892119573 100.46243835793575,205.17686925668386 99.27744006575085,205.37758188825683 98.93061129731359,205.47793811217707 98.65603852237109,205.47793811217707 98.4103681446868,205.56156825192738 97.58664981968468,205.69537638720067 97.13866266043624,205.86263640315155 96.70512669987511,205.91281437475118 96.21378594456473,205.91281437475118 96.14152995118639,205.97971831307223 95.8958595735603,205.9964442933997 95.46232361299917,206.11352610806352 94.68195888400078,206.36441543026012 93.97385014849715,206.63203028538555 93.43915579706663,206.96654824177676 93.28019261150621,207.0 93.20793661812786,206.96654824177676 92.99116863781819,206.53167476570525 92.80330305494135,206.29751164841582 92.70214466413017,205.9964442933997 92.55763267731527,205.81245841625787 92.26860870362725,205.19359531864757 91.92177993513178,204.39074242429342 91.63275596144376,203.57115938482457 91.43043917987961,203.28681329423853 91.24257359700277,202.85193008703936 90.79458643781254,201.94870744331274 90.6067208548775,201.74799062647799 90.59226965613198,201.71453779988224 90.66452564962674,201.6978113840014 90.67897684825584,201.6643585471611 90.50556246400811,201.51382069721876 90.28879448375665,201.11238575690368 89.99977051006863,200.54368458053796 89.13269858900458,198.9546561618481 88.56910184031585,197.64996871667972 88.3812362573226,197.38233924316592 88.22227307182038,196.96416731881618 87.91879789938685,196.31181699303852 87.75983471388463,195.75982623426535 87.38410354807274,194.62238488763978 87.28294515731977,194.2209331218328 87.13843317044666,193.8863892348745 87.10953077307204,193.6856625759683 87.051725978381,193.5685719117755 86.87831159419147,192.94966272998136 86.83495799812954,192.68202560540522 86.67599481251091,192.19693220677436 86.37251964019379,190.9256461643672 86.21355645463336,190.1227235989354 86.15575165988412,189.93871995875088 86.09794686513487,189.60416735796025 86.09794686513487,189.48707378687686 85.89563008357072,188.9016046803299 85.78002049407223,188.41650012689934 85.6066061098827,187.8979385040002 85.51989891775884,187.37937524542212 85.25977734144544,186.47606759818154 85.18752134800889,186.02441191325488 85.01410696381936,185.50584274466382 85.0719117585686,185.35529009900347 84.86959497694625,184.73634999600472 84.62392459932016,183.8330278252688 84.49386381113436,183.4148214355955 84.33490062557394,182.62859054256114 84.1470350426971,182.0932822508621 84.0169742545113,181.40741595438158 83.7568526781979,180.55426120143966 83.68459668476135,180.13604646991007 83.51118230051361,179.5170867144043 83.07764634001069,178.11187213064113 82.90423195576295,177.7271088995476 82.75971996894805,177.25870027209749 82.26837921363767,175.56907234525715 82.22502561763395,175.21776138721907 82.13831842551008,174.98355366468604 82.10941602813546,174.81626222992782 82.02270883595338,174.5820539352717 81.97935523994965,174.34784530679462 81.99380643863697,174.2474700781895 81.79148965707282,173.77905153397296 81.69033126626164,173.4946539093944 81.64697767025791,173.1935264763597 81.53136808075942,172.95931586925872 81.44466088863555,172.72510492832225 81.41575849120272,172.49089365365217 81.31460010050796,172.1730349612917 81.28569770307513,171.88863455760293 81.06892972282367,171.18599615612766 81.02557612676173,170.98524177538638 80.9822225306998,170.43316596385557 80.63539376220433,169.6970619968779 80.56313776882598,169.412657308465 80.46197937807301,169.29554935252236 80.38972338457825,169.07806292721943 80.28856499388348,169.0111439692264 80.21630900038872,168.86057621409418 80.14405300695216,168.84384645499813 80.01399221876636,168.84384645499813" stroke="red" stroke-linecap="round" stroke-linejoin="round" stroke-width="0.5"><title>2025-10-17 10.6km</title><desc>17538333095</desc></polyline><polyline fill="none" points="156.21821334818378,154.2388831304852 156.5809746576706,154.32287493775948 157.179530818481,154.28087903835694 157.2702211458236,154.32287493775948 157.57856825890485,154.93181451785495 157.7962250446435,155.49875664888532 158.24967668158934,157.43054776478675 158.70312831853516,158.96336914710992 158.81195671134628,159.48830535833258 159.21099415188655,160.6851549251296 159.4286509376252,161.21008675497433 159.80955031258054,162.84786547868862 160.40810647327453,165.07354392851994 160.7345916518243,166.01840016059577 160.95224843756296,166.50132500813925 161.13362909236457,167.04723869191366 161.46011427091435,168.34902703131957 161.7684613839956,169.25187541042396 161.9317039733287,170.23870516588795 162.49398400308564,172.04438143450534 162.60281239601318,172.71625694216345 162.7116407888243,173.15717405501346 162.94743564003147,173.8710378590913 163.00184983643703,174.35394432597968 163.16509242577013,174.92083308404835 163.27392081858125,175.52971186714421 163.69109632459003,176.99941187158402 163.72737245552707,177.2933506162226 163.98130537231918,178.11217776834383 164.0901337651303,178.6580607312062 164.27151441993192,179.16195141509525 164.47103314008564,180.52664917131187 164.7793802532833,181.38745388321695 164.8700705806259,181.91233304269554 164.99703703902196,182.29024521079555 165.14214156277012,182.9830823881348 165.57745513424743,184.6626780111983 165.7406977234641,185.1035695970204 165.77697385451756,185.48147592076566 166.04904483654536,186.3002705815161 166.32111581868958,187.24502961455437 166.5206345389597,187.62293201666034 166.6657390628243,188.10580630127515 166.91967197949998,188.79862395345117 167.04663843777962,189.30248987585946 167.35498555086087,190.01629782679083 167.75402299140114,190.64612632144417 167.93540364620276,191.06601091664925 168.29816495568957,191.69583620764024 168.67906433076132,192.57758838593145 169.0055495093111,193.20740906389256 169.15065403317567,193.45933679692098 169.2594824259868,193.66927633954037 169.47713921172544,193.96319134040095 170.07569537241943,195.24381610193814 170.42031861655414,195.76866002006864 170.58356120588724,196.18853419355582 171.43605028325692,197.88901586121938 171.56301674165297,198.22491181752412 171.83508772368077,198.72875472696614 172.4517819499597,200.1772962406394 172.9777858486632,201.2899371667154 173.12289037252776,201.70980010840867 173.26799489639234,202.04568984682555 173.26799489639234,202.12966219605005 173.2317187654553,202.2766137249273 173.03220004518516,202.54952342961042 172.7057148666354,202.82243277340604 172.21598709875252,203.1163347401889 169.7673482594546,204.4178955626994 169.22320629504975,204.77477370930137 168.62465013435576,205.0266873237124 167.8809894497972,205.4675354091305 167.57264233671594,205.5724991002062 166.95594811043702,205.86639715128695 166.28483968786895,206.30724344337068 166.04904483654536,206.4122067073913 165.39607447944582,206.60114044831425 164.88820864609443,206.91602963213518 164.67055186035577,207.0 164.4347570091486,206.9790074111952 164.23523828899488,206.89503703480295 163.9268911757972,206.68511094425048 163.78178665193263,206.5381625538721 163.50971566978842,206.01334601995768 162.92929757456295,205.1736367901176 162.56653626507614,204.35491700211423 162.20377495558932,203.85108782621683 162.07680849719327,203.5571869056439 161.55080459837336,202.99037680563924 160.86155811022036,201.77277947602852 160.53507293167058,201.2899371667154 160.33555421140045,200.80709372789715 160.0272070983192,200.40822220908012 159.8639645089861,200.0093499194627 159.3379606101662,199.23259640652395 159.21099415188655,198.91769550100435 158.86637090775184,198.45583997033827 158.7394044494722,198.203918336294 158.52174766373355,197.91000937442004 158.28595281252638,197.49013870306953 158.01388183038216,197.1962287248898 157.41532566968817,196.16754050519376 157.19766888394952,195.8946223618259 156.88932177086826,195.62170385754143 156.29076561005786,195.24381610193814 155.9824184969766,194.8239400064922 155.67407138389535,194.48803851517732 155.202481681481,194.15213647705968 154.38626873504836,193.3333729688893 153.95095516345464,192.99746905149368 153.64260805037338,192.66156458739715 152.73570477659814,192.01074813237938 152.30039120523725,191.61185961322917 152.08273441938218,191.33893544538296 151.53859245509375,190.94004562770715 151.33907373494003,190.75109755038284 151.10327888373286,190.62513206929725 150.59541305026505,190.12126937610446 149.7792001038324,189.44945053820265 148.92671102646273,188.86160726101662 148.43698325857986,188.3577402621304 148.31001680030022,188.16878982030903 148.00166968710255,187.97983920550905 147.80215096683241,187.74889933028317 147.6026322466787,187.4759700535942 147.53007998480462,187.2870188045199 147.38497546094004,187.07707276922883 147.27614706812892,186.82513724494493 147.0766283478588,186.57320141306263 146.94966188957915,186.32126527365472 146.73200510372408,184.93561100872466 146.87710962758865,184.38974465269712 147.29428513359744,183.50795748895325 147.54821805015672,183.27701260904723 147.7658748360118,182.9830823881348 147.98353162175044,182.79412702503032 148.27374066924676,182.4792010353267 148.58208778232802,182.20626478882332 148.96298715739977,181.72337669908302 149.43457685981411,181.30347309377976 149.99685688968748,180.88356863407535 150.64982724678703,180.1067431307747 151.9194918301655,178.97299255279358 152.3548054015264,178.70005166853662 152.40921959804837,178.61606978533382 152.49990992539097,178.15416881676356 152.39108153257985,177.90222239811555 152.15528668137267,176.97841623095155 151.84693956829142,176.43252882435627 151.7562492408324,176.20157602528343 151.70183504442684,175.69767811181373 151.59300665161572,175.1727831432363 151.59300665161572,174.81585380189063 151.53859245509375,174.54290741842124 151.08514081826434,173.28315019991715 150.84934596705716,172.88422547724622 150.75865563959815,172.65326870627177 150.64982724678703,171.96039684217249 150.55913691944443,171.6664504999062 150.55913691944443,171.24652642734873 150.46844659210183,170.9105865538877 150.30520400276873,170.53265354239556 150.12382334808353,169.58781798482232 149.97871882410254,169.1678896814119 149.90616656222846,168.4960026180779 149.74292397301178,167.76112363715947 149.74292397301178,167.48816792036814 149.7792001038324,167.17321856760827 149.63409558008425,166.62730521724734 149.56154331809375,166.22836762457155 149.43457685981411,165.15753132432292 149.36202459794004,164.84257841354702 149.34388653247152,164.1706772633479 149.1625058776699,163.2468096086668 149.12622974673286,162.889859634015 149.01740135392174,162.34393494862888 149.05367748474237,161.44105633687286 148.9992632883368,160.58016839888296 148.8904348955257,160.01324023380585 148.8904348955257,159.46730793552706 148.8178826336516,158.71139929117635 148.78160650259815,157.9344902979792 148.8178826336516,157.5565335135325 148.8178826336516,156.82161556126084 148.78160650259815,155.519754475652 149.01740135392174,153.79792558100598 149.08995361579582,153.58794546419813 149.325748467003,153.20998071535723 149.4889910563361,153.06299423702876 149.63409558008425,153.0 149.79733816941734,153.04199616017286 150.32334206823725,153.27297488824115 150.92189822893124,153.2939729415666 151.01258855639026,153.33596904188744 150.99445049080532,153.3779651336663 150.90376016346272,153.41996121688862 150.50472272292245,153.39896317636885 150.0331330205081,153.3149709928257 149.74292397301178,153.20998071535723 149.65223364566918,153.27297488824115 149.61595751461573,153.3779651336663 149.5978194491472,153.50395335762005 149.65223364566918,153.60894348550937" stroke="#ff7f00" stroke-linecap="round" stroke-linejoin="round" stroke-width="0.5"><title>2025-10-14 6.9km</title><desc>17538333076</desc></polyline><polyline fill="none" points="37.72858593624551,215.958740350703 37.72858593624551,216.01851258968236 37.59804489801172,215.958740350703 37.754694143659435,216.10817092610523 37.91134338953998,216.13805703242542 38.12020905071404,216.07828481690376 38.22464188106824,215.98862647163332 37.91134338953998,215.958740350703 37.44139565236401,216.07828481690376 37.31085461413022,216.01851258968236 37.232529991073534,215.958740350703 37.04977253777906,215.3012449563248 37.023664330132306,214.6437481554167 36.919231499545276,214.10579518138547 36.97144791483879,213.86670466841315 37.15420536824968,213.7471593421942 37.91134338953998,213.59772761908243 39.34729480929673,213.53795490946504 39.791134338942356,213.44829582321108 40.31329849152826,213.23909118704614 41.749249911285006,213.02988640853437 42.24530585622415,213.0 42.95022746222094,213.0 43.159093123394996,213.05977281424566 43.655149068217725,213.32875033433083 43.94233935221564,213.59772761908243 44.229529636213556,214.04602257048828 44.36007067433093,214.46443060203455 44.33396246668417,215.65987898223102 44.542828127741814,217.42315685655922 44.56893633538857,217.87144622887718 44.4906117124483,219.06688135876902 44.56893633538857,219.51516833383357 44.62115275056567,220.6209400772059 44.4383952972712,221.84625006577699 44.56893633538857,222.8623570833879 44.62115275056567,223.96811678618542 44.62115275056567,224.35662600782234 44.516719920095056,224.71524946892168 44.4906117124483,225.49226553260814 44.33396246668417,225.9106579842337 44.229529636213556,226.3290498663264 44.46450350480154,227.49456710676895 44.4906117124483,227.91295683319913 44.4383952972712,228.45088564470643 44.516719920095056,228.89915893532452 44.4383952972712,229.5566252457793 44.4383952972712,230.03478167930734 44.4906117124483,230.75201493513305 44.4383952972712,231.230169509392 44.4383952972712,232.00716910636402 44.4906117124483,233.38185589041677 44.386178881977685,234.72665223121294 43.94233935221564,235.56341142999008 43.57682444539387,235.8024850685324 42.63692897069268,236.6392413393187 41.93200736469589,237.38634322793223 40.887679059407674,238.940309341182 40.496055944939144,239.65752182138385 40.07832462282386,240.6138025256223 39.97389179235324,241.30112744463258 39.73891792376526,242.43670437924447 39.37340301682707,243.0642582543369 39.37340301682707,243.27344259468373 39.45172763976734,243.42285989352968 39.4778358474141,243.60216055632918 39.34729480929673,244.49866230168846 39.268970186356455,244.85726226802217 39.112320940592326,245.27562836671132 39.033996317652054,245.72387712649652 38.82513065659441,246.23189159765025 38.77291424141731,246.7697883580695 38.66848141083028,246.97897017744253 38.485723957419395,246.91920395783382 38.720697826123796,246.82955460669473 39.45172763976734,246.97897017744253 39.58226867788471,247.0686194850132 39.68670150835533,247.2180349396367 39.7128097161185,247.4570995158865 39.503944055060856,248.2041751188226 39.268970186356455,248.56277076352853 39.164537356002256,249.01101473119343 39.06010452529881,250.02703197218943 38.95567169471178,250.74421859162976 38.92956348718144,251.3119901456812 38.981779902474955,251.73034746205667 38.66848141083028,252.5072952537157 38.485723957419395,253.04518103646114 38.45961574988905,253.4336535166076 38.45961574988905,253.79224306269316 38.27685829636175,254.68871509845485 38.06799263530411,255.43577313178685 37.963559804833494,256.4816513294645 37.59804489801172,258.8423347568314 37.59804489801172,259.0813902959635 37.676369520951994,259.4399732561724 37.62415310565848,260.0674924304767 37.363071029423736,260.6053649891692 37.180313575896434,261.6512256048736 36.50150017742999,263.8923435183533 36.42317555460613,264.04175079861307 36.0315524401376,264.5198536074313 35.613821118022315,265.29676908662077 35.37884724943433,265.8943950427347 35.40495545708109,266.10356385301566 35.666037533432245,266.3127325209789 36.94533970730845,266.9402376714861 37.12809716060292,267.0 37.49361206754111,266.9402376714861 37.650261313305236,266.76095061629894 37.91134338953998,265.9242763100483 37.989668012363836,265.4760569953942 38.53794037271291,264.4003279749304 38.85123886435758,263.38435822274187 38.90345527953468,262.96601676093997 39.08621273294557,262.24885864538373 39.425619432120584,261.5316988573468 39.503944055060856,261.2926452230604 39.4778358474141,261.0237096622586 39.19064556341618,260.42607424076414 39.19064556341618,260.24678338787635 39.53005226270761,259.8284376579395 39.765026131412014,259.380209458468 39.9477835848229,258.5733970531728 40.4177313222317,257.67693634243915 40.5221641525859,257.1988228946866 40.7049216061132,255.6449490558589 40.57438056799583,254.3898913769226 40.80935443658382,253.22447608824586 40.835462644230574,252.95553347145324 40.835462644230574,252.20846941234777 40.731029813643545,251.8498780192749 40.731029813643545,251.3119901456812 40.861570851760916,250.80398406775203 40.939895474817604,250.08679758771905 41.09654472046532,249.57878948561847 41.09654472046532,249.25007791348617 41.227085758699104,248.68230255210074 41.20097755105235,247.93522811087314 41.43595141975675,247.0686194850132 41.566492457757704,245.30551163773634 41.82757453422528,244.34924552575103 41.93200736469589,243.66192742067506 42.03644019528292,243.27344259468373 42.08865661046002,242.85507377167232 42.37584689434152,241.7493819988158 42.79357821657322,240.67356997088064 43.446283407276496,239.74717326372047 43.602932653040625,239.2690319356625 43.785690106335096,238.16332726637484 43.785690106335096,237.7748354926007 43.62904086068738,237.38634322793223 43.367958784336224,237.08750269032316 43.34185057680588,237.02773454796989 44.12509680562653,236.7587777634326 44.17731322092004,236.66912544966908 44.17731322092004,236.31051593308803 44.30785425903741,235.83236926031532 44.2556378437439,235.8024850685324 44.28174605150707,235.7726008738391 44.2556378437439,235.86225344912964 44.30785425903741,235.86225344912964 44.2556378437439,235.74271667632274 44.30785425903741,235.74271667632274 44.229529636213556,235.83236926031532 43.9684475598624,235.35422184379422 44.0206639750395,235.11514785676263 44.229529636213556,234.51746207565884 44.33396246668417,232.78416673961328 44.17731322092004,231.3795926613093 44.2034214285668,230.2738596170966 44.30785425903741,229.5865100446099 44.229529636213556,228.80950432943064 44.33396246668417,228.06238159743953 44.2556378437439,227.49456710676895 44.229529636213556,226.62790086204768 43.785690106335096,226.7175561041513 43.05466029280797,227.01640672216308 42.63692897069268,227.07617681086413 42.21919764857739,227.07617681086413 41.48816783493385,227.22560198194697 40.80935443658382,227.2554870074091 40.5221641525859,227.22560198194697 40.4177313222317,227.10606185090728 40.2349738687044,226.2991647507297 40.26108207623474,225.79111734189792 40.15664924576413,225.0439872739953 40.15664924576413,224.2669700772385 40.0522164151771,223.4600655248214 40.10443283058703,222.50373146063066 40.0522164151771,222.05544884395204 39.843350754119456,221.6968222798023 39.817242546589114,221.51750884091598 39.60837688553147,221.30830969661474 39.39951122459024,221.03933915903326 38.66848141083028,220.38185463190894 38.12020905071404,219.99334038674715 37.963559804833494,219.81402595405234 37.91134338953998,219.63471141675836 37.83301876671612,219.5749398811313 37.989668012363836,218.31973494734848 38.06799263530411,218.05076179475873 38.09410084306728,217.66224460309604 38.590156788006425,217.6024726839678 38.66848141083028,217.51281478328747 38.642373203183524,217.42315685655922 38.45961574988905,216.94498080541962 38.40739933447912,216.61623433884233" stroke="#4dd2ff" stroke-linecap="round" stroke-linejoin="round" stroke-width="0.5"><title>2025-09-30 4.8km</title><desc>17538333066</desc></polyline></svg>