<?xml version="1.0" encoding="utf-8" ?>
<svg baseProfile="full" height="300mm" version="1.1" viewBox="0,0,200,300" width="200mm" xmlns="http://www.w3.org/2000/svg" xmlns:ev="http://www.w3.org/2001/xml-events" xmlns:xlink="http://www.w3.org/1999/xlink"><defs /><rect fill="#222222" height="300" width="200" x="0" y="0" /><text fill="#FFFFFF" style="font-size:12px; font-family:Arial; font-weight:bold;" x="10" y="20">Over 5km Runs</text><text fill="#FFFFFF" style="font-size:4px; font-family:Arial" x="10" y="280">Runner</text><text fill="#FFFFFF" style="font-size:9px; font-family:Arial" x="10" y="290">Zheng</text><text fill="#FFFFFF" style="font-size:4px; font-family:Arial" x="65" y="280">SPECIAL TRACKS</text><rect fill="yellow" height="2.6" width="2.6" x="65" y="283" /><text fill="#FFFFFF" style="font-size:3px; font-family:Arial" x="70" y="285.5">Over 20.0 km</text><rect fill="red" height="2.6" width="2.6" x="65" y="287" /><text fill="#FFFFFF" style="font-size:3px; font-family:Arial" x="70" y="289.5">Over 40.0 km</text><text fill="#FFFFFF" style="font-size:4px; font-family:Arial" x="120" y="280">STATISTICS</text><text fill="#FFFFFF" style="font-size:3px; font-family:Arial" x="120" y="285">Number: 1</text><text fill="#FFFFFF" style="font-size:3px; font-family:Arial" x="120" y="290">Weekly: 1.0</text><text fill="#FFFFFF" style="font-size:3px; font-family:Arial" x="141" y="285">Total: 6.0 km</text><text fill="#FFFFFF" style="font-size:3px; font-family:Arial" x="141" y="290">Avg: 6.0 km</text><text fill="#FFFFFF" style="font-size:3px; font-family:Arial" x="167" y="285">Min: 6.0 km</text><text fill="#FFFFFF" style="font-size:3px; font-family:Arial" x="167" y="290">Max: 6.0 km</text><polyline fill="none" points="19.0,139.92638117424212 19.949748743791133,138.71444805443753 25.64824120560661,133.866707169218 28.904522613156587,132.65476984647103 32.025125628337264,131.13984701118898 34.19597989926115,130.53387750929687 37.180904522538185,130.23089267977048 38.402010049670935,128.8674602966057 39.08040201012045,128.71596774365753 39.894472362007946,128.71596774365753 41.79396984912455,129.47343037568498 43.82914572907612,129.77641533722635 45.86432160809636,128.2614900066983 49.66331658279523,126.74656336323824 51.969849246088415,125.38312826084439 54.819095477461815,124.47417093522381 57.532663316465914,122.95924100861885 58.889447235967964,122.5047617747914 60.110552763566375,122.5047617747914 61.331658291164786,122.80774794390891 62.28140703495592,123.56521313707344 64.18090452160686,125.8376067468198 66.08040201012045,127.04954879672732 67.70854271342978,129.32193787570577 68.79396984959021,132.3517853844678 70.55778894433752,132.9577542557381 71.77889447240159,134.77565960923675 72.32160804001614,135.078643650515 75.98492462281138,133.26073861250188 80.73366834176704,129.9279077978572 87.11055276403204,126.89805608673487 89.5527638187632,125.98909954889677 95.25125628151,122.65625486604404 96.06532663293183,122.5047617747914 97.15075376816094,122.80774794390891 97.9648241205141,124.32267800171394 99.3216080404818,125.53462110285182 101.62814070330933,124.17118505493272 102.8492462313734,124.01969209534582 104.20603015040979,124.92864965740591 105.4271356780082,126.14059233781882 108.27638190984726,130.83686228678562 108.95477386889979,133.26073861250188 109.36180904507637,137.95698942709714 109.90452261222526,140.3808558776509 110.58291457267478,141.7442792786751 111.39698492363095,142.8047189664794 113.16080401977524,143.71366675780155 114.65326633118093,144.31963168969378 120.08040200965479,144.62261407682672 121.57286432106048,145.22857869311702 122.79396984912455,146.5919983125059 125.50753768812865,150.2277787628118 129.30653266282752,154.16653238225263 132.15577889420092,155.22696453216486 134.59798994939774,155.68143525684718 137.31155778840184,157.04484672134276 142.60301507543772,163.7103985688882 145.04522613016888,166.43720790650696 147.0804020096548,167.95210014504846 148.84422110533342,168.25507843494415 156.57788944710046,167.04316495964304 157.66331658279523,167.3461434073979 157.93467336613685,167.64912180253305 158.2060301504098,168.40656756050885 157.5276381908916,170.0729470725637 156.84924623090774,170.52741393644828 154.81407035095617,171.2848584469175 153.1859296481125,172.3452802102547 151.8291457281448,173.8601673276862 151.42211055243388,174.92058752896264 151.28643216053024,176.58696083002724 153.32160803955048,188.85747894400265 154.0,190.37235174910165 155.08542713569477,191.8872232416179 156.17085427138954,192.49317147070542 158.07035175850615,192.94763250497635 160.10552763845772,192.49317147070542 161.4623115574941,191.43276193144266 162.14070351747796,190.82681333483197 162.68341708509251,189.31194092333317 162.9547738688998,187.79706719901878 162.54773869272321,185.37326650868636 161.19095477368683,179.46523824462201 160.37688442179933,174.76909896801226 159.69849246228114,173.25421263836324 158.74874371802434,172.04230262956116 157.7989949742332,171.43634730996564 156.44221105473116,170.98188068240415 154.40703517524526,171.1333695712965 153.1859296481125,171.73932499601506 151.6934673357755,173.25421263836324 151.15075376816094,174.92058752896264 151.0150753762573,175.82951861724723 151.15075376816094,179.01077370520215 152.10050251195207,187.79706719901878 152.91457286383957,190.2208645278588 154.40703517524526,192.038710318855 155.8994974871166,193.09911949024536 158.47738693421707,193.2506064621266 159.42713567754254,192.94763250497635 161.73366834083572,191.43276193144266 163.09045226033777,189.76640278473496 163.09045226033777,187.79706719901878 162.54773869272321,184.31285264971666 162.14070351747796,179.46523824462201 161.73366834083572,177.95035598578397 161.19095477368683,176.88993762328755 160.7839195979759,174.61761039390694 160.10552763845772,173.1027239332907 159.56281406991184,172.3452802102547 157.3919597985223,171.2848584469175 156.17085427138954,170.83039178012405 154.6783919595182,170.98188068240415 152.91457286383957,171.8908138195984 151.42211055243388,173.70867867488414 150.879396983888,174.76909896801226 150.74371859291568,176.2839839841472 151.9648241205141,185.82772939431015 152.77889447193593,189.61491551063955 153.32160803955048,190.52383895753883 155.08542713569477,192.19019738258794 157.25628140661865,193.2506064621266 158.34170854231343,193.55358036677353 160.10552763845772,192.79614550701808 161.5979899498634,191.58424904814456 162.2763819093816,190.6753261530539 162.81909547699615,188.85747894400265 161.19095477368683,179.01077370520215 159.69849246228114,173.8601673276862 158.88442211039364,172.79974648356438 157.7989949742332,171.8908138195984 156.17085427138954,171.2848584469175 154.40703517524526,171.1333695712965 153.05025125620887,171.5878361593932 152.23618090432137,172.49676898133475 151.42211055243388,173.8601673276862 151.15075376816094,175.9810070862295 152.10050251195207,183.7069015847519 153.32160803955048,189.91789004555903 154.27135678380728,191.2812748021679 156.17085427138954,192.49317147070542 157.7989949742332,192.79614550701808 160.10552763845772,192.34168443328235 160.9195979894139,191.8872232416179 162.14070351747796,190.52383895753883 162.9547738688998,188.85747894400265 163.09045226033777,187.64557975449134 162.00502512510866,181.43458321830258 161.5979899498634,176.2839839841472 160.37688442179933,172.49676898133475 159.83417085371912,172.04230262956116 157.25628140661865,170.67890286503825 154.6783919595182,170.52741393644828 153.32160803955048,170.98188068240415 151.9648241205141,172.04230262956116 150.74371859291568,173.8601673276862 150.47236180864275,175.22356461070012 150.47236180864275,180.07119078107644 151.9648241205141,189.0089662837563 152.507537687663,190.2208645278588 154.0,192.34168443328235 154.6783919595182,192.94763250497635 156.03517587902024,193.4020934208529 157.7989949742332,193.4020934208529 160.37688442179933,192.79614550701808 161.5979899498634,191.8872232416179 162.54773869272321,190.82681333483197 163.09045226033777,189.61491551063955 163.49748743698,187.79706719901878 162.00502512510866,179.91970266634598 161.4623115574941,175.9810070862295 160.9195979894139,174.16314459370915 160.24120602943003,172.6482577387942 159.02010050183162,171.5878361593932 157.7989949742332,170.98188068240415 156.30653266329318,170.67890286503825 154.40703517524526,170.67890286503825 153.05025125620887,171.1333695712965 151.42211055243388,172.3452802102547 151.15075376816094,172.79974648356438 150.74371859291568,174.92058752896264 150.47236180864275,176.88993762328755 151.0150753762573,180.67714310646988 153.1859296481125,189.76640278473496 153.59296482335776,190.6753261530539 154.6783919595182,191.8872232416179 156.03517587902024,192.6446584953228 156.98492462281138,192.94763250497635 158.6130653261207,192.94763250497635 160.7839195979759,192.038710318855 162.41206030081958,190.6753261530539 163.22613065270707,188.7059915913269 163.09045226033777,185.52475415042136 160.6482412056066,174.76909896801226 159.29145728657022,172.6482577387942 157.93467336613685,171.5878361593932 156.44221105473116,170.83039178012405 155.08542713569477,170.67890286503825 153.1859296481125,171.1333695712965 151.9648241205141,172.1937914264854 151.15075376816094,173.55719000927638 150.879396983888,175.52654164016712 151.28643216053024,180.98011919064447 151.8291457281448,184.61582810396794 152.23618090432137,185.97921699658036 152.6432160800323,189.0089662837563 153.05025125620887,190.37235174910165 154.13567839143798,191.8872232416179 156.57788944710046,193.09911949024536 159.83417085371912,192.94763250497635 162.68341708509251,190.82681333483197 163.22613065270707,190.0693772933446 163.633165828418,188.55450422526337 162.68341708509251,184.46434038353618 162.2763819093816,181.28309522243217 162.00502512510866,179.91970266634598 161.73366834083572,177.04142600041814 161.19095477368683,174.16314459370915 160.6482412056066,172.95123521529604 158.88442211039364,171.1333695712965 157.93467336613685,169.61848009028472 157.7989949742332,168.55805667256936 157.93467336613685,167.4976326113101 159.02010050183162,167.04316495964304 162.9547738688998,166.28571861085948 165.5326633155346,165.37678255862556 168.5175879392773,164.61933548771776 170.9597989944741,163.86188808828592 178.69346733624116,162.64997156627942 179.7788944724016,161.89252331329044 181.0,159.92315631953534 180.8643216076307,158.25676712975837 179.7788944724016,153.86355164973065 179.7788944724016,149.77330662042368 179.507537687663,148.56138032895979 178.9648241205141,147.65243505849503 176.79396984912455,146.13752522401046 173.80904522538185,144.77410525048617 171.2311557782814,143.25919292098843 162.68341708509251,139.77488958032336 158.6130653261207,137.50251409364864 156.03517587902024,135.38162764010485 152.507537687663,130.83686228678562 150.33668341627344,125.53462110285182 148.57286432152614,123.41372012440115 146.9447236182168,119.77788388787303 145.72361809015274,118.1114564180607 143.82412060257047,114.02112770918757 141.65326633118093,111.59722469712142 140.70351758785546,111.44573064695578 140.0251256278716,110.83975431590807 137.31155778840184,107.50688074028585 136.0904522612691,106.44641963311005 134.4623115574941,107.35538633563556 132.83417085371912,107.96136387484148 129.44221105519682,110.38527193001937 122.92964824056253,113.2636583786225 117.09547738637775,116.59652097569779 114.65326633118093,118.26294988987502 113.29648241214454,118.71743022743613 107.19095477368683,122.35326867026743 105.4271356780082,122.95924100861885 104.34170854231343,123.11073406040668 103.25628140661865,120.9898301406065 102.17085427138954,119.92937721544877 99.3216080404818,121.44430976896547 97.9648241205141,121.74729612190276 96.06532663293183,123.41372012440115 93.62311557726935,124.32267800171394 90.23115577828139,126.44357787678018 81.81909547699615,130.68536990473513 79.78391959751025,132.3517853844678 76.93467336660251,133.71521504956763 74.76381909521297,135.83610352571122 72.1859296481125,137.50251409364864 71.1005025128834,138.10848117864225 68.92964824056253,138.10848117864225 64.72361809015274,139.92638117424212 61.06030150735751,142.19875350920483 55.36180904507637,145.07708755880594 53.190954773686826,146.74348931538407 52.78391959797591,146.74348931538407 52.24120602989569,146.28901626670267 51.42713567754254,144.77410525048617 50.74874371802434,144.01664925005753 50.74874371802434,142.95621029788163 49.79899497516453,141.2898049299838 49.391959798987955,140.07787275512237 46.00000000046566,135.68461157684214 44.37185929669067,132.04880086996127 43.82914572907612,131.745816302835 42.06532663339749,132.3517853844678 40.4371859296225,131.44283168320544 38.94472361821681,132.20029313350096" stroke="#4DD2FF" stroke-linecap="round" stroke-linejoin="round" stroke-width="0.5"><title>2026-02-23 6.0km</title><desc>17493745395</desc></polyline></svg>