<?xml version="1.0" encoding="utf-8" ?>
<svg baseProfile="full" height="300mm" version="1.1" viewBox="0,0,200,300" width="200mm" xmlns="http://www.w3.org/2000/svg" xmlns:ev="http://www.w3.org/2001/xml-events" xmlns:xlink="http://www.w3.org/1999/xlink"><defs /><rect fill="#222222" height="300" width="200" x="0" y="0" /><text fill="#FFFFFF" style="font-size:12px; font-family:Arial; font-weight:bold;" x="10" y="20">Over 3km Runs</text><text fill="#FFFFFF" style="font-size:4px; font-family:Arial" x="10" y="280">Runner</text><text fill="#FFFFFF" style="font-size:9px; font-family:Arial" x="10" y="290">Zheng</text><text fill="#FFFFFF" style="font-size:4px; font-family:Arial" x="65" y="280">SPECIAL TRACKS</text><rect fill="yellow" height="2.6" width="2.6" x="65" y="283" /><text fill="#FFFFFF" style="font-size:3px; font-family:Arial" x="70" y="285.5">Over 5.0 km</text><rect fill="red" height="2.6" width="2.6" x="65" y="287" /><text fill="#FFFFFF" style="font-size:3px; font-family:Arial" x="70" y="289.5">Over 10.0 km</text><text fill="#FFFFFF" style="font-size:4px; font-family:Arial" x="120" y="280">STATISTICS</text><text fill="#FFFFFF" style="font-size:3px; font-family:Arial" x="120" y="285">Number: 7</text><text fill="#FFFFFF" style="font-size:3px; font-family:Arial" x="120" y="290">Weekly: 1.4</text><text fill="#FFFFFF" style="font-size:3px; font-family:Arial" x="141" y="285">Total: 40.4 km</text><text fill="#FFFFFF" style="font-size:3px; font-family:Arial" x="141" y="290">Avg: 5.8 km</text><text fill="#FFFFFF" style="font-size:3px; font-family:Arial" x="167" y="285">Min: 3.2 km</text><text fill="#FFFFFF" style="font-size:3px; font-family:Arial" x="167" y="290">Max: 10.6 km</text><polyline fill="none" points="13.375434530433267,34.943489252764266 13.625724217388779,36.36373293364886 13.688296639360487,38.18975738622248 13.625724217388779,40.48919056565501 13.250289686955512,42.38283721753396 13.625724217388779,47.184567071148194 13.750869061099365,53.67700807086658 13.31286210869439,62.94218515936518 13.375434530433267,66.3236140240333 13.125144843244925,67.40566870529437 13.0,68.21720890305005 13.125144843244925,68.8934918687446 13.563151796115562,70.04317179997452 14.126303591998294,70.92233786225552 15.002317497041076,71.66624696855433 16.44148319796659,72.34252746606944 16.378910776227713,72.88355151575524 15.940903823589906,73.01880747964606 15.628041714662686,73.69508700922597 15.440324449446052,74.57424967421684 15.377752027707174,75.65629490837455 15.565469292690977,76.73833890358219 16.75434530689381,80.11971840343904 17.004634993849322,81.81040361634223 17.192352259298787,82.21616761747282 17.943221320630983,82.96006783377379 19.820393974427134,84.04210346646141 21.009269988164306,83.97447627579095 23.199304750654846,83.70396746433107 27.391657010186464,82.62193144444609 29.70683661615476,82.55430415202864 30.833140208385885,81.94565830286592 34.65005793701857,79.10530582384672 35.213209733134136,78.63191291398834 35.7763615292497,77.68512638297398 36.15179606014863,75.65629490837455 37.465816917596385,73.15406342432834 37.7161066045519,72.00438727793517 37.90382387000136,69.29926141595934 38.02896871371195,68.8934918687446 39.28041714942083,67.06752675032476 40.46929316339083,65.917843199044 42.28389339498244,63.55084324796917 43.159907300025225,62.87455645867158 45.9130938583985,61.25146618951112 46.85168018518016,60.57517775456654 47.852838933700696,59.69600206555333 49.792584009235725,57.396615626930725 55.98725376604125,52.18916094861925 61.493626883020625,46.914047728001606 62.61993047501892,46.17011913523311 63.683661645511165,45.0880401362665 65.49826187710278,43.73543964495184 66.74971031281166,42.38283721753396 66.87485515652224,42.38283721753396 67.0,42.85624828742584 66.87485515652224,43.19439890637295 66.37427578214556,44.005959898233414 65.31054461165331,45.155670110019855 64.18424101965502,46.10248923389008 61.806488991715014,47.59034594055265 60.179606025340036,48.87531121092616 57.86442641913891,51.174718385678716 55.736964078620076,52.86545538553037 54.04750869050622,54.691447947290726 51.10660486645065,56.99084096879233 44.03592120506801,63.34795726201264 42.90961761283688,64.90341537457425 41.34530706820078,66.52649937110255 40.78215527208522,67.40566870529437 39.53070683637634,70.51656901213573 38.59212050959468,73.28931934951106 37.90382387000136,74.70950539631303 32.397450753021985,81.40463944117073 29.76940903812647,84.31261218106374 26.953650057781488,84.5154936662293 26.453070683637634,84.65074796555564 22.886442641494796,84.78600224544061 21.071842409903184,85.05651074717753 20.32097334880382,84.98888362891739 18.568945538485423,83.83922187966527 17.44264194648713,82.82481329247821 17.192352259298787,82.41904955275822 17.192352259298787,81.94565830286592 16.75434530689381,80.99887509155087 15.50289687118493,80.05209093197482 15.127462340518832,79.64632600161713 14.87717265309766,78.7671680553467 15.064889918547124,75.99443378986325" stroke="#4dd2ff" stroke-linecap="round" stroke-linejoin="round" stroke-width="0.5"><title>2026-03-10 3.2km</title><desc>17665858677</desc></polyline><polyline fill="none" points="133.0,50.36226932879072 133.828644501511,49.796845249366015 134.2890025577508,49.59123635926517 135.20971867023036,49.539834125724155 135.48593350406736,49.59123635926517 135.62404092075303,49.694040813308675 135.99232736602426,50.41367149120197 136.2685421993956,51.39031172846444 137.2352941178251,52.36695035704179 137.78772378526628,53.34358737710863 138.34015345270745,54.73143721721135 139.07672634278424,55.605266931524966 139.62915601045825,56.68470185942715 139.9974424552638,56.99311147799017 140.5959079284221,57.19871780119138 141.0562659848947,57.14731622702675 141.88491048617288,56.83890668867389 142.39130434812978,56.47909535799408 143.21994884917513,56.11928380886093 144.2327365730889,55.29685659118695 144.87723785173148,54.93704432476079 145.56777493632399,54.73143721721135 146.21227621496655,54.73143721721135 146.71867007692344,54.98844609037042 147.7774936063215,55.91367711155908 148.1918158568442,56.530496990075335 148.56010230188258,57.19871780119138 149.94117647060193,59.100572910916526 150.26342711015604,59.71738947427366 151.92071611247957,58.432354243064765 152.84143222519197,57.96974087820854 153.8081841431558,57.30152093607467 157.35294117662124,55.39966005581664 158.04347826121375,54.88564255461097 158.3657289003022,54.78283900086535 158.8721227622591,55.8108737358707 159.1943734018132,56.11928380886093 159.42455242970027,56.06788214133121 160.20716112526134,55.502463502576575 160.39130434789695,55.45106178132119 160.66751918173395,55.55386521940818 161.2199488489423,56.06788214133121 162.55498721217737,58.22674834774807 162.78516624076292,59.04917150159599 162.83120204601437,60.02579751540907 163.06138107413426,61.20802685362287 163.24552429676987,61.77344005170744 163.38363171368837,61.92764355771942 163.79795396421105,62.287451582204085 164.94884910504334,62.75006157858297 165.68542199512012,62.75006157858297 166.0997442456428,62.85286375094438 166.83631713571958,63.41827538079815 168.81585677759722,65.62851566937752 169.3682864450384,65.83411899831844 170.56521739135496,66.14252385811415 171.85421994887292,66.7593330963864 173.28132992330939,68.1471515368321 175.26086956518702,70.51157547323965 175.53708439902402,70.66577670676634 175.8132992326282,70.71717710915254 177.47058823541738,70.35737419960788 178.20716112526134,70.04897153179627 178.80562659865245,69.89477013784926 181.47570332488976,69.74056870368076 185.02046035812236,68.86675981985172 186.40153452684171,68.81535925721982 186.7698209718801,68.60975696175592 186.9539641942829,68.24995277350536 186.9539641942829,67.73594641155796 186.67774936067872,66.6565316010965 186.5856777492445,65.93692063592607 186.63171355519444,64.24069133412559 186.53964194352739,63.88088449486531 186.30946291564032,63.46967641124502 185.11253196932375,62.85286375094438 183.91560102277435,62.0818470234517 182.21227621473372,61.31082929339027 180.69309462909587,60.848218174127396 179.5421994884964,60.12860016018385 177.93094629165716,58.58655861800071 177.10230179014616,57.14731622702675 175.90537084406242,55.34825832565548 175.07672634278424,53.90900807449361 174.66240409202874,53.4463911804487 174.24808184150606,53.24078355601523 173.78772378526628,53.189381638832856 172.86700767255388,53.600596851843875 171.90025575459003,54.83424077986274 171.53196930955164,55.091249608492944 170.79539641947486,54.88564255461097 169.32225063932128,53.85760621528607 168.723785166163,53.24078355601523 168.03324808203615,52.212744364805985 167.80306905368343,52.0585383324069 167.57289002556354,52.109940347785596 166.97442455240525,52.521156309347134 165.77749360608868,53.08657779102214 165.13299232744612,53.5491949658026 164.99488491052762,53.703400610538665 164.99488491052762,53.90900807449361 165.13299232744612,54.32022278837394 165.5473145779688,54.88564255461097 165.639386189403,56.633300240850076 165.5012787724845,57.60993023373885 164.94884910504334,59.25477711186977 164.39641943736933,60.23140278708888 164.12020460353233,60.591211840859614 163.47570332488976,60.7968169162632 163.29156010225415,61.00242192065343 163.29156010225415,61.31082929339027 163.47570332488976,61.82484122476308 164.02813299233094,62.287451582204085 164.67263427120633,62.5444571802509 166.23785166232847,62.80146266700467 166.65217391308397,63.00706697622081 167.34271099744365,63.67528048873646 168.81585677759722,65.52571397810243 169.32225063932128,65.83411899831844 170.28900255751796,66.24532544228714 171.30179028143175,66.6051308469032 171.71611253195442,66.81073383725015 172.9590792839881,67.73594641155796 174.80051150894724,69.94617060694145 175.3529411763884,70.46017505315831 175.62915601045825,70.61437630007276 176.5959079284221,70.71717710915254 177.24040920706466,70.61437630007276 178.43734015338123,70.25457332812948 179.6803069054149,70.04897153179627 181.24552429676987,70.04897153179627 182.35038363165222,69.6377677253331 183.363171355566,69.12376256642165 184.42199488496408,69.02096148114651 185.29667519195937,68.81535925721982 186.53964194352739,68.76395868998952 186.8618925830815,68.50695578748127 186.9539641942829,68.1471515368321 187.0,67.73594641155796 186.63171355519444,66.5023293250706 186.5856777492445,64.18929037050111 186.447570332326,63.77808250073576 185.80306905368343,63.16127016127575 183.1790281329304,61.77344005170744 180.55498721217737,60.7968169162632 179.5882352939807,60.23140278708888 178.85166240413673,59.35757989040576 177.60869565210305,58.17534686269937 177.14833759586327,57.45572560484288 176.5959079284221,56.37629208056023 175.53708439902402,54.83424077986274 174.20204603578895,52.67536222137278 173.46547314571217,51.698724100831896 172.4987212275155,50.05385626142379 172.22250639391132,49.43702964525437 172.08439897699282,49.28282289078925 171.80818414338864,49.38562739820918 170.38107416871935,50.36226932879072 168.8618925830815,51.13330129568931 168.53964194376022,51.13330129568931 168.26342711015604,51.03049709129846 167.98721227631904,50.51647580234567 167.52685422007926,50.15666063508252 166.65217391308397,50.41367149120197 164.94884910504334,51.236105482210405 162.96930946293287,52.469754329824354 162.5089514066931,53.08657779102214 160.66751918173395,54.01181177975377 159.37851662398316,54.88564255461097 157.39897698210552,55.91367711155908 156.70843989797868,56.37629208056023 154.6828644501511,57.35292249673512 151.552429667674,59.30617850337876 150.03324808203615,60.12860016018385 149.48081841436215,60.539810560876504 148.65217391308397,60.848218174127396 147.8235294118058,60.95102067629341 146.90281329955906,61.362230506609194 146.25831202045083,61.82484122476308 145.24552429676987,62.85286375094438 143.9565217392519,63.5210774372099 143.4961636827793,63.46967641124502 143.12787723797373,63.05846804234898 142.98976982105523,62.338852710672654 142.85166240413673,61.82484122476308 142.34526854241267,61.053823160531465 141.70076726353727,60.43700798728969 141.1943734018132,59.203375716053415 140.5959079284221,58.22674834774807 139.49104859353974,58.02114238101058 139.03069053706713,57.8155363429687 138.70843989797868,57.8155363429687 137.0051150897052,58.63796006742632 136.22250639414415,59.203375716053415 135.20971867023036,59.6659881186788" stroke="#4dd2ff" stroke-linecap="round" stroke-linejoin="round" stroke-width="0.5"><title>2026-02-24 4.7km</title><desc>17506081930</desc></polyline><polyline fill="none" points="13.0,116.6421270580613 13.316582914441824,116.23814935149858 15.21608040179126,114.62223572307266 16.301507537718862,114.21825661550974 17.341708542779088,113.71328233706299 18.06532663293183,113.51129250309896 19.06030150759034,113.41029755992349 19.467336683301255,112.95582009886857 19.693467336706817,112.90532258123858 19.964824120514095,112.90532258123858 20.597989949630573,113.15781012526713 21.27638190961443,113.25880511238938 21.954773869365454,112.75383000227157 23.22110552759841,112.24885445443215 23.98994974861853,111.79437608696753 24.93969849240966,111.49139031174127 25.84422110556625,110.98641366953962 26.29648241191171,110.83492059161654 26.70351758785546,110.83492059161654 27.110552763799205,110.93591598130297 27.42713567824103,111.18840437906329 28.060301507124677,111.9458689155872 28.693467336706817,112.3498495988897 29.236180904321373,113.10731262521585 29.597989949863404,114.1172617948032 30.185929648112506,114.31925141863758 30.592964824056253,114.92521986976499 30.773869346594438,115.02621455019107 31.99497487419285,114.4202462041867 33.57788944710046,113.30930259928573 35.70351758785546,112.29935202893103 36.51758793951012,111.99636651633773 38.41708542709239,110.88541828870075 38.688442210899666,110.83492059161654 39.050251255976036,110.93591598130297 39.321608040248975,111.44089266727678 39.77386934659444,111.84487370098941 40.542713567847386,111.39039501833031 40.94974874379113,111.33989736513468 41.402010050136596,111.64288321917411 41.80904522608034,112.04686411260627 42.758793969871476,113.61228742892854 42.98492462281138,114.4202462041867 43.12060301494785,115.98566314240452 43.30150753748603,116.79361862590304 43.527638190891594,117.2480930929305 43.79899497446604,117.60157298884587 44.386934673180804,117.90455558593385 44.88442211039364,118.10654389654519 46.69346733647399,118.20753802562831 47.190954773686826,118.40952623105841 47.59798994963057,118.86399943754077 48.50251256255433,120.0759262542706 49.76884422078729,121.38884412741754 50.71859296481125,121.74232151074102 51.532663316465914,121.8938117523212 52.43718592938967,122.34828224044759 54.2010050250683,124.57013285631547 55.01507537672296,125.47906930220779 55.69346733647399,125.98403338168282 56.28140703518875,126.08502614498138 58.85929648228921,125.68105498654768 59.22110552759841,125.78204780246597 59.31155778863467,125.88304060086375 59.402010050136596,126.13552252016962 59.175879396963865,126.69098235754063 58.9497487435583,126.84247131214943 58.27135678357445,127.09495281567797 57.72864321595989,127.44842673675157 57.2763819093816,127.95338910922874 57.14070351747796,128.30686250969302 57.09547738684341,128.86232027667575 57.77386934659444,132.95249298133422 57.99999999976717,133.4574505830533 58.3618090453092,133.96240774722537 58.72361809038557,134.16439049021574 59.35678391950205,134.3158775016782 60.035175879485905,134.16439049021574 60.48743718583137,133.81092064385302 60.7135678390041,133.60893777827732 60.894472361775115,133.10398030775832 60.98492462281138,132.59902239969233 60.84924623090774,131.79108883620938 60.396984924562275,129.82174608157948 60.12562814052217,128.25636632269016 59.899497487349436,127.75140421278775 59.58291457267478,127.34743420989253 59.26633165800013,127.14544910332188 58.814070351654664,126.99396022746805 58.13567839167081,127.0444565237849 57.72864321595989,127.24644166533835 57.23115577851422,127.75140421278775 57.050251255976036,128.30686250969302 57.00502512534149,128.6098395391018 57.050251255976036,129.67025790177286 57.36683417065069,132.59902239969233 57.63819095445797,133.4069548426196 58.13567839167081,134.01290343963774 58.63316582888365,134.36637316341512 59.49246231117286,134.41686882072827 59.80904522584751,134.3158775016782 60.57788944686763,133.81092064385302 61.03015075344592,133.25546759489225 61.03015075344592,132.59902239969233 60.84924623090774,131.43761754990555 60.7135678390041,129.82174608157948 60.57788944686763,129.31678532861406 60.396984924562275,128.96331254113466 60.26130653265864,128.20587013132172 60.035175879485905,127.70090797776356 59.85427135671489,127.44842673675157 59.13065326609649,127.09495281567797 58.72361809038557,126.94346392672742 58.2261306529399,126.99396022746805 57.63819095445797,127.29693793988554 57.14070351747796,127.90289289160864 56.959798994706944,128.25636632269016 56.91457286430523,128.76132799475454 57.321608040248975,131.94257646478945 57.59296482405625,133.20497183687985 57.77386934659444,133.5079463191796 58.3618090453092,134.0633991275099 59.08542713546194,134.41686882072827 59.44723618077114,134.51786012225784 60.035175879485905,134.2653818356921 60.532663316465914,133.86141634942032 60.758793969638646,133.55844205105677 60.93969849217683,132.95249298133422 60.396984924562275,129.67025790177286 59.899497487349436,127.95338910922874 59.62814070354216,127.59991549456026 59.26633165800013,127.29693793988554 58.72361809038557,127.09495281567797 58.13567839167081,127.0444565237849 57.683417085325345,127.1959453864838 57.41206030128524,127.49892299377825 57.14070351747796,127.95338910922874 57.050251255976036,128.66033569542924 57.36683417065069,131.23563386156457 57.77386934659444,133.30596334853908 58.09045226126909,133.76042493403656 58.72361809038557,134.16439049021574 59.26633165800013,134.2653818356921 60.035175879485905,134.11389481107472 60.30653266306035,133.96240774722537 60.7135678390041,133.5079463191796 60.98492462281138,132.95249298133422 61.03015075344592,132.54852658486925 60.66834170836955,130.47819440613966 60.532663316465914,128.76132799475454 60.12562814052217,127.49892299377825 59.94472361775115,127.34743420989253 59.08542713546194,126.89296762167942 58.2261306529399,126.84247131214943 57.77386934659444,126.99396022746805 57.321608040248975,127.34743420989253 56.91457286430523,127.95338910922874 56.824120602803305,128.40785487025278 56.824120602803305,130.02373026037822 57.321608040248975,133.0029887612327 57.50251256255433,133.4069548426196 57.99999999976717,134.11389481107472 58.2261306529399,134.3158775016782 58.678391959518194,134.46736447361764 59.26633165800013,134.46736447361764 60.12562814052217,134.2653818356921 60.532663316465914,133.96240774722537 60.84924623090774,133.60893777827732 61.03015075344592,133.20497183687985 61.16582914558239,132.59902239969233 60.66834170836955,129.97323422215413 60.48743718583137,128.66033569542924 60.30653266306035,128.05438153125579 60.08040200988762,127.54941924626473 59.673366833943874,127.1959453864838 59.26633165800013,126.99396022746805 58.76884422102012,126.89296762167942 58.13567839167081,126.89296762167942 57.683417085325345,127.0444565237849 57.14070351747796,127.44842673675157 57.050251255976036,127.59991549456026 56.91457286430523,128.30686250969302 56.824120602803305,128.96331254113466 57.00502512534149,130.2257143688621 57.72864321595989,133.25546759489225 57.8643216076307,133.55844205105677 58.2261306529399,133.96240774722537 58.678391959518194,134.2148861651076 58.99497487419285,134.3158775016782 59.537688442040235,134.3158775016782 60.26130653265864,134.01290343963774 60.80402010027319,133.55844205105677 61.0753768843133,132.90199719712837 61.03015075344592,131.84158471680712 60.21608040179126,128.25636632269016 59.7638190954458,127.54941924626473 59.31155778863467,127.1959453864838 58.814070351654664,126.94346392672742 58.3618090453092,126.89296762167942 57.72864321595989,127.0444565237849 57.321608040248975,127.39793047553394 57.050251255976036,127.85239666973939 56.959798994706944,128.50884721340844 57.09547738684341,130.3267063969397 57.2763819093816,131.53860936802812 57.41206030128524,131.99307233223226 57.54773869342171,133.0029887612327 57.683417085325345,133.4574505830533 58.045226130401716,133.96240774722537 58.85929648228921,134.36637316341512 59.94472361775115,134.3158775016782 60.894472361775115,133.60893777827732 61.0753768843133,133.35645909776213 61.21105527598411,132.85150140844053 60.894472361775115,131.48811346123694 60.758793969638646,130.4276984074968 60.66834170836955,129.97323422215413 60.57788944686763,129.01380866678664 60.396984924562275,128.05438153125579 60.21608040179126,127.65041173843201 59.62814070354216,127.0444565237849 59.31155778863467,126.53949336346705 59.26633165800013,126.18601889087586 59.31155778863467,125.83254420378944 59.673366833943874,125.68105498654768 60.98492462281138,125.42857287026709 61.84422110510059,125.12559418624733 62.8391959797591,124.87311182921985 63.65326633141376,124.62062936276197 66.23115577874705,124.21665718877921 66.59296482405625,123.96417443780228 67.0,123.30771877319785 66.95477386913262,122.75225570995826 66.59296482405625,121.28785054991022 66.59296482405625,119.92443554016063 66.50251256255433,119.52046010969207 66.32160804001614,119.21747835283168 65.59798994963057,118.7125084080617 64.6030150752049,118.25803508347599 63.74371859268285,117.75306430703495 60.894472361775115,116.59162986010779 59.537688442040235,115.83417136454955 58.678391959518194,115.12720921338769 57.50251256255433,113.61228742892854 56.77889447216876,111.84487370098941 56.190954773686826,111.13790670817252 55.64824120607227,109.92596129595768 55.241206030128524,109.3704854727257 54.608040200779215,108.00704256974859 53.88442211039364,107.19907489902107 53.56783919595182,107.1485768823186 53.34170854254626,106.94658477196936 52.43718592938967,105.83562691346742 52.030150753678754,105.48213987774216 51.48743718583137,105.78512877854519 50.94472361798398,105.98712129163323 49.814070351654664,106.79509064333979 47.64321608026512,107.75455279287416 45.69849246204831,108.86550699191866 44.88442211039364,109.42098329664441 44.43216080404818,109.57247674249811 42.396984924562275,110.78442289010854 41.80904522608034,110.98641366953962 41.44723618077114,111.0369113534689 41.08542713546194,110.32994338020217 40.72361809038557,109.97645907185506 39.77386934659444,110.48143658967456 39.321608040248975,110.58243204065366 38.688442210899666,111.13790670817252 37.87437185901217,111.44089266727678 36.74371859268285,112.14785929227946 33.93969849240966,113.56178996822564 33.261306532425806,114.1172617948032 32.3115577888675,114.57173834985588 31.5879396982491,115.27870117523707 30.72864321595989,115.83417136454955 30.36683417088352,116.03616039291956 29.64321608026512,116.03616039291956 28.241206029895693,116.6421270580613 27.020100502297282,117.39958450308768 25.120603014947847,118.35902918630745 24.396984924562275,118.91449643846136 24.261306532658637,118.91449643846136 24.08040200988762,118.76300542225363 23.809045225847512,118.25803508347599 23.58291457267478,118.00554974999977 23.58291457267478,117.65207009931328 23.266331658232957,117.09660164336674 23.13065326632932,116.69262425170746 22.0,115.22820385894738 21.457286432152614,114.01626695663435 21.27638190961443,113.915272100945 20.688442211132497,114.1172617948032 20.14572864305228,113.81427722773515 19.64824120607227,114.06676437787246" stroke="#ff9d00" stroke-linecap="round" stroke-linejoin="round" stroke-width="0.5"><title>2026-02-23 6.0km</title><desc>17493745395</desc></polyline><polyline fill="none" points="133.0,144.49912000191398 133.05875952122733,144.88016054863692 133.23503808490932,144.94366727457964 133.4994559303159,144.88016054863692 133.85201305756345,144.59438016923377 134.08705114235636,143.99106543062953 134.58650707278866,143.2607359653921 135.0565832426073,142.27637695797603 135.1447225244483,142.0223484725284 135.2328618062893,141.482537458156 135.40914036985487,141.00623307644855 136.08487486385275,139.92660791857634 137.26006528828293,138.62470349881914 138.5233949945541,137.67208808849682 139.49292709468864,136.84648641187232 140.55059847643133,135.70334309255122 142.93035908590537,133.73458936047973 144.01741022849455,132.68670074705733 144.92818280740175,131.95635267402395 145.48639825882856,131.35302075036452 146.48531011969317,130.46389852516586 147.13166485296097,130.05109117203392 148.07181719259825,128.97143935557688 148.27747551677749,128.62213967589196 148.36561479861848,128.1458214877348 148.45375408045948,127.95529406925198 148.65941240475513,127.73301197760156 148.80631120782346,127.6695027880487 148.89445048954803,127.6695027880487 149.27638737752568,127.44722055320744 149.335146898753,127.28844746015966 149.18824809568468,126.71686385464272 149.18824809568468,125.60544917994412 149.4232861804776,124.49403172082384 149.45266594120767,123.92244451469742 149.30576713825576,123.79542503558332 149.51142546231858,123.66840551997302 150.21653971704654,123.60489574863459 151.18607181706466,123.35085657206946 152.86071817181073,123.19208201285801 153.4776931446977,123.19208201285801 153.8008705113316,123.47787617857102 154.3003264417639,123.66840551997302 154.41784548421856,123.60489574863459 154.32970620237757,123.38261147710728 154.3884657236049,123.31910166479065 155.24047878128476,123.28734675521264 155.534276387305,122.77926789296907 155.50489662680775,122.6204931292159 155.56365614791866,121.95363850065041 155.534276387305,121.50906819140073 155.622415669146,121.19151769770542 155.68117519037332,120.42939558532089 155.79869423282798,120.14359945559409 155.65179542975966,120.17535459029023 158.20783460279927,119.60376181930769 158.11969532095827,119.60376181930769 158.2665941240266,119.4132307319378 158.3547334058676,119.4132307319378 158.61915125127416,120.20710972254165 158.7660500544589,121.2867828696908 158.9129488574108,121.66784335300326 159.67682263324969,122.81102283889777 160.3231773666339,123.63665063548251 160.76387377583887,124.04946395743173 161.02829162136186,124.39876723760972 161.29270946676843,124.4622768953268 161.5571273122914,124.36701240530238 161.70402611524332,124.4622768953268 162.20348204567563,123.70016040233895 163.0554951033555,122.81102283889777 164.49510337307584,122.6204931292159 164.99455930350814,122.5887381696084 165.14145810657647,122.71575799433049 165.22959738841746,122.90628766309237 165.72905331873335,123.4461212803435 166.28726877039298,124.49403172082384 166.55168661591597,124.8750894490222 166.66920565837063,125.28790161863435 166.55168661591597,125.60544917994412 166.31664853100665,125.82773233760963 165.67029379750602,126.17703421751503 165.6115342763951,126.24054362071911 166.110990206711,126.65335451959982 166.3460282915039,126.71686385464272 167.28618063102476,126.30405301478459 168.37323177361395,125.66895866495906 169.5778019586578,125.19263730585226 171.5462459194241,124.2082382098597 172.39825897710398,123.63665063548251 173.2796517952811,122.87453272397397 174.57236126216594,121.9853935057472 175.1011969532119,121.76310842265957 176.2763873776421,121.69959837847273 176.77584330795798,121.54082322824979 177.45157780207228,121.25502781462274 178.36235038086306,120.55641602832475 178.77366702933796,120.30237510596635 178.94994559301995,119.7942928247503 179.03808487486094,119.69902733230265 179.4787812838331,119.60376181930769 180.15451577794738,119.95306860012352 180.41893362347037,120.0483340380888 180.68335146899335,120.01657889439957 180.94776931451634,119.85780314181466 181.3884657236049,119.44498591890442 181.53536452667322,119.03216831185273 181.65288356912788,118.90514743237873 181.77040261146612,118.90514743237873 182.09357997821644,119.00041309540393 182.8574537540553,118.39706355080125 183.32752992375754,117.8572237888875 183.5919477691641,117.44440470411791 183.8563656146871,117.25387268935447 184.32644178450573,116.74578691628994 184.4439608269604,116.45998841317487 184.4439608269604,115.79312452315935 184.0914036995964,114.45939373524743 184.0914036995964,114.17359375898377 184.82589771482162,111.02978186513064 185.11969532095827,109.34672189498087 185.5897714907769,107.1873148434097 185.88356909679715,106.13936351437587 186.05984766047914,105.85355817666277 186.17736670281738,105.40897172974655 186.0892274210928,104.26574739121133 186.14798694232013,103.56710884469794 185.94232861802448,102.29685412213439 186.0010881392518,101.66172539643594 185.79542981495615,101.24889123695903 186.03046789986547,100.16916931059677 186.03046789986547,99.85160353782703 185.97170837863814,99.53403753763996 185.85418933618348,99.31174120222568 185.41349292709492,98.83539153676247 185.11969532095827,98.64485152726411 183.6213275298942,98.00971757119987 182.8574537540553,97.5651232607197 182.3873775843531,97.18404206828563 182.1229597388301,96.92998775810702 181.7997823721962,96.48539236510987 181.18280739930924,95.34214502177201 181.09466811746825,95.11984658497386 181.12404787819833,95.05633272542036 181.3884657236049,95.11984658497386 182.0348204569891,95.69147091158084 183.56256800866686,96.73944692994701 185.5897714907769,98.2955279640446 186.55930359091144,99.18471467471682 186.91186071827542,99.66106396497344 187.0,99.88336012529908 187.0,100.2961955559731 186.79434167570435,101.69348185425042 186.70620239386335,102.83671282374416 186.0010881392518,105.37721553794108 185.88356909679715,105.94882664302713 185.70729053311516,107.1873148434097 184.94341675727628,110.33115397358779 184.5908596299123,112.10947735107038" stroke="#4dd2ff" stroke-linecap="round" stroke-linejoin="round" stroke-width="0.5"><title>2026-01-03 4.3km</title><desc>17507819708</desc></polyline><polyline fill="none" points="20.490881775447633,168.609629648985 20.54868657013867,168.59289986437943 20.63539376220433,168.64308921319025 20.77990574913565,168.62635943193163 20.996673729387112,168.59289986437943 21.28569770307513,168.47579132429382 21.73368486232357,168.4088721210428 22.644110379449558,168.2081143478281 23.699047883448657,167.94043693537242 23.84355987032177,167.94043693537242 24.04587665188592,168.00735632931173 24.6817293940112,168.4088721210428 24.884046175633557,168.57617007802764 24.956302169011906,168.67654877048335 25.01410696381936,168.91076548112324 25.11526535457233,169.94800690149714 25.12971655325964,170.53354352209135 25.173070149321575,170.68410974442668 25.21642374538351,170.78448714938713 25.303130937507376,170.85140538529959 25.56325251387898,170.98524177538638 26.19910525600426,171.1525371096941 27.066177177010104,171.20272567681968 28.43904105213005,171.20272567681968 28.684711429756135,171.21945519575092 29.04599139688071,171.3198322737444 29.219405781128444,171.33656178075762 30.274343285069335,171.1358075839089 30.809037636383437,170.9183235939854 31.661658358818386,170.8179462707485 32.22525510756532,170.65065059585322 32.58653507463168,170.4666251567396 32.716595862817485,170.34951795185043 35.606835599814076,167.52219010551926 35.83805477875285,167.27124149663723 36.09817635512445,166.90318284381647 36.70512669987511,166.38455334289756 36.965248276188504,166.13360299679334 37.615552217001095,165.23017857769446 37.846771395998076,164.84538518717454 38.19360016443534,164.46059089568735 38.36701454868307,164.17617714454536 39.118476880248636,163.20582064188784 39.436403251311276,162.72064024167776 40.33237756974995,161.48258721163438 40.53469435137231,161.16470722590748 40.80926712631481,160.77990431524813 41.08383990143193,160.37836988238269 41.96536302118329,159.24068366069696 42.32664298824966,158.8726070200646 42.47115497512277,158.63837600125407 43.150361313368194,157.76837215090927 43.33822689624503,157.46721589862136 43.54054367780918,157.28317569493083 43.75731165811885,157.03221144863346 43.8295676514972,156.88163271684607 44.29200600943295,156.2123922392202 44.422066797618754,156.14546804151905 44.68218837393215,156.0785438165476 45.21688272530446,155.86103989722324 46.9943801634945,155.0077525099914 47.847000885987654,154.75678478798363 48.1793784556794,154.60620397080493 48.84413359523751,154.37196686968673 49.335474350547884,154.17119194590487 49.55224233074114,154.05407312697207 49.98577829130227,153.90349166576925 51.243032576923724,153.60232832920155 51.35864216636401,153.5186717488541 51.63321494142292,153.23423905709933 51.90778771636542,153.06692547895364 52.22571408748627,153.0 52.35577487561386,153.01673137227772 52.413579670363106,153.06692547895364 52.63034765061457,153.60232832920155 52.77485963748768,154.22138569984236 52.948274021735415,154.68985999737924 53.04943241243018,155.442762319959 53.165042001986876,156.0785438165476 53.20839559804881,156.71432285297487 53.280651591485366,157.09913528514153 53.30955398880178,157.60106319002807 53.280651591485366,157.66798679484054 53.25174919416895,157.70144858697313 53.00607881642645,157.76837215090927 52.96272522036452,157.81856480597344 52.97717641905183,157.86875744565623 53.12168840598315,158.03606613395095 53.5985779624898,158.42087547056144 53.7286387506756,158.63837600125407 54.017662724421825,158.7052991835517 54.24888190330239,158.88933779437502 54.61016187054338,159.34106805596093 54.95699063886423,159.8764504614519 55.4483313941746,160.52894540970738 56.05528173892526,161.59970073554723 56.19979372579837,161.9008494138252 56.546622494235635,162.40276265106513 56.74893927585799,162.77083138404123 57.2836336272303,163.59061787161045 57.399243216670584,163.87503263626422 57.529304004856385,163.97541420033667 57.87613277323544,164.51078150652756 57.99174236273393,164.56097210208827 58.150705548294354,164.5777022971888 58.39637592592044,164.47732110098877 58.52643671410624,164.46059089568735 58.61314390611369,164.51078150652756 58.685399899608456,164.59443249055767 58.685399899608456,164.67808343206707 58.656497502175625,164.76173433091026 58.46863191929879,164.92903600088903 58.367473528545815,165.06287721425178 58.324119932425674,165.1799881865154 58.33857113117119,165.3305593139812 58.49753431667341,165.64843124101753 58.69985109823756,165.9328424439882 59.090033462736756,166.56858335316065 59.6825326088001,167.7229487166769 59.88484939048067,168.2415739936987 59.92820298648439,168.5259807088587 59.870398191793356,169.21190076148196 59.98600778123364,169.81416966670076 59.98600778123364,170.09857366033248 59.942654185171705,170.33278834434168 59.8125933969859,170.65065059585322 59.69698380754562,170.76775758621807 58.33857113117119,171.57077470044896 58.251863939047325,171.63769261620473 57.84723037586082,171.721339972617 57.717169587733224,171.82171674401616 57.5437552035437,172.0893878348288 57.00906085217139,173.1767971583322 56.850097666610964,173.61175887320132 56.72003687848337,173.82923929898243 56.647780885046814,174.56532475855784 56.60442728898488,175.3014069215278 56.647780885046814,176.12113090504135 56.850097666610964,176.6731876105914 56.92235365998931,177.1750557338819 56.92235365998931,177.49290475266753 56.907902461418416,177.79402430876507 56.83564646792365,178.19551619209233 56.662232083734125,178.6471933886205 56.28650091792224,179.36652858361776 56.141988931107335,179.71783067430079 55.925220950797666,180.0858606306283 55.79516016267007,180.40370402067492 55.491684990236536,181.13976003798598 55.33272180473432,181.6583429802413 55.274917009985074,181.992911752066 55.20266101654852,182.193652688351 54.91363704280229,182.86278737206885 54.79802745336201,183.06352724602039 54.53790587699041,183.4148214355955 54.26333310204791,183.6824736475537 54.14772351254942,183.91666897552204 54.03211392310914,184.2512331510079 53.64193155855173,184.85344695099047 53.30955398880178,185.2716496807261 52.933822822989896,185.8236756549304 52.76040843874216,186.17496394610498 52.702603643992916,186.5262514865608 52.81821323354961,187.07827324784012 52.76040843874216,187.9313941419532 52.77485963748768,188.2492223627487 52.76040843874216,188.3495890416234 52.99162761779735,189.03542637424835 53.12168840598315,189.82162662591145 53.07833480986301,190.13945119235723 53.09278600855032,190.32345460790384 53.136139604554046,190.5910955719737 53.20839559804881,190.95910118619213 53.22284679667791,191.3605609166989 53.17949320061598,191.57801786142227 53.23729799542343,191.87911161774537 53.20839559804881,192.0463856885035 53.22284679667791,192.28056910169835 53.17949320061598,192.61511625624553 53.136139604554046,192.74893492739648 52.731506041425746,193.51839017303428 52.615896451927256,193.95329806674272 52.50028686248697,194.20420594366442 52.24016528611537,194.50529489055043 51.96559251117287,194.72274767594354 51.214130179490894,195.49219368420017 51.011813397926744,195.75982623426535 50.88175260974094,195.96055036097823 50.76614302030066,196.21145517473633 50.52047264267458,196.88053280627355 50.43376545055071,197.34888552839402 50.44821664917981,197.64996871667972 50.41931425180519,197.85069053595362 50.173643874179106,198.5030347561842 50.043583085993305,198.7204822545027 49.92797349655302,198.85429595668393 49.26321835699491,199.43972962324915 49.19096236361656,199.6404492576985 49.06090157543076,199.84116864710813 48.80077999911737,200.89494142172043 48.80077999911737,201.0287533543451 48.8296823965502,201.6643585471611 48.91638958861586,202.0490657597984 48.85858479386661,202.23305584769696 49.03199917811435,202.70139332425606 49.14760876755463,203.83877878561907 49.16205996630015,204.08967157827283 49.14760876755463,204.24020707019372 49.06090157543076,204.39074242429342 48.887487191241235,204.52455151217873 48.46840242942562,204.69181271900015 48.36724403855624,204.7419910478784 48.33834164123982,204.79216936140438 48.237183250370435,204.79216936140438 48.00596407148987,204.85907375568058 47.919256879366,204.85907375568058 47.500172117492184,204.95943029603222 46.64755139511544,205.0597867750912 46.47413701086771,205.0597867750912 46.30072262661997,205.12669106048997 45.99724745430285,205.19359531864757 45.31804111605743,205.2939516548795 44.89895635418361,205.37758188825683 44.33535960549489,205.42776000783488 43.84401885024272,205.37758188825683 42.57231336599216,204.97615638011484 41.60408305400051,205.04306069952145 41.459571067243814,205.10996499168687 41.25725428562146,205.04306069952145 41.09829110006103,205.07651284903113 40.93932791455882,205.0597867750912 40.693657536874525,205.09323892119573 40.46243835793575,205.17686925668386 39.27744006575085,205.37758188825683 38.93061129731359,205.47793811217707 38.65603852237109,205.47793811217707 38.4103681446868,205.56156825192738 37.58664981968468,205.69537638720067 37.13866266043624,205.86263640315155 36.70512669987511,205.91281437475118 36.213785944564734,205.91281437475118 36.141529951186385,205.97971831307223 35.8958595735603,205.9964442933997 35.46232361299917,206.11352610806352 34.68195888400078,206.36441543026012 33.97385014849715,206.63203028538555 33.43915579706663,206.96654824177676 33.28019261150621,207.0 33.20793661812786,206.96654824177676 32.99116863781819,206.53167476570525 32.80330305494135,206.29751164841582 32.702144664130174,205.9964442933997 32.55763267731527,205.81245841625787 32.26860870362725,205.19359531864757 31.92177993513178,204.39074242429342 31.632755961443763,203.57115938482457 31.430439179879613,203.28681329423853 31.242573597002774,202.85193008703936 30.79458643781254,201.94870744331274 30.606720854877494,201.74799062647799 30.592269656131975,201.71453779988224 30.66452564962674,201.6978113840014 30.678976848255843,201.6643585471611 30.505562464008108,201.51382069721876 30.288794483756647,201.11238575690368 29.99977051006863,200.54368458053796 29.132698589004576,198.9546561618481 28.569101840315852,197.64996871667972 28.3812362573226,197.38233924316592 28.222273071820382,196.96416731881618 27.918797899386846,196.31181699303852 27.75983471388463,195.75982623426535 27.384103548072744,194.62238488763978 27.282945157319773,194.2209331218328 27.13843317044666,193.8863892348745 27.109530773072038,193.6856625759683 27.051725978381,193.5685719117755 26.878311594191473,192.94966272998136 26.83495799812954,192.68202560540522 26.675994812510908,192.19693220677436 26.372519640193786,190.9256461643672 26.213556454633363,190.1227235989354 26.155751659884118,189.93871995875088 26.097946865134872,189.60416735796025 26.097946865134872,189.48707378687686 25.895630083570722,188.9016046803299 25.780020494072232,188.41650012689934 25.606606109882705,187.8979385040002 25.519898917758837,187.37937524542212 25.259777341445442,186.47606759818154 25.187521348008886,186.02441191325488 25.01410696381936,185.50584274466382 25.071911758568604,185.35529009900347 24.869594976946246,184.73634999600472 24.623924599320162,183.8330278252688 24.49386381113436,183.4148214355955 24.334900625573937,182.62859054256114 24.147035042697098,182.0932822508621 24.016974254511297,181.40741595438158 23.7568526781979,180.55426120143966 23.684596684761345,180.13604646991007 23.51118230051361,179.5170867144043 23.077646340010688,178.11187213064113 22.904231955762953,177.7271088995476 22.759719968948048,177.25870027209749 22.268379213637672,175.56907234525715 22.225025617633946,175.21776138721907 22.13831842551008,174.98355366468604 22.109416028135456,174.81626222992782 22.02270883595338,174.5820539352717 21.979355239949655,174.34784530679462 21.993806438636966,174.2474700781895 21.791489657072816,173.77905153397296 21.690331266261637,173.4946539093944 21.64697767025791,173.1935264763597 21.53136808075942,172.95931586925872 21.444660888635553,172.72510492832225 21.415758491202723,172.49089365365217 21.31460010050796,172.1730349612917 21.28569770307513,171.88863455760293 21.06892972282367,171.18599615612766 21.025576126761734,170.98524177538638 20.9822225306998,170.43316596385557 20.63539376220433,169.6970619968779 20.56313776882598,169.412657308465 20.46197937807301,169.29554935252236 20.389723384578247,169.07806292721943 20.288564993883483,169.0111439692264 20.21630900038872,168.86057621409418 20.144053006952163,168.84384645499813 20.01399221876636,168.84384645499813" stroke="red" stroke-linecap="round" stroke-linejoin="round" stroke-width="0.5"><title>2025-10-17 10.6km</title><desc>17538333095</desc></polyline><polyline fill="none" points="156.21821334818378,154.2388831304852 156.5809746576706,154.32287493775948 157.179530818481,154.28087903835694 157.2702211458236,154.32287493775948 157.57856825890485,154.93181451785495 157.7962250446435,155.49875664888532 158.24967668158934,157.43054776478675 158.70312831853516,158.96336914710992 158.81195671134628,159.48830535833258 159.21099415188655,160.6851549251296 159.4286509376252,161.21008675497433 159.80955031258054,162.84786547868862 160.40810647327453,165.07354392851994 160.7345916518243,166.01840016059577 160.95224843756296,166.50132500813925 161.13362909236457,167.04723869191366 161.46011427091435,168.34902703131957 161.7684613839956,169.25187541042396 161.9317039733287,170.23870516588795 162.49398400308564,172.04438143450534 162.60281239601318,172.71625694216345 162.7116407888243,173.15717405501346 162.94743564003147,173.8710378590913 163.00184983643703,174.35394432597968 163.16509242577013,174.92083308404835 163.27392081858125,175.52971186714421 163.69109632459003,176.99941187158402 163.72737245552707,177.2933506162226 163.98130537231918,178.11217776834383 164.0901337651303,178.6580607312062 164.27151441993192,179.16195141509525 164.47103314008564,180.52664917131187 164.7793802532833,181.38745388321695 164.8700705806259,181.91233304269554 164.99703703902196,182.29024521079555 165.14214156277012,182.9830823881348 165.57745513424743,184.6626780111983 165.7406977234641,185.1035695970204 165.77697385451756,185.48147592076566 166.04904483654536,186.3002705815161 166.32111581868958,187.24502961455437 166.5206345389597,187.62293201666034 166.6657390628243,188.10580630127515 166.91967197949998,188.79862395345117 167.04663843777962,189.30248987585946 167.35498555086087,190.01629782679083 167.75402299140114,190.64612632144417 167.93540364620276,191.06601091664925 168.29816495568957,191.69583620764024 168.67906433076132,192.57758838593145 169.0055495093111,193.20740906389256 169.15065403317567,193.45933679692098 169.2594824259868,193.66927633954037 169.47713921172544,193.96319134040095 170.07569537241943,195.24381610193814 170.42031861655414,195.76866002006864 170.58356120588724,196.18853419355582 171.43605028325692,197.88901586121938 171.56301674165297,198.22491181752412 171.83508772368077,198.72875472696614 172.4517819499597,200.1772962406394 172.9777858486632,201.2899371667154 173.12289037252776,201.70980010840867 173.26799489639234,202.04568984682555 173.26799489639234,202.12966219605005 173.2317187654553,202.2766137249273 173.03220004518516,202.54952342961042 172.7057148666354,202.82243277340604 172.21598709875252,203.1163347401889 169.7673482594546,204.4178955626994 169.22320629504975,204.77477370930137 168.62465013435576,205.0266873237124 167.8809894497972,205.4675354091305 167.57264233671594,205.5724991002062 166.95594811043702,205.86639715128695 166.28483968786895,206.30724344337068 166.04904483654536,206.4122067073913 165.39607447944582,206.60114044831425 164.88820864609443,206.91602963213518 164.67055186035577,207.0 164.4347570091486,206.9790074111952 164.23523828899488,206.89503703480295 163.9268911757972,206.68511094425048 163.78178665193263,206.5381625538721 163.50971566978842,206.01334601995768 162.92929757456295,205.1736367901176 162.56653626507614,204.35491700211423 162.20377495558932,203.85108782621683 162.07680849719327,203.5571869056439 161.55080459837336,202.99037680563924 160.86155811022036,201.77277947602852 160.53507293167058,201.2899371667154 160.33555421140045,200.80709372789715 160.0272070983192,200.40822220908012 159.8639645089861,200.0093499194627 159.3379606101662,199.23259640652395 159.21099415188655,198.91769550100435 158.86637090775184,198.45583997033827 158.7394044494722,198.203918336294 158.52174766373355,197.91000937442004 158.28595281252638,197.49013870306953 158.01388183038216,197.1962287248898 157.41532566968817,196.16754050519376 157.19766888394952,195.8946223618259 156.88932177086826,195.62170385754143 156.29076561005786,195.24381610193814 155.9824184969766,194.8239400064922 155.67407138389535,194.48803851517732 155.202481681481,194.15213647705968 154.38626873504836,193.3333729688893 153.95095516345464,192.99746905149368 153.64260805037338,192.66156458739715 152.73570477659814,192.01074813237938 152.30039120523725,191.61185961322917 152.08273441938218,191.33893544538296 151.53859245509375,190.94004562770715 151.33907373494003,190.75109755038284 151.10327888373286,190.62513206929725 150.59541305026505,190.12126937610446 149.7792001038324,189.44945053820265 148.92671102646273,188.86160726101662 148.43698325857986,188.3577402621304 148.31001680030022,188.16878982030903 148.00166968710255,187.97983920550905 147.80215096683241,187.74889933028317 147.6026322466787,187.4759700535942 147.53007998480462,187.2870188045199 147.38497546094004,187.07707276922883 147.27614706812892,186.82513724494493 147.0766283478588,186.57320141306263 146.94966188957915,186.32126527365472 146.73200510372408,184.93561100872466 146.87710962758865,184.38974465269712 147.29428513359744,183.50795748895325 147.54821805015672,183.27701260904723 147.7658748360118,182.9830823881348 147.98353162175044,182.79412702503032 148.27374066924676,182.4792010353267 148.58208778232802,182.20626478882332 148.96298715739977,181.72337669908302 149.43457685981411,181.30347309377976 149.99685688968748,180.88356863407535 150.64982724678703,180.1067431307747 151.9194918301655,178.97299255279358 152.3548054015264,178.70005166853662 152.40921959804837,178.61606978533382 152.49990992539097,178.15416881676356 152.39108153257985,177.90222239811555 152.15528668137267,176.97841623095155 151.84693956829142,176.43252882435627 151.7562492408324,176.20157602528343 151.70183504442684,175.69767811181373 151.59300665161572,175.1727831432363 151.59300665161572,174.81585380189063 151.53859245509375,174.54290741842124 151.08514081826434,173.28315019991715 150.84934596705716,172.88422547724622 150.75865563959815,172.65326870627177 150.64982724678703,171.96039684217249 150.55913691944443,171.6664504999062 150.55913691944443,171.24652642734873 150.46844659210183,170.9105865538877 150.30520400276873,170.53265354239556 150.12382334808353,169.58781798482232 149.97871882410254,169.1678896814119 149.90616656222846,168.4960026180779 149.74292397301178,167.76112363715947 149.74292397301178,167.48816792036814 149.7792001038324,167.17321856760827 149.63409558008425,166.62730521724734 149.56154331809375,166.22836762457155 149.43457685981411,165.15753132432292 149.36202459794004,164.84257841354702 149.34388653247152,164.1706772633479 149.1625058776699,163.2468096086668 149.12622974673286,162.889859634015 149.01740135392174,162.34393494862888 149.05367748474237,161.44105633687286 148.9992632883368,160.58016839888296 148.8904348955257,160.01324023380585 148.8904348955257,159.46730793552706 148.8178826336516,158.71139929117635 148.78160650259815,157.9344902979792 148.8178826336516,157.5565335135325 148.8178826336516,156.82161556126084 148.78160650259815,155.519754475652 149.01740135392174,153.79792558100598 149.08995361579582,153.58794546419813 149.325748467003,153.20998071535723 149.4889910563361,153.06299423702876 149.63409558008425,153.0 149.79733816941734,153.04199616017286 150.32334206823725,153.27297488824115 150.92189822893124,153.2939729415666 151.01258855639026,153.33596904188744 150.99445049080532,153.3779651336663 150.90376016346272,153.41996121688862 150.50472272292245,153.39896317636885 150.0331330205081,153.3149709928257 149.74292397301178,153.20998071535723 149.65223364566918,153.27297488824115 149.61595751461573,153.3779651336663 149.5978194491472,153.50395335762005 149.65223364566918,153.60894348550937" stroke="#ff7f00" stroke-linecap="round" stroke-linejoin="round" stroke-width="0.5"><title>2025-10-14 6.9km</title><desc>17538333076</desc></polyline><polyline fill="none" points="37.72858593624551,215.958740350703 37.72858593624551,216.01851258968236 37.59804489801172,215.958740350703 37.754694143659435,216.10817092610523 37.91134338953998,216.13805703242542 38.12020905071404,216.07828481690376 38.22464188106824,215.98862647163332 37.91134338953998,215.958740350703 37.44139565236401,216.07828481690376 37.31085461413022,216.01851258968236 37.232529991073534,215.958740350703 37.04977253777906,215.3012449563248 37.023664330132306,214.6437481554167 36.919231499545276,214.10579518138547 36.97144791483879,213.86670466841315 37.15420536824968,213.7471593421942 37.91134338953998,213.59772761908243 39.34729480929673,213.53795490946504 39.791134338942356,213.44829582321108 40.31329849152826,213.23909118704614 41.749249911285006,213.02988640853437 42.24530585622415,213.0 42.95022746222094,213.0 43.159093123394996,213.05977281424566 43.655149068217725,213.32875033433083 43.94233935221564,213.59772761908243 44.229529636213556,214.04602257048828 44.36007067433093,214.46443060203455 44.33396246668417,215.65987898223102 44.542828127741814,217.42315685655922 44.56893633538857,217.87144622887718 44.4906117124483,219.06688135876902 44.56893633538857,219.51516833383357 44.62115275056567,220.6209400772059 44.4383952972712,221.84625006577699 44.56893633538857,222.8623570833879 44.62115275056567,223.96811678618542 44.62115275056567,224.35662600782234 44.516719920095056,224.71524946892168 44.4906117124483,225.49226553260814 44.33396246668417,225.9106579842337 44.229529636213556,226.3290498663264 44.46450350480154,227.49456710676895 44.4906117124483,227.91295683319913 44.4383952972712,228.45088564470643 44.516719920095056,228.89915893532452 44.4383952972712,229.5566252457793 44.4383952972712,230.03478167930734 44.4906117124483,230.75201493513305 44.4383952972712,231.230169509392 44.4383952972712,232.00716910636402 44.4906117124483,233.38185589041677 44.386178881977685,234.72665223121294 43.94233935221564,235.56341142999008 43.57682444539387,235.8024850685324 42.63692897069268,236.6392413393187 41.93200736469589,237.38634322793223 40.887679059407674,238.940309341182 40.496055944939144,239.65752182138385 40.07832462282386,240.6138025256223 39.97389179235324,241.30112744463258 39.73891792376526,242.43670437924447 39.37340301682707,243.0642582543369 39.37340301682707,243.27344259468373 39.45172763976734,243.42285989352968 39.4778358474141,243.60216055632918 39.34729480929673,244.49866230168846 39.268970186356455,244.85726226802217 39.112320940592326,245.27562836671132 39.033996317652054,245.72387712649652 38.82513065659441,246.23189159765025 38.77291424141731,246.7697883580695 38.66848141083028,246.97897017744253 38.485723957419395,246.91920395783382 38.720697826123796,246.82955460669473 39.45172763976734,246.97897017744253 39.58226867788471,247.0686194850132 39.68670150835533,247.2180349396367 39.7128097161185,247.4570995158865 39.503944055060856,248.2041751188226 39.268970186356455,248.56277076352853 39.164537356002256,249.01101473119343 39.06010452529881,250.02703197218943 38.95567169471178,250.74421859162976 38.92956348718144,251.3119901456812 38.981779902474955,251.73034746205667 38.66848141083028,252.5072952537157 38.485723957419395,253.04518103646114 38.45961574988905,253.4336535166076 38.45961574988905,253.79224306269316 38.27685829636175,254.68871509845485 38.06799263530411,255.43577313178685 37.963559804833494,256.4816513294645 37.59804489801172,258.8423347568314 37.59804489801172,259.0813902959635 37.676369520951994,259.4399732561724 37.62415310565848,260.0674924304767 37.363071029423736,260.6053649891692 37.180313575896434,261.6512256048736 36.50150017742999,263.8923435183533 36.42317555460613,264.04175079861307 36.0315524401376,264.5198536074313 35.613821118022315,265.29676908662077 35.37884724943433,265.8943950427347 35.40495545708109,266.10356385301566 35.666037533432245,266.3127325209789 36.94533970730845,266.9402376714861 37.12809716060292,267.0 37.49361206754111,266.9402376714861 37.650261313305236,266.76095061629894 37.91134338953998,265.9242763100483 37.989668012363836,265.4760569953942 38.53794037271291,264.4003279749304 38.85123886435758,263.38435822274187 38.90345527953468,262.96601676093997 39.08621273294557,262.24885864538373 39.425619432120584,261.5316988573468 39.503944055060856,261.2926452230604 39.4778358474141,261.0237096622586 39.19064556341618,260.42607424076414 39.19064556341618,260.24678338787635 39.53005226270761,259.8284376579395 39.765026131412014,259.380209458468 39.9477835848229,258.5733970531728 40.4177313222317,257.67693634243915 40.5221641525859,257.1988228946866 40.7049216061132,255.6449490558589 40.57438056799583,254.3898913769226 40.80935443658382,253.22447608824586 40.835462644230574,252.95553347145324 40.835462644230574,252.20846941234777 40.731029813643545,251.8498780192749 40.731029813643545,251.3119901456812 40.861570851760916,250.80398406775203 40.939895474817604,250.08679758771905 41.09654472046532,249.57878948561847 41.09654472046532,249.25007791348617 41.227085758699104,248.68230255210074 41.20097755105235,247.93522811087314 41.43595141975675,247.0686194850132 41.566492457757704,245.30551163773634 41.82757453422528,244.34924552575103 41.93200736469589,243.66192742067506 42.03644019528292,243.27344259468373 42.08865661046002,242.85507377167232 42.37584689434152,241.7493819988158 42.79357821657322,240.67356997088064 43.446283407276496,239.74717326372047 43.602932653040625,239.2690319356625 43.785690106335096,238.16332726637484 43.785690106335096,237.7748354926007 43.62904086068738,237.38634322793223 43.367958784336224,237.08750269032316 43.34185057680588,237.02773454796989 44.12509680562653,236.7587777634326 44.17731322092004,236.66912544966908 44.17731322092004,236.31051593308803 44.30785425903741,235.83236926031532 44.2556378437439,235.8024850685324 44.28174605150707,235.7726008738391 44.2556378437439,235.86225344912964 44.30785425903741,235.86225344912964 44.2556378437439,235.74271667632274 44.30785425903741,235.74271667632274 44.229529636213556,235.83236926031532 43.9684475598624,235.35422184379422 44.0206639750395,235.11514785676263 44.229529636213556,234.51746207565884 44.33396246668417,232.78416673961328 44.17731322092004,231.3795926613093 44.2034214285668,230.2738596170966 44.30785425903741,229.5865100446099 44.229529636213556,228.80950432943064 44.33396246668417,228.06238159743953 44.2556378437439,227.49456710676895 44.229529636213556,226.62790086204768 43.785690106335096,226.7175561041513 43.05466029280797,227.01640672216308 42.63692897069268,227.07617681086413 42.21919764857739,227.07617681086413 41.48816783493385,227.22560198194697 40.80935443658382,227.2554870074091 40.5221641525859,227.22560198194697 40.4177313222317,227.10606185090728 40.2349738687044,226.2991647507297 40.26108207623474,225.79111734189792 40.15664924576413,225.0439872739953 40.15664924576413,224.2669700772385 40.0522164151771,223.4600655248214 40.10443283058703,222.50373146063066 40.0522164151771,222.05544884395204 39.843350754119456,221.6968222798023 39.817242546589114,221.51750884091598 39.60837688553147,221.30830969661474 39.39951122459024,221.03933915903326 38.66848141083028,220.38185463190894 38.12020905071404,219.99334038674715 37.963559804833494,219.81402595405234 37.91134338953998,219.63471141675836 37.83301876671612,219.5749398811313 37.989668012363836,218.31973494734848 38.06799263530411,218.05076179475873 38.09410084306728,217.66224460309604 38.590156788006425,217.6024726839678 38.66848141083028,217.51281478328747 38.642373203183524,217.42315685655922 38.45961574988905,216.94498080541962 38.40739933447912,216.61623433884233" stroke="#4dd2ff" stroke-linecap="round" stroke-linejoin="round" stroke-width="0.5"><title>2025-09-30 4.8km</title><desc>17538333066</desc></polyline></svg>