<?xml version="1.0" encoding="utf-8" ?>
<svg baseProfile="full" height="300mm" version="1.1" viewBox="0,0,200,300" width="200mm" xmlns="http://www.w3.org/2000/svg" xmlns:ev="http://www.w3.org/2001/xml-events" xmlns:xlink="http://www.w3.org/1999/xlink"><defs /><rect fill="#222222" height="300" width="200" x="0" y="0" /><text fill="#FFFFFF" style="font-size:12px; font-family:Arial; font-weight:bold;" x="10" y="20">Over 3km Runs</text><text fill="#FFFFFF" style="font-size:4px; font-family:Arial" x="10" y="280">Runner</text><text fill="#FFFFFF" style="font-size:9px; font-family:Arial" x="10" y="290">Zheng</text><text fill="#FFFFFF" style="font-size:4px; font-family:Arial" x="65" y="280">SPECIAL TRACKS</text><rect fill="yellow" height="2.6" width="2.6" x="65" y="283" /><text fill="#FFFFFF" style="font-size:3px; font-family:Arial" x="70" y="285.5">Over 5.0 km</text><rect fill="red" height="2.6" width="2.6" x="65" y="287" /><text fill="#FFFFFF" style="font-size:3px; font-family:Arial" x="70" y="289.5">Over 10.0 km</text><text fill="#FFFFFF" style="font-size:4px; font-family:Arial" x="120" y="280">STATISTICS</text><text fill="#FFFFFF" style="font-size:3px; font-family:Arial" x="120" y="285">Number: 13</text><text fill="#FFFFFF" style="font-size:3px; font-family:Arial" x="120" y="290">Weekly: 1.6</text><text fill="#FFFFFF" style="font-size:3px; font-family:Arial" x="141" y="285">Total: 69.8 km</text><text fill="#FFFFFF" style="font-size:3px; font-family:Arial" x="141" y="290">Avg: 5.4 km</text><text fill="#FFFFFF" style="font-size:3px; font-family:Arial" x="167" y="285">Min: 3.2 km</text><text fill="#FFFFFF" style="font-size:3px; font-family:Arial" x="167" y="290">Max: 10.6 km</text><polyline fill="none" points="12.400000000023283,74.0987738451222 12.593072625692002,73.83793448665529 12.882681564311497,73.08149929143838 12.930949720670469,72.76849116524681 12.95508379896637,71.8816333481227 13.075754189980216,71.51645597262541 13.34122905030381,71.28169889521087 13.558435754152015,71.17736236786004 13.799776536296122,70.7600159595604 14.427262569894083,70.00357437663479 15.633966480498202,68.98628839323646 15.947709497180767,68.67327675010893 17.564692737534642,66.8473701410694 18.33698324020952,66.27351188889588 19.01273743028287,65.64748367428547 20.340111731900834,64.6823547364911 20.822793296072632,64.21283162635518 21.498547486029565,63.40420707431622 21.98122905031778,62.98685176478466 22.874189944239333,62.09997014509281 23.1879329609219,61.8912918032438 23.50167597772088,61.73478296850226 24.225698324036784,61.47393476116122 24.56357541901525,61.42176509727142 25.239329608972184,61.42176509727142 25.504804469179362,61.369595425901935 26.421899441396818,61.291340904921526 28.08715083799325,60.90006804774748 30.186815642402507,60.11752107308712 31.152178770978935,59.64799208167824 31.634860335150734,59.334972417971585 32.045139664784074,59.204547478759196 32.14167597773485,59.204547478759196 32.33474860340357,59.51756725445739 32.72089385474101,59.98709641394089 32.769162011216395,60.3262004305725 32.962234636885114,60.8218134258932 33.179441340849735,61.18700151736266 33.372513966518454,61.44784993011854 33.5173184358282,61.52610441754223 33.686256983317435,61.57827406647266 34.74815642461181,61.369595425901935 35.37564245809335,61.10874695715029 35.88245810056105,60.795728548197076 36.72715083800722,60.456624968443066 37.30636871512979,60.11752107308712 39.5749720671447,59.334972417971585 40.178324022330344,59.021952485403745 40.636871508322656,58.708932283945614 41.722905028029345,58.21331641508732 42.20558659231756,57.92638060403988 43.12268156418577,57.63944456691388 43.75016759778373,57.35250830394216 44.281117318430915,57.0655718150083 44.594860335229896,56.75254993303679 44.95687150838785,56.491698159312364 45.84983240219299,55.99607927480247 46.06703910615761,55.943908826680854 46.935865921899676,55.91782359988429 48.021899441373535,55.526544972963165 48.239106145338155,55.37003340449883 48.48044692748226,55.08309535452281 48.8665921788197,54.32662123045884 49.20446927379817,53.85708477740991 49.349273743107915,53.83099940116517 49.445810055942275,53.85708477740991 49.90435754193459,54.196194498683326 50.09743016760331,54.274450543365674 50.43530726258177,54.274450543365674 50.604245810071006,54.196194498683326 50.869720670511015,53.90925552431145 51.13519553083461,53.43971853336552 51.3765363128623,53.15277896329644 51.810949720675126,52.78758282001945 52.317765363142826,52.63107007514918 52.8969832402654,52.005018423340516 53.04178770945873,51.744163250987185 53.28312849160284,51.065938928804826 53.331396648078226,50.64856948761735 53.18659217876848,49.7355721683125 53.21072625706438,49.448629681166494 53.838212290545925,46.5791923807119 53.98301675985567,45.66618486403604 54.345027933013625,43.91842123569222 54.4174301676685,43.65756027356838 54.68290502787568,42.248907850385876 54.634636871516705,41.544579596229596 54.56223463686183,41.10111295984825 54.731173184351064,40.60547313920688 54.827709497185424,40.10983264414244 54.80357541900594,39.66636426121113 54.875977653544396,39.48375947607565 55.21385474863928,38.9620310140599 55.40692737442441,38.440301804832416 55.47932960907929,38.02291789944866 55.455195530783385,37.762052715756 55.31039106147364,37.47510079795029 55.02078212285414,37.16206208433141 54.17608938552439,36.40555074909935 53.741675977711566,36.040337818150874 53.23486033512745,35.70121119718533 51.714413407840766,35.075130452169105 51.03865921788383,34.501222157268785 50.893854748574086,34.34470155625604 50.652513966546394,33.901226154877804 51.593743016710505,34.37078832779662 52.221229050308466,34.81426315748831 54.27262569835875,36.4577239951177 55.52759776543826,37.60553351583076 55.60000000009313,37.78813924253336 55.57586592179723,38.07509091380052 55.28625698329415,39.84896895487327 54.827709497185424,42.1184767948871 54.77944134082645,42.66628691391088 54.6105027932208,43.26626848010346 54.22435754199978,45.37923917200533 53.21072625706438,49.657315148739144 53.21072625706438,50.048600078356685 53.69340782123618,51.40505124768242 53.78994413407054,51.90067637679749 53.78994413407054,52.16153143718839 53.76581005589105,52.23978791886475 53.524469273746945,52.448471787793096 52.34189944132231,53.17886438811547 52.05229050281923,53.46580393763725 51.52134078217205,53.83099940116517 50.94212290504947,54.35270657125511 50.604245810071006,54.63964519641013 50.45944134076126,54.66573051476735 49.8802234637551,54.45704791561002 49.349273743107915,54.117938437120756 49.10793296084739,54.14402379284729 49.01139664812945,54.196194498683326 48.91486033517867,54.32662123045884 48.74592178768944,54.95266889347113 48.55284916202072,55.31786286679562 48.432178771006875,55.50045971621876 48.239106145338155,55.656971228600014 47.201340782106854,56.15259057431831 46.04290502797812,56.51778334513074 45.56022346368991,56.59603889120626 45.24648044700734,56.72646476409864 44.88446927384939,56.80472026538337 44.49832402227912,57.117742102534976 44.039776536403224,57.3003380500013 43.72603351960424,57.56118924485054 43.29162011179142,57.795955160603626 42.44692737434525,58.10897614626447 41.698770949733444,58.47416695638094 40.998882681597024,58.73501731100259 40.13005586597137,59.256717460026266 39.62324022350367,59.439312335744034 38.82681564253289,59.882756652950775 38.175195530755445,60.11752107308712 37.764916201122105,60.35228534191265 37.137430167524144,60.58704945948557 36.34100558666978,60.97832265277975 35.641117318416946,61.21308636709 34.74815642461181,61.57827406647266 34.120670391013846,61.8912918032438 33.83106145251077,61.94346139996196 33.44491620117333,61.813037394254934 33.32424581015948,61.73478296850226 32.9863687150646,61.08266210000147 32.74502793292049,60.300115517457016 32.60022346372716,59.98709641394089 32.165810055914335,59.334972417971585 32.11754189943895,59.30888743387186 32.045139664784074,59.334972417971585 31.755530726280995,59.621907119930256 31.58659217879176,59.700161999469856 29.993743016733788,60.3262004305725 27.676871508476324,61.10874695715029 26.05988826812245,61.369595425901935 25.480670390999876,61.317425747110974 24.732513966504484,61.10874695715029 24.394636871526018,61.10874695715029 24.12916201108601,61.34351058743778 23.549944134196267,61.68261334198178 23.284469273872674,62.07388535889913 22.874189944239333,62.4912417139567 22.488044692669064,62.83034340053564 21.98122905031778,63.143360061891144 21.47441340785008,63.717223242798354 20.1711731844116,65.02145438423031 19.085139664937742,65.90832889440935 18.602458100649528,66.37784982018638 17.32335195527412,67.4473118930764 16.02011173183564,68.7776139943744 15.416759776533581,69.14279411389725 15.103016759851016,69.42972109405673 14.76513966487255,69.79490056025679 14.620335195562802,70.1861638679984 14.475530726253055,70.34266907349229 14.210055865929462,70.55134257624741 14.113519553095102,70.49917421178543" stroke="#ff9900" stroke-linecap="round" stroke-linejoin="round" stroke-width="0.5"><title>2026-04-11 6.1km</title><desc>18066130790</desc></polyline><polyline fill="none" points="87.58733031677548,42.60642805698444 87.64318034914322,42.84788769201259 87.78280542988796,43.27044172055321 88.39715578546748,44.23627791000763 88.4530058177188,44.50791893975111 88.56470588233788,45.65484580237535 88.56470588233788,46.620676530204946 88.42508080159314,47.64686925458955 88.39715578546748,48.67305948163266 88.31338073685765,48.944697653118055 88.17375565611292,49.18615365866572 87.69903038139455,49.36724557206617 86.74957983195782,49.57851937279338 85.46502908854745,49.75961111768265 85.04615384619683,49.91052084567491 82.2257272140123,50.121794374252204 80.38267614739016,50.18215822006459 79.74040077568498,50.36324970572605 79.5449256625725,50.51415921773878 79.51700064644683,50.966887429734925 79.6287007110659,51.60070610992261 79.82417582417838,52.02325136747095 80.18720103427768,52.56652321934234 80.38267614739016,52.98906750915921 80.41060116363224,53.44179306412116 80.32682611513883,54.37742433758103 80.35475113126449,55.52432435701485 80.41060116363224,55.705413548712386 80.49437621212564,55.79595811534091 80.68985132512171,55.76577659530449 80.68985132512171,55.64505049350555 80.77362637361512,55.705413548712386 80.68985132512171,56.21849916939391 80.74570135748945,56.88249139895197 80.63400129287038,57.365394181979354 80.32682611513883,58.150110025075264 80.21512605040334,58.60283003959921 80.24305106664542,58.934824408148415 80.38267614739016,59.357362317241495 80.6060762766283,59.65917485035607 80.74570135748945,60.051530820463086 80.99702650285326,60.323161662818165 80.8015513898572,60.564611153677106 80.43852617964149,60.745698181097396 79.60077569494024,60.8362416656455 79.0981254039798,60.98714742998709 78.5675500970101,61.53040773462271 78.42792501614895,61.771856534382096 78.40000000002328,61.952943043463165 78.6513251455035,62.67728830210399 79.1819004524732,63.28090840074583 79.34945054946002,63.341270363132935 79.9917259211652,63.401632316817995 80.41060116363224,63.55253716331208 81.63930187467486,64.54850779601838 82.14195216551889,64.78995486791246 82.58875242399517,64.85031661432004 84.62727860384621,64.54850779601838 85.54880413704086,64.66923134922399 85.88390433101449,64.66923134922399 86.9450549450703,64.3976033058425 87.64318034914322,64.06561323747155 88.0062055591261,64.0052513787814 88.76018099556677,63.975070446234895 89.29075630253647,63.793984805379296 89.6258564965101,63.975070446234895 89.90510665811598,63.94488951150561 90.07265675498638,64.0052513787814 90.60323206218891,64.337241494708 91.27343244990334,64.94085921763326 91.4968325792579,65.0615826586145 92.02740788634401,65.12194436611026 92.53005817730445,65.0615826586145 93.50743374286685,64.85031661432004 94.65235940541606,64.45796510839136 95.6855850033462,64.337241494708 96.04861021332908,64.18633692897856 96.35578539117705,63.94488951150561 97.27731092448812,62.82819340779679 97.69618616683874,62.466021063533844 97.97543632844463,62.10384840820916 98.22676147392485,61.65113215186284 98.47808661940508,61.349321044195676 98.70148674864322,60.8362416656455 99.23206205561291,60.292980466765584 99.31583710410632,60.051530820463086 99.31583710410632,59.53844986303011 99.37168713647407,59.0555495681765 99.51131221733522,58.69337398419157 99.59508726582862,58.270835409814026 100.4049127344042,57.27484995225677 101.04718810599297,56.67122125750757 102.05248868791386,55.3130535351811 102.4713639303809,54.89051157399081 103.25326438283082,54.34724271600135 104.17478991602547,53.53233811678365 105.43141564319376,52.32506914934493 106.15746606339235,51.57052428962197 107.05106658057775,50.936705564090516 107.7212669684086,50.36324970572605 107.94466709776316,50.091612448042724 108.50316742097493,49.669065254944144 108.698642533971,49.45779149961891 108.81034259870648,49.21633564966032 109.20129282493144,48.76360555822612 110.26244343910366,47.67705135574215 111.18396897229832,47.16395534243202 111.8262443440035,46.68104087730171 112.07756948948372,46.5904943534988 112.69191984494682,46.49994781022542 112.99909502267838,46.53012999345083 113.72514544287696,46.379219055670546 115.51234647724777,46.16794365199166 116.82482223666739,45.83593923243461 117.41124757612124,45.65484580237535 118.36069812555797,45.26247643731767 119.03089851338882,45.05120047405944 119.72902391746175,44.71919517518836 121.32074983860366,43.843907224945724 121.60000000009313,43.7835424716759 121.51622495159972,43.934454338479554 121.23697479011025,44.23627791000763 120.6505494506564,44.59846591067617 117.74634777009487,45.65484580237535 116.15462184895296,46.13776144289295 115.12139625102282,46.379219055670546 114.53497091156896,46.43958343731356 113.19457013590727,46.40940124753979 112.77569489344023,46.40940124753979 112.49644473183434,46.46976562481723 112.24511958647054,46.5904943534988 111.71454427938443,47.07340892232605 111.26774402079172,47.284683872392634 110.82094376219902,47.67705135574215 110.54169360059313,47.858143917284906 108.9778926956933,49.27669962507207 108.27976729173679,50.15197629822069 107.30239172605798,50.90652369620511 106.07369101489894,52.083614941104315 104.17478991602547,53.592701474408386 103.47666451206896,54.43778757425025 102.49928894639015,55.192327303782804 101.43813833233435,56.33922510701814 100.96341305761598,56.91267283906927 100.4049127344042,57.69738952454645 100.26528765354306,58.089747319725575 99.8743374273181,59.65917485035607 99.42753716884181,60.65515467710793 98.28261150617618,62.07366733960225 96.13238526182249,64.57868868749938 95.85313510033302,64.88049748420599 95.6855850033462,64.97104008114547 94.3451842275681,65.09176351342467 93.42365869425703,65.12194436611026 93.0047834519064,65.21248691115761 92.33458306407556,65.24266775517026 91.77608274086379,65.39357194301556 91.46890756313223,65.3332102743152 91.18965740140993,65.18230606496218 90.85455720766913,64.91067835202557 90.49153199745342,64.51832690226729 90.15643180347979,64.27687967484235 89.90510665811598,63.492175231163856 89.79340659349691,63.341270363132935 89.48623141576536,63.13000345710316 88.70433096319903,62.73765035087126 88.50885585008655,62.5867452127859 88.36923076934181,62.25475371911307 88.36923076934181,61.83221871269052 88.42508080159314,61.5002266249503 88.76018099556677,60.685335847199894 88.95565610856283,60.44388642554986 89.31868131877854,60.292980466765584 89.57000646414235,60.11189324496081 89.57000646414235,59.991168387263315 89.68170652876142,59.810081035859184 89.68170652876142,59.47808735643048 89.51415643189102,59.387543580291094 89.29075630253647,59.357362317241495 89.17905623803381,58.81409921348677 88.98358112480491,58.089747319725575 89.011506141047,57.66720814059954 89.20698125404306,57.244668538012775 89.20698125404306,56.94285427700379" stroke="#ffbf00" stroke-linecap="round" stroke-linejoin="round" stroke-width="0.5"><title>2026-03-27 5.0km</title><desc>17871389742</desc></polyline><polyline fill="none" points="156.79804878041614,39.95474274040316 156.58731707313564,40.182509651611326 156.76292682939675,40.600082068296615 157.04390243906528,41.43522591513465 157.25463414634578,42.574056314100744 156.97365853656083,45.04151378918323 156.97365853656083,45.68684692718671 157.0790243903175,46.484022072399966 157.04390243906528,47.129353455326054 156.93853658542503,47.50895978428889 156.76292682939675,47.73672345120576 156.5170731707476,47.85060524800792 155.60390243900474,47.96448702036287 154.86634146352299,48.11632934544468 153.67219512199517,48.49593496799935 152.96975609764922,48.8375797959452 152.75902439036872,48.87554031884065 150.932682926883,48.98942187111243 149.52780487807468,48.91350083902944 147.87707317073364,48.723698211077135 146.68292682932224,48.68573767741327 145.87512195121963,48.91350083902944 145.76975609757937,48.98942187111243 145.66439024393912,49.17922440392431 145.5590243904153,49.938433855830226 145.5941463415511,50.39395900524687 146.12097560975235,52.59565837905393 146.577560975682,53.96222580730682 146.68292682932224,54.94918898236938 146.64780487818643,55.63247010472696 147.28000000002794,56.6953501009848 147.49073170730844,57.26474922290072 147.45560975617263,58.06190696664271 147.24487804889213,58.70722426264547 146.8234146342147,59.61825910874177 146.7882926829625,59.84601757582277 146.85853658546694,60.263574511307525 147.03414634149522,60.64317144025699 147.49073170730844,61.0227680974931 147.5960975609487,61.97175855218666 147.3853658537846,62.31339470020612 146.89365853648633,62.579111552156974 144.8214634147007,63.034625845815754 144.50536585366353,63.338301824231166 144.40000000002328,63.64197762886761 144.47024390264414,63.8317749183916 144.85658536595292,64.32524755352642 145.24292682937812,64.6668821858766 145.62926829280332,65.08443532657111 145.9804878049763,65.27423210005509 146.50731707317755,65.38811013149098 147.03414634149522,65.65382544332533 147.3853658537846,66.07137780712219 148.0175609756261,66.29913350346033 148.71999999997206,67.09627767032362 149.07121951226145,67.28607372401166 149.45756097568665,67.36199212650536 150.65170731721446,67.1721961000294 152.3726829268271,67.13423688651528 152.82926829275675,67.0583184515126 153.5317073171027,67.09627767032362 154.86634146352299,66.83056308116647 155.9199999999255,66.5648483588302 157.3248780487338,66.45097057992825 157.8517073171679,66.18525566748576 157.99219512194395,66.18525566748576 158.34341463411693,66.29913350346033 158.76487804891076,66.29913350346033 159.01073170721065,66.33709277663729 160.13463414635044,67.1721961000294 160.97756097570527,67.66566562760272 161.18829268286936,67.70362480307813 161.75024390243925,67.70362480307813 166.14048780489247,66.67872611328494 166.73756097559817,66.45097057992825 167.47512195131276,65.65382544332533 168.07219512201846,64.74280096311122 169.12585365853738,63.64197762886761 169.65268292685505,62.95870682399254 170.28487804881297,61.364404856693 170.355121951201,60.98480844392907 170.28487804881297,60.11173566369689 170.355121951201,59.504379838559544 170.70634146337397,58.631304621492745 170.98731707327534,58.25170625283499 175.16682926821522,54.835308709793026 176.9229268290801,52.937300566234626 178.3278048778884,51.57073049721657 180.11902439023834,50.16619647940388 181.34829268278554,49.065342892397894 182.01560975599568,48.60981660182006 182.999024390243,47.622841629898176 184.0175609755097,46.863628863269696 185.14146341453306,45.8007291641552 185.70341463398654,45.38316084237886 186.26536585355643,45.07947458367562 186.86243902426213,44.32025817615795 187.5648780487245,43.94064956478542 187.59999999997672,43.8647278099088 187.45951219496783,43.71288426758838 187.35414634132758,43.6749233751907 186.96780487790238,43.9026886888023 186.7921951218741,44.16841476425179 186.47609756095335,45.19335695108748 186.08975609752815,45.72480767563684 185.80878048785962,45.95257210871205 184.43902439018711,46.74974685462075 183.13951219501905,47.77468405291438 181.839999999851,48.91350083902944 180.96195121947676,49.786592052318156 179.94341463397723,50.50784023152664 178.64390243892558,51.83645273093134 177.2741463414859,52.97526079567615 176.57170731702354,53.69650463870494 175.41268292674795,54.72142841271125 174.85073170729447,55.328789714578306 173.9375609755516,56.08799036391429 172.28682926832698,58.0239471012319 171.09268292679917,61.47828372757067 170.60097560973372,62.427273367356975 166.5619512195699,67.21015531072044 166.1756097561447,67.58974726864835 165.8243902438553,67.66566562760272 164.10341463412624,67.77954314579256 162.97951219521929,67.93137979853782 160.97756097570527,68.04525725959684 160.59121951228008,67.93137979853782 159.53756097564474,67.0583184515126 159.0809756098315,66.64076686443877 158.80000000004657,65.80566270451527 158.6595121951541,65.57790679635946 158.5190243901452,65.46402880561072 157.78146341466345,65.12239468665211 157.57073170738295,64.85667910872144 157.53560975613073,64.6668821858766 157.53560975613073,63.75585601074272 157.78146341466345,62.730949693504954 158.0624390244484,62.08563729262096 158.23804878047667,61.3264452276926 158.72975609754212,60.9468487877748 158.69463414640632,60.98480844392907" stroke="#4dd2ff" stroke-linecap="round" stroke-linejoin="round" stroke-width="0.5"><title>2026-03-25 4.2km</title><desc>17847087081</desc></polyline><polyline fill="none" points="24.727804878144525,87.84085720902658 24.868292682804167,88.25843004410854 25.289756097598,91.14346973958891 25.184390243841335,92.39617945725331 25.11414634156972,93.95257225717069 24.903414634172805,95.47099985543173 24.798048780532554,95.85060607574997 24.34146341471933,96.07836967750336 22.304390243953094,96.34409375593532 20.232195122051053,96.79962043775595 17.914146341499873,97.0273836319102 15.701463414705358,97.06534415477654 14.05073170736432,97.21718621900072 13.734634146327153,97.29310723487288 13.769756097579375,97.33106773873442 13.734634146327153,97.44494923396269 13.06731707311701,98.69764406749164 12.856585365952924,99.6846136705426 12.78634146344848,100.32993895647814 12.821463414700702,100.74750195845263 12.997073170728981,101.16506463164114 13.242926829261705,101.58262697607279 14.015609756228514,102.5695912107476 14.226341463509016,102.94919235041016 14.542439024429768,103.74635385946021 15.28000000002794,104.31575420388253 15.80682926834561,104.35371420509182 16.122926829382777,104.50555418280419 16.228292683023028,104.69535409391392 16.26341463404242,105.11291365907528 15.947317073238082,106.5933494689234 15.490731707308441,107.5423446095956 15.034146341611631,108.18766033547581 14.963902438990772,108.5292977548088 14.999024390242994,108.68113653731416 15.38536585366819,109.17461227992317 15.420487805036828,109.70604718182585 15.56097560969647,110.04768362318282 15.420487805036828,110.12360280254507 13.348292683018371,110.76891538815107 13.13756097573787,110.95871305800392 12.997073170728981,111.30034869269002 12.50536585377995,111.75586253002984 12.400000000023283,111.90770038880873 12.400000000023283,112.0215787544148 12.540487805032171,112.32525427656947 13.032195122097619,113.0844423212111 13.559024390182458,113.57791396751418 13.910243902471848,113.76771063238266 14.753170731826685,113.84362927931943 14.999024390242994,113.91954791534226 15.315121951280162,114.22322235084721 15.982439024373889,114.64077441592235 16.64975609758403,115.3619999360235 17.03609756100923,115.55179596252856 17.42243902455084,115.62771435413742 18.54634146357421,115.51383676266414 19.389268292696215,115.32404072253848 21.988292682915926,115.28608150634682 22.550243902485818,115.1722038416192 23.884878048789687,114.71669293788727 25.465365853742696,114.48893733945442 26.13268292695284,114.26118164314539 26.483902439009398,114.41301878486411 26.87024390255101,114.41301878486411 27.080975609715097,114.48893733945442 27.923902439069934,115.09628538473044 28.73170731717255,115.77955110467155 28.977560975705273,115.93138781178277 29.4341463415185,115.96934698178666 30.101463414612226,115.85546946362592 30.62829268304631,115.66567354576546 31.33073170739226,115.51383676266414 32.489756097551435,115.05832615232794 33.75414634158369,114.83057070046198 34.35121951228939,114.60281515095267 35.229268292780034,113.95750722923549 36.42341463419143,112.59097021573689 36.9502439025091,111.8317814648617 37.652682926971465,110.54115809465293 38.28487804881297,109.70604718182585 38.530731707345694,109.17461227992317 38.74146341474261,108.49133805240854 38.706341463373974,107.65622391231591 38.77658536587842,106.82110845745774 38.91707317077089,106.51742978434777 39.3034146343125,105.98599168774672 41.76195121963974,103.8602339772624 43.76390243915375,102.30387025125674 44.95804878056515,101.08914417005144 46.468292683013715,99.79849466041196 47.69756097556092,98.62172325263964 50.05073170736432,96.83758097686223 51.104390243883245,95.66080299951136 52.57951219507959,94.44606170346378 53.843902439111844,93.26927841961151 54.54634146345779,92.96559198701289 55.17853658553213,92.51006201209384 55.60000000009313,92.58598370171967 55.389268292696215,92.4721011632646 55.17853658553213,92.54802285830374 54.476097561069764,93.45908235170646 54.054634146392345,93.91461151157273 52.193170731770806,95.12935402482981 50.54243902442977,96.57185714566731 50.0156097561121,96.95146257805754 48.78634146344848,98.2041585771367 45.76585365855135,100.86138272014796 43.69365853664931,102.75939181447029 42.288780487840995,104.16391417186242 40.954146341537125,105.87211202640901 40.46243902435526,106.36559038245468 39.68975609750487,107.95990193358739 39.09268292679917,109.81992602010723 38.63609756110236,110.65503675362561 34.5970731707057,115.47587756003486 34.28097560966853,115.74159192104707 34.03512195125222,115.85546946362592 33.71902439033147,115.85546946362592 31.75219512206968,115.89342863910133 31.50634146342054,115.96934698178666 29.46926829277072,116.04526531361626 28.90731707320083,116.15914279100252 27.818536585429683,115.39995914671454 27.361951219616458,114.94444843858946 27.010731707327068,114.07138515484985" stroke="#4dd2ff" stroke-linecap="round" stroke-linejoin="round" stroke-width="0.5"><title>2026-03-24 4.0km</title><desc>17833902173</desc></polyline><polyline fill="none" points="105.1867343026097,80.4146854546998 105.01045313675422,80.44405636092415 104.96977286768379,80.40000000000873 104.725691253494,80.48811271229351 104.31888856308069,80.69370889180573 104.27820829406846,81.03147359045397 104.27820829406846,81.325181565815 104.21040784567595,81.4426646366046 104.18328766635386,81.70700129654142 104.15616748691536,81.83916949703416 104.14260739722522,82.58812100278737 104.12904730759328,82.6321768873895 104.04768676951062,82.67623276243103 103.99344641075004,82.79371504894516 103.96632623136975,82.88182671906543 103.9798863211181,83.01399415233755 103.93920605204767,83.0727352060785 103.26120156806428,83.23427301597258 103.05780022288673,83.4692368729302 102.6509975324152,83.45455163987936 102.44759618723765,83.20490251469892 102.00011322781211,83.10210572653159 101.53907017869642,83.1461614992877 101.05090695025865,83.23427301597258 100.25086165912217,82.95525308152719 99.92541950684972,82.95525308152719 99.53217690606834,83.0874204668653 99.55929708539043,83.61608914499811 99.54573699575849,83.89510816842085 99.47793654730776,84.17412680714915 99.36945582990302,84.49720053987403 99.34233565058094,84.98181017203024 99.28809529187856,85.17271667822206 99.11181412602309,85.52515898583806 99.00333340856014,85.8629156214156 98.92197287053568,86.25941182227689 98.88129260146525,86.65590724641515 98.81349215307273,86.83212718561117 98.85417242208496,86.86149716055661 99.24741502274992,87.02303194660635 99.3016553815105,87.08177183684893 99.28809529187856,87.16988164024951 99.19317466410575,87.46358070790302 99.19317466410575,87.62511501347763 99.26097511249827,87.78664919015137 99.36945582990302,87.96286814492487 99.5186168164364,88.09503226031666 99.59997735446086,88.22719628945924 99.6406576235313,88.38872998561419 99.65421771322144,88.65305757403257 99.68133789254352,88.72648184288119 99.80337869969662,88.78522123878065 100.02034013450611,88.78522123878065 100.21018139010994,88.81459093035664 100.56274372170446,88.60900299991772 100.64410425978713,88.60900299991772 100.44070291466778,88.68242728474434 100.35934237652691,88.75585154297005 100.31866210751468,88.82927577453665 100.31866210751468,88.94675448966154 100.37290246621706,89.09360278764507 100.45426300429972,89.25513579243852 100.63054417015519,89.3138750349608 100.71190470823785,89.43135346881172 100.77970515668858,89.75441881045117 100.79326524632052,89.90126652251638 100.83394551533274,89.9746903386258 100.9153060534154,89.98937509866664 100.96954641217599,89.96000557755178 101.06446703989059,89.63694056405802 101.10514730890281,89.59288620408915 101.14582757797325,89.57820141527918 101.45770964061376,89.62225577846402 101.76959170325426,89.62225577846402 101.87807242065901,89.56351662543602 101.94587286910973,89.56351662543602 102.08147376589477,89.60757099180773 102.32555538014276,89.60757099180773 102.39335582853528,89.63694056405802 102.44759618723765,89.71036447603547 102.47471636661794,89.79847313527716 102.47471636661794,89.87189698862494 102.18995448329952,90.42991740406433 102.01367331756046,90.67955761820485 101.9051926000393,91.00262096774532 101.76959170325426,91.20820646719949 101.70179125486175,91.48721502535045 101.67467107548146,91.81027708596957 101.62043071677908,91.82496171287494 101.41702937154332,91.72216930240393 101.14582757797325,91.54595362018154 100.84750560502289,91.44316106804763 100.3864625559072,91.1788371229195 99.72201816161396,90.60613405774347 99.65421771322144,90.57676462613745 99.31521547120064,90.62081877198943 99.15249439509353,90.60613405774347 98.90841278078733,90.44460213104321 98.69145134597784,90.20964637119323 98.58297062851489,90.13622264032892 98.3117688348866,90.0774836364435 98.24396838643588,90.09216838900466 98.18972802773351,90.13622264032892 98.1219275793992,90.2683853367198 97.98632668255595,90.94388221525878 97.79648542706855,91.57532291123061 97.64732444059337,92.51513797417283 97.41680291603552,93.68990066747938 97.3761226470233,94.08638153786887 97.32188228826271,94.35070168675156 97.2540818398702,94.57096821388404 97.2540818398702,94.58565264049685 97.30832219857257,94.51223049675173 97.33544237795286,94.55628378620895 97.32188228826271,94.65907475764106 97.26764192950213,94.82060332159745 97.1320410327171,95.07023812150874 97.06424058438279,95.2611351137457 96.94219977722969,95.98066831278265 96.80659888044465,96.37714469709317 96.75235852168407,96.86172589020862 96.63031771458918,97.19946361168695 96.52183699712623,97.66935863479739 96.53539708681637,97.83088479714934 96.39979619003134,98.28609419768327 96.3591159209609,98.66788193806133 96.34555583132897,99.26993037367356 96.38623610028299,99.60766407819756 96.33199574163882,100.12160559116455 96.27775538287824,100.42996987278457 96.18283475516364,100.69428174040513 96.1692746654735,100.89985739893746 96.08791412739083,101.25227232798352 96.07435403764248,101.73684185395541 95.97943340992788,102.10393920775095 95.88451278221328,102.64724207003019 95.87095269252313,102.75002893405326 95.9251930511673,103.0143377733475 95.81671233376255,103.1171244510333 95.76247197506018,103.41080038552172 95.74891188537003,103.63105705694761 95.77603206475032,103.92473224611604 95.8302724235109,104.15967209084192 95.9251930511673,104.29182563368522 96.12859439640306,104.45334651343 96.31843565194868,104.67360205088335 96.54895717650652,104.84980630839709 96.65743789396947,105.01132674310065 96.90151950815925,105.26094897967414 97.24052175012184,105.4958872741845 97.47104327467969,105.61335631928523 97.51172354380833,105.67209081625333 97.48460336442804,105.68677443783963 97.349002467643,105.71614167781081 97.09136076370487,105.74550891351828 96.6031975352671,105.70145805836364 96.20995493448572,105.89234502821637 96.22351502423408,105.92171223838523 96.31843565194868,105.89234502821637 96.18283475516364,105.95107944430492 96.19639484479558,106.59715689683799 96.2641952932463,107.06703011319041 96.20995493448572,107.2579157959699 96.18283475516364,107.56626921113639 96.20995493448572,107.65437010067399 96.38623610028299,107.87462215682899 96.38623610028299,107.91867253935197 96.15571457572514,108.13892430807755 95.74891188537003,108.46195980231278 95.40990964340745,108.59411053780059 95.31498901563464,108.65284417034127 95.16582802915946,108.82904496579431 95.04378722200636,109.03461236672592 94.90818632527953,109.13739598896063 94.8403858768288,109.53384661467862 94.8403858768288,109.73941330026719 94.81326569744851,109.93029646437208 95.09802758070873,109.97434639977291 95.28786883631255,110.07712954512681 95.5183903608704,110.13586274761474 95.85739260283299,110.37079538727994 95.99299349967623,110.5323114189523 96.57607735588681,110.87002634177043 96.98288004624192,111.33988964546006 97.11848094308516,111.44267209788086 97.3761226470233,111.54545449811849 97.85072578577092,111.63355365682219 98.06768722063862,111.75101914216066 98.17616793810157,111.8538013859361 98.2168482071138,111.9859499084123 98.20328811742365,112.41176122780598 98.2168482071138,112.54390938630968 98.23040829686215,112.60264187352732 98.35244910395704,112.70542368512542 98.62365089752711,112.74947301702923 98.98977331887,112.74947301702923 99.32877556083258,112.83757165205316 99.72201816161396,112.89630405411299 99.9525396861718,112.99908571675769 99.99321995518403,113.0578180719749 100.02034013450611,113.17528273137577 99.99321995518403,113.30743039176741 99.88473923777929,113.52767630082963 99.57285717513878,113.92411833364167 99.35589574021287,114.07094851927832 99.27453520218842,114.1590465795598 99.12537421571324,114.43802351770864 98.96265313954791,114.62890225402953 98.84061233239481,114.87851263783523 98.70501143555157,115.08407389945933 98.56941053882474,115.55392742838012 98.46092982142,115.74480511322326 98.36600919358898,115.84758533057175 98.3117688348866,116.22933996703068 98.08124731032876,116.7579221220949 97.82360560639063,117.91786146178492 97.60664417158114,118.10873691929737 97.5659639025107,118.18215050893195 97.28120201919228,118.10873691929737 97.32188228826271,118.10873691929737 97.36256255727494,118.16746779311507 97.30832219857257,118.22619864989247 97.38968273665523,118.13810235835263 97.4439230953576,118.18215050893195 97.43036300566746,118.09405419818358 97.349002467643,118.09405419818358 97.38968273665523,118.12341963933432 97.2269616604899,118.10873691929737 97.2540818398702,118.06468875275459 97.38968273665523,118.06468875275459 97.60664417158114,118.12341963933432 97.6880047096638,118.16746779311507 97.74224506830797,118.21151593732066 97.74224506830797,118.27024678132148 97.52528363344027,118.97501558167278 97.55240381282056,119.25398588782991 97.45748318510596,119.40081221044238 97.06424058438279,119.81192534776346 96.95575986691983,119.95875126603642 96.88795941852732,120.19367251396761 96.61675762484083,120.86906958449981 96.53539708681637,121.00121222627058 96.42691636941163,121.05994226160692 96.34555583132897,121.16271978248551 96.1692746654735,121.45636955485679 96.07435403764248,121.67660660482943 96.1421544860932,121.7206539860781 96.6981181629817,121.54446440357424 96.82015897007659,121.55914687464247 96.86083923914703,121.61787674823427 96.87439932883717,122.08771512428939 96.82015897007659,122.36668114455824 96.77947870106436,122.44009319129691 96.65743789396947,122.5869172050443 96.63031771458918,122.6750115622126 96.63031771458918,122.86588253801165 96.67099798360141,123.18889454896271 96.58963744551875,123.36508270156628 96.64387780427933,123.60000000000582 96.38623610028299,123.40912971574289 96.37267601065105,123.42381205169659 96.39979619003134,123.4825413848157 96.39979619003134,123.54127070090908 96.53539708681637,123.54127070090908 96.53539708681637,123.49722371545795 96.61675762484083,123.49722371545795" stroke="#ffa000" stroke-linecap="round" stroke-linejoin="round" stroke-width="0.5"><title>2026-03-21 5.9km</title><desc>17833902373</desc></polyline><polyline fill="none" points="156.7278048780281,87.95474173506955 156.79804878053255,88.52415887068491 156.83317073166836,89.70095234675682 157.14926829270553,91.18143075273838 157.21951219520997,91.82676620039274 157.04390243906528,94.90158901942777 156.97365853667725,95.20527425655746 156.79804878053255,95.39507744141156 155.18243902456015,96.15428950160276 154.40975609759334,96.4200134658895 150.44097560981754,96.87553995213239 147.66634146356955,97.10330304855597 146.8234146340983,97.29310555418488 146.71804878045805,97.33106604716158 146.64780487807002,97.44494750976446 146.47219512204174,98.65968158948817 146.68292682943866,100.78545953449793 146.64780487807002,101.46874349316931 146.7882926829625,102.53162790136412 146.68292682943866,103.1010293867439 146.43707317078952,103.70839029748458 146.33170731703285,104.12595052013057 146.9990243903594,104.16391052410472 147.03414634149522,104.80923017548048 146.92878048785497,105.91006776865106 146.92878048785497,107.08682266948745 147.45560975617263,108.83297029189998 147.73658536584117,109.32644575214363 147.84195121959783,109.70604194764746 148.08780487813056,110.00971870840294 147.49073170754127,110.1995165956032 146.0156097561121,110.38931441487512 145.34829268301837,110.54115262138657 144.50536585377995,111.41422146552941 144.40000000002328,111.60401885025203 144.40000000002328,111.75585670903092 144.50536585377995,112.02157285739668 145.6292682926869,113.04647675444721 145.87512195133604,113.19831420035916 146.43707317078952,113.23627355505596 146.9990243903594,113.42607028773637 147.66634146356955,114.1472972528718 149.07121951226145,115.24811546693672 149.3873170731822,115.39995228275075 149.66829268308356,115.39995228275075 150.5463414634578,115.134237826569 151.9512195122661,115.02036016184138 153.1453658536775,115.05831938609481 153.6721951221116,115.17219704276067 153.9180487805279,115.17219704276067 155.04195121955127,114.94444170495262 156.868292683037,114.33709365967661 157.64097560977098,114.29913438367657 158.13268292683642,114.1472972528718 158.6243902440183,114.18525653958204 158.94048780482262,114.0713786710694 159.22146341472398,114.1472972528718 159.6780487805372,114.45097147117485 160.80195121956058,115.55178905505454 161.223414634238,115.74158495932352 162.2068292683689,115.66566660575336 162.94439024385065,115.4379114798503 164.17365853663068,115.21015625624568 165.0165853658691,114.98240093479399 166.07024390250444,114.98240093479399 166.45658536581323,114.86852323741186 167.05365853663534,114.41301220332389 168.03707317064982,113.42607028773637 168.28292682929896,113.08443611994153 169.1609756097896,112.28728887275793 169.7229268293595,111.90769452447421 170.3200000000652,110.99666698020883 170.46048780484125,110.65503124779207 170.63609756086953,109.85788034970756 170.98731707327534,108.79501062215422 171.05756097566336,108.14969581991318 170.9521951219067,107.54233999477583 170.98731707327534,106.93498347411514 171.0926829269156,106.4415057891456 171.3034146343125,106.06190725741908 171.65463414636906,105.75822823648923 172.357073170715,105.3027093790879 175.23707317083608,102.91122895953595 178.95999999996275,99.38092863297788 181.91024390258826,96.91350047499873 182.82341463433113,96.04040776187321 183.49073170742486,95.28119553861325 184.64975609758403,94.21829660027288 186.26536585367285,92.96559154533315 187.10829268302768,92.13045319812954 187.60000000009313,91.71288353134878 187.45951219508424,91.59900083794491 187.3190243904246,91.59900083794491 187.1785365854157,92.35821833231603 186.9678048780188,92.85170912084868 186.26536585367285,93.68684633227531 184.50926829280797,94.93954968368053 182.71804878045805,96.4200134658895 181.55902439018246,97.52086847121245 178.32780487812124,100.25401584702195 177.55512195115443,101.05118117853999 176.64195121941157,101.77242496996769 176.00975609768648,102.45570765715092 174.81560975627508,103.44266998468083 174.1131707316963,104.08799051347887 172.98926829278935,105.41658913015272 172.28682926832698,106.4415057891456 171.83024390251376,107.73213876478258 171.3034146343125,109.63012273021741 170.98731707327534,110.23747616485343 169.7229268293595,111.86973507463699 166.84292682923842,115.24811546693672 166.49170731718186,115.55178905505454 166.07024390250444,115.66566660575336 164.10341463412624,115.77954413200496 161.36390243913047,116.04525826493045 160.87219512206502,116.00729911122471 160.59121951228008,115.85546246930608 159.39707317086868,114.71668626950122 159.11609756108373,114.22321582373115 158.83512195118237,113.91954147507204 158.870243902551,113.61586695260485 158.34341463411693,113.38811094666016 158.0624390244484,113.04647675444721 157.81658536591567,112.43912653595908 157.81658536591567,112.17341059679165 158.0975609755842,110.65503124779207 158.2731707318453,110.42727397062117" stroke="#4dd2ff" stroke-linecap="round" stroke-linejoin="round" stroke-width="0.5"><title>2026-03-12 4.1km</title><desc>17691059793</desc></polyline><polyline fill="none" points="12.700347624486312,129.95479140226962 12.900579374050722,131.09098634694237 12.950637311674654,132.55180590902455 12.900579374050722,134.39135245257057 12.600231749704108,135.90626977407373 12.900579374050722,139.7476536569884 13.000695249065757,144.9416064567631 12.65028968709521,152.35374812752707 12.700347624486312,155.05889121926157 12.500115874689072,155.92453496425878 12.399999999906868,156.57376712246332 12.500115874689072,157.11479349504225 12.85052143689245,158.03453743999125 13.301042873645201,158.7378702898277 14.001853997819126,159.3329975748784 15.15318655851297,159.87402197287884 15.103128621121868,160.30684121261584 14.752723058918491,160.41504598374013 14.502433371730149,160.95606960740406 14.352259559556842,161.6593997394084 14.30220162216574,162.52503592672292 14.452375434339046,163.3906711229356 15.403476245701313,166.09577472280944 15.603707995032892,167.44832289312035 15.75388180743903,167.77293409401318 16.35457705659792,168.36805426707724 17.85631517972797,169.2336827731924 18.807415990624577,169.17958102066768 20.55944380047731,168.96317397151142 23.913325608242303,168.09754515561508 25.765469293110073,168.04344332165783 26.666512166848406,167.55652664235095 29.720046349801123,165.28424465912394 30.170567786553875,164.90553033119068 30.621089223539457,164.14810110640246 30.9214368481189,162.52503592672292 31.972653534030542,160.5232507394976 32.17288528382778,159.6035098223947 32.32305909600109,157.43940913281403 32.423174971016124,157.11479349504225 33.42433371953666,155.65402140031802 34.3754345306661,154.73427455930505 35.82711471593939,152.84067459841026 36.52792584011331,152.29964516696054 38.7304750867188,151.00117295165546 39.481344148283824,150.46014220372308 40.28227114700712,149.75680165248923 41.83406720729545,147.91729250154458 46.78980301273987,143.7513287588954 51.1949015064165,139.53123818244785 52.095944379922,138.9360953082214 52.946929316502064,138.07043210905977 54.398609501775354,136.98835171596147 55.39976825029589,135.90626977407373 55.49988412531093,135.90626977407373 55.60000000009313,136.28499862999888 55.49988412531093,136.5555191251333 55.09942062571645,137.20476791862166 54.24843568936922,138.12453608802753 53.347392815863714,138.88199138717027 51.44519119337201,140.07227675250033 50.14368482027203,141.10024896881077 48.29154113540426,142.93977470858954 46.58957126294263,144.29236430843594 45.23800695245154,145.7531583578675 42.88528389320709,147.59267277503386 37.228736964054406,152.67836580966832 36.32769409031607,153.9227322997176 35.07624565460719,155.22119949694024 34.62572421785444,155.92453496425878 33.6245654693339,158.4132552097435 32.873696407768875,160.63145547965541 32.32305909600109,161.76760431705043 27.917960602557287,167.12371155293658 25.815527230501175,169.45008974487428 23.562920046271756,169.61239493300673 23.162456546910107,169.72059837245615 20.30915411328897,169.82880179642234 18.85747392801568,170.0452085977886 18.25677867908962,169.99110690318048 16.855156430974603,169.07137750380207 15.95411355723627,168.25985063402914 15.75388180743903,167.93523964221822 15.75388180743903,167.55652664235095 15.403476245701313,166.79910007328726 14.402317497180775,166.04167274560314 14.10196987260133,165.71706080134027 13.90173812257126,165.01373444427736 14.051911934977397,162.79554703191388" stroke="#4dd2ff" stroke-linecap="round" stroke-linejoin="round" stroke-width="0.5"><title>2026-03-10 3.2km</title><desc>17665858677</desc></polyline><polyline fill="none" points="78.39999999990687,142.2898154630675 79.06291560083628,141.8374761994928 79.43120204587467,141.67298908741213 80.16777493595146,141.6318673005735 80.38874680292793,141.67298908741213 80.49923273641616,141.75523265064112 80.79386189254001,142.33093719297904 81.01483375928365,143.11224938277155 81.78823529393412,143.8935602856509 82.23017902811989,144.67486990167527 82.67212276207283,145.78514977378654 83.2613810740877,146.48421354524908 83.70332480804063,147.34776148753008 83.99795396416448,147.59448918237467 84.47672634269111,147.75897424097639 84.8450127877295,147.71785298161558 85.50792838865891,147.47112535094493 85.91304347827099,147.1832762864069 86.5759590792004,146.8954270471295 87.38618925819173,146.23748527295538 87.90179028129205,145.94963545980863 88.45421994896606,145.78514977378654 88.96982097183354,145.78514977378654 89.3749360612128,145.9907568722847 90.22199488477781,146.73094168922398 90.55345268524252,147.2243975920719 90.84808184136637,147.75897424097639 91.95294117624871,149.28045832875068 92.2107416880317,149.77391157945385 93.53657288989052,148.74588339446927 94.27314577996731,148.37579270257265 95.04654731438495,147.84121674887137 97.88235294120386,146.3197280446475 98.43478260864504,145.9085140436946 98.69258311996236,145.8262712007272 99.09769820957445,146.64869898871984 99.3554987211246,146.8954270471295 99.53964194352739,146.85430571305915 100.16572890011594,146.40197080207872 100.31304347817786,146.36084942508023 100.53401534515433,146.44309217552654 100.97595907910727,146.85430571305915 102.04398976964876,148.58139867821592 102.22813299228437,149.23933720125933 102.26496163662523,150.02063801235636 102.44910485902801,150.96642148288083 102.59641943732277,151.4187520413834 102.706905370811,151.54211484617554 103.03836317104287,151.82996126575745 103.95907928375527,152.2000492629013 104.54833759577014,152.2000492629013 104.87979539623484,152.28229100076715 105.46905370848253,152.7346203046327 107.05268542189151,154.50281253550202 107.49462915584445,154.66729519865476 108.4521739128977,154.9140190865146 109.48337595886551,155.4074664771324 110.62506393855438,156.51772122946568 112.20869565196335,158.40926037859754 112.42966751893982,158.532621365448 112.65063938591629,158.57374168734532 113.97647058800794,158.28589935967466 114.5657289000228,158.03917722543702 115.04450127854943,157.91581611029687 117.18056265963241,157.7924549629679 120.0163682862185,157.09340785586392 121.12122762133367,157.05228740576422 121.41585677745752,156.8878055694222 121.56317135528661,156.5999622188101 121.56317135528661,156.18875712927547 121.34219948831014,155.32522528085974 121.26854219916277,154.7495365087816 121.30537084396929,153.39255306730047 121.23171355458908,153.10470759589225 121.0475703321863,152.77574112900766 120.09002557536587,152.28229100076715 119.13248081807978,151.66547761877882 117.76982097164728,151.04866343471804 116.55447570304386,150.67857453931356 115.63375959079713,150.10288012813544 114.34475703304633,148.8692468944064 113.6818414318841,147.71785298161558 112.72429667506367,146.27860666054767 112.06138107413426,145.12720645961235 111.72992327343673,144.75711294435314 111.39846547297202,144.59262684482383 111.03017902793363,144.5515053110721 110.29360613785684,144.88047748149256 109.5202046034392,145.86739262391347 109.22557544754818,146.07299968678853 108.63631713553332,145.9085140436946 107.45780051127076,145.08608497222303 106.97902813274413,144.59262684482383 106.42659846530296,143.7701954918448 106.24245524266735,143.64683066590806 106.05831202026457,143.68795227821101 105.57953964173794,144.016925047501 104.62199488468468,144.46926223282935 104.1063938618172,144.83935597265372 103.99590792832896,144.96272048846004 103.99590792832896,145.12720645961235 104.1063938618172,145.45617823072826 104.43785166204907,145.9085140436946 104.51150895142928,147.3066401926917 104.40102301794104,148.08794418702018 103.95907928375527,149.40382168951328 103.5171355495695,150.18512222968275 103.29616368259303,150.47296947267023 102.78056265972555,150.63745353303966 102.63324808166362,150.8019375365402 102.63324808166362,151.04866343471804 102.78056265972555,151.45987297981628 103.22250639367849,151.82996126575745 103.7381074167788,152.03556574424147 104.99028132972308,152.24117013360956 105.32173913018778,152.4056535809941 105.87416879762895,152.9402243909717 107.05268542189151,154.42057118250523 107.45780051127076,154.66729519865476 108.2312020456884,154.9962603538297 109.04143222491257,155.28410467752838 109.37289002537727,155.44858706981177 110.36726342700422,156.18875712927547 111.84040920692496,157.95693648557062 112.2823529408779,158.36814004255575 112.5033248080872,158.49150104008731 113.27672634250484,158.57374168734532 113.79232736537233,158.49150104008731 114.74987212242559,158.2036586625327 115.74424552428536,158.03917722543702 116.99641943722963,158.03917722543702 117.88030690513551,157.71021418028977 118.69053708412685,157.2990100531315 119.53759590769187,157.2167691849172 120.23734015319496,157.05228740576422 121.23171355458908,157.01116695202654 121.48951406637207,156.80556462996174 121.56317135528661,156.51772122946568 121.5999999998603,156.18875712927547 121.30537084396929,155.20186346006813 121.26854219916277,153.35143229641835 121.15805626567453,153.02246600060607 120.64245524280705,152.52901612903224 118.54322250629775,151.4187520413834 116.44398976955563,150.63745353303966 115.67058823490515,150.18512222968275 115.08132992312312,149.48606391233625 114.08695652149618,148.5402774901595 113.71867007645778,147.96458048390923 113.27672634250484,147.1010336644249 112.42966751893982,145.86739262391347 111.36163682839833,144.14028977713315 110.77237851638347,143.3589792806888 109.998976981733,142.04308500915067 109.77800511498936,141.54962371618603 109.66751918150112,141.42625831265468 109.44654731452465,141.508501918579 108.30485933483578,142.2898154630675 107.08951406623237,142.9066410365631 106.83171355491504,142.9066410365631 106.61074168793857,142.8243976730737 106.3897698209621,142.41318064185907 106.02148337592371,142.1253285080602 105.32173913018778,142.33093719297904 103.95907928375527,142.9888843857916 102.37544757011347,143.9758034638653 102.00716112507507,144.46926223282935 100.53401534515433,145.2094494237972 99.5028132989537,145.9085140436946 97.91918158531189,146.73094168922398 97.36675191810355,147.1010336644249 95.74629155988805,147.88233799740556 93.2419437339995,149.44494280271465 92.02659846539609,150.10288012813544 91.58465473121032,150.4318484487303 90.92173913028091,150.67857453931356 90.25882352911867,150.76081654103473 89.52225063950755,151.08978440531064 89.0066496161744,151.45987297981628 88.19641943718307,152.28229100076715 87.16521739121526,152.81686194977374 86.79693094617687,152.77574112900766 86.50230179005302,152.44677443386172 86.39181585656479,151.87108216853812 86.28132992307656,151.45987297981628 85.8762148336973,150.84305852846592 85.36061381059699,150.3496063898492 84.95549872121774,149.36270057284855 84.47672634269111,148.58139867821592 83.5928388745524,148.41691390483174 83.224552429514,148.25242907437496 82.96675191819668,148.25242907437496 81.60409207153134,148.91036805394106 80.97800511517562,149.36270057284855 80.16777493595146,149.73279049494886" stroke="#4dd2ff" stroke-linecap="round" stroke-linejoin="round" stroke-width="0.5"><title>2026-02-24 4.7km</title><desc>17506081930</desc></polyline><polyline fill="none" points="144.39999999990687,147.3137016464607 144.65326633141376,146.99051948118722 146.17286432138644,145.69778857842903 147.04120602994226,145.37460529236705 147.87336683413014,144.97062586963875 148.45226130634546,144.80903400247917 149.24824120593257,144.7282380479155 149.57386934640817,144.36465607906575 149.7547738691792,144.32425806496758 149.97185929631814,144.32425806496758 150.47839195956476,144.5262481001846 151.02110552741215,144.60704408990568 151.56381909525953,144.2030640017765 152.5768844219856,143.79908356352826 153.1919597988017,143.43550086955656 153.95175879378803,143.19311224936973 154.6753768841736,142.78913093562005 155.03718592924997,142.66793647326995 155.36281407019123,142.66793647326995 155.68844221089967,142.7487327850249 155.94170854240656,142.95072350322152 156.44824120565318,143.55669513245812 156.95477386913262,143.8798796790943 157.38894472341053,144.48585010017268 157.67839195975102,145.2938094358251 158.14874371839687,145.45540113485185 158.4743718591053,145.9401758957829 158.61909547704272,146.02097164012957 159.59597989916801,145.5361969633086 160.8623115576338,144.64744207941112 162.56281407014467,143.83948162311572 163.21407035156153,143.59709321302944 164.7336683415342,142.70833463093732 164.95075376867317,142.66793647326995 165.24020100478083,142.7487327850249 165.45728643191978,143.1527141337865 165.81909547722898,143.47589896075078 166.43417085404508,143.1123160146526 166.7597989947535,143.07191789208446 167.12160803982988,143.31430657531018 167.44723618077114,143.6374912900792 168.20703517575748,144.8898299431312 168.38793969806284,145.5361969633086 168.49648241186514,146.78853051387705 168.64120602980256,147.43489490068168 168.82211055257358,147.7984744743153 169.0391959794797,148.08125839105924 169.50954773835838,148.32364446873544 169.90753768826835,148.48523511723033 171.3547738690395,148.56603042047936 171.75276381871663,148.72762098483508 172.07839195942506,149.09119954999187 172.80201005004346,150.06074100339902 173.8150753765367,151.11107530191657 174.57487437175587,151.39385720857535 175.2261306529399,151.5150494018162 175.9497487435583,151.8786257923348 177.3608040199615,153.65610628502327 178.01206030114554,154.3832554417313 178.55477386899292,154.78722670534626 179.0251256278716,154.86802091595018 181.08743718569167,154.54484398922068 181.37688442179933,154.62563824193785 181.44924623076804,154.70643248065608 181.52160803996958,154.90841801610077 181.3407035174314,155.3527858860034 181.15979899466038,155.47397704972536 180.617085426813,155.67596225248417 180.18291457253508,155.95874138938962 179.8211055274587,156.36271128736553 179.71256281388924,156.64549000770785 179.67638190928847,157.0898562213406 180.21909547713585,160.3619943850499 180.39999999967404,160.7659604664077 180.68944723601453,161.16992619773373 180.9788944721222,161.3315123921784 181.4854271353688,161.45270200129016 182.02814070344903,161.3315123921784 182.3899497485254,161.0487365150475 182.57085427106358,160.88715022261022 182.71557788923383,160.48318424620084 182.78793969820254,160.07921791973058 182.67939698463306,159.43287106894422 182.3175879395567,157.85739686520537 182.10050251241773,156.60509305811138 181.91959798987955,156.20112337020691 181.666331657907,155.87794736787328 181.4130653264001,155.71635928264004 181.0512562810909,155.59516818195698 180.50854271324351,155.63556521901046 180.18291457253508,155.79715333227068 179.78492462285794,156.20112337020691 179.6402010046877,156.64549000770785 179.60402010031976,156.88787163124653 179.6402010046877,157.7362063213659 179.89346733642742,160.07921791973058 180.11055276356637,160.72556387408986 180.50854271324351,161.21032275169273 180.90653266315348,161.49309853074374 181.5939698489383,161.53349505653023 181.84723618044518,161.45270200129016 182.4623115574941,161.0487365150475 182.82412060257047,160.60437407589052 182.82412060257047,160.07921791973058 182.67939698463306,159.1500940399128 182.57085427106358,157.85739686520537 182.4623115574941,157.45342826287379 182.3175879395567,157.1706500328728 182.2090452259872,156.56469610502245 182.02814070344903,156.1607263821934 181.88341708504595,155.95874138938962 181.30452261283062,155.67596225248417 180.9788944721222,155.55477114135283 180.58090452221222,155.59516818195698 180.11055276356637,155.83755035186186 179.71256281388924,156.32231431329274 179.56783919548616,156.60509305811138 179.53165829135105,157.00906239578035 179.85728643205948,159.55406117177336 180.0743718589656,160.56397746948642 180.21909547713585,160.8063570553495 180.68944723601453,161.25071930201375 181.26834170822985,161.53349505653023 181.55778894433752,161.61428809780045 182.02814070344903,161.41230546851875 182.42613065312617,161.08913307951298 182.60703517566435,160.84675364079885 182.75175879360177,160.3619943850499 182.3175879395567,157.7362063213659 181.91959798987955,156.36271128736553 181.70251256250776,156.07993239560165 181.4130653264001,155.83755035186186 180.9788944721222,155.67596225248417 180.50854271324351,155.63556521901046 180.14673366816714,155.75675630915794 179.9296482410282,155.99913839498186 179.71256281388924,156.36271128736553 179.6402010046877,156.92826855630847 179.89346733642742,158.9885070892342 180.21909547713585,160.64477067880216 180.47236180887558,161.00833994723507 180.9788944721222,161.3315123921784 181.4130653264001,161.41230546851875 182.02814070344903,161.2911158488714 182.24522613035515,161.16992619773373 182.57085427106358,160.8063570553495 182.78793969820254,160.3619943850499 182.82412060257047,160.0388212678663 182.5346733664628,158.3825555248768 182.42613065312617,157.00906239578035 182.10050251241773,155.99913839498186 181.95577889401466,155.87794736787328 181.26834170822985,155.51437409734353 180.58090452221222,155.47397704972536 180.21909547713585,155.59516818195698 179.85728643205948,155.87794736787328 179.53165829135105,156.36271128736553 179.4592964821495,156.72628389619058 179.4592964821495,158.01898420826183 179.85728643205948,160.40239100897452 180.0020100499969,160.72556387408986 180.39999999967404,161.2911158488714 180.58090452221222,161.45270200129016 180.94271356752142,161.57389157888247 181.4130653264001,161.57389157888247 182.10050251241773,161.41230546851875 182.42613065312617,161.16992619773373 182.67939698463306,160.88715022261022 182.82412060257047,160.56397746948642 182.93266331637278,160.07921791973058 182.5346733664628,157.97858737770002 182.3899497485254,156.92826855630847 182.24522613035515,156.44350522497552 182.06432160781696,156.03953539699432 181.7386934668757,155.75675630915794 181.4130653264001,155.59516818195698 181.01507537672296,155.51437409734353 180.50854271324351,155.51437409734353 180.14673366816714,155.63556521901046 179.71256281388924,155.95874138938962 179.6402010046877,156.07993239560165 179.53165829135105,156.64549000770785 179.4592964821495,157.1706500328728 179.60402010031976,158.18057149503147 180.18291457253508,160.60437407589052 180.29145728610456,160.84675364079885 180.58090452221222,161.16992619773373 180.94271356752142,161.37190893208026 181.19597989926115,161.45270200129016 181.63015075353906,161.45270200129016 182.2090452259872,161.21032275169273 182.6432160800323,160.84675364079885 182.86030150717124,160.32159775769105 182.82412060257047,159.47326777342823 182.17286432138644,156.60509305811138 181.81105527631007,156.03953539699432 181.44924623076804,155.75675630915794 181.0512562810909,155.55477114135283 180.68944723601453,155.51437409734353 180.18291457253508,155.63556521901046 179.85728643205948,155.91834438039223 179.6402010046877,156.2819173357857 179.56783919548616,156.80707777070347 179.67638190928847,158.2613651175052 179.8211055274587,159.2308874943992 179.9296482410282,159.59445786575088 180.03819095459767,160.40239100897452 180.14673366816714,160.7659604664077 180.4361809042748,161.16992619773373 181.08743718569167,161.49309853074374 181.95577889401466,161.45270200129016 182.71557788923383,160.88715022261022 182.86030150717124,160.68516727822134 182.96884422074072,160.28120112672332 182.71557788923383,159.19049076893134 182.60703517566435,158.34215872597997 182.5346733664628,157.97858737770002 182.4623115574941,157.21104693342932 182.3175879395567,156.44350522497552 182.17286432138644,156.1203293907456 181.70251256250776,155.63556521901046 181.44924623076804,155.2315946907329 181.4130653264001,154.94881511267158 181.44924623076804,154.6660353630141 181.7386934668757,154.54484398922068 182.78793969820254,154.34285829620785 183.47537688398734,154.10047534896876 184.27135678357445,153.89848946337588 184.9226130649913,153.69650349018048 186.98492462281138,153.37332575101755 187.27437185915187,153.17133955020108 187.5999999998603,152.6461750185117 187.56381909525953,152.20180456791422 187.27437185915187,151.0302804399107 187.27437185915187,149.9395484320994 187.20201004995033,149.6163680877071 187.05728643201292,149.37398268224206 186.47839195956476,148.97000672639115 185.68241205997765,148.60642806676333 184.99497487396002,148.20245144559885 182.71557788923383,147.27330388806877 181.63015075353906,146.66733709161053 180.94271356752142,146.10176737068105 180.0020100499969,144.8898299431312 179.42311557754874,143.47589896075078 178.9527638189029,142.9103253665089 178.518592964625,141.94076903676614 178.19296482391655,141.49638837814564 177.6864321604371,140.40563405575813 177.10753768798895,139.7592599191994 176.85427135648206,139.71886150582577 176.67336683394387,139.5572678175813 175.9497487435583,138.66850153074483 175.62412060284987,138.38571190217044 175.18994974857196,138.62810302284197 174.75577889429405,138.78969703326584 173.85125628113747,139.43607251465437 172.11457286402583,140.2036422342644 170.55879396945238,141.09240559351747 169.90753768826835,141.53678663729806 169.54572864319198,141.6579813939752 167.917587939417,142.6275383120519 167.44723618077114,142.78913093562005 167.15778894443065,142.82952908275183 166.868341708323,142.26395470416173 166.57889447221532,141.9811672574433 165.81909547722898,142.38514927172218 165.45728643191978,142.4659456325171 164.95075376867317,142.9103253665089 164.29949748702347,143.1527141337865 163.39497487409972,143.71828743378865 161.15175879374146,144.8494319745805 160.60904522589408,145.2938094358251 159.84924623090774,145.65739067987306 159.27035175845958,146.22296094018384 158.58291457267478,146.66733709161053 158.29346733656712,146.8289283142949 157.71457286411896,146.8289283142949 156.59296482382342,147.3137016464607 155.61608040169813,147.9196676024585 154.09648241195828,148.6872233489994 153.51758793951012,149.13159715075744 153.40904522594064,149.13159715075744 153.2643216077704,149.01040433777962 153.04723618063144,148.60642806676333 152.86633165809326,148.40443979998236 152.86633165809326,148.12165607939824 152.61306532658637,147.67728131465265 152.5045226130169,147.35409940136014 151.5999999998603,146.18256308714626 151.1658291455824,145.2130135653133 151.02110552741215,145.13221768074436 150.5507537687663,145.2938094358251 150.1165829144884,145.05142178217648 149.71859296457842,145.25341150225722" stroke="#ff9d00" stroke-linecap="round" stroke-linejoin="round" stroke-width="0.5"><title>2026-02-23 6.0km</title><desc>17493745395</desc></polyline><polyline fill="none" points="12.400000000023283,217.59929600154283 12.44700761709828,217.90412843893864 12.588030467974022,217.95493381968117 12.799564744345844,217.90412843893864 13.08161044609733,217.67550413540448 13.269640914048068,217.19285234450945 13.669205658370629,216.60858877233113 14.045266594155692,215.82110156639828 14.11577801965177,215.61787877805182 14.18628944514785,215.18602996654226 14.327312296023592,214.80498646118212 14.867899891221896,213.94128633488435 15.80805223074276,212.89976279906114 16.818715995643288,212.1376704708091 17.59434167575091,211.4771891295095 18.4404787812382,210.56267447402934 20.344287268817425,208.98767148840125 21.21392818284221,208.1493605976575 21.942546245991252,207.56508213921916 22.38911860715598,207.0824166003149 23.1882480958011,206.37111882012687 23.705331882461905,206.04087293765042 24.457453754148446,205.17715148447314 24.621980413561687,204.8977117407194 24.692491839057766,204.51665719019365 24.76300326443743,204.36423525540158 24.92752992385067,204.1864095820929 25.045048966421746,204.13560223043896 25.11556039180141,204.13560223043896 25.421109902090393,203.9577764425776 25.46811751916539,203.83075796812773 25.350598476594314,203.37349108370836 25.350598476594314,202.48435934397276 25.538628944545053,201.59522537665907 25.56213275308255,201.1379556117754 25.44461371062789,201.03634002848412 25.609140369924717,200.9347244159726 26.173231773776934,200.8839165989193 26.94885745376814,200.68068525765557 28.28857453749515,200.55366561029223 28.78215451585129,200.55366561029223 29.04069640918169,200.78230094286846 29.440261153504252,200.9347244159726 29.53427638753783,200.8839165989193 29.46376496204175,200.7060891817091 29.510772578883916,200.6552813318558 30.192383025074378,200.6298774041934 30.427421109867282,200.2234143143869 30.403917301562615,200.09639450340183 30.45092491840478,199.5629108005378 30.427421109867282,199.2072545531555 30.49793253536336,198.95321415815852 30.544940152321942,198.34351646824507 30.63895538635552,198.11487956449855 30.52143634390086,198.14028367222636 32.56626768235583,197.68300945544615 32.49575625685975,197.68300945544615 32.61327529931441,197.53058458556188 32.68378672481049,197.53058458556188 32.89532100118231,198.16568777803332 33.01284004363697,199.02942629574682 33.130359085975215,199.33427468242007 33.7414581066696,200.24881827112404 34.25854189344682,200.90932050839183 34.6110990208108,201.23957116596284 34.82263329718262,201.5190137900936 35.034167573438026,201.56982151628472 35.24570184992626,201.49360992424772 35.36322089226451,201.56982151628472 35.762785636703484,200.96012832189444 36.44439608277753,200.24881827112404 37.5960826985538,200.09639450340183 37.99564744287636,200.07099053569254 38.11316648533102,200.1726063954702 38.1836779108271,200.32503013047972 38.58324265514966,200.75689702428645 39.0298150164308,201.59522537665907 39.241349292802624,201.90007155924104 39.335364526719786,202.23032129491912 39.241349292802624,202.48435934397276 39.053318824851885,202.662185870111 38.536235038074665,202.9416273740062 38.489227421116084,202.99243489658693 38.888792165438645,203.32268361569731 39.07682263327297,203.37349108370836 39.82894450495951,203.0432424118335 40.698585418984294,202.5351669319789 41.662241567042656,202.1541098447051 43.236996735678986,201.36659056789358 43.91860718175303,200.90932050839183 44.623721436364576,200.299626179185 45.6578890098026,199.58831480459776 46.08095756266266,199.4104867381393 47.021109902183525,199.35967870277818 47.420674646506086,199.232658582594 47.96126224170439,199.0040222516982 48.68988030485343,198.44513282267144 49.0189336235635,198.24190008480218 49.159956474555656,197.8354342598177 49.230467900051735,197.75922186585376 49.583025027182885,197.68300945544615 50.12361262238119,197.9624548801221 50.335146898869425,198.0386672304885 50.54668117524125,198.01326311554294 50.758215451729484,197.88624251345755 51.11077257897705,197.555988735141 51.22829162143171,197.225734649488 51.32230685534887,197.12411794593208 51.41632208926603,197.12411794593208 51.674863982596435,197.20033047633478 52.28596300329082,196.717650840641 52.662023939192295,196.28577903111 52.8735582154477,195.95552376331761 53.08509249193594,195.8030981514894 53.461153427721,195.39662953303196 53.55516866163816,195.16799073055154 53.55516866163816,194.63449961852166 53.27312295977026,193.5675149882154 53.27312295977026,193.33887500720448 53.86071817204356,190.82382549211616 54.09575625683647,189.4773775160138 54.471817192737944,187.74985187471611 54.70685527753085,186.9114908115007 54.84787812852301,186.68284654134186 54.94189336232375,186.32717738382053 54.87138193694409,185.412597913004 54.918389554019086,184.85368707578164 54.75386289448943,183.83748329771333 54.80087051144801,183.32938031715457 54.63634385203477,182.99911298957886 54.82437431998551,182.13533544848906 54.82437431998551,181.88128283026163 54.77736670302693,181.62723003013525 54.68335146899335,181.44939296180382 54.330794341745786,181.06831322942162 54.09575625683647,180.91588122182293 52.8970620239852,180.40777405697736 52.28596300329082,180.05209860857576 51.90990206762217,179.74723365463433 51.69836779113393,179.54399020649726 51.43982589780353,179.18831389208208 50.94624591956381,178.27371601742925 50.87573449406773,178.09587726800237 50.89923830260523,178.04506618034793 51.11077257897705,178.09587726800237 51.62785636575427,178.5531767292996 52.85005440702662,179.39155754397507 54.471817192737944,180.63642237122986 55.24744287284557,181.34777173979091 55.52948857471347,181.7288511719962 55.60000000009313,181.9066881002509 55.60000000009313,182.23695644477266 55.43547334067989,183.3547854834178 55.36496191518381,184.2693702589895 54.80087051144801,186.3017724303645 54.70685527753085,186.75906131442753 54.565832426655106,187.74985187471611 53.954733405960724,190.26492317888187 53.67268770397641,191.68758188086213" stroke="#4dd2ff" stroke-linecap="round" stroke-linejoin="round" stroke-width="0.5"><title>2026-01-03 4.3km</title><desc>17507819708</desc></polyline><polyline fill="none" points="84.39270542032318,188.88770371918508 84.43894925602945,188.87431989150355 84.50831500976346,188.91447137054638 84.62392459926195,188.9010875455424 84.79733898345148,188.87431989150355 85.02855816244846,188.78063305943215 85.38694788981229,188.72709769682842 86.11528830352472,188.56649147825374 86.95923830673564,188.35234954829502 87.07484789623413,188.35234954829502 87.2367013214971,188.40588506344648 87.74538351519732,188.72709769682842 87.90723694046028,188.86093606242503 87.96504173515132,188.9412390163925 88.011285570974,189.1286123848986 88.09221228363458,189.95840552118898 88.10377324256115,190.42683481767017 88.13845611939905,190.5472877955326 88.17313899623696,190.62758971950097 88.24250474997098,190.68112430823385 88.45060201105662,190.7881934203033 88.95928420475684,190.9220296877611 89.65294174157316,190.96218054144992 90.7512328416924,190.96218054144992 90.94776914379327,190.97556415660074 91.23679311748128,191.05586581899843 91.3755246248329,191.06924942460319 92.21947462798562,190.9086460671242 92.64723010908347,190.7346588751825 93.32932668703143,190.6543570165959 93.78020408604061,190.52052047668258 94.06922805967042,190.37330012538587 94.17327669024235,190.2796143614687 96.4854684798629,188.0177520844154 96.670443822979,187.81699319729523 96.87854108406464,187.52254627503862 97.36410135985352,187.10764267432387 97.57219862093916,186.90688239742303 98.09244177356595,186.18414286215557 98.27741711674025,185.87630814974546 98.5548801315017,185.56847271654988 98.69361163891153,185.3409417156363 99.2947815041407,184.56465651351027 99.54912260104902,184.1765121933422 100.26590205577668,183.1860697693046 100.42775548103964,182.93176578072598 100.64741370099364,182.62392345219268 100.86707192106405,182.30269590590615 101.57229041692335,181.39254692854593 101.86131439061137,181.09808561604586 101.97692398005165,180.9107008009887 102.52028905064799,180.21469772073033 102.67058151692618,179.97377271889127 102.83243494218914,179.82654055593594 103.00584932643687,179.62576915889804 103.06365412118612,179.50530617346521 103.43360480753472,178.96991379137035 103.53765343804844,178.9163744332036 103.74575069913408,178.8628350532381 104.17350618023193,178.6888319177815 105.59550413076067,178.00620200797857 106.27760070870863,177.80542783038982 106.54350276448531,177.68496317663812 107.07530687615508,177.49757349574065 107.46837948035682,177.33695355671807 107.64179386454634,177.2432585015631 107.98862263304181,177.1227933326154 108.9944260615157,176.88186266335833 109.08691373304464,176.81493739907455 109.30657195305685,176.58739124567364 109.52623017306905,176.45354038315418 109.78057126991916,176.39999999999418 109.88461990043288,176.41338509782508 109.93086373625556,176.45354038315418 110.10427812044509,176.88186266335833 110.21988770994358,177.37710855987098 110.35861921735341,177.7518879979034 110.43954592989758,178.3542098559701 110.53203360154293,178.8628350532381 110.56671647838084,179.37145828237408 110.62452127313009,179.67930822812195 110.64764319104142,180.08085055201082 110.62452127313009,180.13438943585788 110.60139935527695,180.16115886956686 110.40486305311788,180.21469772073033 110.37018017627997,180.25485184477293 110.38174113520654,180.29500595651916 110.49735072470503,180.42885290716367 110.8788623699802,180.73670037645206 110.98291100049391,180.9107008009887 111.2141301794909,180.96423934683844 111.39910552260699,181.1114702354971 111.68812949635321,181.4728544447571 111.96559251105646,181.90116036916152 112.3586651153164,182.42315632775717 112.84422539110528,183.2797605884407 112.95983498060377,183.52067953105143 113.23729799536522,183.92221012085793 113.3991514206864,184.21666510721843 113.82690690172603,184.87249429727672 113.91939457331318,185.10002610900847 114.0234432038269,185.18033136027225 114.30090621853014,185.60862520521914 114.3933938901755,185.6487776816648 114.52056443860056,185.6621618377394 114.71710074070143,185.5818568807881 114.82114937121514,185.56847271654988 114.89051512489095,185.60862520521914 114.9483199196402,185.67554599244613 114.9483199196402,185.74246674565074 114.92519800172886,185.80938746473112 114.77490553539246,185.9432288007083 114.69397882279009,186.0503017713927 114.65929594589397,186.14399054921523 114.67085690487875,186.26444745117624 114.7980274533038,186.5187449928053 114.95988087856676,186.74627395518473 115.27202677016612,187.25486668253143 115.74602608702844,188.17835897333862 115.90787951234961,188.59325919495313 115.94256238912931,188.82078456708405 115.89631855336484,189.36952060917974 115.98880622495199,189.8513357333577 115.98880622495199,190.07885892826016 115.95412334811408,190.2662306754646 115.85007471754216,190.52052047668258 115.75758704601321,190.61420606897445 114.67085690487875,191.25661976034462 114.60149115120294,191.31015409296378 114.27778430067701,191.37707197808777 114.17373567010509,191.45737339521293 114.03500416275347,191.67151026785723 113.60724868171383,192.54143772665702 113.48007813323056,192.88940709855524 113.37602950277505,193.06339143918012 113.3182247079676,193.65225980684045 113.2835418311297,194.24112553722807 113.3182247079676,194.89690472402435 113.48007813323056,195.3385500884615 113.53788292797981,195.7400445871026 113.53788292797981,195.99432380213693 113.52632196905324,196.23521944700042 113.468517174304,196.55641295367968 113.32978566695238,196.91775471088476 113.02920073433779,197.4932228668913 112.9135911448393,197.7742645394319 112.74017676059157,198.06868850449973 112.63612813007785,198.3229632165312 112.3933479921543,198.91180803037423 112.26617744372925,199.3266743841814 112.21993360796478,199.59432940164697 112.16212881315732,199.75492215067788 111.93090963421855,200.29022989765508 111.83842196268961,200.4508217968105 111.63032470154576,200.73185714846477 111.41066648159176,200.94597891804005 111.31817881000461,201.13333518042054 111.22569113847567,201.40098652080633 110.9135452468181,201.88275756078656 110.64764319104142,202.2173197445809 110.34705825836863,202.6589405239356 110.2083267509588,202.93997115686943 110.16208291519433,203.22100118924573 110.25457058678148,203.662618598275 110.2083267509588,204.34511531355383 110.21988770994358,204.59937789019023 110.2083267509588,204.67967123330163 110.39330209419131,205.22834109939868 110.49735072470503,205.85730130072625 110.46266784780892,206.11156095388287 110.47422880679369,206.25876368631725 110.5089116836316,206.47287645757024 110.56671647838084,206.76728094894497 110.5782774373074,207.0884487333533 110.5435945604695,207.26241428914363 110.58983839629218,207.5032892941963 110.56671647838084,207.6371085507999 110.5782774373074,207.82445528135577 110.5435945604695,208.0920930049906 110.5089116836316,208.199147941923 110.18520483310567,208.8147121384245 110.09271716151852,209.16263845338835 110.00022948998958,209.36336475492863 109.79213222884573,209.60423591244034 109.57247400889173,209.7781981407461 108.97130414360436,210.39375494736305 108.8094507183414,210.60786098740937 108.70540208776947,210.76844028878259 108.61291441618232,210.96916413978033 108.41637811408145,211.5044262450101 108.34701236040564,211.8791084227123 108.35857331933221,212.1199749733496 108.33545140142087,212.28055242875416 108.13891509932,212.8024278049561 108.03486646874808,212.97638580358762 107.94237879721913,213.08343676534423 107.41057468554936,213.5517836985964 107.35276989085833,213.71235940615588 107.2487212602864,213.8729349176865 107.04062399925897,214.71595313737635 107.04062399925897,214.82300268346444 107.06374591717031,215.3314868377347 107.13311167090433,215.63925260782707 107.08686783502344,215.78644467814593 107.22559934243327,216.16111465940776 107.31808701402042,217.07102302848944 107.3296479730052,217.27173726262117 107.31808701402042,217.39216565614333 107.2487212602864,217.51259393943474 107.10998975293478,217.61964120973425 106.77472194348229,217.7534501751943 106.6937952308217,217.793592838294 106.67067331296857,217.8337354891264 106.58974660030799,217.8337354891264 106.40477125713369,217.88725900453574 106.33540550345788,217.88725900453574 106.00013769394718,217.96754423681705 105.31804111605743,218.04782942007296 105.1793096086476,218.04782942007296 105.04057810123777,218.10135284838907 104.79779796343064,218.15487625492096 104.2544328928343,218.23516132390068 103.9191650833236,218.30206551059382 103.46828768437263,218.34220800625917 103.07521508017089,218.30206551059382 102.05785069271224,217.98092510408605 101.28326644317713,218.03444855961425 101.16765685373684,218.08797199334367 101.00580342841567,218.03444855961425 100.87863288004883,218.061210279222 100.75146233162377,218.04782942007296 100.5549260294647,218.0745911369595 100.3699506863486,218.1414954053471 99.42195205256576,218.30206551059382 99.1444890378043,218.38235048973002 98.9248308178503,218.38235048973002 98.72829451569123,218.449254601539 98.06931985571282,218.5563011097547 97.71093012834899,218.69010912251542 97.36410135985352,218.73025149980094 96.97102875565179,218.73025149980094 96.91322396090254,218.7837746504665 96.71668765880167,218.79715543471684 96.36985889036441,218.890820886445 95.7455671071657,219.09153234420228 95.17908011877444,219.30562422830553 94.75132463761838,219.57323859342432 94.62415408919333,219.60000000000582 94.56634929444408,219.57323859342432 94.39293491019635,219.2253398125613 94.24264244391816,219.03800931872684 94.16171573125757,218.79715543471684 94.04610614181729,218.64996673299174 93.81488696287852,218.15487625492096 93.53742394805886,217.51259393943474 93.30620476912009,216.856927507848 93.14435134385712,216.6294506353879 92.99405887757894,216.28154406962858 92.63566915021511,215.5589659546531 92.48537668387871,215.39839250117075 92.47381572489394,215.3716302399116 92.53162051964318,215.35824910720112 92.54318147856975,215.3314868377347 92.40444997115992,215.21105655776046 92.23103558697039,214.88990860551712 91.99981640803162,214.43494766442745 91.3061588711571,213.16372492947266 90.85528147220612,212.1199749733496 90.70498900581151,211.9058713945269 90.57781845744466,211.57133385505585 90.33503831946291,211.04945359441626 90.20786777109606,210.60786098740937 89.90728283842327,209.69790791011474 89.8263561258209,209.37674649746623 89.7107465363224,209.1091113878938 89.68762461841106,208.94853006077756 89.64138078264659,208.85485752941167 89.50264927529497,208.35973018397635 89.46796639845707,208.14562048432708 89.3407958499738,207.75754576541658 89.09801571210846,206.74051693148795 88.9708451636834,206.0981788791396 88.92460132786073,205.95097596700361 88.87835749209626,205.6833338863653 88.87835749209626,205.5896590295015 88.7165040668333,205.1212837442581 88.62401639518794,204.73320010151656 88.48528488783631,204.31835080319433 88.4159191341605,203.9035001963348 88.20782187313307,203.18085407854232 88.15001707838383,202.81952953059226 88.011285570974,202.40467419572815 88.05752940679668,202.28423207919695 87.89567598153371,201.78907999680087 87.69913967943285,201.0664222602063 87.59509104886092,200.73185714846477 87.46792050043587,200.1028724340431 87.31762803409947,199.67462580068968 87.21357940358575,199.12593276350526 87.00548214250011,198.4434089611459 86.94767734775087,198.10883717592515 86.80894584034104,197.61366937152343 86.46211707196198,196.48949770450417 86.32338556455215,196.18168711963517 86.20777597511187,195.80696021766926 85.81470337085193,194.45525787620863 85.78002049407223,194.17420910976944 85.71065474039642,193.986842931743 85.68753282248508,193.85300978393934 85.61816706869286,193.66564314821153 85.58348419191316,193.47827624542697 85.59504515083972,193.3979760625516 85.43319172563497,193.02324122717255 85.35226501297439,192.79572312752134 85.31758213613648,192.55482118108193 85.22509446460754,192.36745269539824 85.15572871087352,192.1800839426578 85.13260679290397,191.99271492291882 85.0516800803598,191.73842796903045 85.02855816244846,191.51090764607943 84.85514377825893,190.94879692490213 84.82046090136282,190.7881934203033 84.78577802452492,190.34653277108737 84.50831500976346,189.75764959749358 84.45051021501422,189.53012584676617 84.36958350241184,189.43643948201498 84.3117787076626,189.262450341761 84.23085199506022,189.2089151753753 84.17304720031098,189.08846097128117 84.11524240550352,189.07507716398686 84.0111937749898,189.07507716398686" stroke="red" stroke-linecap="round" stroke-linejoin="round" stroke-width="0.5"><title>2025-10-17 10.6km</title><desc>17538333095</desc></polyline><polyline fill="none" points="162.97457067848882,177.39110650439397 163.26477972604334,177.45829995021631 163.74362465465674,177.42470323070302 163.81617691653082,177.45829995021631 164.06285460700747,177.94545161430142 164.23698003561003,178.3990053191228 164.59974134515505,179.94443821183813 164.96250265475828,181.1706953177054 165.04956536897225,181.59064428666898 165.3687953214394,182.54812394011242 165.54292074998375,182.96806940398528 165.84764024993638,184.27829238296545 166.32648517849157,186.0588351428305 166.58767332142452,186.81472012848826 166.76179875002708,187.20106000652595 166.90690327383345,187.6377909535513 167.16809141665,188.67922162507602 167.41476910712663,189.40150032835663 167.5453631785931,190.190964132722 167.9951872024103,191.635505147613 168.08224991668249,192.17300555374823 168.16931263101287,192.52573924402532 168.35794851195533,193.09683028727886 168.40147986909142,193.4831554607954 168.53207394049969,193.9366664672416 168.61913665483007,194.42376949373283 168.9528770595789,195.59952949728176 168.9818979643169,195.83468049298972 169.18504429771565,196.4897422146896 169.27210701198783,196.92644858498534 169.4172115358524,197.32956113209366 169.57682651199866,198.42131933706696 169.8235042024753,199.1099631065881 169.89605646434939,199.52986643416807 169.99762963107787,199.83219616864517 170.11371325014625,200.38646591053111 170.46196410729317,201.73014240898192 170.59255817864323,202.08285567762505 170.62157908349764,202.38518073663 170.83923586911988,203.0402164652187 171.05689265491674,203.79602369165514 171.216507631063,204.09834561333992 171.33259125018958,204.4846450410405 171.53573758353014,205.03889916278422 171.6373107501422,205.44199190070503 171.88398844061885,206.01303826145886 172.20321839302778,206.5169010571699 172.34832291689236,206.85280873332522 172.6385319645051,207.35666896612383 172.94325146457413,208.06207070876553 173.20443960739067,208.5659272511257 173.32052322645904,208.76746943754551 173.40758594067302,208.93542107164103 173.58171136927558,209.17055307234114 174.06055629788898,210.19505288156506 174.33625489316182,210.61492801606073 174.4668489645701,210.9508273548563 175.14884022652404,212.31121268899005 175.25041339319432,212.57992945403385 175.46807017887477,212.98300378158456 175.96142555988627,214.14183699252317 176.38222867884906,215.03194973338395 176.49831229797564,215.36784008675022 176.61439591704402,215.63655187746917 176.61439591704402,215.7037297568604 176.58537501230603,215.8212909799622 176.42576003604336,216.03961874369998 176.16457189322682,216.2579462187423 175.7727896788856,216.49306779216568 173.81387860747054,217.53431645016826 173.37856503593503,217.81981896745856 172.89972010737984,218.02134985897283 172.30479155969806,218.37402832732187 172.05811386922142,218.45799928017368 171.56475848826813,218.69311772103538 171.02787175017875,219.0457947547111 170.83923586911988,219.1297653659276 170.3168595834286,219.28091235866304 169.9105669168057,219.5328237057256 169.73644148820313,219.60000000000582 169.54780560720246,219.5832059289678 169.3881906311144,219.51602962786274 169.14151294057956,219.34808875541785 169.02542932145298,219.2305300431035 168.80777253577253,218.81067681597779 168.34343805955723,218.13890943210572 168.0532290120027,217.48393360170303 167.76301996433176,217.08087026099383 167.66144679760328,216.84574952452385 167.24064367858227,216.39230144453177 166.6892464880948,215.41822358084028 166.42805834522005,215.03194973338395 166.26844336901559,214.645674982341 166.02176567853894,214.32657776727865 165.89117160713067,214.00747993559344 165.47036848805146,213.38607712523662 165.3687953214394,213.13415640081803 165.09309672616655,212.76467197628517 164.99152355949627,212.56313466904976 164.8173981308937,212.3280074995564 164.62876224989304,211.99211096247018 164.4111054642126,211.75698297991767 163.9322605355992,210.93403240416956 163.75813510699663,210.71569788946363 163.5114574165782,210.4973630860477 163.0326124879648,210.19505288156506 162.78593479748815,209.85915200521413 162.5392571070115,209.5904308121535 162.1619853450684,209.3217091816623 161.50901498791063,208.66669837512018 161.1607641307055,208.3979752412124 160.91408644022886,208.12925166993227 160.18856382119702,207.60859850591805 159.8403129640501,207.28948769060662 159.66618753538933,207.07114835632092 159.23087396402843,206.75203650217736 159.07125898782397,206.60087804032082 158.8826231068815,206.50010565544653 158.4763304401422,206.09701550089812 157.82336008298444,205.55956043057085 157.1413688210887,205.0892858088191 156.74958660680568,204.68619220971595 156.6480134401354,204.53503185625596 156.40133574960055,204.3838713644218 156.24172077339608,204.19911946423235 156.08210579730803,203.98077604289574 156.02406398777384,203.82961504362174 155.90798036864726,203.6616582153947 155.8209176544333,203.46010979596758 155.6613026781706,203.25856113046757 155.55972951155854,203.05701221893833 155.38560408295598,201.94848880698555 155.50168770196615,201.51179572216643 155.83542810671497,200.80636599117133 156.03857444005553,200.6216100872407 156.2126998686581,200.38646591053111 156.38682529726066,200.2353016200359 156.6189925353392,199.98336082827882 156.86567022581585,199.7650118310703 157.1703897258849,199.37870135928097 157.547661487828,199.04277847503545 157.997485511587,198.70685490727192 158.51986179727828,198.08539450462558 159.53559346398106,197.1783940422465 159.88384432112798,196.96004133483802 159.92737567832228,196.8928558282787 159.99992794025457,196.5233350534254 159.91286522592418,196.321777918507 159.72422934503993,195.58273298478161 159.47755165450508,195.1460230595112 159.4049993925728,194.9612608202442 159.3614680354949,194.55814248946263 159.27440532116452,194.1382265146094 159.27440532116452,193.85268304153578 159.23087396402843,193.63432593474863 158.8681126544834,192.62652015994536 158.67947677359916,192.30738038181153 158.60692451160867,192.12261496503197 158.51986179727828,191.56831747374963 158.4473095354042,191.33316039993952 158.4473095354042,190.99722114189353 158.37475727353012,190.72846924312762 158.24416320206365,190.426122833931 158.0990586783155,189.67025438786368 157.9829750591889,189.33431174514408 157.9249332496547,188.79680209446815 157.79433917830465,188.20889890973922 157.79433917830465,187.99053433630615 157.82336008298444,187.7385748541128 157.70727646397427,187.3018441738095 157.64923465438187,186.9826940996718 157.547661487828,186.1260250594787 157.4896196782356,185.87406273084343 157.4751092258375,185.3365418106987 157.33000470203115,184.59744768695964 157.30098379729316,184.31188770722656 157.21392108302098,183.87514795891184 157.24294198775897,183.15284506951866 157.19941063062288,182.46413471912092 157.1123479162925,182.01059218705632 157.1123479162925,181.57384634844493 157.0543061068165,180.9691194329498 157.0252852020203,180.347592238395 157.0543061068165,180.04522681083472 157.0543061068165,179.45729244902031 157.0252852020203,178.41580358053034 157.21392108302098,177.03834046481643 157.27196289255517,176.87035637137888 157.46059877349762,176.5679845722916 157.5911928449641,176.45039538963465 157.70727646397427,176.40000000000873 157.83787053544074,176.43359692815284 158.25867365446175,176.61837991060747 158.73751858307514,176.63517835327366 158.81007084500743,176.6687752335274 158.79556039255112,176.70237210694177 158.72300813067704,176.73596897351672 158.4037781782681,176.71917054110963 158.026506416325,176.65197679428093 157.79433917830465,176.5679845722916 157.72178691643057,176.61837991060747 157.69276601157617,176.70237210694177 157.67825555923628,176.80316268610477 157.72178691643057,176.88715478841914" stroke="#ff7f00" stroke-linecap="round" stroke-linejoin="round" stroke-width="0.5"><title>2025-10-14 6.9km</title><desc>17538333076</desc></polyline><polyline fill="none" points="32.182868748903275,226.76699228056532 32.182868748903275,226.81481007173716 32.078435918316245,226.76699228056532 32.20375531492755,226.8865367408871 32.32907471153885,226.91044562593743 32.49616724054795,226.86262785350846 32.57971350487787,226.79090117730084 32.32907471153885,226.76699228056532 31.953116521821357,226.86262785350846 31.848683691234328,226.81481007173716 31.78602399281226,226.76699228056532 31.639818030176684,226.24099596503947 31.618931464035995,225.71499852433044 31.535385199589655,225.28463614510838 31.577158331871033,225.09336373471888 31.723364294623025,224.99772747374664 32.32907471153885,224.87818209525722 33.47783584729768,224.83036392756912 33.83290747110732,224.7586366585747 34.250638793222606,224.59127294964856 35.39939992898144,224.42390912682458 35.79624468495604,224.39999999999418 36.3601819697069,224.39999999999418 36.52727449859958,224.4478182513849 36.92411925457418,224.66300026745012 37.1538714816561,224.87818209525722 37.38362370885443,225.23681805637898 37.488056539325044,225.57154448163055 37.46716997330077,226.52790318579355 37.634262502077036,227.9385254852532 37.655149068217725,228.29715698311338 37.59248936991207,229.2535050870065 37.655149068217725,229.61213466706977 37.69692220038269,230.4967520617647 37.55071623774711,231.47700005261868 37.655149068217725,232.2898856667016 37.69692220038269,233.17449342895998 37.69692220038269,233.48530080624914 37.61337593605276,233.77219957513444 37.59248936991207,234.39381242607487 37.46716997330077,234.72852638737822 37.38362370885443,235.0632398930611 37.571602803771384,235.99565368541516 37.59248936991207,236.33036546655057 37.55071623774711,236.7607085157506 37.61337593605276,237.11932714824798 37.55071623774711,237.6453001966147 37.55071623774711,238.0278253434517 37.59248936991207,238.60161194810644 37.55071623774711,238.98413560750487 37.55071623774711,239.6057352850912 37.59248936991207,240.70548471232178 37.50894310558215,241.78132178497617 37.1538714816561,242.45072914399498 36.86145955626853,242.6419880548201 36.109543176484294,243.31139307144622 35.54560589173343,243.9090745823487 34.710143247502856,245.1522474729427 34.3968447559746,245.7260174571129 34.062659698189236,246.49104202049784 33.97911343385931,247.04090195569734 33.791134338942356,247.9493635034014 33.49872241343837,248.45140660347533 33.49872241343837,248.6187540757528 33.561382111744024,248.73828791483538 33.58226867788471,248.88172844506335 33.47783584729768,249.59892984134785 33.41517614899203,249.88580981439736 33.28985675238073,250.22050269336614 33.22719705407508,250.5791017011943 33.06010452529881,250.9855132781231 33.01833139313385,251.4158306864556 32.93478512857109,251.58317614195403 32.788579165935516,251.53536316627287 32.97655826085247,251.4636436853616 33.561382111744024,251.58317614195403 33.66581494221464,251.65489558801346 33.74936120666098,251.774427951721 33.77024777280167,251.9656796127092 33.6031552440254,252.56334009504644 33.41517614899203,252.85021661082283 33.33162988466211,253.20881178494892 33.248083620215766,254.02162557773408 33.164537355769426,254.59537487328635 33.14365078962874,255.04959211654204 33.185423921910115,255.38427796962787 32.93478512857109,256.0058362029813 32.788579165935516,256.4361448291602 32.76769259979483,256.7469228132977 32.76769259979483,257.0337944501516 32.621486637042835,257.7509720787493 32.454394108150154,258.3486185054353 32.37084784382023,259.18532106355997 32.078435918316245,261.0738678054622 32.078435918316245,261.26511223678244 32.1410956166219,261.55197860492626 32.099322484456934,262.0539939443843 31.890456823515706,262.48429199133534 31.7442508606473,263.32098048388434 31.201200141920708,265.1138748146768 31.138540443615057,265.23340063888463 30.8252419520868,265.6158828859334 30.491056894417852,266.2374152692937 30.303077799500898,266.715516034179 30.32396436552517,266.8828510824096 30.53283002669923,267.05018601678603 31.556271765730344,267.5521901371976 31.70247772836592,267.6000000000058 31.99488965398632,267.5521901371976 32.12020905059762,267.40876049303915 32.32907471153885,266.739421048027 32.3917344098445,266.38084559631534 32.83035229810048,265.5202623799414 33.0809910914395,264.7074865781906 33.12276422360446,264.3728134087578 33.268970186356455,263.79908691631863 33.54049554571975,263.22535908585996 33.6031552440254,263.0341161784454 33.58226867788471,262.81896772979235 33.35251645068638,262.3408593926142 33.35251645068638,262.19742671029235 33.624041810049675,261.86275012633996 33.812020905083045,261.5041675667744 33.95822686771862,260.85871764253534 34.33418505766895,260.1415490739455 34.41773132199887,259.759058315758 34.56393728486728,258.51595924467256 34.45950445428025,257.5119131015381 34.647483549197204,256.57958087058796 34.66837011533789,256.3644267771597 34.66837011533789,255.7667755298753 34.58482385077514,255.47990241541993 34.58482385077514,255.04959211654204 34.68925668136217,254.64318725418707 34.751916379784234,254.06943807017524 34.87723577639554,253.6630315884977 34.87723577639554,253.40006233079475 34.98166860686615,252.94584204166313 34.96078204072546,252.3481824886985 35.14876113575883,251.65489558801346 35.253193966229446,250.2444093101949 35.46205962728709,249.47939642060373 35.54560589173343,248.92954193653713 35.62915215617977,248.6187540757528 35.67092528822832,248.28405901732913 35.90067751542665,247.39950559905265 36.23486257321201,246.5388559767016 36.757026725797914,245.7977386109851 36.88234612240922,245.41522554852418 37.028552085044794,244.53066181309987 37.028552085044794,244.21986839408055 36.90323268843349,243.9090745823487 36.69436702737585,243.67000215225562 36.67348046135157,243.62218763837882 37.300077444524504,243.4070222107548 37.34185057668947,243.33530035972944 37.34185057668947,243.04841274647333 37.44628340716008,242.66589540825225 37.40451027499512,242.6419880548201 37.42539684113581,242.61808069905965 37.40451027499512,242.6898027592979 37.44628340716008,242.6898027592979 37.40451027499512,242.59417334104364 37.44628340716008,242.59417334104364 37.38362370885443,242.66589540825225 37.174758047796786,242.28337747503247 37.21653117996175,242.09211828542175 37.38362370885443,241.61396966053871 37.46716997330077,240.2273333916819 37.34185057668947,239.10367412904452 37.362737142830156,238.2190876936802 37.44628340716008,237.66920803568792 37.38362370885443,237.04760346353578 37.46716997330077,236.44990527795744 37.40451027499512,235.99565368541516 37.38362370885443,235.30232068963232 37.028552085044794,235.37404488332686 36.44372823415324,235.6131253777421 36.109543176484294,235.66094144867384 35.77535811881535,235.66094144867384 35.190534267923795,235.7804815855634 34.647483549197204,235.80438960592437 34.41773132199887,235.7804815855634 34.33418505766895,235.68484948073456 34.187979094916955,235.03933180058084 34.20886566094123,234.6328938735096 34.1253193966113,234.0351898191875 34.1253193966113,233.41357606179372 34.04177313204855,232.7680524198513 34.08354626444634,232.00298516851035 34.04177313204855,231.64435907515872 33.87468060327228,231.35745782384765 33.85379403724801,231.21400707273278 33.68670150835533,231.04664775727724 33.51960897957906,230.8314713272266 32.93478512857109,230.30548370552424 32.49616724054795,229.99467230940354 32.37084784382023,229.85122076324478 32.32907471153885,229.7077691334125 32.266415013349615,229.65995190489048 32.3917344098445,228.65578795787587 32.454394108150154,228.44060943579825 32.47528067440726,228.129795682471 32.87212543038186,228.0819781471655 32.93478512857109,228.01025182662124 32.91389856254682,227.9385254852532 32.76769259979483,227.55598464432114 32.72591946751345,227.2929874710826" stroke="#4dd2ff" stroke-linecap="round" stroke-linejoin="round" stroke-width="0.5"><title>2025-09-30 4.8km</title><desc>17538333066</desc></polyline></svg>