<?xml version="1.0" encoding="utf-8" ?>
<svg baseProfile="full" height="300mm" version="1.1" viewBox="0,0,200,300" width="200mm" xmlns="http://www.w3.org/2000/svg" xmlns:ev="http://www.w3.org/2001/xml-events" xmlns:xlink="http://www.w3.org/1999/xlink"><defs /><rect fill="#222222" height="300" width="200" x="0" y="0" /><text fill="#FFFFFF" style="font-size:12px; font-family:Arial; font-weight:bold;" x="10" y="20">Over 3km Runs</text><text fill="#FFFFFF" style="font-size:4px; font-family:Arial" x="10" y="280">Runner</text><text fill="#FFFFFF" style="font-size:9px; font-family:Arial" x="10" y="290">Zheng</text><text fill="#FFFFFF" style="font-size:4px; font-family:Arial" x="65" y="280">SPECIAL TRACKS</text><rect fill="yellow" height="2.6" width="2.6" x="65" y="283" /><text fill="#FFFFFF" style="font-size:3px; font-family:Arial" x="70" y="285.5">Over 5.0 km</text><rect fill="red" height="2.6" width="2.6" x="65" y="287" /><text fill="#FFFFFF" style="font-size:3px; font-family:Arial" x="70" y="289.5">Over 10.0 km</text><text fill="#FFFFFF" style="font-size:4px; font-family:Arial" x="120" y="280">STATISTICS</text><text fill="#FFFFFF" style="font-size:3px; font-family:Arial" x="120" y="285">Number: 3</text><text fill="#FFFFFF" style="font-size:3px; font-family:Arial" x="120" y="290">Weekly: 1.5</text><text fill="#FFFFFF" style="font-size:3px; font-family:Arial" x="141" y="285">Total: 15.0 km</text><text fill="#FFFFFF" style="font-size:3px; font-family:Arial" x="141" y="290">Avg: 5.0 km</text><text fill="#FFFFFF" style="font-size:3px; font-family:Arial" x="167" y="285">Min: 4.3 km</text><text fill="#FFFFFF" style="font-size:3px; font-family:Arial" x="167" y="290">Max: 6.0 km</text><polyline fill="none" points="14.5,60.54340399324428 15.74296675203368,59.69526787404902 16.433503836626187,59.386854538926855 17.81457800534554,59.30975118861534 18.228900256101042,59.386854538926855 18.436061381129548,59.541061219992116 18.988491049036384,60.62050723686116 19.402813299093395,62.08546759269666 20.852941176621243,63.55042553564999 21.68158567813225,65.01538106566295 22.510230179177597,67.09715582587523 23.615089514292777,68.40790039737476 24.443734015570953,70.02705278911162 24.996163683012128,70.48966721695615 25.89386189286597,70.79807670181617 26.584398977225646,70.72097434056923 27.827365729259327,70.25836003303993 28.586956521961838,69.71864303702023 29.829923273762688,69.1789257133496 31.34910485963337,67.94528488680953 32.31585677783005,67.40556648717029 33.35166240460239,67.09715582587523 34.31841432256624,67.09715582587523 35.07800511526875,67.48266913555562 36.66624040948227,68.87051566730952 37.28772378526628,69.795745485113 37.840153452940285,70.79807670181617 39.91176470578648,73.65085936640389 40.39514066511765,74.5760842114687 42.88107416895218,72.64853136468446 44.26214833767153,71.95461131737102 45.71227621473372,70.95228140417021 51.02941176504828,68.09949008375406 52.065217391587794,67.32846383191645 52.5485933504533,67.17425850138534 53.308184143388644,68.71631060389336 53.79156010248698,69.1789257133496 54.13682864466682,69.10182321199682 55.310741688124835,68.25369525392307 55.58695652172901,68.17659267206909 56.00127877248451,68.33079782914137 56.82992327352986,69.10182321199682 58.83248081849888,72.34012252168031 59.17774936114438,73.57375725236489 59.24680306902155,75.03869627317181 59.59207161120139,76.8120402804343 59.868286445271224,77.66016007761937 60.07544757053256,77.89146533655003 60.69693094631657,78.43117737333523 62.42327365744859,79.12509236793267 63.52813299256377,79.12509236793267 64.14961636834778,79.27929562644567 65.25447570369579,80.12741307122633 68.22378516639583,83.44277350406628 69.05242966744117,83.75117849744856 70.84782608691603,84.21378578722943 72.78132992354222,85.1389996446087 74.92199488496408,87.22072730527725 77.89130434766412,90.76736320985947 78.30562659841962,90.99866506020771 78.71994884917513,91.07576566375792 81.20588235300966,90.53606129938271 82.31074168812484,90.0734572976944 83.20843989774585,89.8421552068321 87.21355498721823,89.61085305555025 92.53069053706713,88.30013972974848 94.60230179037899,88.22303888580063 95.15473145805299,87.91463544266298 95.43094629142433,87.37492916028714 95.43094629142433,86.60391961742425 95.01662404090166,84.98479740164476 94.87851662398316,83.90538095397642 94.94757033255883,81.36103700118838 94.8094629154075,80.82132674229797 94.46419437322766,80.20451461686753 92.66879795398563,79.27929562644567 90.87340153427795,78.12277053523576 88.31841432210058,76.96624394011451 86.03964194376022,76.2723272612202 84.31329923286103,75.19290024030488 81.89641943736933,72.87983792700106 80.65345268533565,70.72097434056923 78.85805626609363,68.02238748851232 77.61508951429278,65.86351211176952 76.99360613827594,65.16958677064395 76.3721227622591,64.86117533402285 75.68158567766659,64.78407245827839 74.30051150894724,65.40089527779492 72.85038363188505,67.25136116985232 72.29795396444388,67.63687441276852 71.1930946293287,67.32846383191645 68.98337595909834,65.7864093229291 68.0856777492445,64.86117533402285 67.04987212293781,63.31911654723808 66.70460358052514,63.08780749858124 66.35933503857814,63.16491052164929 65.4616368287243,63.781734464049805 63.66624040924944,64.62986668659141 62.69948849105276,65.323792448733 62.492327365791425,65.5551009158371 62.492327365791425,65.86351211176952 62.69948849105276,66.48033418261912 63.32097186683677,67.32846383191645 63.459079284220934,69.94995036133332 63.25191815872677,71.41489535069559 62.42327365744859,73.88216566783376 61.59462915593758,75.34710418066243 61.18030690541491,75.88681776128942 60.21355498721823,76.1952253744239 59.93734015361406,76.50363288103836 59.93734015361406,76.96624394011451 60.21355498721823,77.73726183717372 61.04219948872924,78.43117737333523 62.008951406693086,78.81668577046366 64.35677749360912,79.20219400053611 64.97826086962596,79.51060046436032 66.01406649616547,80.51292073307559 68.22378516639583,83.28857096721185 68.98337595909834,83.75117849744856 70.43350383616053,84.36798816343071 71.95268542203121,84.9076962703839 72.57416879781522,85.21610075590434 74.43861892586574,86.60391961742425 77.20076726353727,89.91925591044128 78.02941176458262,90.69026257982478 78.44373401557095,90.92156445019646 79.89386189263314,91.07576566375792 80.86061381059699,90.92156445019646 82.65601023007184,90.38185999222333 84.5204603583552,90.0734572976944 86.86828644527122,90.0734572976944 88.52557544736192,89.45665158802876 90.0447570332326,88.68564384960337 91.63299232744612,88.53144222171977 92.94501278782263,88.22303888580063 94.8094629154075,88.14593803504249 95.29283887473866,87.76043368119281 95.43094629142433,87.22072730527725 95.5,86.60391961742425 94.94757033255883,84.7534939876059 94.87851662398316,81.28393555578077 94.67135549872182,80.66712375113275 93.70460358052514,79.74190524191363 89.7685421993956,77.66016007761937 85.83248081849888,76.1952253744239 84.38235294097103,75.34710418066243 83.27749360608868,74.03636983560864 81.41304347827099,72.26302029401995 80.72250639391132,71.18358840729343 79.89386189263314,69.56443812081125 78.30562659841962,67.25136116985232 76.3030690534506,64.01304333214648 75.19820971880108,62.54808615130605 73.74808184127323,60.08078439219389 73.33375959075056,59.15554446785245 73.12659846548922,58.92423433624208 72.71227621519938,59.078441097342875 70.57161125331186,60.54340399324428 68.29283887473866,61.69995194353396 67.80946291564032,61.69995194353396 67.39514066511765,61.545745637035 66.98081841459498,60.7747137034894 66.2902813302353,60.23499095259467 64.97826086962596,60.62050723686116 62.42327365744859,61.854158223373815 59.45396419451572,63.704631494765636 58.763427110156044,64.62986668659141 56.00127877248451,66.01771766965976 54.067774936091155,67.32846383191645 51.098465472925454,68.87051566730952 50.0626598468516,69.56443812081125 47.02429667534307,71.02938374516089 42.32864450151101,73.95926775509724 40.049872123170644,75.19290024030488 39.221227621426806,75.80971584137296 37.978260869625956,76.2723272612202 36.735294117592275,76.42653101444012 35.354219949338585,77.043345759972 34.387468030676246,77.73726183717372 32.868286445271224,79.27929562644567 30.934782608877867,80.28161615587305 30.24424552428536,80.20451461686753 29.691815856844187,79.58770206349436 29.48465473158285,78.50827906600898 29.277493606088683,77.73726183717372 28.517902813619003,76.58073474088451 27.551150895422325,75.65551198099274 26.791560102486983,73.80506357410923 25.89386189286597,72.34012252168031 24.236572890309617,72.03171357157407 23.54603580571711,71.72330451448215 23.062659846851602,71.72330451448215 20.507672634674236,72.95694010116858 19.33375959121622,73.80506357410923 17.81457800534554,74.4989821780473" stroke="#4DD2FF" stroke-linecap="round" stroke-linejoin="round" stroke-width="0.5"><title>2026-02-24 4.7km</title><desc>17506081930</desc></polyline><polyline fill="none" points="104.5,69.96319058712106 104.97487437189557,69.35722402721876 107.8241206028033,66.933353584609 109.4522613065783,66.32738492323551 111.01256281416863,65.56992350559449 112.09798994963057,65.26693875464844 113.59045226126909,65.11544633988524 114.20100502483547,64.43373014830286 114.54020100506023,64.35798387182876 114.94723618100397,64.35798387182876 115.89698492456228,64.73671518784249 116.91457286453806,64.88820766861318 117.93216080404818,64.13074500334915 119.83165829139762,63.37328168161912 120.98492462304421,62.691564130422194 122.40954773873091,62.237085467611905 123.76633165823296,61.47962050430942 124.44472361798398,61.2523808873957 125.05527638178319,61.2523808873957 125.66582914558239,61.403873971954454 126.14070351747796,61.78260656853672 127.09045226080343,62.9188033734099 128.04020100506023,63.52477439836366 128.8542713567149,64.66096893785289 129.3969849247951,66.1758926922339 130.27889447216876,66.47887712786905 130.8894472362008,67.38782980461838 131.16080402000807,67.5393218252575 132.9924623114057,66.63036930625094 135.36683417088352,64.9639538989286 138.55527638201602,63.449028043367434 139.7763819093816,62.99454977444839 142.625628140755,61.32812743302202 143.03266331646591,61.2523808873957 143.57537688408047,61.403873971954454 143.98241206025705,62.16133900085697 144.6608040202409,62.76731055142591 145.81407035165466,62.08559252746636 146.4246231156867,62.00984604767291 147.1030150752049,62.464324828702956 147.7135678390041,63.07029616890941 149.13819095492363,65.41843114339281 149.4773869344499,66.63036930625094 149.68090452253819,68.97849471354857 149.95226130611263,70.19042793882545 150.2914572863374,70.87213963933755 150.69849246181548,71.4023594832397 151.58040200988762,71.85683337890077 152.32663316559047,72.15981584484689 155.0402010048274,72.31130703841336 155.78643216053024,72.61428934655851 156.39698492456228,73.29599915625295 157.75376884406433,75.1138893814059 159.65326633141376,77.08326619112631 161.07788944710046,77.61348226608243 162.29899497469887,77.84071762842359 163.65577889420092,78.52242336067138 166.30150753771886,81.8551992844441 167.52261306508444,83.21860395325348 168.5402010048274,83.97605007252423 169.4221105526667,84.12753921747208 173.28894472355023,83.52158247982152 173.83165829139762,83.67307170369895 173.96733668306842,83.82456090126652 174.1030150752049,84.20328378025442 173.7638190954458,85.03647353628185 173.42462311545387,85.26370696822414 172.4070351754781,85.64242922345875 171.59296482405625,86.17264010512736 170.9145728640724,86.9300836638431 170.71105527621694,87.46029376448132 170.64321608026512,88.29348041501362 171.66080401977524,94.42873947200133 172.0,95.18617587455083 172.5427135678474,95.94361162080895 173.08542713569477,96.24658573535271 174.03517587925307,96.47381625248818 175.05276381922886,96.24658573535271 175.73115577874705,95.71638096572133 176.07035175873898,95.41340666741598 176.34170854254626,94.65597046166658 176.4773869344499,93.89853359950939 176.2738693463616,92.68663325434318 175.5954773868434,89.73261912231101 175.18844221089967,87.38454948400613 174.84924623114057,86.62710631918162 174.37437185901217,86.02115131478058 173.8994974871166,85.71817365498282 173.22110552736558,85.49094034120208 172.20351758762263,85.56668478564825 171.59296482405625,85.86966249800753 170.84673366788775,86.62710631918162 170.57537688408047,87.46029376448132 170.50753768812865,87.91475930862362 170.57537688408047,89.50538685260108 171.05025125597604,93.89853359950939 171.45728643191978,95.1104322639294 172.20351758762263,96.0193551594275 172.9497487435583,96.54955974512268 174.23869346710853,96.6253032310633 174.71356783877127,96.47381625248818 175.86683417041786,95.71638096572133 176.54522613016888,94.88320139236748 176.54522613016888,93.89853359950939 176.2738693463616,92.15642632485833 176.07035175873898,89.73261912231101 175.86683417041786,88.97517799289199 175.5954773868434,88.44496881164378 175.39195979898795,87.30880519695347 175.05276381922886,86.55136196664535 174.78140703495592,86.17264010512736 173.69597989926115,85.64242922345875 173.08542713569477,85.41519589006202 172.3391959797591,85.49094034120208 171.45728643191978,85.9454069097992 170.71105527621694,86.85433933744207 170.439698491944,87.38454948400613 170.37185929645784,88.1419919920736 170.98241206025705,92.91386469715508 171.38944723596796,94.80745775531977 171.66080401977524,95.26191947876941 172.5427135678474,96.09509869129397 173.62814070330933,96.6253032310633 174.1708542711567,96.77679018338677 175.05276381922886,96.39807275350904 175.7989949749317,95.79212452407228 176.1381909546908,95.33766307652695 176.40954773849808,94.42873947200133 175.5954773868434,89.50538685260108 174.84924623114057,86.9300836638431 174.44221105519682,86.39987324178219 173.8994974871166,85.9454069097992 173.08542713569477,85.64242922345875 172.20351758762263,85.56668478564825 171.52512562810443,85.7939180796966 171.1180904521607,86.24838449066738 170.71105527621694,86.9300836638431 170.57537688408047,87.99050354311476 171.05025125597604,91.85345079237595 171.66080401977524,94.95894502277952 172.13567839190364,95.64063740108395 173.08542713569477,96.24658573535271 173.8994974871166,96.39807275350904 175.05276381922886,96.17084221664118 175.45979899470694,95.94361162080895 176.07035175873898,95.26191947876941 176.4773869344499,94.42873947200133 176.54522613016888,93.82278987724567 176.00251256255433,90.71729160915129 175.7989949749317,88.1419919920736 175.18844221089967,86.24838449066738 174.91708542685956,86.02115131478058 173.62814070330933,85.33945143251913 172.3391959797591,85.26370696822414 171.66080401977524,85.49094034120208 170.98241206025705,86.02115131478058 170.37185929645784,86.9300836638431 170.23618090432137,87.61178230535006 170.23618090432137,90.03559539053822 170.98241206025705,94.50448314187815 171.2537688438315,95.1104322639294 172.0,96.17084221664118 172.3391959797591,96.47381625248818 173.01758793951012,96.70104671042645 173.8994974871166,96.70104671042645 175.18844221089967,96.39807275350904 175.7989949749317,95.94361162080895 176.2738693463616,95.41340666741598 176.54522613016888,94.80745775531977 176.74874371849,93.89853359950939 176.00251256255433,89.95985133317299 175.73115577874705,87.99050354311476 175.45979899470694,87.08157229685457 175.12060301471502,86.3241288693971 174.5100502509158,85.7939180796966 173.8994974871166,85.49094034120208 173.1532663316466,85.33945143251913 172.20351758762263,85.33945143251913 171.52512562810443,85.56668478564825 170.71105527621694,86.17264010512736 170.57537688408047,86.39987324178219 170.37185929645784,87.46029376448132 170.23618090432137,88.44496881164378 170.50753768812865,90.33857155323494 171.59296482405625,94.88320139236748 171.79648241167888,95.33766307652695 172.3391959797591,95.94361162080895 173.01758793951012,96.3223292476614 173.4924623114057,96.47381625248818 174.30653266306035,96.47381625248818 175.39195979898795,96.0193551594275 176.2060301504098,95.33766307652695 176.61306532635354,94.35299579566345 176.54522613016888,92.76237707521068 175.3241206028033,87.38454948400613 174.6457286432851,86.3241288693971 173.96733668306842,85.7939180796966 173.22110552736558,85.41519589006202 172.5427135678474,85.33945143251913 171.59296482405625,85.56668478564825 170.98241206025705,86.0968957132427 170.57537688408047,86.77859500463819 170.439698491944,87.76327082008356 170.64321608026512,90.49005959532224 170.9145728640724,92.30791405198397 171.1180904521607,92.98960849829018 171.32160804001614,94.50448314187815 171.52512562810443,95.18617587455083 172.067839195719,95.94361162080895 173.28894472355023,96.54955974512268 174.91708542685956,96.47381625248818 176.34170854254626,95.41340666741598 176.61306532635354,95.0346886466723 176.816582914209,94.27725211263169 176.34170854254626,92.23217019176809 176.1381909546908,90.64154761121608 176.00251256255433,89.95985133317299 175.86683417041786,88.52071300020907 175.5954773868434,87.08157229685457 175.3241206028033,86.47561760764802 174.44221105519682,85.56668478564825 173.96733668306842,84.80924004514236 173.8994974871166,84.27902833628468 173.96733668306842,83.74881630565505 174.5100502509158,83.52158247982152 176.4773869344499,83.14285930542974 177.7663316577673,82.68839127931278 179.25879396963865,82.30966774385888 180.47989949723706,81.93094404414296 184.34673366812058,81.32498578313971 184.8894472362008,80.94626165664522 185.5,79.96157815976767 185.43216080381535,79.12838356487919 184.8894472362008,76.93177582486533 184.8894472362008,74.88665331021184 184.7537688438315,74.28069016447989 184.48241206025705,73.82621752924751 183.39698492456228,73.06876261200523 181.90452261269093,72.38705262524309 180.6155778891407,71.62959646049421 176.34170854254626,69.88744479016168 174.30653266306035,68.75125704682432 173.01758793951012,67.69081382005243 171.2537688438315,65.41843114339281 170.16834170813672,62.76731055142591 169.28643216076307,61.706860062200576 168.4723618091084,59.888941943936516 167.86180904507637,59.05572820903035 166.91206030128524,57.010563854593784 165.82663316559047,55.79861234856071 165.35175879392773,55.72286532347789 165.0125628139358,55.41987715795403 163.65577889420092,53.753440370142926 163.04522613063455,53.22320981655503 162.23115577874705,53.67769316781778 161.41708542685956,53.98068193742074 159.7211055275984,55.192635965009686 156.46482412028126,56.63182918931125 153.54773869318888,58.29826048784889 152.32663316559047,59.13147494493751 151.64824120607227,59.35871511371806 148.5954773868434,61.17663433513371 147.7135678390041,61.47962050430942 147.1708542711567,61.55536703020334 146.62814070330933,60.49491507030325 146.08542713569477,59.96468860772438 144.6608040202409,60.722154884482734 143.98241206025705,60.87364806095138 143.03266331646591,61.706860062200576 141.81155778863467,62.16133900085697 140.1155778891407,63.22178893839009 135.90954773849808,65.34268495236756 134.89195979875512,66.1758926922339 133.46733668330126,66.85760752478382 132.38190954760648,67.91805176285561 131.09296482405625,68.75125704682432 130.5502512564417,69.05424058932113 129.46482412028126,69.05424058932113 127.36180904507637,69.96319058712106 125.53015075367875,71.09937675460242 122.68090452253819,72.53854377940297 121.59547738684341,73.37174465769203 121.39195979898795,73.37174465769203 121.12060301494785,73.14450813335134 120.71356783877127,72.38705262524309 120.37437185901217,72.00832462502876 120.37437185901217,71.47810514894081 119.89949748758227,70.6449024649919 119.69597989949398,70.03893637756119 118.00000000023283,67.84230578842107 117.18592964834534,66.02440043498063 116.91457286453806,65.8729081514175 116.03266331669874,66.1758926922339 115.21859296481125,65.72141584160272 114.4723618091084,66.10014656675048" stroke="yellow" stroke-linecap="round" stroke-linejoin="round" stroke-width="0.5"><title>2026-02-23 6.0km</title><desc>17493745395</desc></polyline><polyline fill="none" points="14.5,261.74868000281276 14.588139281840995,262.3202408229117 14.85255712736398,262.415500911884 15.249183895532042,262.3202408229117 15.77801958634518,261.89157025382156 16.13057671370916,260.9865981459152 16.879760609241202,259.891103948059 17.584874863969162,258.4145654369495 17.71708378684707,258.03352270874893 17.849292709492147,257.22380618721945 18.1137105547823,256.50934961467283 19.127312295837328,254.8899118778645 20.890097932424396,252.93705524818506 22.785092491889372,251.50813213270158 24.239390641916543,250.26972961780848 25.82589771482162,248.55501463881228 29.39553862903267,245.6018840406905 31.026115342741832,244.0300511205569 32.39227421116084,242.93452901102137 33.229597388301045,242.02953112556133 34.72796517959796,240.69584778771969 35.69749727961607,240.07663675805088 37.10772578883916,238.4571590333362 37.41621327539906,237.93320951383794 37.548422198044136,237.21873223158764 37.680631120922044,236.93294110381976 37.98911860724911,236.5995179663878 38.209466811968014,236.50425418204395 38.34167573438026,236.50425418204395 38.91458106646314,236.17083082982572 39.00272034830414,235.9326711902395 38.782372143585235,235.07529578194954 38.782372143585235,233.40817376988707 39.134929270949215,231.7410475811921 39.17899891198613,230.88366677198792 38.958650707500055,230.69313755334588 39.26713819359429,230.50260827993043 40.32480957568623,230.40734362293733 41.7791077257134,230.02628485806054 44.29107725783251,229.78812301927246 45.216539717046544,229.78812301927246 45.7013057670556,230.21681426785653 46.45048966258764,230.50260827993043 46.62676822650246,230.40734362293733 46.494559303624555,230.0739172156318 46.58269858546555,229.97865249717142 47.86071817204356,229.93102013278985 48.301414581015706,229.16890183946816 48.257344940211624,228.9307396938093 48.34548422205262,227.93045775097562 48.301414581015706,227.2636022871011 48.43362350366078,226.78727654652903 48.52176278550178,225.64409337792313 48.69804134918377,225.21539918339113 48.477693144697696,225.26303188537713 52.3117519041989,224.40564272896154 52.17954298155382,224.40564272896154 52.399891186272725,224.11984609789215 52.5321001089178,224.11984609789215 52.928726877085865,225.31066458381247 53.14907508180477,226.93017430452164 53.36942328629084,227.5017650295049 54.51523394999094,229.2165342583321 55.48476605000906,230.4549759532092 56.145810663932934,231.07419593608938 56.542437432100996,231.59815085638547 56.93906420026906,231.69341534300474 57.33569096843712,231.55051860795356 57.55603917292319,231.69341534300474 58.305223068688065,230.55024060350843 59.583242655033246,229.2165342583321 61.742655059788376,228.9307396938093 62.49183895532042,228.88310725439806 62.71218716003932,229.07363699143752 62.8443960826844,229.35943149460945 63.59357997821644,230.1691819204716 64.43090315558948,231.7410475811921 64.82752992399037,232.31263417354785 65.00380848743953,232.93185242795153 64.82752992399037,233.40817376988707 64.47497279639356,233.7415985063999 63.505440696375445,234.26555132621434 63.41730141453445,234.36081543104956 64.16648531006649,234.98003177938517 64.51904243743047,235.07529578194954 65.92927094665356,234.45607952214777 67.55984766059555,233.50343799742404 69.36670293821953,232.78895595873473 72.31936887931079,231.3123573147459 73.59738846565597,230.4549759532092 74.91947769303806,229.31179908593185 76.85854189330712,227.97809025860624 77.65179542987607,227.6446626339457 79.41458106646314,227.54939756769454 80.16376496199518,227.31123484234558 81.17736670305021,226.88254172191955 82.54352557146922,225.83462404244347 83.16050054412335,225.45356265892042 83.42491838964634,224.69143923709635 83.55712731252424,224.54854099842487 84.21817192598246,224.40564272896154 85.23177366703749,224.92960290017072 85.62840043520555,225.07250105711864 86.02502720360644,225.02486834157025 86.4216539717745,224.78670471266378 87.08269858546555,224.16747887834208 87.30304679018445,223.54825246776454 87.47932535363361,223.35772114858264 87.6556039173156,223.35772114858264 88.14036996732466,223.5006196430768 89.28618063102476,222.59559532615822 89.99129488575272,221.7858356832876 90.38792165392078,221.16660705616232 90.78454842208885,220.88080903398804 91.4896626768168,220.1186803744058 91.6659412404988,219.68998261977686 91.6659412404988,218.68968678469537 91.13710554945283,216.6890906028566 91.13710554945283,216.260390638432 92.23884657234885,211.54467279766686 92.67954298155382,209.0200828424422 93.38465723628178,205.78097226505633 93.82535364525393,204.2090452715056 94.08977149077691,203.78033726493595 94.26605005422607,203.11345759459073 94.13384113181382,201.3986210867879 94.22198041365482,200.3506632670178 93.91349292709492,198.44528118317248 94.00163220893592,197.49258809461026 93.69314472260885,196.87333685538033 94.04570184974,195.25375396589516 94.04570184974,194.7774053066969 93.95756256813183,194.30105630645994 93.78128400421701,193.96761180332396 93.1202393907588,193.2530873051146 92.67954298155382,192.9672772908816 90.4319912949577,192.0145763567998 89.28618063102476,191.34768489102134 88.58106637676246,190.7760631024139 88.18443960836157,190.39498163713142 87.69967355835252,189.72808854765026 86.77421109913848,188.01321753265802 86.64200217626058,187.67976987746079 86.68607181729749,187.584499088116 87.08269858546555,187.67976987746079 88.0522306857165,188.5372063673567 90.3438520131167,190.1091703948914 93.38465723628178,192.44329194602324 94.83895538630895,193.77707201207522 95.36779107735492,194.4915959474165 95.5,194.8250401879195 95.5,195.444293333916 95.19151251367293,197.54022278136108 95.05930359079503,199.2550692355726 94.00163220893592,203.06582330691162 93.82535364525393,203.92323996452615 93.56093579973094,205.78097226505633 92.41512513603084,210.49673096038168 91.88628944498487,213.16421602660557" stroke="#4DD2FF" stroke-linecap="round" stroke-linejoin="round" stroke-width="0.5"><title>2026-01-03 4.3km</title><desc>17507819708</desc></polyline></svg>