<?xml version="1.0" encoding="utf-8" ?>
<svg baseProfile="full" height="300mm" version="1.1" viewBox="0,0,200,300" width="200mm" xmlns="http://www.w3.org/2000/svg" xmlns:ev="http://www.w3.org/2001/xml-events" xmlns:xlink="http://www.w3.org/1999/xlink"><defs /><rect fill="#222222" height="300" width="200" x="0" y="0" /><text fill="#FFFFFF" style="font-size:12px; font-family:Arial; font-weight:bold;" x="10" y="20">Over 3km Runs</text><text fill="#FFFFFF" style="font-size:4px; font-family:Arial" x="10" y="280">Runner</text><text fill="#FFFFFF" style="font-size:9px; font-family:Arial" x="10" y="290">Zheng</text><text fill="#FFFFFF" style="font-size:4px; font-family:Arial" x="65" y="280">SPECIAL TRACKS</text><rect fill="yellow" height="2.6" width="2.6" x="65" y="283" /><text fill="#FFFFFF" style="font-size:3px; font-family:Arial" x="70" y="285.5">Over 5.0 km</text><rect fill="red" height="2.6" width="2.6" x="65" y="287" /><text fill="#FFFFFF" style="font-size:3px; font-family:Arial" x="70" y="289.5">Over 10.0 km</text><text fill="#FFFFFF" style="font-size:4px; font-family:Arial" x="120" y="280">STATISTICS</text><text fill="#FFFFFF" style="font-size:3px; font-family:Arial" x="120" y="285">Number: 8</text><text fill="#FFFFFF" style="font-size:3px; font-family:Arial" x="120" y="290">Weekly: 1.6</text><text fill="#FFFFFF" style="font-size:3px; font-family:Arial" x="141" y="285">Total: 44.5 km</text><text fill="#FFFFFF" style="font-size:3px; font-family:Arial" x="141" y="290">Avg: 5.6 km</text><text fill="#FFFFFF" style="font-size:3px; font-family:Arial" x="167" y="285">Min: 3.2 km</text><text fill="#FFFFFF" style="font-size:3px; font-family:Arial" x="167" y="290">Max: 10.6 km</text><polyline fill="none" points="28.40975609747693,42.44342716888059 28.497560975607485,43.15519858838525 28.541463414672762,44.6261904334533 28.9365853657946,46.47678844095208 29.024390243925154,47.28345775051275 28.804878048831597,51.1269862743211 28.717073170701042,51.506592820747755 28.497560975607485,51.743846801808104 26.478048780700192,52.692861877032556 25.512195121962577,53.02501683239825 20.551219512242824,53.59442494018003 17.082926829345524,53.87912881071679 16.029268292710185,54.1163819427602 15.897560975514352,54.16383255895926 15.809756097616628,54.306184387241956 15.59024390252307,55.82460198691115 15.853658536681905,58.481824418122414 15.809756097616628,59.335929366527125 15.985365853644907,60.66453487670515 15.853658536681905,61.37628673348809 15.546341463457793,62.135487871884834 15.41463414626196,62.657438150199596 16.248780487803742,62.704888155160006 16.29268292686902,63.51153771934332 16.160975609673187,64.88758471084293 16.160975609673187,66.35852833685931 16.81951219518669,68.54121286491863 17.17073170724325,69.15805719018681 17.30243902443908,69.63255243457388 17.609756097663194,70.01214838551823 16.863414634251967,70.24939574452583 15.019512195140123,70.48664301860845 14.185365853598341,70.67644077673322 13.131707317195833,71.76777683192631 13.0,72.00502356287325 13.0,72.1948208863032 13.131707317195833,72.52696607180405 14.536585365887731,73.80809594306629 14.843902439111844,73.99789275048533 15.546341463457793,74.04534194385633 16.248780487803742,74.28258785972139 17.082926829345524,75.18412156612612 18.839024390326813,76.56014433369273 19.23414634144865,76.74994035344571 19.58536585373804,76.74994035344571 20.682926829205826,76.41779728326946 22.439024390187114,76.27545020234538 23.931707317009568,76.32289923267672 24.59024390252307,76.46524630347267 24.897560975747183,76.46524630347267 26.30243902443908,76.18055213120533 28.58536585373804,75.42136707465397 29.551219512242824,75.37391797965392 30.165853658458218,75.18412156612612 30.780487804906443,75.23157067451393 31.17560975602828,75.08922333887313 31.52682926831767,75.18412156612612 32.09756097570062,75.5637143389904 33.502439024392515,76.93973631883273 34.029268292710185,77.1769811991835 35.258536585373804,77.08208325720625 36.18048780481331,76.79738934984198 37.71707317070104,76.51269532035803 38.77073170733638,76.22800116852159 40.087804878130555,76.22800116852159 40.57073170738295,76.08565404679393 41.317073170794174,75.51626525417669 42.54634146322496,74.28258785972139 42.853658536681905,73.85554514994146 43.95121951214969,72.85911109094741 44.65365853649564,72.38461815560004 45.39999999990687,71.24583372531924 45.57560975616798,70.81878905976191 45.795121951028705,69.82235043717083 46.23414634144865,68.4937632777146 46.321951219579205,67.68711977492785 46.19024390238337,66.92792499350617 46.23414634144865,66.16872934269486 46.36585365864448,65.55188223643927 46.62926829280332,65.07738407183206 47.06829268299043,64.69778529560426 47.94634146336466,64.12838672392536 51.54634146345779,61.13903619948542 56.199999999953434,56.72616079123691 59.88780487817712,53.64187559380662 61.029268292943016,52.550509702414274 61.86341463425197,51.601494423288386 63.31219512200914,50.272870750399306 65.33170731691644,48.70698943169555 66.3853658537846,47.66306649771286 67.0,47.14110441424418 66.82439024373889,46.9987510474748 66.64878048794344,46.9987510474748 66.47317073168233,47.94777291541686 66.2097560975235,48.56463640113361 65.33170731691644,49.60855791537324 63.136585365980864,51.17443710460793 60.89756097551435,53.02501683239825 59.448780487757176,54.40108558908105 55.40975609747693,57.817519808828365 54.443902438972145,58.8139764732332 53.30243902420625,59.71553121251054 52.51219512219541,60.569634571438655 51.019512195372954,61.80333748087287 50.141463414533064,62.60998814186314 48.736585365841165,64.27073641272727 47.858536585466936,65.55188223643927 47.28780487808399,67.1651734560146 46.62926829280332,69.53765341278631 46.23414634144865,70.29684520605952 44.65365853649564,72.33716884331079 41.05365853640251,76.56014433369273 40.614634146448225,76.93973631883273 40.087804878130555,77.08208325720625 37.62926829257049,77.22443016502075 34.204878048738465,77.55657283117762 33.59024390252307,77.5091238890891 33.23902439046651,77.31932808662532 31.746341463644058,75.89585783693474 31.395121951354668,75.27901977970032 31.043902439065278,74.8994268438546 31.087804878130555,74.51983369077789 30.429268292617053,74.23513868334703 30.078048780560493,73.80809594306629 29.77073170733638,73.0489081699634 29.77073170733638,72.71676324598957 30.12195121939294,70.81878905976191 30.34146341471933,70.53409246332012" stroke="#4dd2ff" stroke-linecap="round" stroke-linejoin="round" stroke-width="0.5"><title>2026-03-12 4.1km</title><desc>17691059793</desc></polyline><polyline fill="none" points="133.37543453043327,34.943489252764266 133.62572421738878,36.36373293364886 133.6882966393605,38.18975738622248 133.62572421738878,40.48919056565501 133.2502896869555,42.38283721753396 133.62572421738878,47.184567071148194 133.75086906109937,53.67700807086658 133.3128621086944,62.94218515936518 133.37543453043327,66.3236140240333 133.12514484324493,67.40566870529437 133.0,68.21720890305005 133.12514484324493,68.8934918687446 133.56315179611556,70.04317179997452 134.1263035919983,70.92233786225552 135.00231749704108,71.66624696855433 136.4414831979666,72.34252746606944 136.3789107762277,72.88355151575524 135.9409038235899,73.01880747964606 135.6280417146627,73.69508700922597 135.44032444944605,74.57424967421684 135.37775202770717,75.65629490837455 135.56546929269098,76.73833890358219 136.7543453068938,80.11971840343904 137.00463499384932,81.81040361634223 137.1923522592988,82.21616761747282 137.94322132063098,82.96006783377379 139.82039397442713,84.04210346646141 141.0092699881643,83.97447627579095 143.19930475065485,83.70396746433107 147.39165701018646,82.62193144444609 149.70683661615476,82.55430415202864 150.83314020838588,81.94565830286592 154.65005793701857,79.10530582384672 155.21320973313414,78.63191291398834 155.7763615292497,77.68512638297398 156.15179606014863,75.65629490837455 157.46581691759638,73.15406342432834 157.7161066045519,72.00438727793517 157.90382387000136,69.29926141595934 158.02896871371195,68.8934918687446 159.28041714942083,67.06752675032476 160.46929316339083,65.917843199044 162.28389339498244,63.55084324796917 163.15990730002522,62.87455645867158 165.9130938583985,61.25146618951112 166.85168018518016,60.57517775456654 167.8528389337007,59.69600206555333 169.79258400923572,57.396615626930725 175.98725376604125,52.18916094861925 181.49362688302062,46.914047728001606 182.61993047501892,46.17011913523311 183.68366164551117,45.0880401362665 185.49826187710278,43.73543964495184 186.74971031281166,42.38283721753396 186.87485515652224,42.38283721753396 187.0,42.85624828742584 186.87485515652224,43.19439890637295 186.37427578214556,44.005959898233414 185.3105446116533,45.155670110019855 184.18424101965502,46.10248923389008 181.806488991715,47.59034594055265 180.17960602534004,48.87531121092616 177.8644264191389,51.174718385678716 175.73696407862008,52.86545538553037 174.04750869050622,54.691447947290726 171.10660486645065,56.99084096879233 164.035921205068,63.34795726201264 162.90961761283688,64.90341537457425 161.34530706820078,66.52649937110255 160.78215527208522,67.40566870529437 159.53070683637634,70.51656901213573 158.59212050959468,73.28931934951106 157.90382387000136,74.70950539631303 152.39745075302199,81.40463944117073 149.76940903812647,84.31261218106374 146.9536500577815,84.5154936662293 146.45307068363763,84.65074796555564 142.8864426414948,84.78600224544061 141.07184240990318,85.05651074717753 140.32097334880382,84.98888362891739 138.56894553848542,83.83922187966527 137.44264194648713,82.82481329247821 137.1923522592988,82.41904955275822 137.1923522592988,81.94565830286592 136.7543453068938,80.99887509155087 135.50289687118493,80.05209093197482 135.12746234051883,79.64632600161713 134.87717265309766,78.7671680553467 135.06488991854712,75.99443378986325" stroke="#4dd2ff" stroke-linecap="round" stroke-linejoin="round" stroke-width="0.5"><title>2026-03-10 3.2km</title><desc>17665858677</desc></polyline><polyline fill="none" points="13.0,110.36226932879072 13.828644501511008,109.79684524936602 14.289002557750791,109.59123635926517 15.209718670230359,109.53983412572416 15.485933504067361,109.59123635926517 15.624040920753032,109.69404081330867 15.992327366024256,110.41367149120197 16.268542199395597,111.39031172846444 17.235294117825106,112.36695035704179 17.78772378526628,113.34358737710863 18.340153452707455,114.73143721721135 19.07672634278424,115.60526693152497 19.629156010458246,116.68470185942715 19.99744245526381,116.99311147799017 20.595907928422093,117.19871780119138 21.056265984894708,117.14731622702675 21.884910486172885,116.83890668867389 22.39130434812978,116.47909535799408 23.219948849175125,116.11928380886093 24.232736573088914,115.29685659118695 24.87723785173148,114.93704432476079 25.567774936323985,114.73143721721135 26.21227621496655,114.73143721721135 26.718670076923445,114.98844609037042 27.777493606321514,115.91367711155908 28.191815856844187,116.53049699007533 28.56010230188258,117.19871780119138 29.94117647060193,119.10057291091653 30.263427110156044,119.71738947427366 31.920716112479568,118.43235424306476 32.841432225191966,117.96974087820854 33.80818414315581,117.30152093607467 37.35294117662124,115.39966005581664 38.04347826121375,114.88564255461097 38.3657289003022,114.78283900086535 38.872122762259096,115.8108737358707 39.19437340181321,116.11928380886093 39.42455242970027,116.06788214133121 40.20716112526134,115.50246350257657 40.39130434789695,115.45106178132119 40.66751918173395,115.55386521940818 41.219948848942295,116.06788214133121 42.554987212177366,118.22674834774807 42.78516624076292,119.04917150159599 42.83120204601437,120.02579751540907 43.06138107413426,121.20802685362287 43.24552429676987,121.77344005170744 43.383631713688374,121.92764355771942 43.79795396421105,122.28745158220408 44.94884910504334,122.75006157858297 45.68542199512012,122.75006157858297 46.099744245642796,122.85286375094438 46.83631713571958,123.41827538079815 48.81585677759722,125.62851566937752 49.36828644503839,125.83411899831844 50.56521739135496,126.14252385811415 51.854219948872924,126.7593330963864 53.281329923309386,128.1471515368321 55.26086956518702,130.51157547323965 55.537084399024025,130.66577670676634 55.8132992326282,130.71717710915254 57.47058823541738,130.35737419960788 58.20716112526134,130.04897153179627 58.80562659865245,129.89477013784926 61.475703324889764,129.74056870368076 65.02046035812236,128.86675981985172 66.40153452684171,128.81535925721982 66.76982097188011,128.60975696175592 66.95396419428289,128.24995277350536 66.95396419428289,127.73594641155796 66.67774936067872,126.6565316010965 66.5856777492445,125.93692063592607 66.63171355519444,124.24069133412559 66.53964194352739,123.88088449486531 66.30946291564032,123.46967641124502 65.11253196932375,122.85286375094438 63.915601022774354,122.0818470234517 62.21227621473372,121.31082929339027 60.69309462909587,120.8482181741274 59.54219948849641,120.12860016018385 57.930946291657165,118.58655861800071 57.10230179014616,117.14731622702675 55.90537084406242,115.34825832565548 55.07672634278424,113.90900807449361 54.66240409202874,113.4463911804487 54.248081841506064,113.24078355601523 53.78772378526628,113.18938163883286 52.86700767255388,113.60059685184387 51.900255754590034,114.83424077986274 51.53196930955164,115.09124960849294 50.795396419474855,114.88564255461097 49.32225063932128,113.85760621528607 48.723785166163,113.24078355601523 48.03324808203615,112.21274436480599 47.80306905368343,112.0585383324069 47.57289002556354,112.1099403477856 46.97442455240525,112.52115630934713 45.77749360608868,113.08657779102214 45.13299232744612,113.5491949658026 44.99488491052762,113.70340061053867 44.99488491052762,113.90900807449361 45.13299232744612,114.32022278837394 45.54731457796879,114.88564255461097 45.63938618940301,116.63330024085008 45.50127877248451,117.60993023373885 44.94884910504334,119.25477711186977 44.39641943736933,120.23140278708888 44.12020460353233,120.59121184085961 43.475703324889764,120.7968169162632 43.29156010225415,121.00242192065343 43.29156010225415,121.31082929339027 43.475703324889764,121.82484122476308 44.02813299233094,122.28745158220408 44.672634271206334,122.5444571802509 46.23785166232847,122.80146266700467 46.65217391308397,123.00706697622081 47.342710997443646,123.67528048873646 48.81585677759722,125.52571397810243 49.32225063932128,125.83411899831844 50.28900255751796,126.24532544228714 51.30179028143175,126.6051308469032 51.71611253195442,126.81073383725015 52.9590792839881,127.73594641155796 54.80051150894724,129.94617060694145 55.35294117638841,130.4601750531583 55.629156010458246,130.61437630007276 56.59590792842209,130.71717710915254 57.24040920706466,130.61437630007276 58.43734015338123,130.25457332812948 59.68030690541491,130.04897153179627 61.24552429676987,130.04897153179627 62.35038363165222,129.6377677253331 63.36317135556601,129.12376256642165 64.42199488496408,129.02096148114651 65.29667519195937,128.81535925721982 66.53964194352739,128.76395868998952 66.8618925830815,128.50695578748127 66.95396419428289,128.1471515368321 67.0,127.73594641155796 66.63171355519444,126.5023293250706 66.5856777492445,124.18929037050111 66.447570332326,123.77808250073576 65.80306905368343,123.16127016127575 63.1790281329304,121.77344005170744 60.554987212177366,120.7968169162632 59.58823529398069,120.23140278708888 58.85166240413673,119.35757989040576 57.60869565210305,118.17534686269937 57.14833759586327,117.45572560484288 56.59590792842209,116.37629208056023 55.537084399024025,114.83424077986274 54.20204603578895,112.67536222137278 53.46547314571217,111.6987241008319 52.49872122751549,110.05385626142379 52.22250639391132,109.43702964525437 52.084398976992816,109.28282289078925 51.808184143388644,109.38562739820918 50.38107416871935,110.36226932879072 48.8618925830815,111.13330129568931 48.539641943760216,111.13330129568931 48.263427110156044,111.03049709129846 47.98721227631904,110.51647580234567 47.52685422007926,110.15666063508252 46.65217391308397,110.41367149120197 44.94884910504334,111.2361054822104 42.96930946293287,112.46975432982435 42.508951406693086,113.08657779102214 40.66751918173395,114.01181177975377 39.37851662398316,114.88564255461097 37.39897698210552,115.91367711155908 36.70843989797868,116.37629208056023 34.6828644501511,117.35292249673512 31.552429667674005,119.30617850337876 30.033248082036152,120.12860016018385 29.480818414362147,120.5398105608765 28.65217391308397,120.8482181741274 27.823529411805794,120.95102067629341 26.902813299559057,121.3622305066092 26.25831202045083,121.82484122476308 25.245524296769872,122.85286375094438 23.95652173925191,123.5210774372099 23.496163682779297,123.46967641124502 23.127877237973735,123.05846804234898 22.989769821055233,122.33885271067265 22.851662404136732,121.82484122476308 22.34526854241267,121.05382316053146 21.700767263537273,120.43700798728969 21.19437340181321,119.20337571605342 20.595907928422093,118.22674834774807 19.491048593539745,118.02114238101058 19.03069053706713,117.8155363429687 18.70843989797868,117.8155363429687 17.005115089705214,118.63796006742632 16.222506394144148,119.20337571605342 15.209718670230359,119.6659881186788" stroke="#4dd2ff" stroke-linecap="round" stroke-linejoin="round" stroke-width="0.5"><title>2026-02-24 4.7km</title><desc>17506081930</desc></polyline><polyline fill="none" points="133.0,116.6421270580613 133.31658291444182,116.23814935149858 135.21608040179126,114.62223572307266 136.30150753771886,114.21825661550974 137.3417085427791,113.71328233706299 138.06532663293183,113.51129250309896 139.06030150759034,113.41029755992349 139.46733668330126,112.95582009886857 139.69346733670682,112.90532258123858 139.9648241205141,112.90532258123858 140.59798994963057,113.15781012526713 141.27638190961443,113.25880511238938 141.95477386936545,112.75383000227157 143.2211055275984,112.24885445443215 143.98994974861853,111.79437608696753 144.93969849240966,111.49139031174127 145.84422110556625,110.98641366953962 146.2964824119117,110.83492059161654 146.70351758785546,110.83492059161654 147.1105527637992,110.93591598130297 147.42713567824103,111.18840437906329 148.06030150712468,111.9458689155872 148.69346733670682,112.3498495988897 149.23618090432137,113.10731262521585 149.5979899498634,114.1172617948032 150.1859296481125,114.31925141863758 150.59296482405625,114.92521986976499 150.77386934659444,115.02621455019107 151.99497487419285,114.4202462041867 153.57788944710046,113.30930259928573 155.70351758785546,112.29935202893103 156.51758793951012,111.99636651633773 158.4170854270924,110.88541828870075 158.68844221089967,110.83492059161654 159.05025125597604,110.93591598130297 159.32160804024898,111.44089266727678 159.77386934659444,111.84487370098941 160.5427135678474,111.39039501833031 160.94974874379113,111.33989736513468 161.4020100501366,111.64288321917411 161.80904522608034,112.04686411260627 162.75879396987148,113.61228742892854 162.98492462281138,114.4202462041867 163.12060301494785,115.98566314240452 163.30150753748603,116.79361862590304 163.5276381908916,117.2480930929305 163.79899497446604,117.60157298884587 164.3869346731808,117.90455558593385 164.88442211039364,118.10654389654519 166.693467336474,118.20753802562831 167.19095477368683,118.40952623105841 167.59798994963057,118.86399943754077 168.50251256255433,120.0759262542706 169.7688442207873,121.38884412741754 170.71859296481125,121.74232151074102 171.53266331646591,121.8938117523212 172.43718592938967,122.34828224044759 174.2010050250683,124.57013285631547 175.01507537672296,125.47906930220779 175.693467336474,125.98403338168282 176.28140703518875,126.08502614498138 178.8592964822892,125.68105498654768 179.2211055275984,125.78204780246597 179.31155778863467,125.88304060086375 179.4020100501366,126.13552252016962 179.17587939696386,126.69098235754063 178.9497487435583,126.84247131214943 178.27135678357445,127.09495281567797 177.7286432159599,127.44842673675157 177.2763819093816,127.95338910922874 177.14070351747796,128.30686250969302 177.0954773868434,128.86232027667575 177.77386934659444,132.95249298133422 177.99999999976717,133.4574505830533 178.3618090453092,133.96240774722537 178.72361809038557,134.16439049021574 179.35678391950205,134.3158775016782 180.0351758794859,134.16439049021574 180.48743718583137,133.81092064385302 180.7135678390041,133.60893777827732 180.89447236177512,133.10398030775832 180.98492462281138,132.59902239969233 180.84924623090774,131.79108883620938 180.39698492456228,129.82174608157948 180.12562814052217,128.25636632269016 179.89949748734944,127.75140421278775 179.58291457267478,127.34743420989253 179.26633165800013,127.14544910332188 178.81407035165466,126.99396022746805 178.1356783916708,127.0444565237849 177.7286432159599,127.24644166533835 177.23115577851422,127.75140421278775 177.05025125597604,128.30686250969302 177.0050251253415,128.6098395391018 177.05025125597604,129.67025790177286 177.3668341706507,132.59902239969233 177.63819095445797,133.4069548426196 178.1356783916708,134.01290343963774 178.63316582888365,134.36637316341512 179.49246231117286,134.41686882072827 179.8090452258475,134.3158775016782 180.57788944686763,133.81092064385302 181.03015075344592,133.25546759489225 181.03015075344592,132.59902239969233 180.84924623090774,131.43761754990555 180.7135678390041,129.82174608157948 180.57788944686763,129.31678532861406 180.39698492456228,128.96331254113466 180.26130653265864,128.20587013132172 180.0351758794859,127.70090797776356 179.8542713567149,127.44842673675157 179.1306532660965,127.09495281567797 178.72361809038557,126.94346392672742 178.2261306529399,126.99396022746805 177.63819095445797,127.29693793988554 177.14070351747796,127.90289289160864 176.95979899470694,128.25636632269016 176.91457286430523,128.76132799475454 177.32160804024898,131.94257646478945 177.59296482405625,133.20497183687985 177.77386934659444,133.5079463191796 178.3618090453092,134.0633991275099 179.08542713546194,134.41686882072827 179.44723618077114,134.51786012225784 180.0351758794859,134.2653818356921 180.53266331646591,133.86141634942032 180.75879396963865,133.55844205105677 180.93969849217683,132.95249298133422 180.39698492456228,129.67025790177286 179.89949748734944,127.95338910922874 179.62814070354216,127.59991549456026 179.26633165800013,127.29693793988554 178.72361809038557,127.09495281567797 178.1356783916708,127.0444565237849 177.68341708532535,127.1959453864838 177.41206030128524,127.49892299377825 177.14070351747796,127.95338910922874 177.05025125597604,128.66033569542924 177.3668341706507,131.23563386156457 177.77386934659444,133.30596334853908 178.0904522612691,133.76042493403656 178.72361809038557,134.16439049021574 179.26633165800013,134.2653818356921 180.0351758794859,134.11389481107472 180.30653266306035,133.96240774722537 180.7135678390041,133.5079463191796 180.98492462281138,132.95249298133422 181.03015075344592,132.54852658486925 180.66834170836955,130.47819440613966 180.53266331646591,128.76132799475454 180.12562814052217,127.49892299377825 179.94472361775115,127.34743420989253 179.08542713546194,126.89296762167942 178.2261306529399,126.84247131214943 177.77386934659444,126.99396022746805 177.32160804024898,127.34743420989253 176.91457286430523,127.95338910922874 176.8241206028033,128.40785487025278 176.8241206028033,130.02373026037822 177.32160804024898,133.0029887612327 177.50251256255433,133.4069548426196 177.99999999976717,134.11389481107472 178.2261306529399,134.3158775016782 178.6783919595182,134.46736447361764 179.26633165800013,134.46736447361764 180.12562814052217,134.2653818356921 180.53266331646591,133.96240774722537 180.84924623090774,133.60893777827732 181.03015075344592,133.20497183687985 181.1658291455824,132.59902239969233 180.66834170836955,129.97323422215413 180.48743718583137,128.66033569542924 180.30653266306035,128.05438153125579 180.08040200988762,127.54941924626473 179.67336683394387,127.1959453864838 179.26633165800013,126.99396022746805 178.76884422102012,126.89296762167942 178.1356783916708,126.89296762167942 177.68341708532535,127.0444565237849 177.14070351747796,127.44842673675157 177.05025125597604,127.59991549456026 176.91457286430523,128.30686250969302 176.8241206028033,128.96331254113466 177.0050251253415,130.2257143688621 177.7286432159599,133.25546759489225 177.8643216076307,133.55844205105677 178.2261306529399,133.96240774722537 178.6783919595182,134.2148861651076 178.99497487419285,134.3158775016782 179.53768844204023,134.3158775016782 180.26130653265864,134.01290343963774 180.8040201002732,133.55844205105677 181.0753768843133,132.90199719712837 181.03015075344592,131.84158471680712 180.21608040179126,128.25636632269016 179.7638190954458,127.54941924626473 179.31155778863467,127.1959453864838 178.81407035165466,126.94346392672742 178.3618090453092,126.89296762167942 177.7286432159599,127.0444565237849 177.32160804024898,127.39793047553394 177.05025125597604,127.85239666973939 176.95979899470694,128.50884721340844 177.0954773868434,130.3267063969397 177.2763819093816,131.53860936802812 177.41206030128524,131.99307233223226 177.5477386934217,133.0029887612327 177.68341708532535,133.4574505830533 178.04522613040172,133.96240774722537 178.8592964822892,134.36637316341512 179.94472361775115,134.3158775016782 180.89447236177512,133.60893777827732 181.0753768843133,133.35645909776213 181.2110552759841,132.85150140844053 180.89447236177512,131.48811346123694 180.75879396963865,130.4276984074968 180.66834170836955,129.97323422215413 180.57788944686763,129.01380866678664 180.39698492456228,128.05438153125579 180.21608040179126,127.65041173843201 179.62814070354216,127.0444565237849 179.31155778863467,126.53949336346705 179.26633165800013,126.18601889087586 179.31155778863467,125.83254420378944 179.67336683394387,125.68105498654768 180.98492462281138,125.42857287026709 181.8442211051006,125.12559418624733 182.8391959797591,124.87311182921985 183.65326633141376,124.62062936276197 186.23115577874705,124.21665718877921 186.59296482405625,123.96417443780228 187.0,123.30771877319785 186.95477386913262,122.75225570995826 186.59296482405625,121.28785054991022 186.59296482405625,119.92443554016063 186.50251256255433,119.52046010969207 186.32160804001614,119.21747835283168 185.59798994963057,118.7125084080617 184.6030150752049,118.25803508347599 183.74371859268285,117.75306430703495 180.89447236177512,116.59162986010779 179.53768844204023,115.83417136454955 178.6783919595182,115.12720921338769 177.50251256255433,113.61228742892854 176.77889447216876,111.84487370098941 176.19095477368683,111.13790670817252 175.64824120607227,109.92596129595768 175.24120603012852,109.3704854727257 174.60804020077921,108.00704256974859 173.88442211039364,107.19907489902107 173.56783919595182,107.1485768823186 173.34170854254626,106.94658477196936 172.43718592938967,105.83562691346742 172.03015075367875,105.48213987774216 171.48743718583137,105.78512877854519 170.94472361798398,105.98712129163323 169.81407035165466,106.79509064333979 167.64321608026512,107.75455279287416 165.6984924620483,108.86550699191866 164.88442211039364,109.42098329664441 164.43216080404818,109.57247674249811 162.39698492456228,110.78442289010854 161.80904522608034,110.98641366953962 161.44723618077114,111.0369113534689 161.08542713546194,110.32994338020217 160.72361809038557,109.97645907185506 159.77386934659444,110.48143658967456 159.32160804024898,110.58243204065366 158.68844221089967,111.13790670817252 157.87437185901217,111.44089266727678 156.74371859268285,112.14785929227946 153.93969849240966,113.56178996822564 153.2613065324258,114.1172617948032 152.3115577888675,114.57173834985588 151.5879396982491,115.27870117523707 150.7286432159599,115.83417136454955 150.36683417088352,116.03616039291956 149.64321608026512,116.03616039291956 148.2412060298957,116.6421270580613 147.02010050229728,117.39958450308768 145.12060301494785,118.35902918630745 144.39698492456228,118.91449643846136 144.26130653265864,118.91449643846136 144.08040200988762,118.76300542225363 143.8090452258475,118.25803508347599 143.58291457267478,118.00554974999977 143.58291457267478,117.65207009931328 143.26633165823296,117.09660164336674 143.13065326632932,116.69262425170746 142.0,115.22820385894738 141.4572864321526,114.01626695663435 141.27638190961443,113.915272100945 140.6884422111325,114.1172617948032 140.14572864305228,113.81427722773515 139.64824120607227,114.06676437787246" stroke="#ff9d00" stroke-linecap="round" stroke-linejoin="round" stroke-width="0.5"><title>2026-02-23 6.0km</title><desc>17493745395</desc></polyline><polyline fill="none" points="13.0,204.49912000191398 13.05875952122733,204.88016054863692 13.23503808490932,204.94366727457964 13.49945593031589,204.88016054863692 13.852013057563454,204.59438016923377 14.087051142356358,203.99106543062953 14.586507072788663,203.2607359653921 15.056583242607303,202.27637695797603 15.144722524448298,202.0223484725284 15.232861806289293,201.482537458156 15.409140369854867,201.00623307644855 16.084874863852747,199.92660791857634 17.26006528828293,198.62470349881914 18.52339499455411,197.67208808849682 19.49292709468864,196.84648641187232 20.550598476431333,195.70334309255122 22.930359085905366,193.73458936047973 24.017410228494555,192.68670074705733 24.928182807401754,191.95635267402395 25.486398258828558,191.35302075036452 26.485310119693168,190.46389852516586 27.131664852960967,190.05109117203392 28.071817192598246,188.97143935557688 28.277475516777486,188.62213967589196 28.36561479861848,188.1458214877348 28.453754080459476,187.95529406925198 28.65941240475513,187.73301197760156 28.806311207823455,187.6695027880487 28.894450489548035,187.6695027880487 29.27638737752568,187.44722055320744 29.33514689875301,187.28844746015966 29.188248095684685,186.71686385464272 29.188248095684685,185.60544917994412 29.42328618047759,184.49403172082384 29.45266594120767,183.92244451469742 29.30576713825576,183.79542503558332 29.511425462318584,183.66840551997302 30.216539717046544,183.6048957486346 31.186071817064658,183.35085657206946 32.86071817181073,183.192082012858 33.477693144697696,183.192082012858 33.800870511331595,183.47787617857102 34.3003264417639,183.66840551997302 34.41784548421856,183.6048957486346 34.329706202377565,183.38261147710728 34.388465723604895,183.31910166479065 35.240478781284764,183.28734675521264 35.534276387305,182.77926789296907 35.50489662680775,182.6204931292159 35.563656147918664,181.9536385006504 35.534276387305,181.50906819140073 35.622415669145994,181.19151769770542 35.681175190373324,180.4293955853209 35.798694232827984,180.14359945559409 35.65179542975966,180.17535459029023 38.20783460279927,179.6037618193077 38.11969532095827,179.6037618193077 38.2665941240266,179.4132307319378 38.35473340586759,179.4132307319378 38.61915125127416,180.20710972254165 38.7660500544589,181.2867828696908 38.91294885741081,181.66784335300326 39.676822633249685,182.81102283889777 40.3231773666339,183.6366506354825 40.763873775838874,184.04946395743173 41.02829162136186,184.39876723760972 41.29270946676843,184.4622768953268 41.55712731229141,184.36701240530238 41.70402611524332,184.4622768953268 42.20348204567563,183.70016040233895 43.0554951033555,182.81102283889777 44.495103373075835,182.6204931292159 44.99455930350814,182.5887381696084 45.141458106576465,182.7157579943305 45.22959738841746,182.90628766309237 45.72905331873335,183.4461212803435 46.287268770392984,184.49403172082384 46.55168661591597,184.8750894490222 46.66920565837063,185.28790161863435 46.55168661591597,185.60544917994412 46.31664853100665,185.82773233760963 45.67029379750602,186.17703421751503 45.611534276395105,186.2405436207191 46.110990206710994,186.65335451959982 46.3460282915039,186.71686385464272 47.28618063102476,186.30405301478459 48.37323177361395,185.66895866495906 49.5778019586578,185.19263730585226 51.54624591942411,184.2082382098597 52.39825897710398,183.6366506354825 53.2796517952811,182.87453272397397 54.57236126216594,181.9853935057472 55.10119695321191,181.76310842265957 56.276387377642095,181.69959837847273 56.775843307957985,181.5408232282498 57.45157780207228,181.25502781462274 58.36235038086306,180.55641602832475 58.77366702933796,180.30237510596635 58.94994559301995,179.7942928247503 59.03808487486094,179.69902733230265 59.47878128383309,179.6037618193077 60.15451577794738,179.95306860012352 60.418933623470366,180.0483340380888 60.68335146899335,180.01657889439957 60.947769314516336,179.85780314181466 61.388465723604895,179.44498591890442 61.53536452667322,179.03216831185273 61.65288356912788,178.90514743237873 61.770402611466125,178.90514743237873 62.09357997821644,179.00041309540393 62.857453754055314,178.39706355080125 63.32752992375754,177.8572237888875 63.59194776916411,177.44440470411791 63.85636561468709,177.25387268935447 64.32644178450573,176.74578691628994 64.44396082696039,176.45998841317487 64.44396082696039,175.79312452315935 64.09140369959641,174.45939373524743 64.09140369959641,174.17359375898377 64.82589771482162,171.02978186513064 65.11969532095827,169.34672189498087 65.58977149077691,167.1873148434097 65.88356909679715,166.13936351437587 66.05984766047914,165.85355817666277 66.17736670281738,165.40897172974655 66.0892274210928,164.26574739121133 66.14798694232013,163.56710884469794 65.94232861802448,162.2968541221344 66.0010881392518,161.66172539643594 65.79542981495615,161.24889123695903 66.03046789986547,160.16916931059677 66.03046789986547,159.85160353782703 65.97170837863814,159.53403753763996 65.85418933618348,159.31174120222568 65.41349292709492,158.83539153676247 65.11969532095827,158.6448515272641 63.62132752989419,158.00971757119987 62.857453754055314,157.5651232607197 62.38737758435309,157.18404206828563 62.122959738830104,156.92998775810702 61.799782372196205,156.48539236510987 61.18280739930924,155.342145021772 61.094668117468245,155.11984658497386 61.124047878198326,155.05633272542036 61.388465723604895,155.11984658497386 62.03482045698911,155.69147091158084 63.56256800866686,156.739446929947 65.58977149077691,158.2955279640446 66.55930359091144,159.18471467471682 66.91186071827542,159.66106396497344 67.0,159.88336012529908 67.0,160.2961955559731 66.79434167570435,161.69348185425042 66.70620239386335,162.83671282374416 66.0010881392518,165.37721553794108 65.88356909679715,165.94882664302713 65.70729053311516,167.1873148434097 64.94341675727628,170.3311539735878 64.5908596299123,172.10947735107038" stroke="#4dd2ff" stroke-linecap="round" stroke-linejoin="round" stroke-width="0.5"><title>2026-01-03 4.3km</title><desc>17507819708</desc></polyline><polyline fill="none" points="140.49088177544763,168.609629648985 140.54868657013867,168.59289986437943 140.63539376220433,168.64308921319025 140.77990574913565,168.62635943193163 140.9966737293871,168.59289986437943 141.28569770307513,168.47579132429382 141.73368486232357,168.4088721210428 142.64411037944956,168.2081143478281 143.69904788344866,167.94043693537242 143.84355987032177,167.94043693537242 144.04587665188592,168.00735632931173 144.6817293940112,168.4088721210428 144.88404617563356,168.57617007802764 144.9563021690119,168.67654877048335 145.01410696381936,168.91076548112324 145.11526535457233,169.94800690149714 145.12971655325964,170.53354352209135 145.17307014932157,170.68410974442668 145.2164237453835,170.78448714938713 145.30313093750738,170.85140538529959 145.56325251387898,170.98524177538638 146.19910525600426,171.1525371096941 147.0661771770101,171.20272567681968 148.43904105213005,171.20272567681968 148.68471142975613,171.21945519575092 149.0459913968807,171.3198322737444 149.21940578112844,171.33656178075762 150.27434328506934,171.1358075839089 150.80903763638344,170.9183235939854 151.66165835881839,170.8179462707485 152.22525510756532,170.65065059585322 152.58653507463168,170.4666251567396 152.71659586281748,170.34951795185043 155.60683559981408,167.52219010551926 155.83805477875285,167.27124149663723 156.09817635512445,166.90318284381647 156.7051266998751,166.38455334289756 156.9652482761885,166.13360299679334 157.6155522170011,165.23017857769446 157.84677139599808,164.84538518717454 158.19360016443534,164.46059089568735 158.36701454868307,164.17617714454536 159.11847688024864,163.20582064188784 159.43640325131128,162.72064024167776 160.33237756974995,161.48258721163438 160.5346943513723,161.16470722590748 160.8092671263148,160.77990431524813 161.08383990143193,160.37836988238269 161.9653630211833,159.24068366069696 162.32664298824966,158.8726070200646 162.47115497512277,158.63837600125407 163.1503613133682,157.76837215090927 163.33822689624503,157.46721589862136 163.54054367780918,157.28317569493083 163.75731165811885,157.03221144863346 163.8295676514972,156.88163271684607 164.29200600943295,156.2123922392202 164.42206679761875,156.14546804151905 164.68218837393215,156.0785438165476 165.21688272530446,155.86103989722324 166.9943801634945,155.0077525099914 167.84700088598765,154.75678478798363 168.1793784556794,154.60620397080493 168.8441335952375,154.37196686968673 169.33547435054788,154.17119194590487 169.55224233074114,154.05407312697207 169.98577829130227,153.90349166576925 171.24303257692372,153.60232832920155 171.358642166364,153.5186717488541 171.63321494142292,153.23423905709933 171.90778771636542,153.06692547895364 172.22571408748627,153.0 172.35577487561386,153.01673137227772 172.4135796703631,153.06692547895364 172.63034765061457,153.60232832920155 172.77485963748768,154.22138569984236 172.94827402173541,154.68985999737924 173.04943241243018,155.442762319959 173.16504200198688,156.0785438165476 173.2083955980488,156.71432285297487 173.28065159148537,157.09913528514153 173.30955398880178,157.60106319002807 173.28065159148537,157.66798679484054 173.25174919416895,157.70144858697313 173.00607881642645,157.76837215090927 172.96272522036452,157.81856480597344 172.97717641905183,157.86875744565623 173.12168840598315,158.03606613395095 173.5985779624898,158.42087547056144 173.7286387506756,158.63837600125407 174.01766272442183,158.7052991835517 174.2488819033024,158.88933779437502 174.61016187054338,159.34106805596093 174.95699063886423,159.8764504614519 175.4483313941746,160.52894540970738 176.05528173892526,161.59970073554723 176.19979372579837,161.9008494138252 176.54662249423563,162.40276265106513 176.748939275858,162.77083138404123 177.2836336272303,163.59061787161045 177.39924321667058,163.87503263626422 177.52930400485639,163.97541420033667 177.87613277323544,164.51078150652756 177.99174236273393,164.56097210208827 178.15070554829435,164.5777022971888 178.39637592592044,164.47732110098877 178.52643671410624,164.46059089568735 178.6131439061137,164.51078150652756 178.68539989960846,164.59443249055767 178.68539989960846,164.67808343206707 178.65649750217563,164.76173433091026 178.4686319192988,164.92903600088903 178.36747352854582,165.06287721425178 178.32411993242567,165.1799881865154 178.3385711311712,165.3305593139812 178.4975343166734,165.64843124101753 178.69985109823756,165.9328424439882 179.09003346273676,166.56858335316065 179.6825326088001,167.7229487166769 179.88484939048067,168.2415739936987 179.9282029864844,168.5259807088587 179.87039819179336,169.21190076148196 179.98600778123364,169.81416966670076 179.98600778123364,170.09857366033248 179.9426541851717,170.33278834434168 179.8125933969859,170.65065059585322 179.69698380754562,170.76775758621807 178.3385711311712,171.57077470044896 178.25186393904733,171.63769261620473 177.84723037586082,171.721339972617 177.71716958773322,171.82171674401616 177.5437552035437,172.0893878348288 177.0090608521714,173.1767971583322 176.85009766661096,173.61175887320132 176.72003687848337,173.82923929898243 176.6477808850468,174.56532475855784 176.60442728898488,175.3014069215278 176.6477808850468,176.12113090504135 176.85009766661096,176.6731876105914 176.9223536599893,177.1750557338819 176.9223536599893,177.49290475266753 176.90790246141842,177.79402430876507 176.83564646792365,178.19551619209233 176.66223208373412,178.6471933886205 176.28650091792224,179.36652858361776 176.14198893110733,179.71783067430079 175.92522095079767,180.0858606306283 175.79516016267007,180.40370402067492 175.49168499023654,181.13976003798598 175.33272180473432,181.6583429802413 175.27491700998507,181.992911752066 175.20266101654852,182.193652688351 174.9136370428023,182.86278737206885 174.798027453362,183.06352724602039 174.5379058769904,183.4148214355955 174.2633331020479,183.6824736475537 174.14772351254942,183.91666897552204 174.03211392310914,184.2512331510079 173.64193155855173,184.85344695099047 173.30955398880178,185.2716496807261 172.9338228229899,185.8236756549304 172.76040843874216,186.17496394610498 172.70260364399292,186.5262514865608 172.8182132335496,187.07827324784012 172.76040843874216,187.9313941419532 172.77485963748768,188.2492223627487 172.76040843874216,188.3495890416234 172.99162761779735,189.03542637424835 173.12168840598315,189.82162662591145 173.078334809863,190.13945119235723 173.09278600855032,190.32345460790384 173.13613960455405,190.5910955719737 173.2083955980488,190.95910118619213 173.2228467966779,191.3605609166989 173.17949320061598,191.57801786142227 173.23729799542343,191.87911161774537 173.2083955980488,192.0463856885035 173.2228467966779,192.28056910169835 173.17949320061598,192.61511625624553 173.13613960455405,192.74893492739648 172.73150604142575,193.51839017303428 172.61589645192726,193.95329806674272 172.50028686248697,194.20420594366442 172.24016528611537,194.50529489055043 171.96559251117287,194.72274767594354 171.2141301794909,195.49219368420017 171.01181339792674,195.75982623426535 170.88175260974094,195.96055036097823 170.76614302030066,196.21145517473633 170.52047264267458,196.88053280627355 170.4337654505507,197.34888552839402 170.4482166491798,197.64996871667972 170.4193142518052,197.85069053595362 170.1736438741791,198.5030347561842 170.0435830859933,198.7204822545027 169.92797349655302,198.85429595668393 169.2632183569949,199.43972962324915 169.19096236361656,199.6404492576985 169.06090157543076,199.84116864710813 168.80077999911737,200.89494142172043 168.80077999911737,201.0287533543451 168.8296823965502,201.6643585471611 168.91638958861586,202.0490657597984 168.8585847938666,202.23305584769696 169.03199917811435,202.70139332425606 169.14760876755463,203.83877878561907 169.16205996630015,204.08967157827283 169.14760876755463,204.24020707019372 169.06090157543076,204.39074242429342 168.88748719124123,204.52455151217873 168.46840242942562,204.69181271900015 168.36724403855624,204.7419910478784 168.33834164123982,204.79216936140438 168.23718325037044,204.79216936140438 168.00596407148987,204.85907375568058 167.919256879366,204.85907375568058 167.50017211749218,204.95943029603222 166.64755139511544,205.0597867750912 166.4741370108677,205.0597867750912 166.30072262661997,205.12669106048997 165.99724745430285,205.19359531864757 165.31804111605743,205.2939516548795 164.8989563541836,205.37758188825683 164.3353596054949,205.42776000783488 163.84401885024272,205.37758188825683 162.57231336599216,204.97615638011484 161.6040830540005,205.04306069952145 161.45957106724381,205.10996499168687 161.25725428562146,205.04306069952145 161.09829110006103,205.07651284903113 160.93932791455882,205.0597867750912 160.69365753687453,205.09323892119573 160.46243835793575,205.17686925668386 159.27744006575085,205.37758188825683 158.9306112973136,205.47793811217707 158.6560385223711,205.47793811217707 158.4103681446868,205.56156825192738 157.58664981968468,205.69537638720067 157.13866266043624,205.86263640315155 156.7051266998751,205.91281437475118 156.21378594456473,205.91281437475118 156.14152995118639,205.97971831307223 155.8958595735603,205.9964442933997 155.46232361299917,206.11352610806352 154.68195888400078,206.36441543026012 153.97385014849715,206.63203028538555 153.43915579706663,206.96654824177676 153.2801926115062,207.0 153.20793661812786,206.96654824177676 152.9911686378182,206.53167476570525 152.80330305494135,206.29751164841582 152.70214466413017,205.9964442933997 152.55763267731527,205.81245841625787 152.26860870362725,205.19359531864757 151.92177993513178,204.39074242429342 151.63275596144376,203.57115938482457 151.4304391798796,203.28681329423853 151.24257359700277,202.85193008703936 150.79458643781254,201.94870744331274 150.6067208548775,201.74799062647799 150.59226965613198,201.71453779988224 150.66452564962674,201.6978113840014 150.67897684825584,201.6643585471611 150.5055624640081,201.51382069721876 150.28879448375665,201.11238575690368 149.99977051006863,200.54368458053796 149.13269858900458,198.9546561618481 148.56910184031585,197.64996871667972 148.3812362573226,197.38233924316592 148.22227307182038,196.96416731881618 147.91879789938685,196.31181699303852 147.75983471388463,195.75982623426535 147.38410354807274,194.62238488763978 147.28294515731977,194.2209331218328 147.13843317044666,193.8863892348745 147.10953077307204,193.6856625759683 147.051725978381,193.5685719117755 146.87831159419147,192.94966272998136 146.83495799812954,192.68202560540522 146.6759948125109,192.19693220677436 146.3725196401938,190.9256461643672 146.21355645463336,190.1227235989354 146.15575165988412,189.93871995875088 146.09794686513487,189.60416735796025 146.09794686513487,189.48707378687686 145.89563008357072,188.9016046803299 145.78002049407223,188.41650012689934 145.6066061098827,187.8979385040002 145.51989891775884,187.37937524542212 145.25977734144544,186.47606759818154 145.1875213480089,186.02441191325488 145.01410696381936,185.50584274466382 145.0719117585686,185.35529009900347 144.86959497694625,184.73634999600472 144.62392459932016,183.8330278252688 144.49386381113436,183.4148214355955 144.33490062557394,182.62859054256114 144.1470350426971,182.0932822508621 144.0169742545113,181.40741595438158 143.7568526781979,180.55426120143966 143.68459668476135,180.13604646991007 143.5111823005136,179.5170867144043 143.0776463400107,178.11187213064113 142.90423195576295,177.7271088995476 142.75971996894805,177.25870027209749 142.26837921363767,175.56907234525715 142.22502561763395,175.21776138721907 142.13831842551008,174.98355366468604 142.10941602813546,174.81626222992782 142.02270883595338,174.5820539352717 141.97935523994965,174.34784530679462 141.99380643863697,174.2474700781895 141.79148965707282,173.77905153397296 141.69033126626164,173.4946539093944 141.6469776702579,173.1935264763597 141.53136808075942,172.95931586925872 141.44466088863555,172.72510492832225 141.41575849120272,172.49089365365217 141.31460010050796,172.1730349612917 141.28569770307513,171.88863455760293 141.06892972282367,171.18599615612766 141.02557612676173,170.98524177538638 140.9822225306998,170.43316596385557 140.63539376220433,169.6970619968779 140.56313776882598,169.412657308465 140.461979378073,169.29554935252236 140.38972338457825,169.07806292721943 140.28856499388348,169.0111439692264 140.21630900038872,168.86057621409418 140.14405300695216,168.84384645499813 140.01399221876636,168.84384645499813" stroke="red" stroke-linecap="round" stroke-linejoin="round" stroke-width="0.5"><title>2025-10-17 10.6km</title><desc>17538333095</desc></polyline><polyline fill="none" points="36.21821334818378,214.2388831304852 36.580974657670595,214.32287493775948 37.179530818481,214.28087903835694 37.2702211458236,214.32287493775948 37.57856825890485,214.93181451785495 37.796225044643506,215.49875664888532 38.249676681589335,217.43054776478675 38.703128318535164,218.96336914710992 38.811956711346284,219.48830535833258 39.21099415188655,220.6851549251296 39.42865093762521,221.21008675497433 39.80955031258054,222.84786547868862 40.40810647327453,225.07354392851994 40.7345916518243,226.01840016059577 40.95224843756296,226.50132500813925 41.13362909236457,227.04723869191366 41.460114270914346,228.34902703131957 41.7684613839956,229.25187541042396 41.931703973328695,230.23870516588795 42.49398400308564,232.04438143450534 42.60281239601318,232.71625694216345 42.7116407888243,233.15717405501346 42.94743564003147,233.8710378590913 43.00184983643703,234.35394432597968 43.165092425770126,234.92083308404835 43.273920818581246,235.52971186714421 43.691096324590035,236.99941187158402 43.727372455527075,237.2933506162226 43.981305372319184,238.11217776834383 44.090133765130304,238.6580607312062 44.27151441993192,239.16195141509525 44.47103314008564,240.52664917131187 44.77938025328331,241.38745388321695 44.87007058062591,241.91233304269554 44.99703703902196,242.29024521079555 45.14214156277012,242.9830823881348 45.57745513424743,244.6626780111983 45.74069772346411,245.1035695970204 45.776973854517564,245.48147592076566 46.04904483654536,246.3002705815161 46.32111581868958,247.24502961455437 46.52063453895971,247.62293201666034 46.66573906282429,248.10580630127515 46.91967197949998,248.79862395345117 47.04663843777962,249.30248987585946 47.354985550860874,250.01629782679083 47.75402299140114,250.64612632144417 47.93540364620276,251.06601091664925 48.29816495568957,251.69583620764024 48.67906433076132,252.57758838593145 49.005549509311095,253.20740906389256 49.15065403317567,253.45933679692098 49.25948242598679,253.66927633954037 49.477139211725444,253.96319134040095 50.07569537241943,255.24381610193814 50.42031861655414,255.76866002006864 50.583561205887236,256.1885341935558 51.43605028325692,257.8890158612194 51.56301674165297,258.2249118175241 51.83508772368077,258.72875472696614 52.451781949959695,260.1772962406394 52.97778584866319,261.2899371667154 53.12289037252776,261.7098001084087 53.26799489639234,262.04568984682555 53.26799489639234,262.12966219605005 53.2317187654553,262.2766137249273 53.032200045185164,262.5495234296104 52.70571486663539,262.82243277340604 52.21598709875252,263.1163347401889 49.76734825945459,264.4178955626994 49.22320629504975,264.77477370930137 48.62465013435576,265.0266873237124 47.8809894497972,265.4675354091305 47.572642336715944,265.5724991002062 46.95594811043702,265.86639715128695 46.28483968786895,266.3072434433707 46.04904483654536,266.4122067073913 45.396074479445815,266.60114044831425 44.88820864609443,266.9160296321352 44.67055186035577,267.0 44.4347570091486,266.9790074111952 44.23523828899488,266.89503703480295 43.92689117579721,266.6851109442505 43.781786651932634,266.5381625538721 43.50971566978842,266.0133460199577 42.92929757456295,265.1736367901176 42.56653626507614,264.35491700211423 42.203774955589324,263.8510878262168 42.07680849719327,263.5571869056439 41.55080459837336,262.99037680563924 40.86155811022036,261.7727794760285 40.535072931670584,261.2899371667154 40.33555421140045,260.80709372789715 40.027207098319195,260.4082222090801 39.8639645089861,260.0093499194627 39.33796061016619,259.23259640652395 39.21099415188655,258.91769550100435 38.86637090775184,258.4558399703383 38.739404449472204,258.203918336294 38.52174766373355,257.91000937442004 38.285952812526375,257.49013870306953 38.01388183038216,257.1962287248898 37.41532566968817,256.16754050519376 37.19766888394952,255.8946223618259 36.889321770868264,255.62170385754143 36.29076561005786,255.24381610193814 35.98241849697661,254.8239400064922 35.67407138389535,254.48803851517732 35.202481681481004,254.15213647705968 34.38626873504836,253.3333729688893 33.95095516345464,252.99746905149368 33.64260805037338,252.66156458739715 32.73570477659814,252.01074813237938 32.30039120523725,251.61185961322917 32.08273441938218,251.33893544538296 31.53859245509375,250.94004562770715 31.33907373494003,250.75109755038284 31.103278883732855,250.62513206929725 30.59541305026505,250.12126937610446 29.77920010383241,249.44945053820265 28.926711026462726,248.86160726101662 28.436983258579858,248.3577402621304 28.310016800300218,248.16878982030903 28.00166968710255,247.97983920550905 27.802150966832414,247.74889933028317 27.602632246678695,247.4759700535942 27.530079984804615,247.2870188045199 27.38497546094004,247.07707276922883 27.27614706812892,246.82513724494493 27.076628347858787,246.57320141306263 26.949661889579147,246.32126527365472 26.732005103724077,244.93561100872466 26.877109627588652,244.38974465269712 27.29428513359744,243.50795748895325 27.54821805015672,243.27701260904723 27.76587483601179,242.9830823881348 27.983531621750444,242.79412702503032 28.273740669246763,242.4792010353267 28.582087782328017,242.20626478882332 28.962987157399766,241.72337669908302 29.434576859814115,241.30347309377976 29.99685688968748,240.88356863407535 30.649827246787027,240.1067431307747 31.919491830165498,238.97299255279358 32.35480540152639,238.70005166853662 32.40921959804837,238.61606978533382 32.499909925390966,238.15416881676356 32.39108153257985,237.90222239811555 32.15528668137267,236.97841623095155 31.84693956829142,236.43252882435627 31.756249240832403,236.20157602528343 31.701835044426844,235.69767811181373 31.593006651615724,235.1727831432363 31.593006651615724,234.81585380189063 31.53859245509375,234.54290741842124 31.085140818264335,233.28315019991715 30.84934596705716,232.88422547724622 30.758655639598146,232.65326870627177 30.649827246787027,231.96039684217249 30.559136919444427,231.6664504999062 30.559136919444427,231.24652642734873 30.468446592101827,230.9105865538877 30.305204002768733,230.53265354239556 30.123823348083533,229.58781798482232 29.978718824102543,229.1678896814119 29.906166562228464,228.4960026180779 29.742923973011784,227.76112363715947 29.742923973011784,227.48816792036814 29.77920010383241,227.17321856760827 29.63409558008425,226.62730521724734 29.561543318093754,226.22836762457155 29.434576859814115,225.15753132432292 29.362024597940035,224.84257841354702 29.343886532471515,224.1706772633479 29.1625058776699,223.2468096086668 29.12622974673286,222.889859634015 29.01740135392174,222.34393494862888 29.053677484742366,221.44105633687286 28.999263288336806,220.58016839888296 28.890434895525686,220.01324023380585 28.890434895525686,219.46730793552706 28.817882633651607,218.71139929117635 28.78160650259815,217.9344902979792 28.817882633651607,217.5565335135325 28.817882633651607,216.82161556126084 28.78160650259815,215.519754475652 29.01740135392174,213.79792558100598 29.08995361579582,213.58794546419813 29.325748467002995,213.20998071535723 29.48899105633609,213.06299423702876 29.63409558008425,213.0 29.797338169417344,213.04199616017286 30.323342068237253,213.27297488824115 30.92189822893124,213.2939729415666 31.012588556390256,213.33596904188744 30.99445049080532,213.3779651336663 30.90376016346272,213.41996121688862 30.504722722922452,213.39896317636885 30.033133020508103,213.3149709928257 29.742923973011784,213.20998071535723 29.652233645669185,213.27297488824115 29.61595751461573,213.3779651336663 29.59781944914721,213.50395335762005 29.652233645669185,213.60894348550937" stroke="#ff7f00" stroke-linecap="round" stroke-linejoin="round" stroke-width="0.5"><title>2025-10-14 6.9km</title><desc>17538333076</desc></polyline><polyline fill="none" points="157.7285859362455,215.958740350703 157.7285859362455,216.01851258968236 157.59804489801172,215.958740350703 157.75469414365944,216.10817092610523 157.91134338953998,216.13805703242542 158.12020905071404,216.07828481690376 158.22464188106824,215.98862647163332 157.91134338953998,215.958740350703 157.441395652364,216.07828481690376 157.31085461413022,216.01851258968236 157.23252999107353,215.958740350703 157.04977253777906,215.3012449563248 157.0236643301323,214.6437481554167 156.91923149954528,214.10579518138547 156.9714479148388,213.86670466841315 157.15420536824968,213.7471593421942 157.91134338953998,213.59772761908243 159.34729480929673,213.53795490946504 159.79113433894236,213.44829582321108 160.31329849152826,213.23909118704614 161.749249911285,213.02988640853437 162.24530585622415,213.0 162.95022746222094,213.0 163.159093123395,213.05977281424566 163.65514906821772,213.32875033433083 163.94233935221564,213.59772761908243 164.22952963621356,214.04602257048828 164.36007067433093,214.46443060203455 164.33396246668417,215.65987898223102 164.5428281277418,217.42315685655922 164.56893633538857,217.87144622887718 164.4906117124483,219.06688135876902 164.56893633538857,219.51516833383357 164.62115275056567,220.6209400772059 164.4383952972712,221.84625006577699 164.56893633538857,222.8623570833879 164.62115275056567,223.96811678618542 164.62115275056567,224.35662600782234 164.51671992009506,224.71524946892168 164.4906117124483,225.49226553260814 164.33396246668417,225.9106579842337 164.22952963621356,226.3290498663264 164.46450350480154,227.49456710676895 164.4906117124483,227.91295683319913 164.4383952972712,228.45088564470643 164.51671992009506,228.89915893532452 164.4383952972712,229.5566252457793 164.4383952972712,230.03478167930734 164.4906117124483,230.75201493513305 164.4383952972712,231.230169509392 164.4383952972712,232.00716910636402 164.4906117124483,233.38185589041677 164.38617888197768,234.72665223121294 163.94233935221564,235.56341142999008 163.57682444539387,235.8024850685324 162.63692897069268,236.6392413393187 161.9320073646959,237.38634322793223 160.88767905940767,238.940309341182 160.49605594493914,239.65752182138385 160.07832462282386,240.6138025256223 159.97389179235324,241.30112744463258 159.73891792376526,242.43670437924447 159.37340301682707,243.0642582543369 159.37340301682707,243.27344259468373 159.45172763976734,243.42285989352968 159.4778358474141,243.60216055632918 159.34729480929673,244.49866230168846 159.26897018635646,244.85726226802217 159.11232094059233,245.27562836671132 159.03399631765205,245.72387712649652 158.8251306565944,246.23189159765025 158.7729142414173,246.7697883580695 158.66848141083028,246.97897017744253 158.4857239574194,246.91920395783382 158.7206978261238,246.82955460669473 159.45172763976734,246.97897017744253 159.5822686778847,247.0686194850132 159.68670150835533,247.2180349396367 159.7128097161185,247.4570995158865 159.50394405506086,248.2041751188226 159.26897018635646,248.56277076352853 159.16453735600226,249.01101473119343 159.0601045252988,250.02703197218943 158.95567169471178,250.74421859162976 158.92956348718144,251.3119901456812 158.98177990247495,251.73034746205667 158.66848141083028,252.5072952537157 158.4857239574194,253.04518103646114 158.45961574988905,253.4336535166076 158.45961574988905,253.79224306269316 158.27685829636175,254.68871509845485 158.0679926353041,255.43577313178685 157.9635598048335,256.4816513294645 157.59804489801172,258.8423347568314 157.59804489801172,259.0813902959635 157.676369520952,259.4399732561724 157.62415310565848,260.0674924304767 157.36307102942374,260.6053649891692 157.18031357589643,261.6512256048736 156.50150017743,263.8923435183533 156.42317555460613,264.04175079861307 156.0315524401376,264.5198536074313 155.61382111802232,265.29676908662077 155.37884724943433,265.8943950427347 155.4049554570811,266.10356385301566 155.66603753343225,266.3127325209789 156.94533970730845,266.9402376714861 157.12809716060292,267.0 157.4936120675411,266.9402376714861 157.65026131330524,266.76095061629894 157.91134338953998,265.9242763100483 157.98966801236384,265.4760569953942 158.5379403727129,264.4003279749304 158.85123886435758,263.38435822274187 158.90345527953468,262.96601676093997 159.08621273294557,262.24885864538373 159.42561943212058,261.5316988573468 159.50394405506086,261.2926452230604 159.4778358474141,261.0237096622586 159.19064556341618,260.42607424076414 159.19064556341618,260.24678338787635 159.5300522627076,259.8284376579395 159.76502613141201,259.380209458468 159.9477835848229,258.5733970531728 160.4177313222317,257.67693634243915 160.5221641525859,257.1988228946866 160.7049216061132,255.6449490558589 160.57438056799583,254.3898913769226 160.80935443658382,253.22447608824586 160.83546264423057,252.95553347145324 160.83546264423057,252.20846941234777 160.73102981364354,251.8498780192749 160.73102981364354,251.3119901456812 160.86157085176092,250.80398406775203 160.9398954748176,250.08679758771905 161.09654472046532,249.57878948561847 161.09654472046532,249.25007791348617 161.2270857586991,248.68230255210074 161.20097755105235,247.93522811087314 161.43595141975675,247.0686194850132 161.5664924577577,245.30551163773634 161.82757453422528,244.34924552575103 161.9320073646959,243.66192742067506 162.03644019528292,243.27344259468373 162.08865661046002,242.85507377167232 162.37584689434152,241.7493819988158 162.79357821657322,240.67356997088064 163.4462834072765,239.74717326372047 163.60293265304063,239.2690319356625 163.7856901063351,238.16332726637484 163.7856901063351,237.7748354926007 163.62904086068738,237.38634322793223 163.36795878433622,237.08750269032316 163.34185057680588,237.02773454796989 164.12509680562653,236.7587777634326 164.17731322092004,236.66912544966908 164.17731322092004,236.31051593308803 164.3078542590374,235.83236926031532 164.2556378437439,235.8024850685324 164.28174605150707,235.7726008738391 164.2556378437439,235.86225344912964 164.3078542590374,235.86225344912964 164.2556378437439,235.74271667632274 164.3078542590374,235.74271667632274 164.22952963621356,235.83236926031532 163.9684475598624,235.35422184379422 164.0206639750395,235.11514785676263 164.22952963621356,234.51746207565884 164.33396246668417,232.78416673961328 164.17731322092004,231.3795926613093 164.2034214285668,230.2738596170966 164.3078542590374,229.5865100446099 164.22952963621356,228.80950432943064 164.33396246668417,228.06238159743953 164.2556378437439,227.49456710676895 164.22952963621356,226.62790086204768 163.7856901063351,226.7175561041513 163.05466029280797,227.01640672216308 162.63692897069268,227.07617681086413 162.2191976485774,227.07617681086413 161.48816783493385,227.22560198194697 160.80935443658382,227.2554870074091 160.5221641525859,227.22560198194697 160.4177313222317,227.10606185090728 160.2349738687044,226.2991647507297 160.26108207623474,225.79111734189792 160.15664924576413,225.0439872739953 160.15664924576413,224.2669700772385 160.0522164151771,223.4600655248214 160.10443283058703,222.50373146063066 160.0522164151771,222.05544884395204 159.84335075411946,221.6968222798023 159.8172425465891,221.51750884091598 159.60837688553147,221.30830969661474 159.39951122459024,221.03933915903326 158.66848141083028,220.38185463190894 158.12020905071404,219.99334038674715 157.9635598048335,219.81402595405234 157.91134338953998,219.63471141675836 157.83301876671612,219.5749398811313 157.98966801236384,218.31973494734848 158.0679926353041,218.05076179475873 158.09410084306728,217.66224460309604 158.59015678800642,217.6024726839678 158.66848141083028,217.51281478328747 158.64237320318352,217.42315685655922 158.45961574988905,216.94498080541962 158.40739933447912,216.61623433884233" stroke="#4dd2ff" stroke-linecap="round" stroke-linejoin="round" stroke-width="0.5"><title>2025-09-30 4.8km</title><desc>17538333066</desc></polyline></svg>