<?xml version="1.0" encoding="utf-8" ?>
<svg baseProfile="full" height="300mm" version="1.1" viewBox="0,0,200,300" width="200mm" xmlns="http://www.w3.org/2000/svg" xmlns:ev="http://www.w3.org/2001/xml-events" xmlns:xlink="http://www.w3.org/1999/xlink"><defs /><rect fill="#222222" height="300" width="200" x="0" y="0" /><text fill="#FFFFFF" style="font-size:12px; font-family:Arial; font-weight:bold;" x="10" y="20">Over 3km Runs</text><text fill="#FFFFFF" style="font-size:4px; font-family:Arial" x="10" y="280">Runner</text><text fill="#FFFFFF" style="font-size:9px; font-family:Arial" x="10" y="290">Zheng</text><text fill="#FFFFFF" style="font-size:4px; font-family:Arial" x="65" y="280">SPECIAL TRACKS</text><rect fill="yellow" height="2.6" width="2.6" x="65" y="283" /><text fill="#FFFFFF" style="font-size:3px; font-family:Arial" x="70" y="285.5">Over 5.0 km</text><rect fill="red" height="2.6" width="2.6" x="65" y="287" /><text fill="#FFFFFF" style="font-size:3px; font-family:Arial" x="70" y="289.5">Over 10.0 km</text><text fill="#FFFFFF" style="font-size:4px; font-family:Arial" x="120" y="280">STATISTICS</text><text fill="#FFFFFF" style="font-size:3px; font-family:Arial" x="120" y="285">Number: 11</text><text fill="#FFFFFF" style="font-size:3px; font-family:Arial" x="120" y="290">Weekly: 1.6</text><text fill="#FFFFFF" style="font-size:3px; font-family:Arial" x="141" y="285">Total: 58.7 km</text><text fill="#FFFFFF" style="font-size:3px; font-family:Arial" x="141" y="290">Avg: 5.3 km</text><text fill="#FFFFFF" style="font-size:3px; font-family:Arial" x="167" y="285">Min: 3.2 km</text><text fill="#FFFFFF" style="font-size:3px; font-family:Arial" x="167" y="290">Max: 10.6 km</text><polyline fill="none" points="28.497560975374654,42.44342842552578 28.23414634144865,42.72813706455054 28.453658536542207,43.250102585414425 28.804878048831597,44.294032393954694 29.068292682990432,45.717570392705966 28.717073170701042,48.801892236515414 28.717073170701042,49.608558659034315 28.848780487896875,50.60502759052906 28.804878048831597,51.41169181920122 28.673170731635764,51.88619973039022 28.453658536542207,52.17090431402903 28.146341463318095,52.313256560009904 27.0048780485522,52.455608775489964 26.082926829345524,52.64541168184951 24.59024390229024,53.11991871002829 23.71219512214884,53.54697474499699 23.448780487990007,53.59442539856536 21.165853658458218,53.73677733895602 19.40975609747693,53.6418760488159 17.34634146350436,53.40462276391918 15.853658536681905,53.35717209678842 14.843902439111844,53.6418760488159 14.712195121916011,53.73677733895602 14.580487804953009,53.97403050493449 14.448780487990007,54.92304231983144 14.492682926822454,55.49244875658769 15.151219512103125,58.244572973868344 15.721951219486073,59.95278225920629 15.853658536681905,61.18648622796172 15.809756097616628,62.04058763093781 16.600000000093132,63.369187626289204 16.863414634019136,64.0809365286841 16.81951219518669,65.07738370832521 16.556097561027855,65.88403032836504 16.029268292710185,67.02282388595631 15.985365853644907,67.30752196983667 16.073170731775463,67.82946813915623 16.29268292686902,68.30396430037217 16.863414634019136,68.7784601218882 16.99512195121497,69.96469819027698 16.731707317056134,70.39174337527948 16.11707317060791,70.72388944023987 13.52682926831767,71.29328230727697 13.131707316963002,71.67287728033261 13.0,72.05247203609906 13.087804878130555,72.28971864801133 13.570731707382947,72.90655944193713 14.05365853663534,73.33360273239668 14.536585365887731,73.85554415825754 14.975609756074846,74.09279012511251 15.634146341355518,74.23513766442193 16.29268292686902,74.56728180416394 16.731707317056134,75.08922225894639 17.52195121953264,75.37391687935451 18.399999999906868,76.37034708797 18.839024390326813,76.60759215505095 19.321951219579205,76.70249015814625 20.81463414640166,76.46524512505857 22.965853658504784,76.4177961081732 23.53658536588773,76.32289806444896 24.41463414626196,76.37034708797 26.082926829345524,76.03820385149447 27.399999999906868,75.70606044860324 29.156097560888156,75.56371322495397 29.81463414640166,75.23156958440086 29.99024390242994,75.23156958440086 30.429268292617053,75.37391687935451 30.956097560934722,75.37391687935451 31.263414633926004,75.4213659708621 32.66829268285073,76.46524512505857 33.72195121948607,77.08208203455433 33.98536585364491,77.12953100388404 34.68780487799086,77.12953100388404 40.17560975602828,75.84840764163528 40.92195121943951,75.56371322495397 41.843902439111844,74.56728180416394 42.59024390252307,73.42850120388903 43.907317073084414,72.05247203609906 44.565853658365086,71.19838353001978 45.35609756107442,69.20550607092446 45.443902438972145,68.73101055494044 45.35609756107442,67.6396695796866 45.443902438972145,66.8804747982067 45.88292682915926,65.78913077688776 46.23414634144865,65.31463281606557 51.45853658532724,61.044135887292214 53.65365853626281,58.671625707822386 55.4097560972441,56.9634131215862 57.64878048771061,55.20774559932761 59.18536585336551,53.83167861553375 60.01951219490729,53.26227075228235 61.24878048780374,52.02855203737272 62.52195121929981,51.07953607913805 63.92682926799171,49.75091145525221 64.62926829257049,49.2289510529954 65.33170731691644,48.849343229609076 66.07804878032766,47.90032272023382 66.95609756070189,47.42581195599632 67.0,47.330909762415104 66.82439024373889,47.1411053345073 66.69268292654306,47.09365421900293 66.20975609729066,47.378360861039255 65.99024390242994,47.71051845536567 65.59512195107527,48.99169618886663 65.11219512182288,49.6560095945606 64.76097560976632,49.94071513594827 63.04878048761748,50.93718356831232 61.42439024359919,52.218355066201184 59.799999999813735,53.6418760488159 58.70243902434595,54.7332400654559 57.42926829238422,55.63480028946651 55.804878048598766,57.295565913722385 54.092682926682755,58.71907599462429 53.214634146308526,59.62063079839572 51.76585365855135,60.90178551594727 51.06341463397257,61.66098714328837 49.92195121943951,62.60998795495834 47.858536585466936,65.0299338765908 46.36585365841165,69.34785465948517 45.75121951219626,70.53409170923987 40.70243902434595,76.51269413845148 40.21951219509356,76.9871840858832 39.78048780467361,77.08208203455433 37.62926829257049,77.2244289322407 36.22439024387859,77.41422474820865 33.72195121948607,77.55657157453243 33.23902439046651,77.41422474820865 31.921951219439507,76.32289806444896 31.35121951228939,75.8009585805703 31.0,74.75707838067319 30.82439024397172,74.47238349547843 30.64878048771061,74.33003600704251 29.726829268271104,73.90299335838063 29.4634146343451,73.57084888592362 29.41951219504699,73.33360273239668 29.41951219504699,72.19482001347933 29.726829268271104,70.91368711693212 30.078048780560493,70.10704661579803 30.29756097565405,69.15805653465213 30.912195121869445,68.68356098473305 30.868292682804167,68.73101055494044" stroke="#4dd2ff" stroke-linecap="round" stroke-linejoin="round" stroke-width="0.5"><title>2026-03-25 4.2km</title><desc>17847087081</desc></polyline><polyline fill="none" points="88.40975609747693,42.3010715112905 88.58536585350521,42.823037555092014 89.11219512182288,46.42933717445703 88.98048780485988,47.99522432155209 88.89268292672932,49.94071532145608 88.62926829257049,51.838749819260556 88.49756097560748,52.313257594709285 87.92682926845737,52.59796209685737 85.38048780476674,52.930117194890045 82.7902439024765,53.49952554720221 79.89268292672932,53.78422953985864 77.12682926817797,53.83168019348523 75.0634146342054,54.021482773765456 74.66829268285073,54.1163840435911 74.71219512191601,54.16383467341075 74.66829268285073,54.30618654243881 73.83414634130895,55.87205508432817 73.57073170738295,57.10576708818553 73.48292682925239,57.912423695554025 73.52682926831767,58.43437744805124 73.74634146341123,58.956330789544154 74.05365853663534,59.478283720090985 75.01951219514012,60.71198901341995 75.28292682929896,61.18649043800542 75.6780487804208,62.18294232431799 76.5999999998603,62.894692754838616 77.2585365853738,62.942142756364774 77.65365853672847,63.13194272853434 77.78536585369147,63.3691926173633 77.82926829252392,63.891142073844094 77.43414634140208,65.74168683611788 76.86341463401914,66.92793076194357 76.29268292686902,67.73457541933749 76.20487804873846,68.16162219346734 76.24878048780374,68.35142067162087 76.73170731705613,68.96826534991851 76.77560975612141,69.63255897728959 76.95121951191686,70.05960452900035 76.77560975612141,70.15450350317406 74.18536585359834,70.96114423515974 73.92195121967234,71.19839132251218 73.74634146341123,71.62543586583342 73.131707316963,72.19482816255186 73.0,72.38462548598181 73.0,72.5269734429894 73.17560975626111,72.90656784566818 73.7902439024765,73.85555290151387 74.44878048752435,74.4723924594 74.88780487794429,74.7096382904565 75.94146341457963,74.80453659914201 76.24878048780374,74.89943489414873 76.64390243915841,75.27902793855174 77.47804878046736,75.80096801993204 78.31219512200914,76.70249992003664 78.7951219510287,76.93974495312432 79.27804878051393,77.03464294265723 80.68292682943866,76.892295953352 81.73658536584117,76.65505090315128 84.98536585364491,76.60760188294807 85.68780487799086,76.46525480202399 87.35609756084159,75.89586617232999 89.33170731714927,75.61117167433258 90.16585365869105,75.32647705392446 90.60487804864533,75.51627348107286 91.08780487813056,75.51627348107286 91.35121951205656,75.61117167433258 92.4048780486919,76.37035673088394 93.41463414626196,77.22443888086127 93.72195121948607,77.41423476469936 94.29268292686902,77.46168372721877 95.12682926817797,77.3193368295324 95.78536585369147,77.082091932185 96.6634146340657,76.892295953352 98.11219512182288,76.32290769036626 99.69268292700872,76.03821337554837 100.43902439041995,75.753518938669 101.53658536588773,74.94688403652981 103.02926829271019,73.238712769642 103.68780487799086,72.28972683107713 104.56585365859792,70.67644761828706 105.35609756107442,69.63255897728959 105.6634146340657,68.96826534991851 105.92682926822454,68.11417256551795 105.88292682915926,67.07027989038033 105.97073170728981,66.02638557180762 106.1463414633181,65.64678723039106 106.62926829280332,64.9824896096834 109.70243902457878,62.32529247156344 112.2048780489713,60.3798378140782 113.69756097556092,58.8614302125643 115.58536585373804,57.24811832548585 117.12195121939294,55.777154065785 120.0634146342054,53.54697622108506 121.38048780476674,52.0760037493892 123.22439024387859,50.557577129337005 124.8048780488316,49.08659802447073 125.68292682920583,48.706989983737 126.47317073168233,48.13757751509547 127.0,48.23247962712776 126.73658536584117,48.09012645407347 126.47317073168233,48.185028572857846 125.5951219513081,49.32385293964762 125.06829268299043,49.893264389480464 122.7414634146262,51.41169253102271 120.6780487804208,53.21482143207686 120.01951219490729,53.68932822259376 118.48292682925239,55.25519822142087 114.70731707313098,58.57672840019222 112.11707317084074,60.949239768087864 110.36097560985945,62.704892714798916 108.69268292677589,64.84014003298944 108.07804878032766,65.45698797801742 107.11219512182288,67.44987741694786 106.36585365841165,69.77490752510494 105.79512195126154,70.81879594206112 100.7463414631784,76.84484695002902 100.35121951205656,77.17698990128702 100.04390243906528,77.3193368295324 99.64878048771061,77.3193368295324 97.1902439026162,77.36678579886211 96.88292682915926,77.46168372721877 94.3365853659343,77.55658164201304 93.63414634135552,77.6989284887677 92.2731707317289,76.74994893337134 91.70243902434595,76.18056054826593 91.26341463415883,75.08923144353321" stroke="#4dd2ff" stroke-linecap="round" stroke-linejoin="round" stroke-width="0.5"><title>2026-03-24 4.0km</title><desc>17833902173</desc></polyline><polyline fill="none" points="166.48341787821846,33.01835681835655 166.26306642091367,33.05507045115519 166.21221608459018,33.0 165.90711406682385,33.110140890363255 165.39861070382176,33.36713611474261 165.34776036749827,33.78934198805655 165.34776036749827,34.15647695725784 165.26300980703672,34.30333079575212 165.22910958289867,34.6337516206695 165.195209358586,34.798961871289066 165.17825924651697,35.73515125346603 165.16130913444795,35.790221109229606 165.05960846180096,35.84529095303151 164.99180801340844,35.99214381117781 164.9579077892122,36.10228339882451 164.97485790133942,36.267492690414656 164.92400756507413,36.340919007590855 164.07650196005125,36.542841269954806 163.8222502786084,36.83654609115911 163.3137469154899,36.81818954985647 163.05949523404706,36.50612814335909 162.50014153472148,36.377632158153574 161.92383772332687,36.4327018740878 161.3136336877942,36.542841269954806 160.31357707385905,36.1940663518908 159.90677438350394,36.1940663518908 159.41522113257088,36.35927558357071 159.44912135670893,37.02011143125128 159.4321712446399,37.36888521051151 159.34742068412015,37.7176585089328 159.21181978733512,38.12150067482435 159.17791956319707,38.727262715023244 159.11011911480455,38.96589584778121 158.88976765749976,39.4064487322903 158.75416676065652,39.82864452677313 158.65246608812595,40.32426477782428 158.60161575180246,40.819884058015305 158.5168651913409,41.040158982010325 158.567715527548,41.0768714506994 159.05926877842285,41.278789933247026 159.12706922687357,41.35221479606116 159.11011911480455,41.462352050308255 158.99146833008854,41.829475884878775 158.99146833008854,42.031393766839756 159.07621889055008,42.23331148768193 159.21181978733512,42.453585181137896 159.39827102050185,42.6187903254031 159.49997169303242,42.7839953618095 159.5508220293559,42.985912482006825 159.56777214148315,43.31632196753344 159.6016723656794,43.40810230359784 159.75422337459167,43.4815265484649 160.02542516810354,43.4815265484649 160.26272673759377,43.518238662945805 160.70342965214513,43.26125374989351 160.8051303247339,43.26125374989351 160.55087864329107,43.35303410592314 160.4491779706441,43.44481442870165 160.3983276343788,43.53659471817082 160.3983276343788,43.683443112066016 160.4661280827131,43.867003484556335 160.5678287553601,44.068919740544516 160.78818021266488,44.14234379370464 160.88988088525366,44.289191836011014 160.97463144583162,44.69302351305669 160.99158155790064,44.87658315313456 161.04243189410772,44.96836292327498 161.1441325667547,44.9867188733333 161.21193301520543,44.95000697192154 161.33058379980503,44.54617570506525 161.38143413612852,44.491107755107805 161.432284472452,44.4727517690917 161.8221370507381,44.52781972306548 162.21198962902417,44.52781972306548 162.3475905258092,44.45439578179503 162.43234108632896,44.45439578179503 162.60184220736846,44.50946373974148 162.9069442251348,44.50946373974148 162.99169478565454,44.54617570506525 163.05949523404706,44.637955595040694 163.09339545830153,44.7480914190819 163.09339545830153,44.8398712357739 162.7374431041535,45.537396755069494 162.51709164690692,45.84944702274515 162.38149075006368,46.25327620966709 162.21198962902417,46.51025808398845 162.12723906856263,46.859018781688064 162.09333884436637,47.262846357465605 162.02553839597385,47.28120214107912 161.7712867144146,47.15271162799036 161.432284472452,46.93244202522328 161.05938200629316,46.80395133505226 160.48307819489855,46.47354640364938 159.6525227019447,45.75766757217934 159.56777214148315,45.720955782657256 159.1440193389426,45.77602346499043 158.94061799382325,45.75766757217934 158.6355159759405,45.55575266380038 158.36431418242864,45.26205796399154 158.2287132856436,45.17027830040024 157.8897110435646,45.09685454555438 157.80496048304485,45.11521048625582 157.73716003465233,45.17027830040024 157.6524094741908,45.33548167088884 157.4829083532095,46.17985276906984 157.24560678377748,46.96915363901644 157.05915555072716,48.143922467701486 156.77100364502985,49.61237583433103 156.72015330870636,50.10797692232882 156.65235286025563,50.438377108439454 156.5676022997941,50.71371026734414 156.5676022997941,50.732065800606506 156.6354027481866,50.64028812092147 156.66930297238287,50.69535473275755 156.65235286025563,50.82384344705497 156.58455241186311,51.02575415199681 156.41505129088182,51.33779765186773 156.33030073042028,51.57641889217484 156.177749721508,52.47583539097104 156.0082486004685,52.97143087135919 155.940448152076,53.577157362757134 155.78789714316372,53.99932951461233 155.6522962464369,54.58669829349674 155.66924635850592,54.78860599643667 155.4997452374664,55.35761774709681 155.44889490120113,55.83485242257302 155.4319447890739,56.587412967084674 155.48279512533918,57.00958009772876 155.41499467700487,57.6520069889375 155.34719422855414,58.037462340973434 155.22854344395455,58.367852175506414 155.2115933317691,58.62482174865727 155.10989265918033,59.06534040997212 155.0929425470531,59.671052317440626 154.9742917623953,60.129924009685055 154.8556409777375,60.80905258753046 154.83869086561026,60.93753616754839 154.90649131394457,61.26792221667711 154.77089041715953,61.39640556379163 154.70308996876702,61.763500481902156 154.686139856698,62.03882132116996 154.72004008089425,62.40591530763777 154.78784052934498,62.69959011353785 154.90649131394457,62.864782042088336 155.16074299550382,63.066683141791145 155.39804456487764,63.342002563600545 155.68619647057494,63.56225788548181 155.82179736741818,63.764158428879455 156.12689938518452,64.0761862245854 156.55065218766686,64.36985909272335 156.83880409336416,64.51669539909926 156.88965442974586,64.59011352030211 156.8557542054914,64.60846804729954 156.6862530845101,64.64517709724896 156.36420095455833,64.68188614190149 155.75399691902567,64.62682257295819 155.2624436680926,64.86543128525955 155.27939378027804,64.90214029797062 155.39804456487764,64.86543128525955 155.22854344395455,64.93884930538479 155.24549355596537,65.74644612103293 155.33024411648512,66.33378764148802 155.2624436680926,66.57239474494418 155.22854344395455,66.95783651391685 155.2624436680926,67.06796262583521 155.48279512533918,67.34327769603988 155.48279512533918,67.39834067417542 155.19464321964188,67.6736553850933 154.686139856698,68.07744975287642 154.26238705427386,68.24263817223255 154.14373626949964,68.31605521292659 153.9572850363911,68.53630620724289 153.80473402747884,68.79326545840013 153.63523290655576,68.92174498618988 153.550482346036,69.417308268341 153.550482346036,69.67426662532671 153.51658212178154,69.91287058046146 153.87253447587136,69.96793299970159 154.10983604530338,70.09641193140124 154.3979879510007,70.16982843450387 154.82174075348303,70.46349423409265 154.99124187458074,70.66538927369402 155.7200966947712,71.0875329272094 156.2286000577733,71.67486205682508 156.3981011788128,71.80334012235107 156.72015330870636,71.93181812264083 157.31340723217,72.0419420710241 157.58460902579827,72.18877392770082 157.7202099225833,72.31725173241284 157.7710602589068,72.48243738552264 157.75411014672136,73.01470153476112 157.7710602589068,73.17988673289074 157.78801037103403,73.2533023418946 157.9405613798881,73.38177960641042 158.2795636219089,73.43684127127926 158.7372166485875,73.43684127127926 159.16096945106983,73.54696456507372 159.6525227019447,73.62038006763032 159.940674607642,73.74885714593984 159.9915249439655,73.82227258996863 160.02542516810354,73.96910341420153 159.9915249439655,74.13428798969835 159.85592404718045,74.40959537602612 159.46607146889437,74.90514791703026 159.1948696752661,75.08868564908335 159.09316900273552,75.19880822444975 158.9067177695688,75.54752939713944 158.70331642439123,75.78612781754055 158.55076541547896,76.09814079728676 158.38126429443946,76.35509237431688 158.21176317351637,76.9424092854606 158.07616227673134,77.18100639151817 157.95751149195712,77.30948166320741 157.8897110435646,77.78667495878472 157.6015591378673,78.44740265261498 157.27950700797373,79.89732682722388 157.00830521440366,80.13592114910716 156.95745487808017,80.22768813614675 156.60150252393214,80.13592114910716 156.65235286025563,80.13592114910716 156.70320319657912,80.20933474137564 156.6354027481866,80.28274831236922 156.73710342077538,80.1726279479335 156.8049038691679,80.22768813614675 156.78795375704067,80.11756774771493 156.6862530845101,80.11756774771493 156.73710342077538,80.15427454916062 156.53370207559783,80.13592114910716 156.5676022997941,80.08086094094324 156.73710342077538,80.08086094094324 157.00830521440366,80.15427454916062 157.11000588705065,80.20933474137564 157.17780633532675,80.26439492164354 157.17780633532675,80.33780847664457 156.9066045418149,81.2187694770837 156.94050476595294,81.56748235978012 156.82185398135334,81.75101526305662 156.33030073042028,82.26490668469341 156.19469983363524,82.44843908253824 156.1099492731155,82.74209064245224 155.77094703103648,83.58633698061749 155.66924635850592,83.75151528282731 155.53364546172088,83.82492782700865 155.4319447890739,83.95339972809597 155.2115933317691,84.32046194355644 155.0929425470531,84.59575825602224 155.17769310757285,84.65081748258672 155.87264770374168,84.43058050447144 156.02519871259574,84.44893359328853 156.07604904886102,84.52234593528556 156.09299916104646,85.10964390535082 156.02519871259574,85.45835143068689 155.97434837627225,85.5501164891175 155.82179736741818,85.7336465062981 155.78789714316372,85.84376445275848 155.78789714316372,86.08235317250364 155.8387474794872,86.48611818619247 155.73704680689843,86.70635337695421 155.80484725534916,87.0 155.48279512533918,86.76141214468225 155.46584501327015,86.77976506460982 155.4997452374664,86.85317673100508 155.4997452374664,86.92658837613999 155.66924635850592,86.92658837613999 155.66924635850592,86.87152964431152 155.77094703103648,86.87152964431152" stroke="#ffa000" stroke-linecap="round" stroke-linejoin="round" stroke-width="0.5"><title>2026-03-21 5.9km</title><desc>17833902373</desc></polyline><polyline fill="none" points="28.40975609747693,102.44342716888059 28.497560975607485,103.15519858838525 28.541463414672762,104.6261904334533 28.9365853657946,106.47678844095208 29.024390243925154,107.28345775051275 28.804878048831597,111.1269862743211 28.717073170701042,111.50659282074776 28.497560975607485,111.7438468018081 26.478048780700192,112.69286187703256 25.512195121962577,113.02501683239825 20.551219512242824,113.59442494018003 17.082926829345524,113.8791288107168 16.029268292710185,114.1163819427602 15.897560975514352,114.16383255895926 15.809756097616628,114.30618438724196 15.59024390252307,115.82460198691115 15.853658536681905,118.48182441812241 15.809756097616628,119.33592936652713 15.985365853644907,120.66453487670515 15.853658536681905,121.37628673348809 15.546341463457793,122.13548787188483 15.41463414626196,122.6574381501996 16.248780487803742,122.70488815516 16.29268292686902,123.51153771934332 16.160975609673187,124.88758471084293 16.160975609673187,126.35852833685931 16.81951219518669,128.54121286491863 17.17073170724325,129.1580571901868 17.30243902443908,129.63255243457388 17.609756097663194,130.01214838551823 16.863414634251967,130.24939574452583 15.019512195140123,130.48664301860845 14.185365853598341,130.67644077673322 13.131707317195833,131.7677768319263 13.0,132.00502356287325 13.0,132.1948208863032 13.131707317195833,132.52696607180405 14.536585365887731,133.8080959430663 14.843902439111844,133.99789275048533 15.546341463457793,134.04534194385633 16.248780487803742,134.2825878597214 17.082926829345524,135.18412156612612 18.839024390326813,136.56014433369273 19.23414634144865,136.7499403534457 19.58536585373804,136.7499403534457 20.682926829205826,136.41779728326946 22.439024390187114,136.27545020234538 23.931707317009568,136.32289923267672 24.59024390252307,136.46524630347267 24.897560975747183,136.46524630347267 26.30243902443908,136.18055213120533 28.58536585373804,135.42136707465397 29.551219512242824,135.37391797965392 30.165853658458218,135.18412156612612 30.780487804906443,135.23157067451393 31.17560975602828,135.08922333887313 31.52682926831767,135.18412156612612 32.09756097570062,135.5637143389904 33.502439024392515,136.93973631883273 34.029268292710185,137.1769811991835 35.258536585373804,137.08208325720625 36.18048780481331,136.79738934984198 37.71707317070104,136.51269532035803 38.77073170733638,136.2280011685216 40.087804878130555,136.2280011685216 40.57073170738295,136.08565404679393 41.317073170794174,135.5162652541767 42.54634146322496,134.2825878597214 42.853658536681905,133.85554514994146 43.95121951214969,132.8591110909474 44.65365853649564,132.38461815560004 45.39999999990687,131.24583372531924 45.57560975616798,130.8187890597619 45.795121951028705,129.82235043717083 46.23414634144865,128.4937632777146 46.321951219579205,127.68711977492785 46.19024390238337,126.92792499350617 46.23414634144865,126.16872934269486 46.36585365864448,125.55188223643927 46.62926829280332,125.07738407183206 47.06829268299043,124.69778529560426 47.94634146336466,124.12838672392536 51.54634146345779,121.13903619948542 56.199999999953434,116.72616079123691 59.88780487817712,113.64187559380662 61.029268292943016,112.55050970241427 61.86341463425197,111.60149442328839 63.31219512200914,110.2728707503993 65.33170731691644,108.70698943169555 66.3853658537846,107.66306649771286 67.0,107.14110441424418 66.82439024373889,106.9987510474748 66.64878048794344,106.9987510474748 66.47317073168233,107.94777291541686 66.2097560975235,108.56463640113361 65.33170731691644,109.60855791537324 63.136585365980864,111.17443710460793 60.89756097551435,113.02501683239825 59.448780487757176,114.40108558908105 55.40975609747693,117.81751980882837 54.443902438972145,118.8139764732332 53.30243902420625,119.71553121251054 52.51219512219541,120.56963457143866 51.019512195372954,121.80333748087287 50.141463414533064,122.60998814186314 48.736585365841165,124.27073641272727 47.858536585466936,125.55188223643927 47.28780487808399,127.1651734560146 46.62926829280332,129.5376534127863 46.23414634144865,130.29684520605952 44.65365853649564,132.3371688433108 41.05365853640251,136.56014433369273 40.614634146448225,136.93973631883273 40.087804878130555,137.08208325720625 37.62926829257049,137.22443016502075 34.204878048738465,137.55657283117762 33.59024390252307,137.5091238890891 33.23902439046651,137.31932808662532 31.746341463644058,135.89585783693474 31.395121951354668,135.27901977970032 31.043902439065278,134.8994268438546 31.087804878130555,134.5198336907779 30.429268292617053,134.23513868334703 30.078048780560493,133.8080959430663 29.77073170733638,133.0489081699634 29.77073170733638,132.71676324598957 30.12195121939294,130.8187890597619 30.34146341471933,130.53409246332012" stroke="#4dd2ff" stroke-linecap="round" stroke-linejoin="round" stroke-width="0.5"><title>2026-03-12 4.1km</title><desc>17691059793</desc></polyline><polyline fill="none" points="73.37543453043327,94.94348925276427 73.62572421738878,96.36373293364886 73.68829663936049,98.18975738622248 73.62572421738878,100.48919056565501 73.25028968695551,102.38283721753396 73.62572421738878,107.1845670711482 73.75086906109937,113.67700807086658 73.31286210869439,122.94218515936518 73.37543453043327,126.3236140240333 73.12514484324493,127.40566870529437 73.0,128.21720890305005 73.12514484324493,128.8934918687446 73.56315179611556,130.04317179997452 74.1263035919983,130.92233786225552 75.00231749704108,131.66624696855433 76.44148319796659,132.34252746606944 76.37891077622771,132.88355151575524 75.9409038235899,133.01880747964606 75.62804171466269,133.69508700922597 75.44032444944605,134.57424967421684 75.37775202770717,135.65629490837455 75.56546929269098,136.7383389035822 76.75434530689381,140.11971840343904 77.00463499384932,141.81040361634223 77.19235225929879,142.21616761747282 77.94322132063098,142.9600678337738 79.82039397442713,144.0421034664614 81.0092699881643,143.97447627579095 83.19930475065485,143.70396746433107 87.39165701018646,142.6219314444461 89.70683661615476,142.55430415202864 90.83314020838588,141.94565830286592 94.65005793701857,139.10530582384672 95.21320973313414,138.63191291398834 95.7763615292497,137.68512638297398 96.15179606014863,135.65629490837455 97.46581691759638,133.15406342432834 97.7161066045519,132.00438727793517 97.90382387000136,129.29926141595934 98.02896871371195,128.8934918687446 99.28041714942083,127.06752675032476 100.46929316339083,125.917843199044 102.28389339498244,123.55084324796917 103.15990730002522,122.87455645867158 105.9130938583985,121.25146618951112 106.85168018518016,120.57517775456654 107.8528389337007,119.69600206555333 109.79258400923572,117.39661562693072 115.98725376604125,112.18916094861925 121.49362688302062,106.9140477280016 122.61993047501892,106.17011913523311 123.68366164551117,105.0880401362665 125.49826187710278,103.73543964495184 126.74971031281166,102.38283721753396 126.87485515652224,102.38283721753396 127.0,102.85624828742584 126.87485515652224,103.19439890637295 126.37427578214556,104.00595989823341 125.31054461165331,105.15567011001986 124.18424101965502,106.10248923389008 121.80648899171501,107.59034594055265 120.17960602534004,108.87531121092616 117.86442641913891,111.17471838567872 115.73696407862008,112.86545538553037 114.04750869050622,114.69144794729073 111.10660486645065,116.99084096879233 104.03592120506801,123.34795726201264 102.90961761283688,124.90341537457425 101.34530706820078,126.52649937110255 100.78215527208522,127.40566870529437 99.53070683637634,130.51656901213573 98.59212050959468,133.28931934951106 97.90382387000136,134.70950539631303 92.39745075302199,141.40463944117073 89.76940903812647,144.31261218106374 86.95365005778149,144.5154936662293 86.45307068363763,144.65074796555564 82.8864426414948,144.7860022454406 81.07184240990318,145.05651074717753 80.32097334880382,144.9888836289174 78.56894553848542,143.83922187966527 77.44264194648713,142.8248132924782 77.19235225929879,142.41904955275822 77.19235225929879,141.94565830286592 76.75434530689381,140.99887509155087 75.50289687118493,140.05209093197482 75.12746234051883,139.64632600161713 74.87717265309766,138.7671680553467 75.06488991854712,135.99443378986325" stroke="#4dd2ff" stroke-linecap="round" stroke-linejoin="round" stroke-width="0.5"><title>2026-03-10 3.2km</title><desc>17665858677</desc></polyline><polyline fill="none" points="133.0,110.36226932879072 133.828644501511,109.79684524936602 134.2890025577508,109.59123635926517 135.20971867023036,109.53983412572416 135.48593350406736,109.59123635926517 135.62404092075303,109.69404081330867 135.99232736602426,110.41367149120197 136.2685421993956,111.39031172846444 137.2352941178251,112.36695035704179 137.78772378526628,113.34358737710863 138.34015345270745,114.73143721721135 139.07672634278424,115.60526693152497 139.62915601045825,116.68470185942715 139.9974424552638,116.99311147799017 140.5959079284221,117.19871780119138 141.0562659848947,117.14731622702675 141.88491048617288,116.83890668867389 142.39130434812978,116.47909535799408 143.21994884917513,116.11928380886093 144.2327365730889,115.29685659118695 144.87723785173148,114.93704432476079 145.56777493632399,114.73143721721135 146.21227621496655,114.73143721721135 146.71867007692344,114.98844609037042 147.7774936063215,115.91367711155908 148.1918158568442,116.53049699007533 148.56010230188258,117.19871780119138 149.94117647060193,119.10057291091653 150.26342711015604,119.71738947427366 151.92071611247957,118.43235424306476 152.84143222519197,117.96974087820854 153.8081841431558,117.30152093607467 157.35294117662124,115.39966005581664 158.04347826121375,114.88564255461097 158.3657289003022,114.78283900086535 158.8721227622591,115.8108737358707 159.1943734018132,116.11928380886093 159.42455242970027,116.06788214133121 160.20716112526134,115.50246350257657 160.39130434789695,115.45106178132119 160.66751918173395,115.55386521940818 161.2199488489423,116.06788214133121 162.55498721217737,118.22674834774807 162.78516624076292,119.04917150159599 162.83120204601437,120.02579751540907 163.06138107413426,121.20802685362287 163.24552429676987,121.77344005170744 163.38363171368837,121.92764355771942 163.79795396421105,122.28745158220408 164.94884910504334,122.75006157858297 165.68542199512012,122.75006157858297 166.0997442456428,122.85286375094438 166.83631713571958,123.41827538079815 168.81585677759722,125.62851566937752 169.3682864450384,125.83411899831844 170.56521739135496,126.14252385811415 171.85421994887292,126.7593330963864 173.28132992330939,128.1471515368321 175.26086956518702,130.51157547323965 175.53708439902402,130.66577670676634 175.8132992326282,130.71717710915254 177.47058823541738,130.35737419960788 178.20716112526134,130.04897153179627 178.80562659865245,129.89477013784926 181.47570332488976,129.74056870368076 185.02046035812236,128.86675981985172 186.40153452684171,128.81535925721982 186.7698209718801,128.60975696175592 186.9539641942829,128.24995277350536 186.9539641942829,127.73594641155796 186.67774936067872,126.6565316010965 186.5856777492445,125.93692063592607 186.63171355519444,124.24069133412559 186.53964194352739,123.88088449486531 186.30946291564032,123.46967641124502 185.11253196932375,122.85286375094438 183.91560102277435,122.0818470234517 182.21227621473372,121.31082929339027 180.69309462909587,120.8482181741274 179.5421994884964,120.12860016018385 177.93094629165716,118.58655861800071 177.10230179014616,117.14731622702675 175.90537084406242,115.34825832565548 175.07672634278424,113.90900807449361 174.66240409202874,113.4463911804487 174.24808184150606,113.24078355601523 173.78772378526628,113.18938163883286 172.86700767255388,113.60059685184387 171.90025575459003,114.83424077986274 171.53196930955164,115.09124960849294 170.79539641947486,114.88564255461097 169.32225063932128,113.85760621528607 168.723785166163,113.24078355601523 168.03324808203615,112.21274436480599 167.80306905368343,112.0585383324069 167.57289002556354,112.1099403477856 166.97442455240525,112.52115630934713 165.77749360608868,113.08657779102214 165.13299232744612,113.5491949658026 164.99488491052762,113.70340061053867 164.99488491052762,113.90900807449361 165.13299232744612,114.32022278837394 165.5473145779688,114.88564255461097 165.639386189403,116.63330024085008 165.5012787724845,117.60993023373885 164.94884910504334,119.25477711186977 164.39641943736933,120.23140278708888 164.12020460353233,120.59121184085961 163.47570332488976,120.7968169162632 163.29156010225415,121.00242192065343 163.29156010225415,121.31082929339027 163.47570332488976,121.82484122476308 164.02813299233094,122.28745158220408 164.67263427120633,122.5444571802509 166.23785166232847,122.80146266700467 166.65217391308397,123.00706697622081 167.34271099744365,123.67528048873646 168.81585677759722,125.52571397810243 169.32225063932128,125.83411899831844 170.28900255751796,126.24532544228714 171.30179028143175,126.6051308469032 171.71611253195442,126.81073383725015 172.9590792839881,127.73594641155796 174.80051150894724,129.94617060694145 175.3529411763884,130.4601750531583 175.62915601045825,130.61437630007276 176.5959079284221,130.71717710915254 177.24040920706466,130.61437630007276 178.43734015338123,130.25457332812948 179.6803069054149,130.04897153179627 181.24552429676987,130.04897153179627 182.35038363165222,129.6377677253331 183.363171355566,129.12376256642165 184.42199488496408,129.02096148114651 185.29667519195937,128.81535925721982 186.53964194352739,128.76395868998952 186.8618925830815,128.50695578748127 186.9539641942829,128.1471515368321 187.0,127.73594641155796 186.63171355519444,126.5023293250706 186.5856777492445,124.18929037050111 186.447570332326,123.77808250073576 185.80306905368343,123.16127016127575 183.1790281329304,121.77344005170744 180.55498721217737,120.7968169162632 179.5882352939807,120.23140278708888 178.85166240413673,119.35757989040576 177.60869565210305,118.17534686269937 177.14833759586327,117.45572560484288 176.5959079284221,116.37629208056023 175.53708439902402,114.83424077986274 174.20204603578895,112.67536222137278 173.46547314571217,111.6987241008319 172.4987212275155,110.05385626142379 172.22250639391132,109.43702964525437 172.08439897699282,109.28282289078925 171.80818414338864,109.38562739820918 170.38107416871935,110.36226932879072 168.8618925830815,111.13330129568931 168.53964194376022,111.13330129568931 168.26342711015604,111.03049709129846 167.98721227631904,110.51647580234567 167.52685422007926,110.15666063508252 166.65217391308397,110.41367149120197 164.94884910504334,111.2361054822104 162.96930946293287,112.46975432982435 162.5089514066931,113.08657779102214 160.66751918173395,114.01181177975377 159.37851662398316,114.88564255461097 157.39897698210552,115.91367711155908 156.70843989797868,116.37629208056023 154.6828644501511,117.35292249673512 151.552429667674,119.30617850337876 150.03324808203615,120.12860016018385 149.48081841436215,120.5398105608765 148.65217391308397,120.8482181741274 147.8235294118058,120.95102067629341 146.90281329955906,121.3622305066092 146.25831202045083,121.82484122476308 145.24552429676987,122.85286375094438 143.9565217392519,123.5210774372099 143.4961636827793,123.46967641124502 143.12787723797373,123.05846804234898 142.98976982105523,122.33885271067265 142.85166240413673,121.82484122476308 142.34526854241267,121.05382316053146 141.70076726353727,120.43700798728969 141.1943734018132,119.20337571605342 140.5959079284221,118.22674834774807 139.49104859353974,118.02114238101058 139.03069053706713,117.8155363429687 138.70843989797868,117.8155363429687 137.0051150897052,118.63796006742632 136.22250639414415,119.20337571605342 135.20971867023036,119.6659881186788" stroke="#4dd2ff" stroke-linecap="round" stroke-linejoin="round" stroke-width="0.5"><title>2026-02-24 4.7km</title><desc>17506081930</desc></polyline><polyline fill="none" points="13.0,176.6421270580613 13.316582914441824,176.23814935149858 15.21608040179126,174.62223572307266 16.301507537718862,174.21825661550974 17.341708542779088,173.713282337063 18.06532663293183,173.51129250309896 19.06030150759034,173.4102975599235 19.467336683301255,172.95582009886857 19.693467336706817,172.90532258123858 19.964824120514095,172.90532258123858 20.597989949630573,173.15781012526713 21.27638190961443,173.25880511238938 21.954773869365454,172.75383000227157 23.22110552759841,172.24885445443215 23.98994974861853,171.79437608696753 24.93969849240966,171.49139031174127 25.84422110556625,170.98641366953962 26.29648241191171,170.83492059161654 26.70351758785546,170.83492059161654 27.110552763799205,170.93591598130297 27.42713567824103,171.1884043790633 28.060301507124677,171.9458689155872 28.693467336706817,172.3498495988897 29.236180904321373,173.10731262521585 29.597989949863404,174.1172617948032 30.185929648112506,174.31925141863758 30.592964824056253,174.925219869765 30.773869346594438,175.02621455019107 31.99497487419285,174.4202462041867 33.57788944710046,173.30930259928573 35.70351758785546,172.29935202893103 36.51758793951012,171.99636651633773 38.41708542709239,170.88541828870075 38.688442210899666,170.83492059161654 39.050251255976036,170.93591598130297 39.321608040248975,171.44089266727678 39.77386934659444,171.8448737009894 40.542713567847386,171.3903950183303 40.94974874379113,171.33989736513468 41.402010050136596,171.6428832191741 41.80904522608034,172.04686411260627 42.758793969871476,173.61228742892854 42.98492462281138,174.4202462041867 43.12060301494785,175.98566314240452 43.30150753748603,176.79361862590304 43.527638190891594,177.2480930929305 43.79899497446604,177.60157298884587 44.386934673180804,177.90455558593385 44.88442211039364,178.1065438965452 46.69346733647399,178.2075380256283 47.190954773686826,178.4095262310584 47.59798994963057,178.86399943754077 48.50251256255433,180.0759262542706 49.76884422078729,181.38884412741754 50.71859296481125,181.74232151074102 51.532663316465914,181.8938117523212 52.43718592938967,182.3482822404476 54.2010050250683,184.57013285631547 55.01507537672296,185.4790693022078 55.69346733647399,185.98403338168282 56.28140703518875,186.08502614498138 58.85929648228921,185.68105498654768 59.22110552759841,185.78204780246597 59.31155778863467,185.88304060086375 59.402010050136596,186.13552252016962 59.175879396963865,186.69098235754063 58.9497487435583,186.84247131214943 58.27135678357445,187.09495281567797 57.72864321595989,187.44842673675157 57.2763819093816,187.95338910922874 57.14070351747796,188.30686250969302 57.09547738684341,188.86232027667575 57.77386934659444,192.95249298133422 57.99999999976717,193.4574505830533 58.3618090453092,193.96240774722537 58.72361809038557,194.16439049021574 59.35678391950205,194.3158775016782 60.035175879485905,194.16439049021574 60.48743718583137,193.81092064385302 60.7135678390041,193.60893777827732 60.894472361775115,193.10398030775832 60.98492462281138,192.59902239969233 60.84924623090774,191.79108883620938 60.396984924562275,189.82174608157948 60.12562814052217,188.25636632269016 59.899497487349436,187.75140421278775 59.58291457267478,187.34743420989253 59.26633165800013,187.14544910332188 58.814070351654664,186.99396022746805 58.13567839167081,187.0444565237849 57.72864321595989,187.24644166533835 57.23115577851422,187.75140421278775 57.050251255976036,188.30686250969302 57.00502512534149,188.6098395391018 57.050251255976036,189.67025790177286 57.36683417065069,192.59902239969233 57.63819095445797,193.4069548426196 58.13567839167081,194.01290343963774 58.63316582888365,194.36637316341512 59.49246231117286,194.41686882072827 59.80904522584751,194.3158775016782 60.57788944686763,193.81092064385302 61.03015075344592,193.25546759489225 61.03015075344592,192.59902239969233 60.84924623090774,191.43761754990555 60.7135678390041,189.82174608157948 60.57788944686763,189.31678532861406 60.396984924562275,188.96331254113466 60.26130653265864,188.20587013132172 60.035175879485905,187.70090797776356 59.85427135671489,187.44842673675157 59.13065326609649,187.09495281567797 58.72361809038557,186.94346392672742 58.2261306529399,186.99396022746805 57.63819095445797,187.29693793988554 57.14070351747796,187.90289289160864 56.959798994706944,188.25636632269016 56.91457286430523,188.76132799475454 57.321608040248975,191.94257646478945 57.59296482405625,193.20497183687985 57.77386934659444,193.5079463191796 58.3618090453092,194.0633991275099 59.08542713546194,194.41686882072827 59.44723618077114,194.51786012225784 60.035175879485905,194.2653818356921 60.532663316465914,193.86141634942032 60.758793969638646,193.55844205105677 60.93969849217683,192.95249298133422 60.396984924562275,189.67025790177286 59.899497487349436,187.95338910922874 59.62814070354216,187.59991549456026 59.26633165800013,187.29693793988554 58.72361809038557,187.09495281567797 58.13567839167081,187.0444565237849 57.683417085325345,187.1959453864838 57.41206030128524,187.49892299377825 57.14070351747796,187.95338910922874 57.050251255976036,188.66033569542924 57.36683417065069,191.23563386156457 57.77386934659444,193.30596334853908 58.09045226126909,193.76042493403656 58.72361809038557,194.16439049021574 59.26633165800013,194.2653818356921 60.035175879485905,194.11389481107472 60.30653266306035,193.96240774722537 60.7135678390041,193.5079463191796 60.98492462281138,192.95249298133422 61.03015075344592,192.54852658486925 60.66834170836955,190.47819440613966 60.532663316465914,188.76132799475454 60.12562814052217,187.49892299377825 59.94472361775115,187.34743420989253 59.08542713546194,186.89296762167942 58.2261306529399,186.84247131214943 57.77386934659444,186.99396022746805 57.321608040248975,187.34743420989253 56.91457286430523,187.95338910922874 56.824120602803305,188.40785487025278 56.824120602803305,190.02373026037822 57.321608040248975,193.0029887612327 57.50251256255433,193.4069548426196 57.99999999976717,194.11389481107472 58.2261306529399,194.3158775016782 58.678391959518194,194.46736447361764 59.26633165800013,194.46736447361764 60.12562814052217,194.2653818356921 60.532663316465914,193.96240774722537 60.84924623090774,193.60893777827732 61.03015075344592,193.20497183687985 61.16582914558239,192.59902239969233 60.66834170836955,189.97323422215413 60.48743718583137,188.66033569542924 60.30653266306035,188.05438153125579 60.08040200988762,187.54941924626473 59.673366833943874,187.1959453864838 59.26633165800013,186.99396022746805 58.76884422102012,186.89296762167942 58.13567839167081,186.89296762167942 57.683417085325345,187.0444565237849 57.14070351747796,187.44842673675157 57.050251255976036,187.59991549456026 56.91457286430523,188.30686250969302 56.824120602803305,188.96331254113466 57.00502512534149,190.2257143688621 57.72864321595989,193.25546759489225 57.8643216076307,193.55844205105677 58.2261306529399,193.96240774722537 58.678391959518194,194.2148861651076 58.99497487419285,194.3158775016782 59.537688442040235,194.3158775016782 60.26130653265864,194.01290343963774 60.80402010027319,193.55844205105677 61.0753768843133,192.90199719712837 61.03015075344592,191.84158471680712 60.21608040179126,188.25636632269016 59.7638190954458,187.54941924626473 59.31155778863467,187.1959453864838 58.814070351654664,186.94346392672742 58.3618090453092,186.89296762167942 57.72864321595989,187.0444565237849 57.321608040248975,187.39793047553394 57.050251255976036,187.8523966697394 56.959798994706944,188.50884721340844 57.09547738684341,190.3267063969397 57.2763819093816,191.53860936802812 57.41206030128524,191.99307233223226 57.54773869342171,193.0029887612327 57.683417085325345,193.4574505830533 58.045226130401716,193.96240774722537 58.85929648228921,194.36637316341512 59.94472361775115,194.3158775016782 60.894472361775115,193.60893777827732 61.0753768843133,193.35645909776213 61.21105527598411,192.85150140844053 60.894472361775115,191.48811346123694 60.758793969638646,190.4276984074968 60.66834170836955,189.97323422215413 60.57788944686763,189.01380866678664 60.396984924562275,188.05438153125579 60.21608040179126,187.650411738432 59.62814070354216,187.0444565237849 59.31155778863467,186.53949336346705 59.26633165800013,186.18601889087586 59.31155778863467,185.83254420378944 59.673366833943874,185.68105498654768 60.98492462281138,185.4285728702671 61.84422110510059,185.12559418624733 62.8391959797591,184.87311182921985 63.65326633141376,184.62062936276197 66.23115577874705,184.2166571887792 66.59296482405625,183.96417443780228 67.0,183.30771877319785 66.95477386913262,182.75225570995826 66.59296482405625,181.28785054991022 66.59296482405625,179.92443554016063 66.50251256255433,179.52046010969207 66.32160804001614,179.21747835283168 65.59798994963057,178.7125084080617 64.6030150752049,178.258035083476 63.74371859268285,177.75306430703495 60.894472361775115,176.5916298601078 59.537688442040235,175.83417136454955 58.678391959518194,175.1272092133877 57.50251256255433,173.61228742892854 56.77889447216876,171.8448737009894 56.190954773686826,171.13790670817252 55.64824120607227,169.92596129595768 55.241206030128524,169.3704854727257 54.608040200779215,168.0070425697486 53.88442211039364,167.19907489902107 53.56783919595182,167.1485768823186 53.34170854254626,166.94658477196936 52.43718592938967,165.83562691346742 52.030150753678754,165.48213987774216 51.48743718583137,165.7851287785452 50.94472361798398,165.98712129163323 49.814070351654664,166.7950906433398 47.64321608026512,167.75455279287416 45.69849246204831,168.86550699191866 44.88442211039364,169.4209832966444 44.43216080404818,169.5724767424981 42.396984924562275,170.78442289010854 41.80904522608034,170.98641366953962 41.44723618077114,171.0369113534689 41.08542713546194,170.32994338020217 40.72361809038557,169.97645907185506 39.77386934659444,170.48143658967456 39.321608040248975,170.58243204065366 38.688442210899666,171.13790670817252 37.87437185901217,171.44089266727678 36.74371859268285,172.14785929227946 33.93969849240966,173.56178996822564 33.261306532425806,174.1172617948032 32.3115577888675,174.57173834985588 31.5879396982491,175.27870117523707 30.72864321595989,175.83417136454955 30.36683417088352,176.03616039291956 29.64321608026512,176.03616039291956 28.241206029895693,176.6421270580613 27.020100502297282,177.39958450308768 25.120603014947847,178.35902918630745 24.396984924562275,178.91449643846136 24.261306532658637,178.91449643846136 24.08040200988762,178.76300542225363 23.809045225847512,178.258035083476 23.58291457267478,178.00554974999977 23.58291457267478,177.65207009931328 23.266331658232957,177.09660164336674 23.13065326632932,176.69262425170746 22.0,175.22820385894738 21.457286432152614,174.01626695663435 21.27638190961443,173.915272100945 20.688442211132497,174.1172617948032 20.14572864305228,173.81427722773515 19.64824120607227,174.06676437787246" stroke="#ff9d00" stroke-linecap="round" stroke-linejoin="round" stroke-width="0.5"><title>2026-02-23 6.0km</title><desc>17493745395</desc></polyline><polyline fill="none" points="73.0,204.49912000191398 73.05875952122733,204.88016054863692 73.23503808490932,204.94366727457964 73.49945593031589,204.88016054863692 73.85201305756345,204.59438016923377 74.08705114235636,203.99106543062953 74.58650707278866,203.2607359653921 75.0565832426073,202.27637695797603 75.1447225244483,202.0223484725284 75.23286180628929,201.482537458156 75.40914036985487,201.00623307644855 76.08487486385275,199.92660791857634 77.26006528828293,198.62470349881914 78.52339499455411,197.67208808849682 79.49292709468864,196.84648641187232 80.55059847643133,195.70334309255122 82.93035908590537,193.73458936047973 84.01741022849455,192.68670074705733 84.92818280740175,191.95635267402395 85.48639825882856,191.35302075036452 86.48531011969317,190.46389852516586 87.13166485296097,190.05109117203392 88.07181719259825,188.97143935557688 88.27747551677749,188.62213967589196 88.36561479861848,188.1458214877348 88.45375408045948,187.95529406925198 88.65941240475513,187.73301197760156 88.80631120782346,187.6695027880487 88.89445048954803,187.6695027880487 89.27638737752568,187.44722055320744 89.33514689875301,187.28844746015966 89.18824809568468,186.71686385464272 89.18824809568468,185.60544917994412 89.42328618047759,184.49403172082384 89.45266594120767,183.92244451469742 89.30576713825576,183.79542503558332 89.51142546231858,183.66840551997302 90.21653971704654,183.6048957486346 91.18607181706466,183.35085657206946 92.86071817181073,183.192082012858 93.4776931446977,183.192082012858 93.8008705113316,183.47787617857102 94.3003264417639,183.66840551997302 94.41784548421856,183.6048957486346 94.32970620237757,183.38261147710728 94.3884657236049,183.31910166479065 95.24047878128476,183.28734675521264 95.534276387305,182.77926789296907 95.50489662680775,182.6204931292159 95.56365614791866,181.9536385006504 95.534276387305,181.50906819140073 95.622415669146,181.19151769770542 95.68117519037332,180.4293955853209 95.79869423282798,180.14359945559409 95.65179542975966,180.17535459029023 98.20783460279927,179.6037618193077 98.11969532095827,179.6037618193077 98.2665941240266,179.4132307319378 98.35473340586759,179.4132307319378 98.61915125127416,180.20710972254165 98.7660500544589,181.2867828696908 98.91294885741081,181.66784335300326 99.67682263324969,182.81102283889777 100.3231773666339,183.6366506354825 100.76387377583887,184.04946395743173 101.02829162136186,184.39876723760972 101.29270946676843,184.4622768953268 101.55712731229141,184.36701240530238 101.70402611524332,184.4622768953268 102.20348204567563,183.70016040233895 103.0554951033555,182.81102283889777 104.49510337307584,182.6204931292159 104.99455930350814,182.5887381696084 105.14145810657647,182.7157579943305 105.22959738841746,182.90628766309237 105.72905331873335,183.4461212803435 106.28726877039298,184.49403172082384 106.55168661591597,184.8750894490222 106.66920565837063,185.28790161863435 106.55168661591597,185.60544917994412 106.31664853100665,185.82773233760963 105.67029379750602,186.17703421751503 105.6115342763951,186.2405436207191 106.110990206711,186.65335451959982 106.3460282915039,186.71686385464272 107.28618063102476,186.30405301478459 108.37323177361395,185.66895866495906 109.5778019586578,185.19263730585226 111.54624591942411,184.2082382098597 112.39825897710398,183.6366506354825 113.2796517952811,182.87453272397397 114.57236126216594,181.9853935057472 115.10119695321191,181.76310842265957 116.2763873776421,181.69959837847273 116.77584330795798,181.5408232282498 117.45157780207228,181.25502781462274 118.36235038086306,180.55641602832475 118.77366702933796,180.30237510596635 118.94994559301995,179.7942928247503 119.03808487486094,179.69902733230265 119.47878128383309,179.6037618193077 120.15451577794738,179.95306860012352 120.41893362347037,180.0483340380888 120.68335146899335,180.01657889439957 120.94776931451634,179.85780314181466 121.3884657236049,179.44498591890442 121.53536452667322,179.03216831185273 121.65288356912788,178.90514743237873 121.77040261146612,178.90514743237873 122.09357997821644,179.00041309540393 122.85745375405531,178.39706355080125 123.32752992375754,177.8572237888875 123.59194776916411,177.44440470411791 123.85636561468709,177.25387268935447 124.32644178450573,176.74578691628994 124.44396082696039,176.45998841317487 124.44396082696039,175.79312452315935 124.09140369959641,174.45939373524743 124.09140369959641,174.17359375898377 124.82589771482162,171.02978186513064 125.11969532095827,169.34672189498087 125.58977149077691,167.1873148434097 125.88356909679715,166.13936351437587 126.05984766047914,165.85355817666277 126.17736670281738,165.40897172974655 126.0892274210928,164.26574739121133 126.14798694232013,163.56710884469794 125.94232861802448,162.2968541221344 126.0010881392518,161.66172539643594 125.79542981495615,161.24889123695903 126.03046789986547,160.16916931059677 126.03046789986547,159.85160353782703 125.97170837863814,159.53403753763996 125.85418933618348,159.31174120222568 125.41349292709492,158.83539153676247 125.11969532095827,158.6448515272641 123.62132752989419,158.00971757119987 122.85745375405531,157.5651232607197 122.38737758435309,157.18404206828563 122.1229597388301,156.92998775810702 121.7997823721962,156.48539236510987 121.18280739930924,155.342145021772 121.09466811746825,155.11984658497386 121.12404787819833,155.05633272542036 121.3884657236049,155.11984658497386 122.03482045698911,155.69147091158084 123.56256800866686,156.739446929947 125.58977149077691,158.2955279640446 126.55930359091144,159.18471467471682 126.91186071827542,159.66106396497344 127.0,159.88336012529908 127.0,160.2961955559731 126.79434167570435,161.69348185425042 126.70620239386335,162.83671282374416 126.0010881392518,165.37721553794108 125.88356909679715,165.94882664302713 125.70729053311516,167.1873148434097 124.94341675727628,170.3311539735878 124.5908596299123,172.10947735107038" stroke="#4dd2ff" stroke-linecap="round" stroke-linejoin="round" stroke-width="0.5"><title>2026-01-03 4.3km</title><desc>17507819708</desc></polyline><polyline fill="none" points="140.49088177544763,168.609629648985 140.54868657013867,168.59289986437943 140.63539376220433,168.64308921319025 140.77990574913565,168.62635943193163 140.9966737293871,168.59289986437943 141.28569770307513,168.47579132429382 141.73368486232357,168.4088721210428 142.64411037944956,168.2081143478281 143.69904788344866,167.94043693537242 143.84355987032177,167.94043693537242 144.04587665188592,168.00735632931173 144.6817293940112,168.4088721210428 144.88404617563356,168.57617007802764 144.9563021690119,168.67654877048335 145.01410696381936,168.91076548112324 145.11526535457233,169.94800690149714 145.12971655325964,170.53354352209135 145.17307014932157,170.68410974442668 145.2164237453835,170.78448714938713 145.30313093750738,170.85140538529959 145.56325251387898,170.98524177538638 146.19910525600426,171.1525371096941 147.0661771770101,171.20272567681968 148.43904105213005,171.20272567681968 148.68471142975613,171.21945519575092 149.0459913968807,171.3198322737444 149.21940578112844,171.33656178075762 150.27434328506934,171.1358075839089 150.80903763638344,170.9183235939854 151.66165835881839,170.8179462707485 152.22525510756532,170.65065059585322 152.58653507463168,170.4666251567396 152.71659586281748,170.34951795185043 155.60683559981408,167.52219010551926 155.83805477875285,167.27124149663723 156.09817635512445,166.90318284381647 156.7051266998751,166.38455334289756 156.9652482761885,166.13360299679334 157.6155522170011,165.23017857769446 157.84677139599808,164.84538518717454 158.19360016443534,164.46059089568735 158.36701454868307,164.17617714454536 159.11847688024864,163.20582064188784 159.43640325131128,162.72064024167776 160.33237756974995,161.48258721163438 160.5346943513723,161.16470722590748 160.8092671263148,160.77990431524813 161.08383990143193,160.37836988238269 161.9653630211833,159.24068366069696 162.32664298824966,158.8726070200646 162.47115497512277,158.63837600125407 163.1503613133682,157.76837215090927 163.33822689624503,157.46721589862136 163.54054367780918,157.28317569493083 163.75731165811885,157.03221144863346 163.8295676514972,156.88163271684607 164.29200600943295,156.2123922392202 164.42206679761875,156.14546804151905 164.68218837393215,156.0785438165476 165.21688272530446,155.86103989722324 166.9943801634945,155.0077525099914 167.84700088598765,154.75678478798363 168.1793784556794,154.60620397080493 168.8441335952375,154.37196686968673 169.33547435054788,154.17119194590487 169.55224233074114,154.05407312697207 169.98577829130227,153.90349166576925 171.24303257692372,153.60232832920155 171.358642166364,153.5186717488541 171.63321494142292,153.23423905709933 171.90778771636542,153.06692547895364 172.22571408748627,153.0 172.35577487561386,153.01673137227772 172.4135796703631,153.06692547895364 172.63034765061457,153.60232832920155 172.77485963748768,154.22138569984236 172.94827402173541,154.68985999737924 173.04943241243018,155.442762319959 173.16504200198688,156.0785438165476 173.2083955980488,156.71432285297487 173.28065159148537,157.09913528514153 173.30955398880178,157.60106319002807 173.28065159148537,157.66798679484054 173.25174919416895,157.70144858697313 173.00607881642645,157.76837215090927 172.96272522036452,157.81856480597344 172.97717641905183,157.86875744565623 173.12168840598315,158.03606613395095 173.5985779624898,158.42087547056144 173.7286387506756,158.63837600125407 174.01766272442183,158.7052991835517 174.2488819033024,158.88933779437502 174.61016187054338,159.34106805596093 174.95699063886423,159.8764504614519 175.4483313941746,160.52894540970738 176.05528173892526,161.59970073554723 176.19979372579837,161.9008494138252 176.54662249423563,162.40276265106513 176.748939275858,162.77083138404123 177.2836336272303,163.59061787161045 177.39924321667058,163.87503263626422 177.52930400485639,163.97541420033667 177.87613277323544,164.51078150652756 177.99174236273393,164.56097210208827 178.15070554829435,164.5777022971888 178.39637592592044,164.47732110098877 178.52643671410624,164.46059089568735 178.6131439061137,164.51078150652756 178.68539989960846,164.59443249055767 178.68539989960846,164.67808343206707 178.65649750217563,164.76173433091026 178.4686319192988,164.92903600088903 178.36747352854582,165.06287721425178 178.32411993242567,165.1799881865154 178.3385711311712,165.3305593139812 178.4975343166734,165.64843124101753 178.69985109823756,165.9328424439882 179.09003346273676,166.56858335316065 179.6825326088001,167.7229487166769 179.88484939048067,168.2415739936987 179.9282029864844,168.5259807088587 179.87039819179336,169.21190076148196 179.98600778123364,169.81416966670076 179.98600778123364,170.09857366033248 179.9426541851717,170.33278834434168 179.8125933969859,170.65065059585322 179.69698380754562,170.76775758621807 178.3385711311712,171.57077470044896 178.25186393904733,171.63769261620473 177.84723037586082,171.721339972617 177.71716958773322,171.82171674401616 177.5437552035437,172.0893878348288 177.0090608521714,173.1767971583322 176.85009766661096,173.61175887320132 176.72003687848337,173.82923929898243 176.6477808850468,174.56532475855784 176.60442728898488,175.3014069215278 176.6477808850468,176.12113090504135 176.85009766661096,176.6731876105914 176.9223536599893,177.1750557338819 176.9223536599893,177.49290475266753 176.90790246141842,177.79402430876507 176.83564646792365,178.19551619209233 176.66223208373412,178.6471933886205 176.28650091792224,179.36652858361776 176.14198893110733,179.71783067430079 175.92522095079767,180.0858606306283 175.79516016267007,180.40370402067492 175.49168499023654,181.13976003798598 175.33272180473432,181.6583429802413 175.27491700998507,181.992911752066 175.20266101654852,182.193652688351 174.9136370428023,182.86278737206885 174.798027453362,183.06352724602039 174.5379058769904,183.4148214355955 174.2633331020479,183.6824736475537 174.14772351254942,183.91666897552204 174.03211392310914,184.2512331510079 173.64193155855173,184.85344695099047 173.30955398880178,185.2716496807261 172.9338228229899,185.8236756549304 172.76040843874216,186.17496394610498 172.70260364399292,186.5262514865608 172.8182132335496,187.07827324784012 172.76040843874216,187.9313941419532 172.77485963748768,188.2492223627487 172.76040843874216,188.3495890416234 172.99162761779735,189.03542637424835 173.12168840598315,189.82162662591145 173.078334809863,190.13945119235723 173.09278600855032,190.32345460790384 173.13613960455405,190.5910955719737 173.2083955980488,190.95910118619213 173.2228467966779,191.3605609166989 173.17949320061598,191.57801786142227 173.23729799542343,191.87911161774537 173.2083955980488,192.0463856885035 173.2228467966779,192.28056910169835 173.17949320061598,192.61511625624553 173.13613960455405,192.74893492739648 172.73150604142575,193.51839017303428 172.61589645192726,193.95329806674272 172.50028686248697,194.20420594366442 172.24016528611537,194.50529489055043 171.96559251117287,194.72274767594354 171.2141301794909,195.49219368420017 171.01181339792674,195.75982623426535 170.88175260974094,195.96055036097823 170.76614302030066,196.21145517473633 170.52047264267458,196.88053280627355 170.4337654505507,197.34888552839402 170.4482166491798,197.64996871667972 170.4193142518052,197.85069053595362 170.1736438741791,198.5030347561842 170.0435830859933,198.7204822545027 169.92797349655302,198.85429595668393 169.2632183569949,199.43972962324915 169.19096236361656,199.6404492576985 169.06090157543076,199.84116864710813 168.80077999911737,200.89494142172043 168.80077999911737,201.0287533543451 168.8296823965502,201.6643585471611 168.91638958861586,202.0490657597984 168.8585847938666,202.23305584769696 169.03199917811435,202.70139332425606 169.14760876755463,203.83877878561907 169.16205996630015,204.08967157827283 169.14760876755463,204.24020707019372 169.06090157543076,204.39074242429342 168.88748719124123,204.52455151217873 168.46840242942562,204.69181271900015 168.36724403855624,204.7419910478784 168.33834164123982,204.79216936140438 168.23718325037044,204.79216936140438 168.00596407148987,204.85907375568058 167.919256879366,204.85907375568058 167.50017211749218,204.95943029603222 166.64755139511544,205.0597867750912 166.4741370108677,205.0597867750912 166.30072262661997,205.12669106048997 165.99724745430285,205.19359531864757 165.31804111605743,205.2939516548795 164.8989563541836,205.37758188825683 164.3353596054949,205.42776000783488 163.84401885024272,205.37758188825683 162.57231336599216,204.97615638011484 161.6040830540005,205.04306069952145 161.45957106724381,205.10996499168687 161.25725428562146,205.04306069952145 161.09829110006103,205.07651284903113 160.93932791455882,205.0597867750912 160.69365753687453,205.09323892119573 160.46243835793575,205.17686925668386 159.27744006575085,205.37758188825683 158.9306112973136,205.47793811217707 158.6560385223711,205.47793811217707 158.4103681446868,205.56156825192738 157.58664981968468,205.69537638720067 157.13866266043624,205.86263640315155 156.7051266998751,205.91281437475118 156.21378594456473,205.91281437475118 156.14152995118639,205.97971831307223 155.8958595735603,205.9964442933997 155.46232361299917,206.11352610806352 154.68195888400078,206.36441543026012 153.97385014849715,206.63203028538555 153.43915579706663,206.96654824177676 153.2801926115062,207.0 153.20793661812786,206.96654824177676 152.9911686378182,206.53167476570525 152.80330305494135,206.29751164841582 152.70214466413017,205.9964442933997 152.55763267731527,205.81245841625787 152.26860870362725,205.19359531864757 151.92177993513178,204.39074242429342 151.63275596144376,203.57115938482457 151.4304391798796,203.28681329423853 151.24257359700277,202.85193008703936 150.79458643781254,201.94870744331274 150.6067208548775,201.74799062647799 150.59226965613198,201.71453779988224 150.66452564962674,201.6978113840014 150.67897684825584,201.6643585471611 150.5055624640081,201.51382069721876 150.28879448375665,201.11238575690368 149.99977051006863,200.54368458053796 149.13269858900458,198.9546561618481 148.56910184031585,197.64996871667972 148.3812362573226,197.38233924316592 148.22227307182038,196.96416731881618 147.91879789938685,196.31181699303852 147.75983471388463,195.75982623426535 147.38410354807274,194.62238488763978 147.28294515731977,194.2209331218328 147.13843317044666,193.8863892348745 147.10953077307204,193.6856625759683 147.051725978381,193.5685719117755 146.87831159419147,192.94966272998136 146.83495799812954,192.68202560540522 146.6759948125109,192.19693220677436 146.3725196401938,190.9256461643672 146.21355645463336,190.1227235989354 146.15575165988412,189.93871995875088 146.09794686513487,189.60416735796025 146.09794686513487,189.48707378687686 145.89563008357072,188.9016046803299 145.78002049407223,188.41650012689934 145.6066061098827,187.8979385040002 145.51989891775884,187.37937524542212 145.25977734144544,186.47606759818154 145.1875213480089,186.02441191325488 145.01410696381936,185.50584274466382 145.0719117585686,185.35529009900347 144.86959497694625,184.73634999600472 144.62392459932016,183.8330278252688 144.49386381113436,183.4148214355955 144.33490062557394,182.62859054256114 144.1470350426971,182.0932822508621 144.0169742545113,181.40741595438158 143.7568526781979,180.55426120143966 143.68459668476135,180.13604646991007 143.5111823005136,179.5170867144043 143.0776463400107,178.11187213064113 142.90423195576295,177.7271088995476 142.75971996894805,177.25870027209749 142.26837921363767,175.56907234525715 142.22502561763395,175.21776138721907 142.13831842551008,174.98355366468604 142.10941602813546,174.81626222992782 142.02270883595338,174.5820539352717 141.97935523994965,174.34784530679462 141.99380643863697,174.2474700781895 141.79148965707282,173.77905153397296 141.69033126626164,173.4946539093944 141.6469776702579,173.1935264763597 141.53136808075942,172.95931586925872 141.44466088863555,172.72510492832225 141.41575849120272,172.49089365365217 141.31460010050796,172.1730349612917 141.28569770307513,171.88863455760293 141.06892972282367,171.18599615612766 141.02557612676173,170.98524177538638 140.9822225306998,170.43316596385557 140.63539376220433,169.6970619968779 140.56313776882598,169.412657308465 140.461979378073,169.29554935252236 140.38972338457825,169.07806292721943 140.28856499388348,169.0111439692264 140.21630900038872,168.86057621409418 140.14405300695216,168.84384645499813 140.01399221876636,168.84384645499813" stroke="red" stroke-linecap="round" stroke-linejoin="round" stroke-width="0.5"><title>2025-10-17 10.6km</title><desc>17538333095</desc></polyline><polyline fill="none" points="36.21821334818378,214.2388831304852 36.580974657670595,214.32287493775948 37.179530818481,214.28087903835694 37.2702211458236,214.32287493775948 37.57856825890485,214.93181451785495 37.796225044643506,215.49875664888532 38.249676681589335,217.43054776478675 38.703128318535164,218.96336914710992 38.811956711346284,219.48830535833258 39.21099415188655,220.6851549251296 39.42865093762521,221.21008675497433 39.80955031258054,222.84786547868862 40.40810647327453,225.07354392851994 40.7345916518243,226.01840016059577 40.95224843756296,226.50132500813925 41.13362909236457,227.04723869191366 41.460114270914346,228.34902703131957 41.7684613839956,229.25187541042396 41.931703973328695,230.23870516588795 42.49398400308564,232.04438143450534 42.60281239601318,232.71625694216345 42.7116407888243,233.15717405501346 42.94743564003147,233.8710378590913 43.00184983643703,234.35394432597968 43.165092425770126,234.92083308404835 43.273920818581246,235.52971186714421 43.691096324590035,236.99941187158402 43.727372455527075,237.2933506162226 43.981305372319184,238.11217776834383 44.090133765130304,238.6580607312062 44.27151441993192,239.16195141509525 44.47103314008564,240.52664917131187 44.77938025328331,241.38745388321695 44.87007058062591,241.91233304269554 44.99703703902196,242.29024521079555 45.14214156277012,242.9830823881348 45.57745513424743,244.6626780111983 45.74069772346411,245.1035695970204 45.776973854517564,245.48147592076566 46.04904483654536,246.3002705815161 46.32111581868958,247.24502961455437 46.52063453895971,247.62293201666034 46.66573906282429,248.10580630127515 46.91967197949998,248.79862395345117 47.04663843777962,249.30248987585946 47.354985550860874,250.01629782679083 47.75402299140114,250.64612632144417 47.93540364620276,251.06601091664925 48.29816495568957,251.69583620764024 48.67906433076132,252.57758838593145 49.005549509311095,253.20740906389256 49.15065403317567,253.45933679692098 49.25948242598679,253.66927633954037 49.477139211725444,253.96319134040095 50.07569537241943,255.24381610193814 50.42031861655414,255.76866002006864 50.583561205887236,256.1885341935558 51.43605028325692,257.8890158612194 51.56301674165297,258.2249118175241 51.83508772368077,258.72875472696614 52.451781949959695,260.1772962406394 52.97778584866319,261.2899371667154 53.12289037252776,261.7098001084087 53.26799489639234,262.04568984682555 53.26799489639234,262.12966219605005 53.2317187654553,262.2766137249273 53.032200045185164,262.5495234296104 52.70571486663539,262.82243277340604 52.21598709875252,263.1163347401889 49.76734825945459,264.4178955626994 49.22320629504975,264.77477370930137 48.62465013435576,265.0266873237124 47.8809894497972,265.4675354091305 47.572642336715944,265.5724991002062 46.95594811043702,265.86639715128695 46.28483968786895,266.3072434433707 46.04904483654536,266.4122067073913 45.396074479445815,266.60114044831425 44.88820864609443,266.9160296321352 44.67055186035577,267.0 44.4347570091486,266.9790074111952 44.23523828899488,266.89503703480295 43.92689117579721,266.6851109442505 43.781786651932634,266.5381625538721 43.50971566978842,266.0133460199577 42.92929757456295,265.1736367901176 42.56653626507614,264.35491700211423 42.203774955589324,263.8510878262168 42.07680849719327,263.5571869056439 41.55080459837336,262.99037680563924 40.86155811022036,261.7727794760285 40.535072931670584,261.2899371667154 40.33555421140045,260.80709372789715 40.027207098319195,260.4082222090801 39.8639645089861,260.0093499194627 39.33796061016619,259.23259640652395 39.21099415188655,258.91769550100435 38.86637090775184,258.4558399703383 38.739404449472204,258.203918336294 38.52174766373355,257.91000937442004 38.285952812526375,257.49013870306953 38.01388183038216,257.1962287248898 37.41532566968817,256.16754050519376 37.19766888394952,255.8946223618259 36.889321770868264,255.62170385754143 36.29076561005786,255.24381610193814 35.98241849697661,254.8239400064922 35.67407138389535,254.48803851517732 35.202481681481004,254.15213647705968 34.38626873504836,253.3333729688893 33.95095516345464,252.99746905149368 33.64260805037338,252.66156458739715 32.73570477659814,252.01074813237938 32.30039120523725,251.61185961322917 32.08273441938218,251.33893544538296 31.53859245509375,250.94004562770715 31.33907373494003,250.75109755038284 31.103278883732855,250.62513206929725 30.59541305026505,250.12126937610446 29.77920010383241,249.44945053820265 28.926711026462726,248.86160726101662 28.436983258579858,248.3577402621304 28.310016800300218,248.16878982030903 28.00166968710255,247.97983920550905 27.802150966832414,247.74889933028317 27.602632246678695,247.4759700535942 27.530079984804615,247.2870188045199 27.38497546094004,247.07707276922883 27.27614706812892,246.82513724494493 27.076628347858787,246.57320141306263 26.949661889579147,246.32126527365472 26.732005103724077,244.93561100872466 26.877109627588652,244.38974465269712 27.29428513359744,243.50795748895325 27.54821805015672,243.27701260904723 27.76587483601179,242.9830823881348 27.983531621750444,242.79412702503032 28.273740669246763,242.4792010353267 28.582087782328017,242.20626478882332 28.962987157399766,241.72337669908302 29.434576859814115,241.30347309377976 29.99685688968748,240.88356863407535 30.649827246787027,240.1067431307747 31.919491830165498,238.97299255279358 32.35480540152639,238.70005166853662 32.40921959804837,238.61606978533382 32.499909925390966,238.15416881676356 32.39108153257985,237.90222239811555 32.15528668137267,236.97841623095155 31.84693956829142,236.43252882435627 31.756249240832403,236.20157602528343 31.701835044426844,235.69767811181373 31.593006651615724,235.1727831432363 31.593006651615724,234.81585380189063 31.53859245509375,234.54290741842124 31.085140818264335,233.28315019991715 30.84934596705716,232.88422547724622 30.758655639598146,232.65326870627177 30.649827246787027,231.96039684217249 30.559136919444427,231.6664504999062 30.559136919444427,231.24652642734873 30.468446592101827,230.9105865538877 30.305204002768733,230.53265354239556 30.123823348083533,229.58781798482232 29.978718824102543,229.1678896814119 29.906166562228464,228.4960026180779 29.742923973011784,227.76112363715947 29.742923973011784,227.48816792036814 29.77920010383241,227.17321856760827 29.63409558008425,226.62730521724734 29.561543318093754,226.22836762457155 29.434576859814115,225.15753132432292 29.362024597940035,224.84257841354702 29.343886532471515,224.1706772633479 29.1625058776699,223.2468096086668 29.12622974673286,222.889859634015 29.01740135392174,222.34393494862888 29.053677484742366,221.44105633687286 28.999263288336806,220.58016839888296 28.890434895525686,220.01324023380585 28.890434895525686,219.46730793552706 28.817882633651607,218.71139929117635 28.78160650259815,217.9344902979792 28.817882633651607,217.5565335135325 28.817882633651607,216.82161556126084 28.78160650259815,215.519754475652 29.01740135392174,213.79792558100598 29.08995361579582,213.58794546419813 29.325748467002995,213.20998071535723 29.48899105633609,213.06299423702876 29.63409558008425,213.0 29.797338169417344,213.04199616017286 30.323342068237253,213.27297488824115 30.92189822893124,213.2939729415666 31.012588556390256,213.33596904188744 30.99445049080532,213.3779651336663 30.90376016346272,213.41996121688862 30.504722722922452,213.39896317636885 30.033133020508103,213.3149709928257 29.742923973011784,213.20998071535723 29.652233645669185,213.27297488824115 29.61595751461573,213.3779651336663 29.59781944914721,213.50395335762005 29.652233645669185,213.60894348550937" stroke="#ff7f00" stroke-linecap="round" stroke-linejoin="round" stroke-width="0.5"><title>2025-10-14 6.9km</title><desc>17538333076</desc></polyline><polyline fill="none" points="97.72858593624551,215.958740350703 97.72858593624551,216.01851258968236 97.59804489801172,215.958740350703 97.75469414365944,216.10817092610523 97.91134338953998,216.13805703242542 98.12020905071404,216.07828481690376 98.22464188106824,215.98862647163332 97.91134338953998,215.958740350703 97.44139565236401,216.07828481690376 97.31085461413022,216.01851258968236 97.23252999107353,215.958740350703 97.04977253777906,215.3012449563248 97.0236643301323,214.6437481554167 96.91923149954528,214.10579518138547 96.97144791483879,213.86670466841315 97.15420536824968,213.7471593421942 97.91134338953998,213.59772761908243 99.34729480929673,213.53795490946504 99.79113433894236,213.44829582321108 100.31329849152826,213.23909118704614 101.749249911285,213.02988640853437 102.24530585622415,213.0 102.95022746222094,213.0 103.159093123395,213.05977281424566 103.65514906821772,213.32875033433083 103.94233935221564,213.59772761908243 104.22952963621356,214.04602257048828 104.36007067433093,214.46443060203455 104.33396246668417,215.65987898223102 104.54282812774181,217.42315685655922 104.56893633538857,217.87144622887718 104.4906117124483,219.06688135876902 104.56893633538857,219.51516833383357 104.62115275056567,220.6209400772059 104.4383952972712,221.84625006577699 104.56893633538857,222.8623570833879 104.62115275056567,223.96811678618542 104.62115275056567,224.35662600782234 104.51671992009506,224.71524946892168 104.4906117124483,225.49226553260814 104.33396246668417,225.9106579842337 104.22952963621356,226.3290498663264 104.46450350480154,227.49456710676895 104.4906117124483,227.91295683319913 104.4383952972712,228.45088564470643 104.51671992009506,228.89915893532452 104.4383952972712,229.5566252457793 104.4383952972712,230.03478167930734 104.4906117124483,230.75201493513305 104.4383952972712,231.230169509392 104.4383952972712,232.00716910636402 104.4906117124483,233.38185589041677 104.38617888197768,234.72665223121294 103.94233935221564,235.56341142999008 103.57682444539387,235.8024850685324 102.63692897069268,236.6392413393187 101.93200736469589,237.38634322793223 100.88767905940767,238.940309341182 100.49605594493914,239.65752182138385 100.07832462282386,240.6138025256223 99.97389179235324,241.30112744463258 99.73891792376526,242.43670437924447 99.37340301682707,243.0642582543369 99.37340301682707,243.27344259468373 99.45172763976734,243.42285989352968 99.4778358474141,243.60216055632918 99.34729480929673,244.49866230168846 99.26897018635646,244.85726226802217 99.11232094059233,245.27562836671132 99.03399631765205,245.72387712649652 98.82513065659441,246.23189159765025 98.77291424141731,246.7697883580695 98.66848141083028,246.97897017744253 98.4857239574194,246.91920395783382 98.7206978261238,246.82955460669473 99.45172763976734,246.97897017744253 99.58226867788471,247.0686194850132 99.68670150835533,247.2180349396367 99.7128097161185,247.4570995158865 99.50394405506086,248.2041751188226 99.26897018635646,248.56277076352853 99.16453735600226,249.01101473119343 99.06010452529881,250.02703197218943 98.95567169471178,250.74421859162976 98.92956348718144,251.3119901456812 98.98177990247495,251.73034746205667 98.66848141083028,252.5072952537157 98.4857239574194,253.04518103646114 98.45961574988905,253.4336535166076 98.45961574988905,253.79224306269316 98.27685829636175,254.68871509845485 98.06799263530411,255.43577313178685 97.9635598048335,256.4816513294645 97.59804489801172,258.8423347568314 97.59804489801172,259.0813902959635 97.676369520952,259.4399732561724 97.62415310565848,260.0674924304767 97.36307102942374,260.6053649891692 97.18031357589643,261.6512256048736 96.50150017742999,263.8923435183533 96.42317555460613,264.04175079861307 96.0315524401376,264.5198536074313 95.61382111802232,265.29676908662077 95.37884724943433,265.8943950427347 95.40495545708109,266.10356385301566 95.66603753343225,266.3127325209789 96.94533970730845,266.9402376714861 97.12809716060292,267.0 97.49361206754111,266.9402376714861 97.65026131330524,266.76095061629894 97.91134338953998,265.9242763100483 97.98966801236384,265.4760569953942 98.53794037271291,264.4003279749304 98.85123886435758,263.38435822274187 98.90345527953468,262.96601676093997 99.08621273294557,262.24885864538373 99.42561943212058,261.5316988573468 99.50394405506086,261.2926452230604 99.4778358474141,261.0237096622586 99.19064556341618,260.42607424076414 99.19064556341618,260.24678338787635 99.53005226270761,259.8284376579395 99.76502613141201,259.380209458468 99.9477835848229,258.5733970531728 100.4177313222317,257.67693634243915 100.5221641525859,257.1988228946866 100.7049216061132,255.6449490558589 100.57438056799583,254.3898913769226 100.80935443658382,253.22447608824586 100.83546264423057,252.95553347145324 100.83546264423057,252.20846941234777 100.73102981364354,251.8498780192749 100.73102981364354,251.3119901456812 100.86157085176092,250.80398406775203 100.9398954748176,250.08679758771905 101.09654472046532,249.57878948561847 101.09654472046532,249.25007791348617 101.2270857586991,248.68230255210074 101.20097755105235,247.93522811087314 101.43595141975675,247.0686194850132 101.5664924577577,245.30551163773634 101.82757453422528,244.34924552575103 101.93200736469589,243.66192742067506 102.03644019528292,243.27344259468373 102.08865661046002,242.85507377167232 102.37584689434152,241.7493819988158 102.79357821657322,240.67356997088064 103.4462834072765,239.74717326372047 103.60293265304063,239.2690319356625 103.7856901063351,238.16332726637484 103.7856901063351,237.7748354926007 103.62904086068738,237.38634322793223 103.36795878433622,237.08750269032316 103.34185057680588,237.02773454796989 104.12509680562653,236.7587777634326 104.17731322092004,236.66912544966908 104.17731322092004,236.31051593308803 104.30785425903741,235.83236926031532 104.2556378437439,235.8024850685324 104.28174605150707,235.7726008738391 104.2556378437439,235.86225344912964 104.30785425903741,235.86225344912964 104.2556378437439,235.74271667632274 104.30785425903741,235.74271667632274 104.22952963621356,235.83236926031532 103.9684475598624,235.35422184379422 104.0206639750395,235.11514785676263 104.22952963621356,234.51746207565884 104.33396246668417,232.78416673961328 104.17731322092004,231.3795926613093 104.2034214285668,230.2738596170966 104.30785425903741,229.5865100446099 104.22952963621356,228.80950432943064 104.33396246668417,228.06238159743953 104.2556378437439,227.49456710676895 104.22952963621356,226.62790086204768 103.7856901063351,226.7175561041513 103.05466029280797,227.01640672216308 102.63692897069268,227.07617681086413 102.21919764857739,227.07617681086413 101.48816783493385,227.22560198194697 100.80935443658382,227.2554870074091 100.5221641525859,227.22560198194697 100.4177313222317,227.10606185090728 100.2349738687044,226.2991647507297 100.26108207623474,225.79111734189792 100.15664924576413,225.0439872739953 100.15664924576413,224.2669700772385 100.0522164151771,223.4600655248214 100.10443283058703,222.50373146063066 100.0522164151771,222.05544884395204 99.84335075411946,221.6968222798023 99.81724254658911,221.51750884091598 99.60837688553147,221.30830969661474 99.39951122459024,221.03933915903326 98.66848141083028,220.38185463190894 98.12020905071404,219.99334038674715 97.9635598048335,219.81402595405234 97.91134338953998,219.63471141675836 97.83301876671612,219.5749398811313 97.98966801236384,218.31973494734848 98.06799263530411,218.05076179475873 98.09410084306728,217.66224460309604 98.59015678800642,217.6024726839678 98.66848141083028,217.51281478328747 98.64237320318352,217.42315685655922 98.45961574988905,216.94498080541962 98.40739933447912,216.61623433884233" stroke="#4dd2ff" stroke-linecap="round" stroke-linejoin="round" stroke-width="0.5"><title>2025-09-30 4.8km</title><desc>17538333066</desc></polyline></svg>