<?xml version="1.0" encoding="utf-8" ?>
<svg baseProfile="full" height="300mm" version="1.1" viewBox="0,0,200,300" width="200mm" xmlns="http://www.w3.org/2000/svg" xmlns:ev="http://www.w3.org/2001/xml-events" xmlns:xlink="http://www.w3.org/1999/xlink"><defs /><rect fill="#222222" height="300" width="200" x="0" y="0" /><text fill="#FFFFFF" style="font-size:12px; font-family:Arial; font-weight:bold;" x="10" y="20">Over 3km Runs</text><text fill="#FFFFFF" style="font-size:4px; font-family:Arial" x="10" y="280">Runner</text><text fill="#FFFFFF" style="font-size:9px; font-family:Arial" x="10" y="290">Zheng</text><text fill="#FFFFFF" style="font-size:4px; font-family:Arial" x="65" y="280">SPECIAL TRACKS</text><rect fill="yellow" height="2.6" width="2.6" x="65" y="283" /><text fill="#FFFFFF" style="font-size:3px; font-family:Arial" x="70" y="285.5">Over 5.0 km</text><rect fill="red" height="2.6" width="2.6" x="65" y="287" /><text fill="#FFFFFF" style="font-size:3px; font-family:Arial" x="70" y="289.5">Over 10.0 km</text><text fill="#FFFFFF" style="font-size:4px; font-family:Arial" x="120" y="280">STATISTICS</text><text fill="#FFFFFF" style="font-size:3px; font-family:Arial" x="120" y="285">Number: 6</text><text fill="#FFFFFF" style="font-size:3px; font-family:Arial" x="120" y="290">Weekly: 1.5</text><text fill="#FFFFFF" style="font-size:3px; font-family:Arial" x="141" y="285">Total: 37.3 km</text><text fill="#FFFFFF" style="font-size:3px; font-family:Arial" x="141" y="290">Avg: 6.2 km</text><text fill="#FFFFFF" style="font-size:3px; font-family:Arial" x="167" y="285">Min: 4.3 km</text><text fill="#FFFFFF" style="font-size:3px; font-family:Arial" x="167" y="290">Max: 10.6 km</text><polyline fill="none" points="14.0,57.14969243842643 15.10485933534801,56.39579366578255 15.718670076923445,56.12164847902022 16.946291560307145,56.05311216763221 17.31457800534554,56.12164847902022 17.49872122774832,56.258721084392164 17.989769821520895,57.218228654935956 18.358056266093627,58.52041563793318 19.647058823611587,59.82260047609452 20.383631713921204,61.12478316947818 21.12020460376516,62.97524962294847 22.102301790378988,64.14035590871936 22.838874680688605,65.5796024792362 23.329923273762688,65.99081530398689 24.127877237973735,66.26495706831338 24.741687979782,66.19642163603567 25.84654731489718,65.78520891821245 26.521739130839705,65.30546047736425 27.626598465722054,64.82571174518671 28.976982097607106,63.7291421215632 29.836317135719582,63.24939243297558 30.75703324843198,62.97524962294847 31.616368286777288,62.97524962294847 32.29156010248698,63.31792812049389 33.703324808506295,64.55156948207878 34.25575447594747,65.37399598676711 34.74680306925438,66.26495706831338 36.58823529421352,68.80076388124144 37.017902813619,69.62318596575642 39.2276214833837,67.90980565745849 40.4552429667674,67.29298783763079 41.74424552428536,66.40202791476622 46.47058823541738,63.86621340777492 47.39130434812978,63.18085673946189 47.8209718670696,63.043785334564745 48.49616368324496,64.41449831455247 48.92583120218478,64.82571174518671 49.232736573088914,64.75717618840281 50.276214833837,64.0032846701215 50.521739130374044,63.93474904180039 50.89002557564527,64.07182029256364 51.626598465489224,64.75717618840281 53.4066496163141,67.6356644636835 53.71355498768389,68.73222866875585 53.77493606158532,70.03439668723149 54.081841432256624,71.61070247145835 54.327365729026496,72.36458673566813 54.51150895166211,72.57019141025376 55.06393861887045,73.04993544291938 56.598465473391116,73.66674877150217 57.580562660004944,73.66674877150217 58.13299232744612,73.8038183345925 59.11508951429278,74.55770050775027 61.75447570346296,77.50468755915063 62.491048593306914,77.77882533107186 64.08695652172901,78.19003181083826 65.80562659865245,79.0124441285734 67.70843989774585,80.86286871577613 70.34782608691603,84.01543396431953 70.71611253195442,84.22103560907999 71.08439897699282,84.28956947888946 73.29411764722317,83.80983226612443 74.276214833837,83.3986287090811 75.07416879804805,83.19302685052389 78.6342710996978,82.98742493824102 83.36061381082982,81.82234642643016 85.20204603578895,81.75381234294036 85.6930946293287,81.4796759490273 85.93861892563291,80.99993703135988 85.93861892563291,80.31459521543002 85.57033248082735,78.87537546810927 85.44757033255883,77.91589418129297 85.50895140692592,75.65425511216745 85.38618925819173,75.17451265978161 85.07928388752043,74.62623521499336 83.48337595909834,73.8038183345925 81.88746803044342,72.77579603128834 79.61636828631163,71.74777239118703 77.59079283894971,71.1309575655032 76.05626598489471,70.17146688024513 73.90792838879861,68.11541149066761 72.80306905368343,66.19642163603567 71.20716112549417,63.797677767579444 70.10230179037899,61.87867743265815 69.54987212293781,61.26185490726493 68.99744245526381,60.987711408000905 68.38363171368837,60.91917551844381 67.15601023030467,61.46746246912517 65.86700767278671,63.11232103983639 65.3759590794798,63.454999478009995 64.39386189263314,63.18085673946189 62.429667519172654,61.81014162040083 61.63171355496161,60.987711408000905 60.71099744248204,59.61699248640798 60.40409207157791,59.41138444317039 60.097186700906605,59.479920463694725 59.29923273669556,60.028208412462845 57.703324808273464,60.782103721401654 56.84398976992816,61.39892662112834 56.659846547292545,61.60453414742369 56.659846547292545,61.87867743265815 56.84398976992816,62.42696371790953 57.39641943736933,63.18085673946189 57.51918158587068,65.5110669878195 57.3350383634679,66.8132403116906 56.598465473391116,69.00636948249303 55.8618925830815,70.30853704945184 55.493606138043106,70.78828245447949 54.6342710996978,71.0624225550564 54.38874680316076,71.33656256092945 54.38874680316076,71.74777239118703 54.6342710996978,72.43312163301744 55.370843990007415,73.04993544291938 56.23017902811989,73.39260957372608 58.3171355498489,73.73528355604503 58.869565217522904,74.00942263496108 59.79028133000247,74.90037398494314 61.75447570346296,77.36761863750871 62.429667519172654,77.77882533107186 63.718670076690614,78.32710058969678 65.06905370857567,78.80684112920426 65.62148337578401,79.08097844966687 67.2787723785732,80.31459521543002 69.7340153453406,83.26156080927467 70.47058823518455,83.94690007093595 70.8388746806886,84.15250173344975 72.1278772377409,84.28956947888946 72.98721227608621,84.15250173344975 74.5831202045083,83.67276443750598 76.24040920729749,83.3986287090811 78.3273657290265,83.3986287090811 79.80051150871441,82.85035696713021 81.15089514059946,82.16501675522886 82.56265984661877,82.02794864150928 83.72890025586821,81.75381234294036 85.38618925819173,81.68527825333877 85.81585677759722,81.3426077166223 85.93861892563291,80.86286871577613 86.0,80.31459521543002 85.50895140692592,78.66977243346628 85.44757033255883,75.58572049404029 85.26342710992321,75.03744333435316 84.4040920715779,74.2150268817204 80.90537084406242,72.36458673566813 77.4066496163141,71.0624225550564 76.11764705879614,70.30853704945184 75.13554987218231,69.14343985385494 73.47826086962596,67.56712915026583 72.86445012805052,66.60763413982932 72.1278772377409,65.16838944074698 70.71611253195442,63.11232103983639 68.93606138089672,60.233816295221914 67.95396419451572,58.93163213448133 66.66496163676493,56.738475015270524 66.29667519195937,55.916039526986424 66.11253196932375,55.71043052111054 65.74424552451819,55.84750319761224 63.841432225191966,57.14969243842643 61.81585677759722,58.177735060919076 61.386189258424565,58.177735060919076 61.017902813619,58.04066278843675 60.64961636858061,57.35530106979422 60.035805626772344,56.87554751342395 58.869565217522904,57.218228654935956 56.598465473391116,58.31480730965268 53.9590792839881,59.95967243978521 53.34526854241267,60.782103721401654 50.89002557564527,62.01574903965229 49.17135549872182,63.18085673946189 46.53196930931881,64.55156948207878 45.611253197304904,65.16838944074698 42.9104859335348,66.47056332899956 38.736572890076786,69.07490467117168 36.7109974429477,70.17146688024513 35.97442455240525,70.71974741452141 34.869565217522904,71.1309575655032 33.764705882407725,71.26802756841062 32.537084399489686,71.8163073422038 31.677749360678717,72.43312163301744 30.327365729026496,73.8038183345925 28.608695652335882,74.69476991629926 27.994884910527617,74.62623521499336 27.503836317220703,74.07795738975983 27.31969309481792,73.11847028089687 27.13554987218231,72.43312163301744 26.460358056705445,71.40509754739469 25.601023018127307,70.58267731644446 24.92583120218478,68.93783428811003 24.127877237973735,67.6356644636835 22.654731458052993,67.36152317468077 22.040920716244727,67.08738179062493 21.611253197304904,67.08738179062493 19.340153452940285,68.18394675658783 18.296675192192197,68.93783428811003 16.946291560307145,69.55465082492447" stroke="#4dd2ff" stroke-linecap="round" stroke-linejoin="round" stroke-width="0.5"><title>2026-02-24 4.7km</title><desc>17506081930</desc></polyline><polyline fill="none" points="114.0,65.52283607749268 114.42211055266671,64.98419913538964 116.95477386913262,62.829647630802356 118.40201005036943,62.29100882069906 119.78894472378306,61.61770978278946 120.75376884406433,61.34839000419015 122.08040201012045,61.213730079936795 122.623115577735,60.60776013188297 122.92462311545387,60.540430108318105 123.28643216076307,60.540430108318105 124.13065326632932,60.87708016706165 125.0351758794859,61.01174014993012 125.93969849240966,60.33844000304816 127.62814070330933,59.665139272634406 128.65326633141376,59.05916811601492 129.91959798987955,58.6551870823605 131.125628140755,57.9818848927971 131.7286432159599,57.77989412221359 132.27135678380728,57.77989412221359 132.81407035165466,57.9145546418149 133.23618090432137,58.25120583875105 134.0804020096548,59.26115855417447 134.9246231156867,59.79979946522508 135.64824120583944,60.80975016701268 136.13065326632932,62.1563490597764 136.9145728640724,62.425668558164034 137.4572864321526,63.23362649301998 137.69849246228114,63.368286066979636 139.32663316559047,62.560328272287734 141.4371859296225,61.079070132400375 144.27135678380728,59.732469371927436 145.35678391950205,59.32848868845031 147.8894472362008,57.84722438495373 148.25125628127716,57.77989412221359 148.73366834130138,57.9145546418149 149.0954773868434,58.58785688970238 149.69849246228114,59.12649826798588 150.72361809038557,58.52052669116529 151.26633165823296,58.453196486865636 151.86934673343785,58.85717762558488 152.41206030128524,59.395818816905376 153.67839195975102,61.48304990527686 153.97989949723706,62.560328272287734 154.16080402000807,64.64755085651996 154.40201004990377,65.72482483455678 154.70351758762263,66.33079079061281 155.065326632699,66.80209731851937 155.84924623090774,67.20607411465608 156.5125628139358,67.47539186209906 158.92462311545387,67.61005070083775 159.5879396982491,67.87936830811668 160.1306532660965,68.4853325834265 161.33668341697194,70.10123500577174 163.0251256278716,71.85179216990946 164.2914572863374,72.3230953476741 165.37688442179933,72.52508233644767 166.58291457267478,73.13104298728285 168.93467336683534,76.09351047506789 170.02010050229728,77.30542573629646 170.92462311522104,77.9787111756159 171.70854271342978,78.11336819332791 175.14572864305228,77.57473998208297 175.62814070330933,77.70939706999343 175.74874371825717,77.8440541345044 175.86934673343785,78.18069669359829 175.56783919595182,78.92130981007358 175.26633165800013,79.12329508294351 174.36180904484354,79.45993708755122 173.6381909546908,79.9312356490409 173.03517587925307,80.6045188123826 172.85427135648206,81.07581667957129 172.79396984912455,81.81642703560647 173.6984924620483,87.26999064179836 173.99999999976717,87.94326744409045 174.48241206025705,88.61654366296716 174.9648241205141,88.88585398701252 175.80904522608034,89.08783666894305 176.71356783923693,88.88585398701252 177.31658291444182,88.4145608584513 177.6180904521607,88.14525037107524 177.8592964822892,87.47197374375537 177.97989949723706,86.79869653296191 177.79899497446604,85.72145178169012 177.19597989949398,83.09566144208657 176.83417085418478,81.00848843029235 176.53266331646591,80.33520561706973 176.11055276356637,79.79657894652337 175.68844221089967,79.52726547111524 175.08542713546194,79.32528030336834 174.18090452230535,79.39260869839927 173.6381909546908,79.66192222048994 172.9748743714299,80.33520561706973 172.73366834130138,81.07581667957129 172.67336683394387,81.47978605213575 172.73366834130138,82.8936772023444 173.15577889420092,86.79869653296191 173.51758793951012,87.87593979021767 174.18090452230535,88.68387125286972 174.84422110533342,89.15516421798384 175.9899497483857,89.22249176097102 176.4120603010524,89.08783666894305 177.43718592915684,88.4145608584513 178.04020100459456,87.67395679326728 178.04020100459456,86.79869653296191 177.79899497446604,85.25015673326561 177.6180904521607,83.09566144208657 177.43718592915684,82.42238043819088 177.19597989949398,81.95108338817954 177.01507537672296,80.94116017513443 176.71356783923693,80.26787730370415 176.47236180887558,79.9312356490409 175.50753768812865,79.45993708755122 174.9648241205141,79.25795190234203 174.30150753748603,79.32528030336834 173.51758793951012,79.72925058653345 172.85427135648206,80.53719052218366 172.6130653261207,81.00848843029235 172.55276381899603,81.68177065969212 173.0954773868434,85.92343528638594 173.45728643191978,87.6066291158786 173.6984924620483,88.01059509231709 174.48241206025705,88.7511988367769 175.44723618077114,89.22249176097102 175.9296482410282,89.35714682971593 176.71356783923693,89.02050911425613 177.37688442203216,88.48188846593257 177.6783919595182,88.07792273472296 177.91959798964672,87.26999064179836 177.19597989949398,82.8936772023444 176.53266331646591,80.6045188123826 176.17085427138954,80.13322065939428 175.68844221089967,79.72925058653345 174.9648241205141,79.45993708755122 174.18090452230535,79.39260869839927 173.57788944710046,79.59459384862566 173.21608040179126,79.99856399174314 172.85427135648206,80.6045188123826 172.73366834130138,81.54711426061112 173.15577889420092,84.98084514879156 173.6984924620483,87.74128446471877 174.12060301494785,88.3472332454403 174.9648241205141,88.88585398701252 175.68844221089967,89.02050911425613 176.71356783923693,88.8185264148633 177.0753768843133,88.61654366296716 177.6180904521607,88.01059509231709 177.97989949723706,87.26999064179836 178.04020100459456,86.73136877984507 177.55778894433752,83.97092587489169 177.37688442203216,81.68177065969212 176.83417085418478,79.99856399174314 176.59296482382342,79.79657894652337 175.44723618077114,79.19062349566957 174.30150753748603,79.12329508294351 173.6984924620483,79.32528030336834 173.0954773868434,79.79657894652337 172.55276381899603,80.6045188123826 172.43216080381535,81.21047316037584 172.43216080381535,83.36497368052369 173.0954773868434,87.33731834834907 173.3366834167391,87.87593979021767 173.99999999976717,88.8185264148633 174.30150753748603,89.08783666894305 174.90452261292376,89.28981929819565 175.68844221089967,89.28981929819565 176.83417085418478,89.02050911425613 177.37688442203216,88.61654366296716 177.79899497446604,88.14525037107524 178.04020100459456,87.6066291158786 178.2211055275984,86.79869653296191 177.55778894433752,83.29764562955825 177.31658291444182,81.54711426061112 177.0753768843133,80.73917537502712 176.7738693463616,80.06589232839178 176.23115577851422,79.59459384862566 175.68844221089967,79.32528030336834 175.0251256278716,79.19062349566957 174.18090452230535,79.19062349566957 173.57788944710046,79.39260869839927 172.85427135648206,79.9312356490409 172.73366834130138,80.13322065939428 172.55276381899603,81.07581667957129 172.43216080381535,81.95108338817954 172.67336683394387,83.63428582513006 173.6381909546908,87.67395679326728 173.81909547699615,88.07792273472296 174.30150753748603,88.61654366296716 174.90452261292376,88.9531815535156 175.32663316559047,89.08783666894305 176.05025125620887,89.08783666894305 177.01507537672296,88.68387125286972 177.73869346710853,88.07792273472296 178.10050251241773,87.2026629295433 178.04020100459456,85.7887796224677 176.95477386913262,81.00848843029235 176.35175879392773,80.06589232839178 175.74874371825717,79.59459384862566 175.08542713546194,79.25795190234203 174.48241206025705,79.19062349566957 173.6381909546908,79.39260869839927 173.0954773868434,79.86390730075072 172.73366834130138,80.4698622263968 172.6130653261207,81.34512961789733 172.79396984912455,83.76894186256686 173.03517587925307,85.38481249072356 173.21608040179126,85.99076310964301 173.39698492456228,87.33731834834907 173.57788944710046,87.94326744409045 174.0603015073575,88.61654366296716 175.14572864305228,89.15516421798384 176.59296482382342,89.08783666894305 177.8592964822892,88.14525037107524 178.10050251241773,87.80861213040771 178.2814070347231,87.13533521123463 177.8592964822892,85.31748461496318 177.6783919595182,83.9035978767206 177.55778894433752,83.29764562955825 177.43718592915684,82.01841155579314 177.19597989949398,80.73917537502712 176.95477386913262,80.20054898463422 176.17085427138954,79.39260869839927 175.74874371825717,78.71932448464213 175.68844221089967,78.24802518781507 175.74874371825717,77.77672560507199 176.23115577851422,77.57473998208297 177.97989949723706,77.23809716041433 179.12562814028934,76.8341255816631 180.45226130634546,76.49748243903741 181.53768844204023,76.1608391503687 184.97487437166274,75.62220958509715 185.4572864321526,75.28556591708912 186.0,74.41029169759713 185.93969849217683,73.66967427992495 185.4572864321526,71.71713406656636 185.4572864321526,69.89924738690024 185.3366834167391,69.36061347962823 185.0954773868434,68.95663780381437 184.1306532660965,68.28334454406286 182.8040201002732,67.67738011135953 181.65829145698808,67.00408574269386 177.8592964822892,65.45550648018252 176.05025125620887,64.4455618194188 174.90452261292376,63.502945617889054 173.3366834167391,61.48304990527686 172.371859296225,59.12649826798588 171.5879396982491,58.1838756109355 170.86432160809636,56.567948394687846 170.32160804001614,55.82731396367308 169.4773869344499,54.00939009303693 168.51256281370297,52.93209986540023 168.0904522612691,52.8647691764636 167.7889447233174,52.595446362684015 166.58291457267478,51.11416921799537 166.04020100506023,50.64285317034228 165.31658291444182,51.046838371432386 164.59296482382342,51.31616172217764 163.08542713546194,52.393454191158526 160.19095477368683,53.67273705720436 157.59798994939774,55.15400932257762 156.5125628139358,55.89464439556468 155.9095477387309,56.096635656722356 153.19597989949398,57.71256385347806 152.41206030128524,57.9818848927971 151.9296482410282,58.04921513795853 151.44723618077114,57.1065911736805 150.9648241205141,56.63527876249282 149.69849246228114,57.30858211958548 149.0954773868434,57.44324272091035 148.25125628127716,58.1838756109355 147.16582914534956,58.58785688970238 145.65829145698808,59.530479056353215 141.91959798987955,61.41571995767299 141.01507537672296,62.1563490597764 139.74874371849,62.76231779984664 138.78391959774308,63.7049349003355 137.6381909546908,64.4455618194188 137.15577889443375,64.71488052391214 136.19095477368683,64.71488052391214 134.32160804001614,65.52283607749268 132.693467336474,66.53277933748905 130.16080402000807,67.8120389150572 129.19597989949398,68.55266191798728 129.01507537672296,68.55266191798728 128.77386934659444,68.35067389637697 128.4120603010524,67.67738011135953 128.11055276356637,67.34073300007731 128.11055276356637,66.86942679906497 127.6884422111325,66.12880219117505 127.50753768836148,65.59016566898208 126.0,63.637605145340785 125.27638190961443,62.02168927557068 125.0351758794859,61.887029467965476 124.25125628151,62.1563490597764 123.5276381908916,61.752369637019 122.86432160809636,62.08901917049661" stroke="#ffba00" stroke-linecap="round" stroke-linejoin="round" stroke-width="0.5"><title>2026-02-23 6.0km</title><desc>17493745395</desc></polyline><polyline fill="none" points="14.0,182.6654933358659 14.078346028458327,183.17354739818256 14.313384113367647,183.25822303281166 14.665941240498796,183.17354739818256 15.136017410317436,182.7925068922923 15.449401523219422,181.98808724083938 16.11534276395105,181.01431462052278 16.74211099022068,179.70183594396804 16.85963003267534,179.36313129670452 16.97714907513,178.64338327758014 17.21218716003932,178.00831076863687 18.113166485447437,176.56881055812119 19.680087051121518,174.83293799846433 21.36452665948309,173.56278411799576 22.65723612625152,172.46198188251583 24.067464635474607,170.9377907900489 27.240478781517595,168.31278581399238 28.689880304737017,166.91560099611524 29.90424374327995,165.94180356536526 30.64853101200424,165.13736100052483 31.980413493001834,163.95186470024055 32.842219804180786,163.40145489608403 34.09575625695288,161.96191914076917 34.369967355858535,161.4961862345226 34.487486398313195,160.86109531699913 34.605005440767854,160.60705875902204 34.87921653990634,160.3106826368603 35.075081610586494,160.22600371739827 35.192600653041154,160.22600371739827 35.70184983685613,159.9296274043154 35.780195865314454,159.71792994689895 35.58433079440147,158.95581847283756 35.58433079440147,157.4739322399255 35.89771490753628,155.9920422944706 35.93688792176545,155.22992601961596 35.74102285108529,155.0605667141499 36.01523394999094,154.89120735996403 36.95538628962822,154.80652766482672 38.24809575616382,154.4678087627981 40.48095756256953,154.25610935053555 41.30359085975215,154.25610935053555 41.734494015341625,154.6371682381141 42.40043525584042,154.89120735996403 42.557127312524244,154.80652766482672 42.439608270069584,154.51014863618184 42.51795429829508,154.42546888638753 43.65397170861252,154.3831290070084 44.04570184974,153.70569052401697 44.006528835976496,153.49399083899334 44.08487486396916,152.60485133423936 44.04570184974,152.01209092192585 44.16322089219466,151.58869026362663 44.241566920652986,150.57252744707512 44.39825897710398,150.19146594085032 44.20239390642382,150.23380612040637 47.6104461371433,149.471682425763 47.49292709468864,149.471682425763 47.688792165601626,149.21764097595587 47.806311208056286,149.21764097595587 48.158868335187435,150.276146296761 48.35473340610042,151.71571049292106 48.55059847678058,152.22379113733768 49.569096844643354,153.7480304518831 50.430903155589476,154.84886751399608 51.018498367862776,155.39928527659504 51.371055495226756,155.86502298346022 51.723612622590736,155.9497025271412 52.076169749954715,155.82268320710864 52.27203482040204,155.9497025271412 52.93797606113367,154.933547203138 54.07399347121827,153.7480304518831 55.993471164256334,153.49399083899334 56.65941240475513,153.45165089285 56.85527747566812,153.62101065908791 56.97279651812278,153.8750502174953 57.63873775838874,154.59482837381074 58.383025027345866,155.9920422944706 58.735582154709846,156.50011926540174 58.89227421116084,157.05053549155127 58.735582154709846,157.4739322399255 58.4221980413422,157.77030978351831 57.560391730163246,158.23604562337277 57.48204570193775,158.32072482764488 58.147986942436546,158.87113935948582 58.46137105557136,158.95581847283756 59.71490750834346,158.4054040197516 61.16430903156288,157.55861155327875 62.770402611698955,156.92351640784182 65.39499455946498,155.61098427983234 66.53101196954958,154.84886751399608 67.70620239386335,153.83271029865136 69.42981501645409,152.64719134103507 70.13492927118205,152.35081123025157 71.70184983708896,152.26613117131637 72.36779107735492,152.05443097098032 73.26877040276304,151.6733704195358 74.48313384130597,150.74188803776633 75.03155603935011,150.40316680801334 75.26659412425943,149.72572376637254 75.38411316671409,149.59870310971746 75.97170837875456,149.471682425763 76.87268770392984,149.9374248001841 77.22524483129382,150.0644453841378 77.5778019586578,150.02210519253276 77.93035908602178,149.8104041891056 78.51795429829508,149.2599812252447 78.71381936897524,148.70955774915637 78.87051142565906,148.54019657656318 79.02720348211005,148.54019657656318 79.45810663769953,148.66721746051917 80.4766050055623,147.86275140108773 81.10337323183194,147.1429650518694 81.45593035919592,146.59253960550996 81.8084874865599,146.3384969191393 82.43525571282953,145.66104922175873 82.59194776951335,145.27998455095803 82.59194776951335,144.3908326975652 82.12187159969471,142.61252498038812 82.12187159969471,142.2314583453117 83.10119695332833,138.03970915352693 83.49292709468864,135.79562919336604 84.1196953211911,132.91641979123233 84.51142546255141,131.51915135252057 84.74646354746073,131.1380775689031 84.90315560391173,130.54529563966207 84.7856365616899,129.02099652163452 84.8639825899154,128.08947845961666 84.58977149077691,126.39580549619859 84.66811751923524,125.54896719526732 84.39390642009676,124.9985216492787 84.70729053323157,123.55889241414843 84.70729053323157,123.13547138374997 84.62894450500607,122.71205005020602 84.47225244832225,122.4156549363397 83.88465723628178,121.78052204899723 83.49292709468864,121.52646870305762 81.49510337342508,120.6796234282665 80.4766050055623,120.08683101431234 79.84983677929267,119.57872275775298 79.4972796519287,119.23998367751483 79.06637649633922,118.6471898201853 78.2437431991566,117.12286002904875 78.12622415670194,116.82646211329848 78.1653971709311,116.74177696724655 78.51795429829508,116.82646211329848 79.37976060947403,117.58862788212718 81.41675734496675,118.98592923994875 84.1196953211911,121.06070395204006 85.41240478795953,122.24628623295575 85.88248095777817,122.88141862000339 86.0,123.17781350039877 86.0,123.72826074133627 85.72578890109435,125.59130913903937 85.60826985863969,127.11561709834496 84.66811751923524,130.5029540506075 84.51142546255141,131.26510219072225 84.2763873776421,132.91641979123233 83.25788900977932,137.10820529813645 82.78781283996068,139.4793031347799" stroke="#4dd2ff" stroke-linecap="round" stroke-linejoin="round" stroke-width="0.5"><title>2026-01-03 4.3km</title><desc>17507819708</desc></polyline><polyline fill="none" points="123.98784236726351,134.81283953198 124.06491542689037,134.79053315251076 124.18052501638886,134.85745228425367 124.3732076655142,134.83514590923733 124.66223163926043,134.79053315251076 125.04759693751112,134.6343884323869 125.64491314976476,134.54516282804252 126.85881383938249,134.2774857970944 128.26539717800915,133.920582580482 128.4580798271345,133.920582580482 128.7278355358867,134.00980843907746 129.57563919213135,134.54516282804252 129.84539490088355,134.76822677069867 129.941736225388,134.90206502731598 130.01880928513128,135.21435397482128 130.15368713950738,136.59734253531497 130.172955404385,137.37805802945513 130.23076019913424,137.57881299256405 130.28856499388348,137.71264953250648 130.40417458338197,137.80187384707096 130.75100335187744,137.98032236719155 131.59880700800568,138.20338281293516 132.75490290275775,138.2703009024117 134.58538806950673,138.2703009024117 134.91294857300818,138.2926069276582 135.39465519587975,138.4264430316689 135.62587437487673,138.4487490409956 137.0324577135034,138.18107677855005 137.74538351525553,137.89109812531387 138.88221114513,137.7572616943362 139.63367347675376,137.53420079447096 140.11538009962533,137.28883354231948 140.28879448387306,137.13269060244784 144.14244746649638,133.3629201406875 144.4507397050038,133.02832199550176 144.79756847349927,132.53757712508377 145.60683559987228,131.84607112387312 145.95366436836775,131.51147066237172 146.8207362893736,130.30690477025928 147.12902852799743,129.79384691623272 147.59146688587498,129.28078786091646 147.82268606487196,128.90156952606048 148.82463584037032,127.6077608558553 149.24853766849265,126.96085365557519 150.44317009311635,125.31011628216947 150.71292580186855,124.88627630121482 151.07902283512522,124.37320575366903 151.4451198686147,123.83782650984358 152.6204840282444,122.32091154757654 153.10219065111596,121.83014269341948 153.2948733002413,121.51783466832421 154.2004817512352,120.35782953455055 154.45096919499338,119.95628786482848 154.72072490374558,119.7109009265696 155.0097488774918,119.37628193150158 155.10609020199627,119.17551028911839 155.72267467924394,118.28318965228391 155.89608906349167,118.19395738867752 156.24291783198714,118.104725088735 156.9558436338557,117.81471986295946 159.32584021799266,116.6770033466455 160.46266784798354,116.34237971731636 160.90583794098347,116.14160529439687 161.79217812698334,115.82928915957746 162.44729913410265,115.56158926121134 162.73632310761604,115.40543083594821 163.3143710551085,115.2046555543493 164.99071010260377,114.80310443892085 165.14485622185748,114.69156233180547 165.51095325523056,114.3123187427991 165.87705028848723,114.08923397192848 166.30095211660955,114.0 166.4743665008573,114.02230849636544 166.55143956048414,114.08923397192848 166.84046353423037,114.80310443892085 167.0331461833557,115.62851426645648 167.2643653623527,116.25314666317718 167.39924321661238,117.2570164266217 167.5533893359825,118.104725088735 167.61119413073175,118.95243047061376 167.70753545535263,119.46551371352689 167.74607198510785,120.13475092002773 167.70753545535263,120.22398239310132 167.6689989255974,120.26859811595932 167.34143842197955,120.35782953455055 167.2836336272303,120.42475307462155 167.3029018921079,120.49167659420345 167.49558454134967,120.71475484526309 168.13143728335854,121.22783396074374 168.30485166760627,121.51783466832421 168.69021696585696,121.60706557806407 168.9985092044808,121.85245039250003 169.48021582735237,122.45475740793336 169.9426541852299,123.16860061527404 170.5977751922328,124.03859387959528 171.40704231860582,125.46626764739631 171.59972496773116,125.86779921843845 172.06216332572512,126.53701686808199 172.33191903459374,127.02777517870709 173.04484483634587,128.12082382880908 173.19899095559958,128.50004351499956 173.37240533984732,128.6338856004586 173.83484369772486,129.3477086753701 173.98898981697857,129.41462946945103 174.20094073109794,129.43693639623234 174.5285012345994,129.30309480131837 174.70191561884712,129.28078786091646 174.8175252082292,129.3477086753701 174.91386653285008,129.45924332074355 174.91386653285008,129.5707779094082 174.87533000297844,129.68231244120398 174.62484255910385,129.905381334509 174.48996470472775,130.0838362856739 174.4321599099785,130.23998424869205 174.45142817497253,130.4407457519701 174.6633790889755,130.86457498802338 174.9331347977277,131.24378992531274 175.45337795035448,132.091444470876 176.24337681184988,133.630598288888 176.51313252060208,134.32209865826007 176.57093731535133,134.7013076118019 176.49386425572447,135.61586768197594 176.64801037497818,136.41889288893435 176.64801037497818,136.79809821376693 176.59020558022894,137.11038445911254 176.41679119609762,137.53420079447096 176.2626450767275,137.69034344828106 174.45142817497253,138.76103293392225 174.33581858547404,138.85025682159176 173.79630716785323,138.96178663015598 173.6228927836055,139.09562232535973 173.39167360472493,139.45251711310993 172.6787478029728,140.9023962111096 172.46679688885342,141.48234516425873 172.2933825047221,141.77231906530506 172.19704118010122,142.75376634474378 172.13923638535198,143.73520922870375 172.19704118010122,144.82817454004544 172.46679688885342,145.56425014745037 172.5631382133579,146.23340764516615 172.5631382133579,146.6572063368949 172.5438699485967,147.05869907834858 172.4475286239758,147.5940215894516 172.21630944509525,148.19625785147946 171.71533455722965,149.1553714448237 171.5226519081043,149.6237742323865 171.23362793435808,150.11448084082804 171.06021355022676,150.53827202756656 170.65557998698205,151.51968005063827 170.4436290729791,152.2111239736405 170.36655601335224,152.65721566941647 170.27021468873136,152.9248702511395 169.88484939048067,153.81704982942028 169.73070327122696,154.084702994689 169.3838745027315,154.55309524745098 169.0177774693584,154.9099648634001 168.8636313501047,155.2222253006912 168.709485230851,155.66831086800084 168.18924207810778,156.47126260132063 167.74607198510785,157.02886624095845 167.24509709735867,157.764900873226 167.0138779183617,158.2332852614636 166.93680485873483,158.70166864874773 167.09095097810496,159.43769766378682 167.0138779183617,160.5751921892661 167.0331461833557,160.9989631503122 167.0138779183617,161.13278538883606 167.32217015710194,162.04723516566446 167.49558454134967,163.09550216786738 167.437779746484,163.5192682564666 167.45704801147804,163.76460614385724 167.51485280611087,164.1214607626316 167.61119413073175,164.612134914918 167.63046239560936,165.14741455559852 167.5726576008601,165.43735714856302 167.64973066060338,165.8388154903223 167.61119413073175,166.06184758467134 167.63046239560936,166.37409213559295 167.5726576008601,166.82015500833222 167.51485280611087,166.99857990320015 166.97534138860647,168.02452023071237 166.82119526935276,168.60439742231392 166.66704914998263,168.93894125820952 166.32022038160358,169.34039318740543 165.9541233482305,169.63033023457683 164.95217357273214,170.65625824559538 164.68241786397994,171.01310164567258 164.5090034797322,171.28073381463764 164.3548573604785,171.6152735663054 164.02729685697705,172.50737707501685 163.91168726747856,173.13184737118718 163.93095553235617,173.53329162223963 163.89241900248453,173.80092071459512 163.56485849898309,174.67071300825046 163.39144411473535,174.96064300599392 163.23729799536522,175.13906127556402 162.35095780936535,175.91963949767523 162.2546164848609,176.18726567692647 162.08120210061315,176.45489152947266 161.7343733322341,177.8599218956224 161.7343733322341,178.03833780577406 161.77290986210573,178.88581139621965 161.88851945160422,179.39875434638816 161.81144639186095,179.64407446357654 162.04266557085793,180.26852443235111 162.19681169011164,181.78503838082543 162.21607995510567,182.11956210435892 162.19681169011164,182.32027609358192 162.08120210061315,182.52098989904334 161.8499829217326,182.6994020162383 161.29120323923416,182.92241695866687 161.15632538485806,182.9893213971518 161.11778885498643,183.05622581520583 160.98291100061033,183.05622581520583 160.6746187619865,183.14543167423108 160.559009172488,183.14543167423108 160.00022948998958,183.27924039469508 158.86340186023153,183.41304903345008 158.63218268123455,183.41304903345008 158.40096350223757,183.50225474731997 157.99632993910927,183.59146042486827 157.09072148811538,183.7252688731678 156.53194180561695,183.8367758509994 155.78047947399318,183.90368001045135 155.1253584669903,183.8367758509994 153.4297511546174,183.30154184014827 152.13877740537282,183.39074759936193 151.9460947563639,183.47995332223945 151.67633904749528,183.39074759936193 151.46438813349232,183.43535046537 151.25243721948937,183.41304903345008 150.9248767158715,183.4576518949325 150.61658447736409,183.5691590089118 149.03658675437327,183.8367758509994 148.57414839649573,183.97058414955973 148.20805136312265,183.97058414955973 147.8804908596212,184.082091002565 146.78219975961838,184.26050184959604 146.18488354736473,184.48351520419237 145.60683559987228,184.5504191663349 144.95171459275298,184.5504191663349 144.8553732682485,184.63962441743934 144.52781276474707,184.66192572453292 143.94976481737103,184.81803481074166 142.90927851200104,185.15255390699895 141.96513353136834,185.5093737138377 141.2522077294998,185.95539765569265 141.04025681538042,186.0 140.94391549087595,185.95539765569265 140.65489151712973,185.3755663542688 140.40440407337155,185.06334886455443 140.26952621887904,184.66192572453292 140.0768435697537,184.4166112216626 139.691478271503,183.59146042486827 139.22903991350904,182.52098989904334 138.84367461525835,181.42821251308487 138.57391890650615,181.04908439231804 138.32343146274798,180.46924011604278 137.72611525037792,179.26494325774547 137.47562780650333,178.99732083528943 137.45635954162572,178.95271706650965 137.55270086613018,178.93041517867823 137.5719691311242,178.88581139621965 137.34074995212723,178.6850942629535 137.051725978381,178.14984767587157 136.6663606801303,177.39157944070757 135.51026478537824,175.2728748824593 134.75880245375447,173.53329162223963 134.50831500987988,173.17645232421637 134.2963640957605,172.61888975842157 133.8917305325158,171.74908932403196 133.67977961851284,171.01310164567258 133.17880473076366,169.4965131835197 133.04392687650397,168.96124416244857 132.8512442272622,168.5151856464945 132.812707697507,168.24755010129593 132.73563463788014,168.09142921569583 132.50441545888316,167.26621697330847 132.4466106641339,166.90936747388332 132.23465975013096,166.26257627567975 131.83002618688624,164.56752821915143 131.6180752728833,163.4969647985854 131.54100221314002,163.2516266116727 131.46392915351316,162.80555647728033 131.46392915351316,162.64943171582127 131.19417344476096,161.86880624043988 131.04002732539084,161.22200016920397 130.80880814651027,160.5305846719857 130.69319855701178,159.83916699388647 130.34636978863273,158.6347567975754 130.25002846412826,158.03254921766347 130.01880928513128,157.34112365954206 130.09588234475814,157.14038679866644 129.82612663600594,156.3151333279966 129.49856613238808,155.11070376701537 129.32515174825676,154.55309524745098 129.1132008341374,153.50478739009122 128.8627133902628,152.79104300113977 128.68929900601506,151.8765546058421 128.342470237636,150.73901493525773 128.24612891301513,150.18139529319888 128.01490973401815,149.35611561920086 127.43686178675853,147.48249617418332 127.20564260776155,146.96947853273014 127.0129599586362,146.34493369612028 126.3578389515169,144.09209646034287 126.30003415688407,143.62368184961088 126.18442456738558,143.31140488624806 126.14588803751394,143.0883496398892 126.03027844801545,142.77607191368588 125.9724736532662,142.46379374239768 125.99174191814382,142.32996010425268 125.72198620950803,141.70540204529243 125.58710835501552,141.32620521252102 125.52930356038269,140.92470196848444 125.37515744112898,140.61242115900677 125.25954785163049,140.30013990442967 125.22101132164244,139.98785820486955 125.08613346738275,139.56404661505076 125.04759693751112,139.18484607680875 124.7585729638813,138.24799487482233 124.70076816913206,137.98032236719155 124.64296337438282,137.2442212851456 124.18052501638886,136.26274932915112 124.08418369176798,135.8835430779436 123.94930583739188,135.72739913669648 123.85296451288741,135.43741723627318 123.71808665851131,135.34819195896853 123.62174533389043,135.14743495213042 123.52540400926955,135.12512860665447 123.35198962502182,135.12512860665447" stroke="red" stroke-linecap="round" stroke-linejoin="round" stroke-width="0.5"><title>2025-10-17 10.6km</title><desc>17538333095</desc></polyline><polyline fill="none" points="44.95761779753957,195.65184417398996 45.44129954348318,195.76383325035567 46.239374424447306,195.70783871781896 46.360294860904105,195.76383325035567 46.771424345090054,196.57575269049266 47.06163339270279,197.3316755318665 47.666235575219616,199.90739701973507 48.270837757969275,201.95115886282292 48.41594228160102,202.6510738111101 48.94799220236018,204.24687323352555 49.23820124997292,204.94678233997547 49.746067083324306,207.13048730493756 50.54414196417201,210.09805857136962 50.97945553564932,211.35786688080407 51.26966458337847,212.0017666775384 51.511505456408486,212.72965158923762 51.94681902776938,214.46536937510245 52.35794851195533,215.66916721389862 52.57560529769398,216.98494022118393 53.325312004075386,219.39250857935986 53.470416527823545,220.28834258957068 53.61552105168812,220.87623207335128 53.929914186592214,221.8280504787981 54.00246644846629,222.4719257679826 54.22012323420495,223.2277774453978 54.36522775806952,224.03961582286865 54.92146176600363,225.9992158287787 54.96982994058635,226.39113415498286 55.30840716289822,227.4829036911251 55.453511686762795,228.21074764162768 55.69535255979281,228.88260188681306 55.96137751999777,230.7021988951019 56.37250700418372,231.84993851097533 56.49342744064052,232.54977739026072 56.66271605179645,233.05366028106073 56.856188750243746,233.97744318420882 57.436606845469214,236.21690401496016 57.65426363109145,236.80475946271326 57.702631805907004,237.30863456104998 58.0653931152774,238.40036077535478 58.42815442488063,239.6600394860725 58.694179385202006,240.16390935555683 58.8876520836493,240.80774173504324 59.22622930596117,241.73149860461126 59.39551791700069,242.4033198344987 59.80664740107022,243.35506376906415 60.338697321829386,244.1948350952589 60.5805381948594,244.754681222199 61.06421994091943,245.59444827685365 61.57208577427082,246.7701178479183 62.00739934574813,247.60987875188584 62.200872044079006,247.94578239589464 62.345976567827165,248.22570178605383 62.6361856154399,248.61758845389704 63.43426049652044,250.32508813592722 63.893758155289106,251.02488002675818 64.11141494102776,251.58471225807443 65.24806704418734,253.8520211482828 65.41735565534327,254.2998824233946 65.78011696483009,254.9716729693173 66.60237593320198,256.903061654215 67.30371446476784,258.38658288895385 67.49718716333155,258.946400144574 67.69065986177884,259.39425312911044 67.69065986177884,259.50621626141947 67.64229168719612,259.7021516332461 67.37626672675833,260.06603123949026 66.94095315539744,260.4299103645608 66.28798279818147,260.8217796536046 63.023131012450904,262.5571940836089 62.297608393244445,263.03303161243093 61.49953351239674,263.3689164316165 60.507985932868905,263.9567138788407 60.09685644879937,264.096665466961 59.27459748054389,264.48852953506866 58.37978625029791,265.0763245911512 58.0653931152774,265.2162756098842 57.1947659724392,265.4681872644287 56.51761152804829,265.888039509533 56.22740248031914,266.0 55.91300934541505,265.9720098816033 55.64698438521009,265.8600493797567 55.23585490102414,265.580147925677 55.04238220246043,265.38421673848643 54.67962089297362,264.6844613599533 53.905730099300854,263.56484905350953 53.42204835335724,262.47322266950505 52.93836660729721,261.8014504349849 52.76907799602486,261.40958254085854 52.067739464342594,260.6538357408717 51.14874414692167,259.0303726347338 50.71343057544436,258.38658288895385 50.44740561512299,257.7427916372253 50.03627613093704,257.21096294544986 49.818619345198385,256.67913322595996 49.1172808133997,255.64346187538467 48.94799220236018,255.22359400134883 48.488494543591514,254.607786627108 48.319205932551995,254.27189111505868 48.028996884822845,253.88001249925583 47.71460374991875,253.32018493741634 47.35184244043194,252.92830496653914 46.5537675593514,251.55672067360138 46.263558511738665,251.19282981578726 45.85242902766913,250.8289384767413 45.054354146588594,250.32508813592722 44.64322466251906,249.7652533420187 44.23209517833311,249.3173846869031 43.60330890840851,248.86951530276565 42.51502497983165,247.77783062518574 41.93460688448977,247.329958735354 41.523477400420234,246.88208611655864 40.31427303538658,246.0143308431725 39.73385494016111,245.48247948431526 39.443645892315544,245.11858059387305 38.71812327334192,244.58672750362894 38.45209831313696,244.3347967338632 38.13770517811645,244.166842759063 37.460550733609125,243.49502583482536 36.37226680503227,242.5992673842702 35.23561470187269,241.81547634804156 34.58264434465673,241.14365368284052 34.41335573361721,240.89171976043144 34.002226249314845,240.6397856073745 33.73620128899347,240.3318657737109 33.47017632878851,239.96796007148805 33.37343997962307,239.7160250727029 33.17996728105936,239.43609702563845 33.03486275742762,239.1001829932793 32.76883779698983,238.76426855075988 32.59954918595031,238.4283536982257 32.30934013822116,236.58081467830925 32.502812836668454,235.85299287026282 33.05904684460256,234.67727665195707 33.397624066798016,234.3693501453963 33.687833114527166,233.97744318420882 33.9780421621399,233.72550270005013 34.364987558918074,233.3056013804453 34.77611704310402,232.94168638510746 35.28398287645541,232.29783559878706 35.912769146380015,231.73796412505908 36.66247585276142,231.17809151211986 37.533102995483205,230.14232417437597 39.225989106693305,228.63065673707752 39.80640720191877,228.26673555804882 39.87895946390927,228.15475971376873 39.99987990048248,227.53889175568474 39.85477537661791,227.2029631975165 39.540382241713814,225.97122164128814 39.129252757527865,225.24337176582776 39.00833232095465,224.9354347003973 38.93578005908057,224.26357081576134 38.79067553533241,223.5637108576484 38.79067553533241,223.0878050691972 38.71812327334192,222.72387655789498 38.11352109082509,221.0442002665659 37.79912795603741,220.5123006363283 37.67820751934778,220.20435827504843 37.533102995483205,219.28052912291605 37.412182559026405,218.8886006665416 37.412182559026405,218.32870190314134 37.291262122569606,217.88078207185026 37.07360533683095,217.37687138986075 36.83176446391735,216.11709064643946 36.63829176535364,215.55718624190195 36.5415554161882,214.66133682412328 36.32389863044955,213.6814981828793 36.32389863044955,213.31755722715752 36.37226680503227,212.89762475682073 36.17879410670139,212.16974028968252 36.082057757419534,211.63782349944813 35.912769146380015,210.210041765793 35.81603279709816,209.79010455138632 35.7918487098068,208.89423635113053 35.550007836776786,207.66241281156545 35.501639662194066,207.18647951202001 35.356535138445906,206.45857993149548 35.40490331291221,205.25474178249715 35.33235105103813,204.10689119852032 35.187246527173556,203.3509869784175 35.187246527173556,202.62307724737911 35.09051017812453,201.6151990549115 35.04214200330898,200.5793203973153 35.09051017812453,200.07537801805302 35.09051017812453,199.09548741503386 35.04214200330898,197.35967263419298 35.356535138445906,195.06390077469405 35.453271487611346,194.7839272856072 35.76766462251544,194.27997428714298 35.985321408254094,194.08399231603835 36.17879410670139,194.0 36.39645089244004,194.05599488024018 37.09778942412231,194.36396651767427 37.895864305086434,194.3919639220985 38.01678474165965,194.447958722536 37.99260065425187,194.50395351156476 37.871680217795074,194.55994828918483 37.339630297152326,194.53195090184454 36.71084402722772,194.419961323787 36.32389863044955,194.27997428714298 36.20297819399275,194.36396651767427 36.154610019293614,194.50395351156476 36.13042593211867,194.67193781016977 36.20297819399275,194.81192464736523" stroke="#ff9700" stroke-linecap="round" stroke-linejoin="round" stroke-width="0.5"><title>2025-10-14 6.9km</title><desc>17538333076</desc></polyline><polyline fill="none" points="146.9714479148388,197.94498713428038 146.9714479148388,198.0246834528807 146.79739319731016,197.94498713428038 147.00625885825139,198.14422790147364 147.21512451930903,198.1840760432242 147.4936120675411,198.10437975585228 147.63285584142432,197.9848352955014 147.21512451930903,197.94498713428038 146.58852753636893,198.10437975585228 146.41447281872388,198.0246834528807 146.31003998802043,197.94498713428038 146.0663633836666,197.06832660839427 146.0315524400212,196.19166420720285 145.89230866602156,195.47439357516123 145.96193055307958,195.15560622452176 146.20560715766624,194.99621245622984 147.21512451930903,194.79697015875718 149.12972641224042,194.71727321262006 149.72151245188434,194.59772776428144 150.41773132199887,194.31878824939486 152.33233321504667,194.0398485446931 152.9937411416322,194.0 153.93363661621697,194.0 154.21212416444905,194.07969708563178 154.87353209091816,194.43833377907868 155.25645246950444,194.79697015875718 155.63937284820713,195.39469676063163 155.81342756561935,195.95257413605577 155.77861662220675,197.54650530964136 156.057104170206,199.8975424754026 156.091915113735,200.4952616385126 155.9874822832644,202.08917514502537 156.091915113735,202.6868911117781 156.16153700067662,204.16125343626481 155.9178603963228,205.79500008767354 156.091915113735,207.1498094444978 156.16153700067662,208.6241557149042 156.16153700067662,209.1421680104104 156.022293226677,209.6203326251998 155.9874822832644,210.65635404345812 155.77861662220675,211.21421064564493 155.63937284820713,211.77206648842548 155.95267133961897,213.32608947568224 155.9874822832644,213.8839424442267 155.9178603963228,214.60118085957947 156.022293226677,215.1988785804133 155.9178603963228,216.0755003276863 155.9178603963228,216.71304223907646 155.9874822832644,217.66935324683436 155.9178603963228,218.30689267916023 155.9178603963228,219.342892141809 155.9874822832644,221.17580785386963 155.84823850926477,222.96886964162695 155.25645246950444,224.0845485733007 154.76909926044755,224.40331342470017 153.5159052942181,225.51898845241521 152.5760098195169,226.51512430389994 151.18357207917143,228.5870791215566 150.66140792658553,229.5433624284924 150.1044328304706,230.8184033675061 149.965189056471,231.73483659280464 149.65189056494273,233.24893917230656 149.16453735576943,234.0856776724395 149.16453735576943,234.36459012623527 149.26897018624004,234.5638131913729 149.30378112988546,234.80288074177224 149.12972641224042,235.99821640225127 149.0252935817698,236.47634969066712 148.81642792071216,237.0341711555957 148.71199509012513,237.63183616864262 148.43350754212588,238.3091887968767 148.36388565518428,239.0263844774163 148.22464188106824,239.30529356992338 147.98096527648158,239.22560527711175 148.29426376812626,239.106072808936 149.26897018624004,239.30529356992338 149.44302490376867,239.42482598000788 149.5822686777683,239.62404658619198 149.6170796212973,239.94279935449595 149.33859207329806,240.93890015839133 149.0252935817698,241.4170276846853 148.8860498078866,242.0146863082482 148.74680603377055,243.36937596288044 148.6075622595381,244.32562478882028 148.5727513161255,245.08265352755552 148.64237320318352,245.64046328270342 148.22464188106824,246.67639367163065 147.98096527648158,247.39357471527182 147.946154333069,247.91153802213375 147.946154333069,248.3896574169048 147.70247772836592,249.58495346456766 147.42399018036667,250.58103084238246 147.28474640636705,251.97553510594298 146.79739319731016,255.12311300908914 146.79739319731016,255.44185372794163 146.90182602778077,255.91996434153407 146.83220414072275,256.75665657396894 146.4840947057819,257.4738199855492 146.24041810107883,258.86830080646905 145.33533356990665,261.85645802444196 145.23090073931962,262.0556677314744 144.70873658685014,262.6931381432223 144.1517614906188,263.729025448818 143.83846299920697,264.5258600569505 143.87327394261956,264.8047518040112 144.22138337790966,265.0836433612858 145.927119609667,265.9203168953245 146.1707962140208,266.0 146.65814942331053,265.9203168953245 146.86701508436818,265.6812674883695 147.21512451930903,264.56570174670196 147.31955734977964,263.9680759938492 148.0505871635396,262.53377063322114 148.4683184857713,261.17914429696975 148.5379403727129,260.6213556812436 148.78161697718315,259.66514486051165 149.23415924282745,258.7089318097569 149.33859207329806,258.3901936307375 149.30378112988546,258.0316128829727 148.92086075118277,257.2347656543425 148.92086075118277,256.99571118381573 149.37340301682707,256.43791687724297 149.68670150847174,255.84027927793795 149.93037811294198,254.76452940423042 150.55697509623133,253.56924845656613 150.69621886999812,252.93176385958213 150.9398954747012,250.8599320744397 150.76584075728897,249.1865218358871 151.0791392487008,247.63263478429872 151.11395019222982,247.27404462860432 151.11395019222982,246.2779592164443 150.97470641799737,245.7998373590235 150.97470641799737,245.08265352755552 151.14876113564242,244.40531209032633 151.25319396634586,243.44906345027266 151.4620596272871,242.77171931415796 151.4620596272871,242.33343721798155 151.63611434493214,241.57640340278158 151.6013034012867,240.58030414782115 151.9146018929314,239.42482598000788 152.0886566103436,237.0740155169624 152.4367660455173,235.798994034325 152.5760098195169,234.8825698942237 152.71525359351654,234.36459012623527 152.78487548045814,233.80676502885763 153.16779585904442,232.3325093317544 153.72477095527574,230.8980932944978 154.5950445429189,229.66289768496063 154.80391020397656,229.02537591417786 155.0475868084468,227.55110302183311 155.0475868084468,227.03311399012455 154.83872114750557,226.51512430389994 154.4906117124483,226.11667025377392 154.4558007689193,226.03697939729318 155.5001290742075,225.67837035123375 155.5697509611491,225.5588339328824 155.5697509611491,225.08068791078404 155.74380567856133,224.44315901375376 155.67418379161973,224.40331342470017 155.70899473526515,224.36346783177578 155.67418379161973,224.48300459882012 155.74380567856133,224.48300459882012 155.67418379161973,224.3236222350679 155.74380567856133,224.3236222350679 155.63937284820713,224.44315901375376 155.29126341314986,223.80562912503956 155.36088530009147,223.48686380902654 155.63937284820713,222.6899494342215 155.77861662220675,220.37888898613164 155.5697509611491,218.50612354840268 155.60456190467812,217.03181282279547 155.74380567856133,216.11534672614653 155.63937284820713,215.0793391058687 155.77861662220675,214.0831754632527 155.67418379161973,213.32608947568224 155.63937284820713,212.17053448269144 155.0475868084468,212.29007480552536 154.0728803902166,212.68854229620774 153.5159052942181,212.76823574778973 152.9589301981032,212.76823574778973 151.98422377975658,212.96746930925292 151.0791392487008,213.0073160098691 150.69621886999812,212.96746930925292 150.55697509623133,212.80808246787637 150.31329849152826,211.73221966761048 150.34810943494085,211.05482312251115 150.20886566094123,210.0586496986216 150.20886566094123,209.02262676964165 150.0696218868252,207.9467540330661 150.13924377399962,206.67164194749785 150.0696218868252,206.07393179190694 149.79113433882594,205.59576303971699 149.75632339541335,205.35667845452554 149.47783584729768,205.0777462621336 149.19934829929844,204.7191188786819 148.22464188106824,203.84247284254525 147.4936120675411,203.3244538489962 147.28474640636705,203.08536793873645 147.21512451930903,202.84628188901115 147.11069168883841,202.76658650813624 147.31955734977964,201.09297992978827 147.42399018036667,200.7343490596686 147.4588011240121,200.2163261374517 148.12020905059762,200.13663024528068 148.22464188106824,200.01708637771662 148.18983093753923,199.8975424754026 147.946154333069,199.25997440720676 147.87653244601097,198.8216457851231" stroke="#4dd2ff" stroke-linecap="round" stroke-linejoin="round" stroke-width="0.5"><title>2025-09-30 4.8km</title><desc>17538333066</desc></polyline></svg>