<?xml version="1.0" encoding="utf-8" ?>
<svg baseProfile="full" height="300mm" version="1.1" viewBox="0,0,200,300" width="200mm" xmlns="http://www.w3.org/2000/svg" xmlns:ev="http://www.w3.org/2001/xml-events" xmlns:xlink="http://www.w3.org/1999/xlink"><defs /><rect fill="#222222" height="300" width="200" x="0" y="0" /><text fill="#FFFFFF" style="font-size:12px; font-family:Arial; font-weight:bold;" x="10" y="20">Over 3km Runs</text><text fill="#FFFFFF" style="font-size:4px; font-family:Arial" x="10" y="280">Runner</text><text fill="#FFFFFF" style="font-size:9px; font-family:Arial" x="10" y="290">Zheng</text><text fill="#FFFFFF" style="font-size:4px; font-family:Arial" x="65" y="280">SPECIAL TRACKS</text><rect fill="yellow" height="2.6" width="2.6" x="65" y="283" /><text fill="#FFFFFF" style="font-size:3px; font-family:Arial" x="70" y="285.5">Over 5.0 km</text><rect fill="red" height="2.6" width="2.6" x="65" y="287" /><text fill="#FFFFFF" style="font-size:3px; font-family:Arial" x="70" y="289.5">Over 10.0 km</text><text fill="#FFFFFF" style="font-size:4px; font-family:Arial" x="120" y="280">STATISTICS</text><text fill="#FFFFFF" style="font-size:3px; font-family:Arial" x="120" y="285">Number: 12</text><text fill="#FFFFFF" style="font-size:3px; font-family:Arial" x="120" y="290">Weekly: 1.7</text><text fill="#FFFFFF" style="font-size:3px; font-family:Arial" x="141" y="285">Total: 63.7 km</text><text fill="#FFFFFF" style="font-size:3px; font-family:Arial" x="141" y="290">Avg: 5.3 km</text><text fill="#FFFFFF" style="font-size:3px; font-family:Arial" x="167" y="285">Min: 3.2 km</text><text fill="#FFFFFF" style="font-size:3px; font-family:Arial" x="167" y="290">Max: 10.6 km</text><polyline fill="none" points="24.484162895940244,45.758035071223276 24.55397543637082,46.05985961499391 24.728506787330844,46.58805215070606 25.496444731834345,47.79534738752409 25.566257272148505,48.134898674703436 25.70588235289324,49.56855725299101 25.70588235289324,50.77584566277801 25.531351001933217,52.058586568251485 25.496444731834345,53.341324352048105 25.391725921072066,53.68087206638302 25.217194570112042,53.982692073332146 24.62378797668498,54.20905696510454 23.43697478994727,54.47314921597717 21.83128636062611,54.69951389709604 21.307692307746038,54.88815105709364 17.78215901751537,55.15224296782981 15.478345184237696,55.22769777508802 14.675500969635323,55.454062132164836 14.431157078244723,55.6426990221953 14.396250808029436,56.20860928716138 14.535875888890587,57.00088263742509 14.780219780281186,57.52906420934596 15.234001292847097,58.208154024148826 15.478345184237696,58.73633438645629 15.5132514545694,59.302241330151446 15.408532643923536,60.471780421969015 15.443438914138824,61.905405446275836 15.5132514545694,62.131766935868654 15.617970265215263,62.24494764418341 15.862314156373031,62.207220744137885 15.862314156373031,62.05631311686011 15.967032967018895,62.131766935868654 15.862314156373031,62.77312396172783 15.932126696920022,63.60311424868996 15.792501616058871,64.20674272745964 15.408532643923536,65.18763753134408 15.268907563062385,65.75353754952084 15.303813833277673,66.16853051018552 15.478345184237696,66.69670289653004 15.757595345843583,67.07396856293781 15.932126696920022,67.56441352557158 16.246283128624782,67.90395207851543 16.001939237350598,68.20576394209638 15.548157724551857,68.43212272637174 14.500969618675299,68.54530208205688 13.87265675503295,68.73393428747659 13.209437621291727,69.41300966829294 13.034906270215288,69.7148206679849 13.0,69.94117880435078 13.31415643193759,70.84661037762999 13.977375565562397,71.60113550093956 14.186813186854124,71.67658795390162 14.989657401456498,71.75204039600794 15.5132514545694,71.94067145412555 17.04912734334357,73.18563474499388 17.677440206869505,73.48744358489057 18.235940529964864,73.5628957678855 20.78409825474955,73.18563474499388 21.936005171271972,73.33653918650816 22.35488041373901,73.33653918650816 23.68131868133787,72.99700413228129 24.55397543637082,72.58201654683216 25.00775694893673,72.50656422346947 25.950226244400255,72.4688380578009 26.613445378141478,72.24248100671684 27.032320620608516,72.4688380578009 27.38138332264498,72.43111188939656 27.590820943703875,72.50656422346947 28.254040077677928,72.92155186837772 29.091790562379174,73.67607402201975 29.371040724101476,73.82697832325357 30.034259857959114,73.9024304576451 30.662572721601464,73.82697832325357 31.88429217855446,73.5628957678855 33.315449256799184,73.07245638550376 34.606981254182756,72.92155186837772 35.06076276663225,72.7329211611941 35.44473173900042,72.43111188939656 36.59663865552284,71.03524175973143 37.120232708519325,70.58252632941003 37.46929541055579,70.12981051026145 37.78345184237696,69.56391518982127 38.09760827419814,69.18665130526642 38.376858435804024,68.54530208205688 39.04007756942883,67.8662255834497 39.144796380074695,67.56441352557158 39.144796380074695,66.92306232880219 39.21460892050527,66.31943696024246 39.38914027158171,65.86671748023946 39.49385908222757,65.33854426228208 40.50614091800526,64.09356244030641 41.308985132491216,63.339026571891736 42.56561085989233,61.64131691897637 43.08920491288882,61.11313946748851 44.066580478451215,60.43405339500168 45.218487394973636,59.41542264597956 46.789269553963095,57.906336436688434 47.69683257921133,56.96315536205657 48.81383322563488,56.170881955098594 49.65158371045254,55.454062132164836 49.930833872174844,55.11451556003885 50.628959276131354,54.586331568687456 50.87330316740554,54.322239374538185 51.012928248383105,54.020419562089955 51.5016160311643,53.45450694777537 52.82805429876316,52.09631419467041 53.979961215285584,51.454944178054575 54.78280542988796,50.85130109661259 55.09696186182555,50.738117941858945 55.86489980609622,50.624934762803605 56.248868778231554,50.66266249178443 57.15643180347979,50.47402381961001 59.3904330964433,50.20992956496775 61.03102779574692,49.79492404052871 61.764059470035136,49.56855725299101 62.95087265688926,49.07809554666164 63.78862314170692,48.81400059259613 64.66127989673987,48.39899396896362 66.65093729819637,47.304884031182155 67.0,47.22942808960215 66.89528118947055,47.41806792310672 66.5462184875505,47.79534738752409 65.81318681326229,48.248082388337934 62.182934712502174,49.56855725299101 60.19327731116209,50.17220180359436 58.901745313662104,50.47402381961001 58.16871363937389,50.549479296663776 56.493212669854984,50.51175155941746 55.96961861674208,50.51175155941746 55.62055591470562,50.58720703102881 55.30639948300086,50.738117941858945 54.64318034914322,51.34176115290029 54.08468002593145,51.60585484048352 53.52617970271967,52.09631419467041 53.17711700068321,52.32267989660613 51.222365869558416,54.09587453134009 50.34970911464188,55.189970372768585 49.12798965757247,56.13315462027094 47.59211376856547,57.60451867635129 45.218487394973636,59.49087684301776 44.3458306400571,60.547234467812814 43.12411118298769,61.49040912970668 41.79767291538883,62.9240313837945 41.20426632196177,63.640841048851144 40.50614091800526,64.62173690568306 40.33160956692882,65.11218414964969 39.84292178414762,67.07396856293781 39.28442146105226,68.31894334638491 37.85326438269112,70.09208417448099 35.165481577278115,73.2233608593815 34.81641887535807,73.60062185523566 34.606981254182756,73.71380010142457 32.93148028443102,73.86470439177356 31.77957336779218,73.9024304576451 31.25597931491211,74.01560863896157 30.41822883009445,74.05333469397738 29.720103426021524,74.24196492877672 29.33613445388619,74.16651284290128 28.98707175173331,73.97788258121 28.568196509615518,73.63834794005379 28.114414996816777,73.14790862784139 27.69553975434974,72.84609959356021 27.38138332264498,71.86521903896937 27.241758241900243,71.67658795390162 26.857789269648492,71.41250432137167 25.88041370396968,70.92206293856725 25.63606981257908,70.73343151598237 25.461538461619057,70.31844214891316 25.461538461619057,69.79027339088498 25.531351001933217,69.37528328120243 25.950226244400255,68.35666980902897 26.19457013567444,68.0548580319446 26.64835164847318,67.8662255834497 26.96250808017794,67.63986655618646 26.96250808017794,67.48896048407187 27.102133160922676,67.2626012948167 27.102133160922676,66.8476091955381 26.89269553986378,66.73442947535659 26.613445378141478,66.69670289653004 26.473820297513157,66.01762401688029 26.229476406006142,65.11218414964969 26.264382676337846,64.58401017574943 26.508726567495614,64.05583567250869 26.508726567495614,63.67856784624746" stroke="#ffbf00" stroke-linecap="round" stroke-linejoin="round" stroke-width="0.5"><title>2026-03-27 5.0km</title><desc>17871389742</desc></polyline><polyline fill="none" points="88.49756097537465,42.44342842552578 88.23414634144865,42.72813706455054 88.4536585365422,43.250102585414425 88.8048780488316,44.294032393954694 89.06829268299043,45.717570392705966 88.71707317070104,48.801892236515414 88.71707317070104,49.608558659034315 88.84878048789687,50.60502759052906 88.8048780488316,51.41169181920122 88.67317073163576,51.88619973039022 88.4536585365422,52.17090431402903 88.1463414633181,52.313256560009904 87.0048780485522,52.455608775489964 86.08292682934552,52.64541168184951 84.59024390229024,53.11991871002829 83.71219512214884,53.54697474499699 83.44878048799,53.59442539856536 81.16585365845822,53.73677733895602 79.40975609747693,53.6418760488159 77.34634146350436,53.40462276391918 75.8536585366819,53.35717209678842 74.84390243911184,53.6418760488159 74.71219512191601,53.73677733895602 74.58048780495301,53.97403050493449 74.44878048799,54.92304231983144 74.49268292682245,55.49244875658769 75.15121951210313,58.244572973868344 75.72195121948607,59.95278225920629 75.8536585366819,61.18648622796172 75.80975609761663,62.04058763093781 76.60000000009313,63.369187626289204 76.86341463401914,64.0809365286841 76.81951219518669,65.07738370832521 76.55609756102785,65.88403032836504 76.02926829271019,67.02282388595631 75.98536585364491,67.30752196983667 76.07317073177546,67.82946813915623 76.29268292686902,68.30396430037217 76.86341463401914,68.7784601218882 76.99512195121497,69.96469819027698 76.73170731705613,70.39174337527948 76.11707317060791,70.72388944023987 73.52682926831767,71.29328230727697 73.131707316963,71.67287728033261 73.0,72.05247203609906 73.08780487813056,72.28971864801133 73.57073170738295,72.90655944193713 74.05365853663534,73.33360273239668 74.53658536588773,73.85554415825754 74.97560975607485,74.09279012511251 75.63414634135552,74.23513766442193 76.29268292686902,74.56728180416394 76.73170731705613,75.08922225894639 77.52195121953264,75.37391687935451 78.39999999990687,76.37034708797 78.83902439032681,76.60759215505095 79.3219512195792,76.70249015814625 80.81463414640166,76.46524512505857 82.96585365850478,76.4177961081732 83.53658536588773,76.32289806444896 84.41463414626196,76.37034708797 86.08292682934552,76.03820385149447 87.39999999990687,75.70606044860324 89.15609756088816,75.56371322495397 89.81463414640166,75.23156958440086 89.99024390242994,75.23156958440086 90.42926829261705,75.37391687935451 90.95609756093472,75.37391687935451 91.263414633926,75.4213659708621 92.66829268285073,76.46524512505857 93.72195121948607,77.08208203455433 93.98536585364491,77.12953100388404 94.68780487799086,77.12953100388404 100.17560975602828,75.84840764163528 100.9219512194395,75.56371322495397 101.84390243911184,74.56728180416394 102.59024390252307,73.42850120388903 103.90731707308441,72.05247203609906 104.56585365836509,71.19838353001978 105.35609756107442,69.20550607092446 105.44390243897215,68.73101055494044 105.35609756107442,67.6396695796866 105.44390243897215,66.8804747982067 105.88292682915926,65.78913077688776 106.23414634144865,65.31463281606557 111.45853658532724,61.044135887292214 113.65365853626281,58.671625707822386 115.4097560972441,56.9634131215862 117.64878048771061,55.20774559932761 119.18536585336551,53.83167861553375 120.01951219490729,53.26227075228235 121.24878048780374,52.02855203737272 122.52195121929981,51.07953607913805 123.9268292679917,49.75091145525221 124.62926829257049,49.2289510529954 125.33170731691644,48.849343229609076 126.07804878032766,47.90032272023382 126.95609756070189,47.42581195599632 127.0,47.330909762415104 126.82439024373889,47.1411053345073 126.69268292654306,47.09365421900293 126.20975609729066,47.378360861039255 125.99024390242994,47.71051845536567 125.59512195107527,48.99169618886663 125.11219512182288,49.6560095945606 124.76097560976632,49.94071513594827 123.04878048761748,50.93718356831232 121.42439024359919,52.218355066201184 119.79999999981374,53.6418760488159 118.70243902434595,54.7332400654559 117.42926829238422,55.63480028946651 115.80487804859877,57.295565913722385 114.09268292668276,58.71907599462429 113.21463414630853,59.62063079839572 111.76585365855135,60.90178551594727 111.06341463397257,61.66098714328837 109.9219512194395,62.60998795495834 107.85853658546694,65.0299338765908 106.36585365841165,69.34785465948517 105.75121951219626,70.53409170923987 100.70243902434595,76.51269413845148 100.21951219509356,76.9871840858832 99.78048780467361,77.08208203455433 97.62926829257049,77.2244289322407 96.22439024387859,77.41422474820865 93.72195121948607,77.55657157453243 93.23902439046651,77.41422474820865 91.9219512194395,76.32289806444896 91.35121951228939,75.8009585805703 91.0,74.75707838067319 90.82439024397172,74.47238349547843 90.64878048771061,74.33003600704251 89.7268292682711,73.90299335838063 89.4634146343451,73.57084888592362 89.41951219504699,73.33360273239668 89.41951219504699,72.19482001347933 89.7268292682711,70.91368711693212 90.0780487805605,70.10704661579803 90.29756097565405,69.15805653465213 90.91219512186944,68.68356098473305 90.86829268280417,68.73101055494044" stroke="#4dd2ff" stroke-linecap="round" stroke-linejoin="round" stroke-width="0.5"><title>2026-03-25 4.2km</title><desc>17847087081</desc></polyline><polyline fill="none" points="148.40975609747693,42.3010715112905 148.5853658535052,42.823037555092014 149.11219512182288,46.42933717445703 148.98048780485988,47.99522432155209 148.89268292672932,49.94071532145608 148.6292682925705,51.838749819260556 148.49756097560748,52.313257594709285 147.92682926845737,52.59796209685737 145.38048780476674,52.930117194890045 142.7902439024765,53.49952554720221 139.89268292672932,53.78422953985864 137.12682926817797,53.83168019348523 135.0634146342054,54.021482773765456 134.66829268285073,54.1163840435911 134.712195121916,54.16383467341075 134.66829268285073,54.30618654243881 133.83414634130895,55.87205508432817 133.57073170738295,57.10576708818553 133.4829268292524,57.912423695554025 133.52682926831767,58.43437744805124 133.74634146341123,58.956330789544154 134.05365853663534,59.478283720090985 135.01951219514012,60.71198901341995 135.28292682929896,61.18649043800542 135.6780487804208,62.18294232431799 136.5999999998603,62.894692754838616 137.2585365853738,62.942142756364774 137.65365853672847,63.13194272853434 137.78536585369147,63.3691926173633 137.82926829252392,63.891142073844094 137.43414634140208,65.74168683611788 136.86341463401914,66.92793076194357 136.29268292686902,67.73457541933749 136.20487804873846,68.16162219346734 136.24878048780374,68.35142067162087 136.73170731705613,68.96826534991851 136.7756097561214,69.63255897728959 136.95121951191686,70.05960452900035 136.7756097561214,70.15450350317406 134.18536585359834,70.96114423515974 133.92195121967234,71.19839132251218 133.74634146341123,71.62543586583342 133.131707316963,72.19482816255186 133.0,72.38462548598181 133.0,72.5269734429894 133.1756097562611,72.90656784566818 133.7902439024765,73.85555290151387 134.44878048752435,74.4723924594 134.8878048779443,74.7096382904565 135.94146341457963,74.80453659914201 136.24878048780374,74.89943489414873 136.6439024391584,75.27902793855174 137.47804878046736,75.80096801993204 138.31219512200914,76.70249992003664 138.7951219510287,76.93974495312432 139.27804878051393,77.03464294265723 140.68292682943866,76.892295953352 141.73658536584117,76.65505090315128 144.9853658536449,76.60760188294807 145.68780487799086,76.46525480202399 147.3560975608416,75.89586617232999 149.33170731714927,75.61117167433258 150.16585365869105,75.32647705392446 150.60487804864533,75.51627348107286 151.08780487813056,75.51627348107286 151.35121951205656,75.61117167433258 152.4048780486919,76.37035673088394 153.41463414626196,77.22443888086127 153.72195121948607,77.41423476469936 154.29268292686902,77.46168372721877 155.12682926817797,77.3193368295324 155.78536585369147,77.082091932185 156.6634146340657,76.892295953352 158.11219512182288,76.32290769036626 159.69268292700872,76.03821337554837 160.43902439041995,75.753518938669 161.53658536588773,74.94688403652981 163.02926829271019,73.238712769642 163.68780487799086,72.28972683107713 164.56585365859792,70.67644761828706 165.35609756107442,69.63255897728959 165.6634146340657,68.96826534991851 165.92682926822454,68.11417256551795 165.88292682915926,67.07027989038033 165.97073170728981,66.02638557180762 166.1463414633181,65.64678723039106 166.62926829280332,64.9824896096834 169.70243902457878,62.32529247156344 172.2048780489713,60.3798378140782 173.69756097556092,58.8614302125643 175.58536585373804,57.24811832548585 177.12195121939294,55.777154065785 180.0634146342054,53.54697622108506 181.38048780476674,52.0760037493892 183.2243902438786,50.557577129337005 184.8048780488316,49.08659802447073 185.68292682920583,48.706989983737 186.47317073168233,48.13757751509547 187.0,48.23247962712776 186.73658536584117,48.09012645407347 186.47317073168233,48.185028572857846 185.5951219513081,49.32385293964762 185.06829268299043,49.893264389480464 182.7414634146262,51.41169253102271 180.6780487804208,53.21482143207686 180.0195121949073,53.68932822259376 178.4829268292524,55.25519822142087 174.70731707313098,58.57672840019222 172.11707317084074,60.949239768087864 170.36097560985945,62.704892714798916 168.6926829267759,64.84014003298944 168.07804878032766,65.45698797801742 167.11219512182288,67.44987741694786 166.36585365841165,69.77490752510494 165.79512195126154,70.81879594206112 160.7463414631784,76.84484695002902 160.35121951205656,77.17698990128702 160.04390243906528,77.3193368295324 159.6487804877106,77.3193368295324 157.1902439026162,77.36678579886211 156.88292682915926,77.46168372721877 154.3365853659343,77.55658164201304 153.63414634135552,77.6989284887677 152.2731707317289,76.74994893337134 151.70243902434595,76.18056054826593 151.26341463415883,75.08923144353321" stroke="#4dd2ff" stroke-linecap="round" stroke-linejoin="round" stroke-width="0.5"><title>2026-03-24 4.0km</title><desc>17833902173</desc></polyline><polyline fill="none" points="46.48341787821846,93.01835681835655 46.263066420913674,93.05507045115519 46.21221608459018,93.0 45.90711406682385,93.11014089036325 45.39861070382176,93.3671361147426 45.34776036749827,93.78934198805655 45.34776036749827,94.15647695725784 45.263009807036724,94.30333079575212 45.22910958289867,94.6337516206695 45.195209358586,94.79896187128907 45.17825924651697,95.73515125346603 45.16130913444795,95.7902211092296 45.05960846180096,95.84529095303151 44.991808013408445,95.99214381117781 44.957907789212186,96.10228339882451 44.97485790133942,96.26749269041466 44.924007565074135,96.34091900759086 44.076501960051246,96.5428412699548 43.82225027860841,96.83654609115911 43.3137469154899,96.81818954985647 43.05949523404706,96.50612814335909 42.50014153472148,96.37763215815357 41.92383772332687,96.4327018740878 41.31363368779421,96.5428412699548 40.31357707385905,96.1940663518908 39.906774383503944,96.1940663518908 39.41522113257088,96.3592755835707 39.44912135670893,97.02011143125128 39.4321712446399,97.36888521051151 39.34742068412015,97.7176585089328 39.211819787335116,98.12150067482435 39.177919563197065,98.72726271502324 39.11011911480455,98.96589584778121 38.88976765749976,99.4064487322903 38.75416676065652,99.82864452677313 38.65246608812595,100.32426477782428 38.601615751802456,100.8198840580153 38.51686519134091,101.04015898201033 38.56771552754799,101.0768714506994 39.05926877842285,101.27878993324703 39.12706922687357,101.35221479606116 39.11011911480455,101.46235205030825 38.99146833008854,101.82947588487878 38.99146833008854,102.03139376683976 39.07621889055008,102.23331148768193 39.211819787335116,102.4535851811379 39.39827102050185,102.6187903254031 39.49997169303242,102.7839953618095 39.55082202935591,102.98591248200682 39.56777214148315,103.31632196753344 39.601672365679406,103.40810230359784 39.754223374591675,103.4815265484649 40.02542516810354,103.4815265484649 40.262726737593766,103.5182386629458 40.70342965214513,103.26125374989351 40.80513032473391,103.26125374989351 40.55087864329107,103.35303410592314 40.44917797064409,103.44481442870165 40.3983276343788,103.53659471817082 40.3983276343788,103.68344311206602 40.46612808271311,103.86700348455634 40.5678287553601,104.06891974054452 40.788180212664884,104.14234379370464 40.88988088525366,104.28919183601101 40.97463144583162,104.69302351305669 40.991581557900645,104.87658315313456 41.04243189410772,104.96836292327498 41.144132566754706,104.9867188733333 41.21193301520543,104.95000697192154 41.33058379980503,104.54617570506525 41.38143413612852,104.4911077551078 41.43228447245201,104.4727517690917 41.82213705073809,104.52781972306548 42.211989629024174,104.52781972306548 42.34759052580921,104.45439578179503 42.43234108632896,104.45439578179503 42.60184220736846,104.50946373974148 42.906944225134794,104.50946373974148 42.991694785654545,104.54617570506525 43.05949523404706,104.6379555950407 43.09339545830153,104.7480914190819 43.09339545830153,104.8398712357739 42.7374431041535,105.5373967550695 42.51709164690692,105.84944702274515 42.381490750063676,106.25327620966709 42.211989629024174,106.51025808398845 42.12723906856263,106.85901878168806 42.09333884436637,107.2628463574656 42.025538395973854,107.28120214107912 41.7712867144146,107.15271162799036 41.43228447245201,106.93244202522328 41.05938200629316,106.80395133505226 40.48307819489855,106.47354640364938 39.65252270194469,105.75766757217934 39.56777214148315,105.72095578265726 39.1440193389426,105.77602346499043 38.94061799382325,105.75766757217934 38.63551597594051,105.55575266380038 38.36431418242864,105.26205796399154 38.22871328564361,105.17027830040024 37.8897110435646,105.09685454555438 37.80496048304485,105.11521048625582 37.737160034652334,105.17027830040024 37.65240947419079,105.33548167088884 37.482908353209496,106.17985276906984 37.245606783777475,106.96915363901644 37.059155550727155,108.14392246770149 36.77100364502985,109.61237583433103 36.72015330870636,110.10797692232882 36.65235286025563,110.43837710843945 36.56760229979409,110.71371026734414 36.56760229979409,110.7320658006065 36.63540274818661,110.64028812092147 36.669302972382866,110.69535473275755 36.65235286025563,110.82384344705497 36.584552411863115,111.02575415199681 36.41505129088182,111.33779765186773 36.33030073042028,111.57641889217484 36.17774972150801,112.47583539097104 36.008248600468505,112.97143087135919 35.94044815207599,113.57715736275713 35.78789714316372,113.99932951461233 35.65229624643689,114.58669829349674 35.669246358505916,114.78860599643667 35.49974523746641,115.35761774709681 35.44889490120113,115.83485242257302 35.431944789073896,116.58741296708467 35.48279512533918,117.00958009772876 35.41499467700487,117.6520069889375 35.347194228554145,118.03746234097343 35.22854344395455,118.36785217550641 35.21159333176911,118.62482174865727 35.10989265918033,119.06534040997212 35.0929425470531,119.67105231744063 34.974291762395296,120.12992400968506 34.855640977737494,120.80905258753046 34.83869086561026,120.93753616754839 34.90649131394457,121.2679222166771 34.770890417159535,121.39640556379163 34.70308996876702,121.76350048190216 34.68613985669799,122.03882132116996 34.72004008089425,122.40591530763777 34.787840529344976,122.69959011353785 34.90649131394457,122.86478204208834 35.160742995503824,123.06668314179115 35.39804456487764,123.34200256360054 35.68619647057494,123.56225788548181 35.821797367418185,123.76415842887945 36.126899385184515,124.0761862245854 36.550652187666856,124.36985909272335 36.83880409336416,124.51669539909926 36.88965442974586,124.59011352030211 36.855754205491394,124.60846804729954 36.6862530845101,124.64517709724896 36.36420095455833,124.68188614190149 35.75399691902567,124.62682257295819 35.2624436680926,124.86543128525955 35.27939378027804,124.90214029797062 35.39804456487764,124.86543128525955 35.22854344395455,124.93884930538479 35.24549355596537,125.74644612103293 35.33024411648512,126.33378764148802 35.2624436680926,126.57239474494418 35.22854344395455,126.95783651391685 35.2624436680926,127.06796262583521 35.48279512533918,127.34327769603988 35.48279512533918,127.39834067417542 35.194643219641875,127.6736553850933 34.68613985669799,128.07744975287642 34.26238705427386,128.24263817223255 34.14373626949964,128.31605521292659 33.95728503639111,128.5363062072429 33.804734027478844,128.79326545840013 33.63523290655576,128.92174498618988 33.550482346036006,129.417308268341 33.550482346036006,129.6742666253267 33.51658212178154,129.91287058046146 33.87253447587136,129.9679329997016 34.10983604530338,130.09641193140124 34.39798795100069,130.16982843450387 34.82174075348303,130.46349423409265 34.99124187458074,130.66538927369402 35.7200966947712,131.0875329272094 36.22860005777329,131.67486205682508 36.398101178812794,131.80334012235107 36.72015330870636,131.93181812264083 37.31340723216999,132.0419420710241 37.58460902579827,132.18877392770082 37.72020992258331,132.31725173241284 37.7710602589068,132.48243738552264 37.75411014672136,133.01470153476112 37.7710602589068,133.17988673289074 37.788010371034034,133.2533023418946 37.940561379888095,133.38177960641042 38.27956362190889,133.43684127127926 38.73721664858749,133.43684127127926 39.16096945106983,133.54696456507372 39.65252270194469,133.62038006763032 39.940674607641995,133.74885714593984 39.99152494396549,133.82227258996863 40.02542516810354,133.96910341420153 39.99152494396549,134.13428798969835 39.85592404718045,134.40959537602612 39.46607146889437,134.90514791703026 39.19486967526609,135.08868564908335 39.09316900273552,135.19880822444975 38.906717769568786,135.54752939713944 38.70331642439123,135.78612781754055 38.55076541547896,136.09814079728676 38.38126429443946,136.35509237431688 38.211763173516374,136.9424092854606 38.07616227673134,137.18100639151817 37.95751149195712,137.3094816632074 37.8897110435646,137.78667495878472 37.6015591378673,138.44740265261498 37.279507007973734,139.89732682722388 37.00830521440366,140.13592114910716 36.95745487808017,140.22768813614675 36.60150252393214,140.13592114910716 36.65235286025563,140.13592114910716 36.703203196579125,140.20933474137564 36.63540274818661,140.28274831236922 36.737103420775384,140.1726279479335 36.8049038691679,140.22768813614675 36.78795375704067,140.11756774771493 36.6862530845101,140.11756774771493 36.737103420775384,140.15427454916062 36.53370207559783,140.13592114910716 36.56760229979409,140.08086094094324 36.737103420775384,140.08086094094324 37.00830521440366,140.15427454916062 37.11000588705065,140.20933474137564 37.17780633532675,140.26439492164354 37.17780633532675,140.33780847664457 36.906604541814886,141.2187694770837 36.94050476595294,141.56748235978012 36.82185398135334,141.75101526305662 36.33030073042028,142.26490668469341 36.19469983363524,142.44843908253824 36.10994927311549,142.74209064245224 35.770947031036485,143.5863369806175 35.669246358505916,143.7515152828273 35.53364546172088,143.82492782700865 35.431944789073896,143.95339972809597 35.21159333176911,144.32046194355644 35.0929425470531,144.59575825602224 35.17769310757285,144.65081748258672 35.87264770374168,144.43058050447144 36.02519871259574,144.44893359328853 36.07604904886102,144.52234593528556 36.092999161046464,145.10964390535082 36.02519871259574,145.4583514306869 35.974348376272246,145.5501164891175 35.821797367418185,145.7336465062981 35.78789714316372,145.84376445275848 35.78789714316372,146.08235317250364 35.83874747948721,146.48611818619247 35.737046806898434,146.7063533769542 35.80484725534916,147.0 35.48279512533918,146.76141214468225 35.465845013270155,146.77976506460982 35.49974523746641,146.85317673100508 35.49974523746641,146.92658837614 35.669246358505916,146.92658837614 35.669246358505916,146.87152964431152 35.770947031036485,146.87152964431152" stroke="#ffa000" stroke-linecap="round" stroke-linejoin="round" stroke-width="0.5"><title>2026-03-21 5.9km</title><desc>17833902373</desc></polyline><polyline fill="none" points="88.40975609747693,102.44342716888059 88.49756097560748,103.15519858838525 88.54146341467276,104.6261904334533 88.9365853657946,106.47678844095208 89.02439024392515,107.28345775051275 88.8048780488316,111.1269862743211 88.71707317070104,111.50659282074776 88.49756097560748,111.7438468018081 86.47804878070019,112.69286187703256 85.51219512196258,113.02501683239825 80.55121951224282,113.59442494018003 77.08292682934552,113.8791288107168 76.02926829271019,114.1163819427602 75.89756097551435,114.16383255895926 75.80975609761663,114.30618438724196 75.59024390252307,115.82460198691115 75.8536585366819,118.48182441812241 75.80975609761663,119.33592936652713 75.98536585364491,120.66453487670515 75.8536585366819,121.37628673348809 75.5463414634578,122.13548787188483 75.41463414626196,122.6574381501996 76.24878048780374,122.70488815516 76.29268292686902,123.51153771934332 76.16097560967319,124.88758471084293 76.16097560967319,126.35852833685931 76.81951219518669,128.54121286491863 77.17073170724325,129.1580571901868 77.30243902443908,129.63255243457388 77.6097560976632,130.01214838551823 76.86341463425197,130.24939574452583 75.01951219514012,130.48664301860845 74.18536585359834,130.67644077673322 73.13170731719583,131.7677768319263 73.0,132.00502356287325 73.0,132.1948208863032 73.13170731719583,132.52696607180405 74.53658536588773,133.8080959430663 74.84390243911184,133.99789275048533 75.5463414634578,134.04534194385633 76.24878048780374,134.2825878597214 77.08292682934552,135.18412156612612 78.83902439032681,136.56014433369273 79.23414634144865,136.7499403534457 79.58536585373804,136.7499403534457 80.68292682920583,136.41779728326946 82.43902439018711,136.27545020234538 83.93170731700957,136.32289923267672 84.59024390252307,136.46524630347267 84.89756097574718,136.46524630347267 86.30243902443908,136.18055213120533 88.58536585373804,135.42136707465397 89.55121951224282,135.37391797965392 90.16585365845822,135.18412156612612 90.78048780490644,135.23157067451393 91.17560975602828,135.08922333887313 91.52682926831767,135.18412156612612 92.09756097570062,135.5637143389904 93.50243902439252,136.93973631883273 94.02926829271019,137.1769811991835 95.2585365853738,137.08208325720625 96.18048780481331,136.79738934984198 97.71707317070104,136.51269532035803 98.77073170733638,136.2280011685216 100.08780487813056,136.2280011685216 100.57073170738295,136.08565404679393 101.31707317079417,135.5162652541767 102.54634146322496,134.2825878597214 102.8536585366819,133.85554514994146 103.95121951214969,132.8591110909474 104.65365853649564,132.38461815560004 105.39999999990687,131.24583372531924 105.57560975616798,130.8187890597619 105.7951219510287,129.82235043717083 106.23414634144865,128.4937632777146 106.3219512195792,127.68711977492785 106.19024390238337,126.92792499350617 106.23414634144865,126.16872934269486 106.36585365864448,125.55188223643927 106.62926829280332,125.07738407183206 107.06829268299043,124.69778529560426 107.94634146336466,124.12838672392536 111.5463414634578,121.13903619948542 116.19999999995343,116.72616079123691 119.88780487817712,113.64187559380662 121.02926829294302,112.55050970241427 121.86341463425197,111.60149442328839 123.31219512200914,110.2728707503993 125.33170731691644,108.70698943169555 126.3853658537846,107.66306649771286 127.0,107.14110441424418 126.82439024373889,106.9987510474748 126.64878048794344,106.9987510474748 126.47317073168233,107.94777291541686 126.2097560975235,108.56463640113361 125.33170731691644,109.60855791537324 123.13658536598086,111.17443710460793 120.89756097551435,113.02501683239825 119.44878048775718,114.40108558908105 115.40975609747693,117.81751980882837 114.44390243897215,118.8139764732332 113.30243902420625,119.71553121251054 112.51219512219541,120.56963457143866 111.01951219537295,121.80333748087287 110.14146341453306,122.60998814186314 108.73658536584117,124.27073641272727 107.85853658546694,125.55188223643927 107.28780487808399,127.1651734560146 106.62926829280332,129.5376534127863 106.23414634144865,130.29684520605952 104.65365853649564,132.3371688433108 101.05365853640251,136.56014433369273 100.61463414644822,136.93973631883273 100.08780487813056,137.08208325720625 97.62926829257049,137.22443016502075 94.20487804873846,137.55657283117762 93.59024390252307,137.5091238890891 93.23902439046651,137.31932808662532 91.74634146364406,135.89585783693474 91.39512195135467,135.27901977970032 91.04390243906528,134.8994268438546 91.08780487813056,134.5198336907779 90.42926829261705,134.23513868334703 90.0780487805605,133.8080959430663 89.77073170733638,133.0489081699634 89.77073170733638,132.71676324598957 90.12195121939294,130.8187890597619 90.34146341471933,130.53409246332012" stroke="#4dd2ff" stroke-linecap="round" stroke-linejoin="round" stroke-width="0.5"><title>2026-03-12 4.1km</title><desc>17691059793</desc></polyline><polyline fill="none" points="133.37543453043327,94.94348925276427 133.62572421738878,96.36373293364886 133.6882966393605,98.18975738622248 133.62572421738878,100.48919056565501 133.2502896869555,102.38283721753396 133.62572421738878,107.1845670711482 133.75086906109937,113.67700807086658 133.3128621086944,122.94218515936518 133.37543453043327,126.3236140240333 133.12514484324493,127.40566870529437 133.0,128.21720890305005 133.12514484324493,128.8934918687446 133.56315179611556,130.04317179997452 134.1263035919983,130.92233786225552 135.00231749704108,131.66624696855433 136.4414831979666,132.34252746606944 136.3789107762277,132.88355151575524 135.9409038235899,133.01880747964606 135.6280417146627,133.69508700922597 135.44032444944605,134.57424967421684 135.37775202770717,135.65629490837455 135.56546929269098,136.7383389035822 136.7543453068938,140.11971840343904 137.00463499384932,141.81040361634223 137.1923522592988,142.21616761747282 137.94322132063098,142.9600678337738 139.82039397442713,144.0421034664614 141.0092699881643,143.97447627579095 143.19930475065485,143.70396746433107 147.39165701018646,142.6219314444461 149.70683661615476,142.55430415202864 150.83314020838588,141.94565830286592 154.65005793701857,139.10530582384672 155.21320973313414,138.63191291398834 155.7763615292497,137.68512638297398 156.15179606014863,135.65629490837455 157.46581691759638,133.15406342432834 157.7161066045519,132.00438727793517 157.90382387000136,129.29926141595934 158.02896871371195,128.8934918687446 159.28041714942083,127.06752675032476 160.46929316339083,125.917843199044 162.28389339498244,123.55084324796917 163.15990730002522,122.87455645867158 165.9130938583985,121.25146618951112 166.85168018518016,120.57517775456654 167.8528389337007,119.69600206555333 169.79258400923572,117.39661562693072 175.98725376604125,112.18916094861925 181.49362688302062,106.9140477280016 182.61993047501892,106.17011913523311 183.68366164551117,105.0880401362665 185.49826187710278,103.73543964495184 186.74971031281166,102.38283721753396 186.87485515652224,102.38283721753396 187.0,102.85624828742584 186.87485515652224,103.19439890637295 186.37427578214556,104.00595989823341 185.3105446116533,105.15567011001986 184.18424101965502,106.10248923389008 181.806488991715,107.59034594055265 180.17960602534004,108.87531121092616 177.8644264191389,111.17471838567872 175.73696407862008,112.86545538553037 174.04750869050622,114.69144794729073 171.10660486645065,116.99084096879233 164.035921205068,123.34795726201264 162.90961761283688,124.90341537457425 161.34530706820078,126.52649937110255 160.78215527208522,127.40566870529437 159.53070683637634,130.51656901213573 158.59212050959468,133.28931934951106 157.90382387000136,134.70950539631303 152.39745075302199,141.40463944117073 149.76940903812647,144.31261218106374 146.9536500577815,144.5154936662293 146.45307068363763,144.65074796555564 142.8864426414948,144.7860022454406 141.07184240990318,145.05651074717753 140.32097334880382,144.9888836289174 138.56894553848542,143.83922187966527 137.44264194648713,142.8248132924782 137.1923522592988,142.41904955275822 137.1923522592988,141.94565830286592 136.7543453068938,140.99887509155087 135.50289687118493,140.05209093197482 135.12746234051883,139.64632600161713 134.87717265309766,138.7671680553467 135.06488991854712,135.99443378986325" stroke="#4dd2ff" stroke-linecap="round" stroke-linejoin="round" stroke-width="0.5"><title>2026-03-10 3.2km</title><desc>17665858677</desc></polyline><polyline fill="none" points="13.0,170.36226932879072 13.828644501511008,169.79684524936602 14.289002557750791,169.59123635926517 15.209718670230359,169.53983412572416 15.485933504067361,169.59123635926517 15.624040920753032,169.69404081330867 15.992327366024256,170.41367149120197 16.268542199395597,171.39031172846444 17.235294117825106,172.3669503570418 17.78772378526628,173.34358737710863 18.340153452707455,174.73143721721135 19.07672634278424,175.60526693152497 19.629156010458246,176.68470185942715 19.99744245526381,176.99311147799017 20.595907928422093,177.19871780119138 21.056265984894708,177.14731622702675 21.884910486172885,176.8389066886739 22.39130434812978,176.47909535799408 23.219948849175125,176.11928380886093 24.232736573088914,175.29685659118695 24.87723785173148,174.9370443247608 25.567774936323985,174.73143721721135 26.21227621496655,174.73143721721135 26.718670076923445,174.98844609037042 27.777493606321514,175.91367711155908 28.191815856844187,176.53049699007533 28.56010230188258,177.19871780119138 29.94117647060193,179.10057291091653 30.263427110156044,179.71738947427366 31.920716112479568,178.43235424306476 32.841432225191966,177.96974087820854 33.80818414315581,177.30152093607467 37.35294117662124,175.39966005581664 38.04347826121375,174.88564255461097 38.3657289003022,174.78283900086535 38.872122762259096,175.8108737358707 39.19437340181321,176.11928380886093 39.42455242970027,176.0678821413312 40.20716112526134,175.50246350257657 40.39130434789695,175.4510617813212 40.66751918173395,175.55386521940818 41.219948848942295,176.0678821413312 42.554987212177366,178.22674834774807 42.78516624076292,179.049171501596 42.83120204601437,180.02579751540907 43.06138107413426,181.20802685362287 43.24552429676987,181.77344005170744 43.383631713688374,181.92764355771942 43.79795396421105,182.28745158220408 44.94884910504334,182.75006157858297 45.68542199512012,182.75006157858297 46.099744245642796,182.85286375094438 46.83631713571958,183.41827538079815 48.81585677759722,185.62851566937752 49.36828644503839,185.83411899831844 50.56521739135496,186.14252385811415 51.854219948872924,186.7593330963864 53.281329923309386,188.1471515368321 55.26086956518702,190.51157547323965 55.537084399024025,190.66577670676634 55.8132992326282,190.71717710915254 57.47058823541738,190.35737419960788 58.20716112526134,190.04897153179627 58.80562659865245,189.89477013784926 61.475703324889764,189.74056870368076 65.02046035812236,188.86675981985172 66.40153452684171,188.81535925721982 66.76982097188011,188.60975696175592 66.95396419428289,188.24995277350536 66.95396419428289,187.73594641155796 66.67774936067872,186.6565316010965 66.5856777492445,185.93692063592607 66.63171355519444,184.2406913341256 66.53964194352739,183.8808844948653 66.30946291564032,183.46967641124502 65.11253196932375,182.85286375094438 63.915601022774354,182.0818470234517 62.21227621473372,181.31082929339027 60.69309462909587,180.8482181741274 59.54219948849641,180.12860016018385 57.930946291657165,178.5865586180007 57.10230179014616,177.14731622702675 55.90537084406242,175.34825832565548 55.07672634278424,173.9090080744936 54.66240409202874,173.4463911804487 54.248081841506064,173.24078355601523 53.78772378526628,173.18938163883286 52.86700767255388,173.60059685184387 51.900255754590034,174.83424077986274 51.53196930955164,175.09124960849294 50.795396419474855,174.88564255461097 49.32225063932128,173.85760621528607 48.723785166163,173.24078355601523 48.03324808203615,172.21274436480599 47.80306905368343,172.0585383324069 47.57289002556354,172.1099403477856 46.97442455240525,172.52115630934713 45.77749360608868,173.08657779102214 45.13299232744612,173.5491949658026 44.99488491052762,173.70340061053867 44.99488491052762,173.9090080744936 45.13299232744612,174.32022278837394 45.54731457796879,174.88564255461097 45.63938618940301,176.63330024085008 45.50127877248451,177.60993023373885 44.94884910504334,179.25477711186977 44.39641943736933,180.23140278708888 44.12020460353233,180.59121184085961 43.475703324889764,180.7968169162632 43.29156010225415,181.00242192065343 43.29156010225415,181.31082929339027 43.475703324889764,181.82484122476308 44.02813299233094,182.28745158220408 44.672634271206334,182.5444571802509 46.23785166232847,182.80146266700467 46.65217391308397,183.0070669762208 47.342710997443646,183.67528048873646 48.81585677759722,185.52571397810243 49.32225063932128,185.83411899831844 50.28900255751796,186.24532544228714 51.30179028143175,186.6051308469032 51.71611253195442,186.81073383725015 52.9590792839881,187.73594641155796 54.80051150894724,189.94617060694145 55.35294117638841,190.4601750531583 55.629156010458246,190.61437630007276 56.59590792842209,190.71717710915254 57.24040920706466,190.61437630007276 58.43734015338123,190.25457332812948 59.68030690541491,190.04897153179627 61.24552429676987,190.04897153179627 62.35038363165222,189.6377677253331 63.36317135556601,189.12376256642165 64.42199488496408,189.02096148114651 65.29667519195937,188.81535925721982 66.53964194352739,188.76395868998952 66.8618925830815,188.50695578748127 66.95396419428289,188.1471515368321 67.0,187.73594641155796 66.63171355519444,186.5023293250706 66.5856777492445,184.1892903705011 66.447570332326,183.77808250073576 65.80306905368343,183.16127016127575 63.1790281329304,181.77344005170744 60.554987212177366,180.7968169162632 59.58823529398069,180.23140278708888 58.85166240413673,179.35757989040576 57.60869565210305,178.17534686269937 57.14833759586327,177.45572560484288 56.59590792842209,176.37629208056023 55.537084399024025,174.83424077986274 54.20204603578895,172.67536222137278 53.46547314571217,171.6987241008319 52.49872122751549,170.0538562614238 52.22250639391132,169.43702964525437 52.084398976992816,169.28282289078925 51.808184143388644,169.38562739820918 50.38107416871935,170.36226932879072 48.8618925830815,171.1333012956893 48.539641943760216,171.1333012956893 48.263427110156044,171.03049709129846 47.98721227631904,170.51647580234567 47.52685422007926,170.15666063508252 46.65217391308397,170.41367149120197 44.94884910504334,171.2361054822104 42.96930946293287,172.46975432982435 42.508951406693086,173.08657779102214 40.66751918173395,174.01181177975377 39.37851662398316,174.88564255461097 37.39897698210552,175.91367711155908 36.70843989797868,176.37629208056023 34.6828644501511,177.35292249673512 31.552429667674005,179.30617850337876 30.033248082036152,180.12860016018385 29.480818414362147,180.5398105608765 28.65217391308397,180.8482181741274 27.823529411805794,180.9510206762934 26.902813299559057,181.3622305066092 26.25831202045083,181.82484122476308 25.245524296769872,182.85286375094438 23.95652173925191,183.5210774372099 23.496163682779297,183.46967641124502 23.127877237973735,183.05846804234898 22.989769821055233,182.33885271067265 22.851662404136732,181.82484122476308 22.34526854241267,181.05382316053146 21.700767263537273,180.4370079872897 21.19437340181321,179.20337571605342 20.595907928422093,178.22674834774807 19.491048593539745,178.02114238101058 19.03069053706713,177.8155363429687 18.70843989797868,177.8155363429687 17.005115089705214,178.63796006742632 16.222506394144148,179.20337571605342 15.209718670230359,179.6659881186788" stroke="#4dd2ff" stroke-linecap="round" stroke-linejoin="round" stroke-width="0.5"><title>2026-02-24 4.7km</title><desc>17506081930</desc></polyline><polyline fill="none" points="73.0,176.6421270580613 73.31658291444182,176.23814935149858 75.21608040179126,174.62223572307266 76.30150753771886,174.21825661550974 77.34170854277909,173.713282337063 78.06532663293183,173.51129250309896 79.06030150759034,173.4102975599235 79.46733668330126,172.95582009886857 79.69346733670682,172.90532258123858 79.9648241205141,172.90532258123858 80.59798994963057,173.15781012526713 81.27638190961443,173.25880511238938 81.95477386936545,172.75383000227157 83.22110552759841,172.24885445443215 83.98994974861853,171.79437608696753 84.93969849240966,171.49139031174127 85.84422110556625,170.98641366953962 86.29648241191171,170.83492059161654 86.70351758785546,170.83492059161654 87.1105527637992,170.93591598130297 87.42713567824103,171.1884043790633 88.06030150712468,171.9458689155872 88.69346733670682,172.3498495988897 89.23618090432137,173.10731262521585 89.5979899498634,174.1172617948032 90.1859296481125,174.31925141863758 90.59296482405625,174.925219869765 90.77386934659444,175.02621455019107 91.99497487419285,174.4202462041867 93.57788944710046,173.30930259928573 95.70351758785546,172.29935202893103 96.51758793951012,171.99636651633773 98.41708542709239,170.88541828870075 98.68844221089967,170.83492059161654 99.05025125597604,170.93591598130297 99.32160804024898,171.44089266727678 99.77386934659444,171.8448737009894 100.54271356784739,171.3903950183303 100.94974874379113,171.33989736513468 101.4020100501366,171.6428832191741 101.80904522608034,172.04686411260627 102.75879396987148,173.61228742892854 102.98492462281138,174.4202462041867 103.12060301494785,175.98566314240452 103.30150753748603,176.79361862590304 103.5276381908916,177.2480930929305 103.79899497446604,177.60157298884587 104.3869346731808,177.90455558593385 104.88442211039364,178.1065438965452 106.69346733647399,178.2075380256283 107.19095477368683,178.4095262310584 107.59798994963057,178.86399943754077 108.50251256255433,180.0759262542706 109.76884422078729,181.38884412741754 110.71859296481125,181.74232151074102 111.53266331646591,181.8938117523212 112.43718592938967,182.3482822404476 114.2010050250683,184.57013285631547 115.01507537672296,185.4790693022078 115.69346733647399,185.98403338168282 116.28140703518875,186.08502614498138 118.85929648228921,185.68105498654768 119.22110552759841,185.78204780246597 119.31155778863467,185.88304060086375 119.4020100501366,186.13552252016962 119.17587939696386,186.69098235754063 118.9497487435583,186.84247131214943 118.27135678357445,187.09495281567797 117.72864321595989,187.44842673675157 117.2763819093816,187.95338910922874 117.14070351747796,188.30686250969302 117.09547738684341,188.86232027667575 117.77386934659444,192.95249298133422 117.99999999976717,193.4574505830533 118.3618090453092,193.96240774722537 118.72361809038557,194.16439049021574 119.35678391950205,194.3158775016782 120.0351758794859,194.16439049021574 120.48743718583137,193.81092064385302 120.7135678390041,193.60893777827732 120.89447236177512,193.10398030775832 120.98492462281138,192.59902239969233 120.84924623090774,191.79108883620938 120.39698492456228,189.82174608157948 120.12562814052217,188.25636632269016 119.89949748734944,187.75140421278775 119.58291457267478,187.34743420989253 119.26633165800013,187.14544910332188 118.81407035165466,186.99396022746805 118.13567839167081,187.0444565237849 117.72864321595989,187.24644166533835 117.23115577851422,187.75140421278775 117.05025125597604,188.30686250969302 117.00502512534149,188.6098395391018 117.05025125597604,189.67025790177286 117.36683417065069,192.59902239969233 117.63819095445797,193.4069548426196 118.13567839167081,194.01290343963774 118.63316582888365,194.36637316341512 119.49246231117286,194.41686882072827 119.80904522584751,194.3158775016782 120.57788944686763,193.81092064385302 121.03015075344592,193.25546759489225 121.03015075344592,192.59902239969233 120.84924623090774,191.43761754990555 120.7135678390041,189.82174608157948 120.57788944686763,189.31678532861406 120.39698492456228,188.96331254113466 120.26130653265864,188.20587013132172 120.0351758794859,187.70090797776356 119.85427135671489,187.44842673675157 119.13065326609649,187.09495281567797 118.72361809038557,186.94346392672742 118.2261306529399,186.99396022746805 117.63819095445797,187.29693793988554 117.14070351747796,187.90289289160864 116.95979899470694,188.25636632269016 116.91457286430523,188.76132799475454 117.32160804024898,191.94257646478945 117.59296482405625,193.20497183687985 117.77386934659444,193.5079463191796 118.3618090453092,194.0633991275099 119.08542713546194,194.41686882072827 119.44723618077114,194.51786012225784 120.0351758794859,194.2653818356921 120.53266331646591,193.86141634942032 120.75879396963865,193.55844205105677 120.93969849217683,192.95249298133422 120.39698492456228,189.67025790177286 119.89949748734944,187.95338910922874 119.62814070354216,187.59991549456026 119.26633165800013,187.29693793988554 118.72361809038557,187.09495281567797 118.13567839167081,187.0444565237849 117.68341708532535,187.1959453864838 117.41206030128524,187.49892299377825 117.14070351747796,187.95338910922874 117.05025125597604,188.66033569542924 117.36683417065069,191.23563386156457 117.77386934659444,193.30596334853908 118.09045226126909,193.76042493403656 118.72361809038557,194.16439049021574 119.26633165800013,194.2653818356921 120.0351758794859,194.11389481107472 120.30653266306035,193.96240774722537 120.7135678390041,193.5079463191796 120.98492462281138,192.95249298133422 121.03015075344592,192.54852658486925 120.66834170836955,190.47819440613966 120.53266331646591,188.76132799475454 120.12562814052217,187.49892299377825 119.94472361775115,187.34743420989253 119.08542713546194,186.89296762167942 118.2261306529399,186.84247131214943 117.77386934659444,186.99396022746805 117.32160804024898,187.34743420989253 116.91457286430523,187.95338910922874 116.8241206028033,188.40785487025278 116.8241206028033,190.02373026037822 117.32160804024898,193.0029887612327 117.50251256255433,193.4069548426196 117.99999999976717,194.11389481107472 118.2261306529399,194.3158775016782 118.6783919595182,194.46736447361764 119.26633165800013,194.46736447361764 120.12562814052217,194.2653818356921 120.53266331646591,193.96240774722537 120.84924623090774,193.60893777827732 121.03015075344592,193.20497183687985 121.16582914558239,192.59902239969233 120.66834170836955,189.97323422215413 120.48743718583137,188.66033569542924 120.30653266306035,188.05438153125579 120.08040200988762,187.54941924626473 119.67336683394387,187.1959453864838 119.26633165800013,186.99396022746805 118.76884422102012,186.89296762167942 118.13567839167081,186.89296762167942 117.68341708532535,187.0444565237849 117.14070351747796,187.44842673675157 117.05025125597604,187.59991549456026 116.91457286430523,188.30686250969302 116.8241206028033,188.96331254113466 117.00502512534149,190.2257143688621 117.72864321595989,193.25546759489225 117.8643216076307,193.55844205105677 118.2261306529399,193.96240774722537 118.6783919595182,194.2148861651076 118.99497487419285,194.3158775016782 119.53768844204023,194.3158775016782 120.26130653265864,194.01290343963774 120.80402010027319,193.55844205105677 121.0753768843133,192.90199719712837 121.03015075344592,191.84158471680712 120.21608040179126,188.25636632269016 119.7638190954458,187.54941924626473 119.31155778863467,187.1959453864838 118.81407035165466,186.94346392672742 118.3618090453092,186.89296762167942 117.72864321595989,187.0444565237849 117.32160804024898,187.39793047553394 117.05025125597604,187.8523966697394 116.95979899470694,188.50884721340844 117.09547738684341,190.3267063969397 117.2763819093816,191.53860936802812 117.41206030128524,191.99307233223226 117.5477386934217,193.0029887612327 117.68341708532535,193.4574505830533 118.04522613040172,193.96240774722537 118.85929648228921,194.36637316341512 119.94472361775115,194.3158775016782 120.89447236177512,193.60893777827732 121.0753768843133,193.35645909776213 121.21105527598411,192.85150140844053 120.89447236177512,191.48811346123694 120.75879396963865,190.4276984074968 120.66834170836955,189.97323422215413 120.57788944686763,189.01380866678664 120.39698492456228,188.05438153125579 120.21608040179126,187.650411738432 119.62814070354216,187.0444565237849 119.31155778863467,186.53949336346705 119.26633165800013,186.18601889087586 119.31155778863467,185.83254420378944 119.67336683394387,185.68105498654768 120.98492462281138,185.4285728702671 121.84422110510059,185.12559418624733 122.8391959797591,184.87311182921985 123.65326633141376,184.62062936276197 126.23115577874705,184.2166571887792 126.59296482405625,183.96417443780228 127.0,183.30771877319785 126.95477386913262,182.75225570995826 126.59296482405625,181.28785054991022 126.59296482405625,179.92443554016063 126.50251256255433,179.52046010969207 126.32160804001614,179.21747835283168 125.59798994963057,178.7125084080617 124.6030150752049,178.258035083476 123.74371859268285,177.75306430703495 120.89447236177512,176.5916298601078 119.53768844204023,175.83417136454955 118.6783919595182,175.1272092133877 117.50251256255433,173.61228742892854 116.77889447216876,171.8448737009894 116.19095477368683,171.13790670817252 115.64824120607227,169.92596129595768 115.24120603012852,169.3704854727257 114.60804020077921,168.0070425697486 113.88442211039364,167.19907489902107 113.56783919595182,167.1485768823186 113.34170854254626,166.94658477196936 112.43718592938967,165.83562691346742 112.03015075367875,165.48213987774216 111.48743718583137,165.7851287785452 110.94472361798398,165.98712129163323 109.81407035165466,166.7950906433398 107.64321608026512,167.75455279287416 105.6984924620483,168.86550699191866 104.88442211039364,169.4209832966444 104.43216080404818,169.5724767424981 102.39698492456228,170.78442289010854 101.80904522608034,170.98641366953962 101.44723618077114,171.0369113534689 101.08542713546194,170.32994338020217 100.72361809038557,169.97645907185506 99.77386934659444,170.48143658967456 99.32160804024898,170.58243204065366 98.68844221089967,171.13790670817252 97.87437185901217,171.44089266727678 96.74371859268285,172.14785929227946 93.93969849240966,173.56178996822564 93.2613065324258,174.1172617948032 92.3115577888675,174.57173834985588 91.5879396982491,175.27870117523707 90.72864321595989,175.83417136454955 90.36683417088352,176.03616039291956 89.64321608026512,176.03616039291956 88.2412060298957,176.6421270580613 87.02010050229728,177.39958450308768 85.12060301494785,178.35902918630745 84.39698492456228,178.91449643846136 84.26130653265864,178.91449643846136 84.08040200988762,178.76300542225363 83.80904522584751,178.258035083476 83.58291457267478,178.00554974999977 83.58291457267478,177.65207009931328 83.26633165823296,177.09660164336674 83.13065326632932,176.69262425170746 82.0,175.22820385894738 81.45728643215261,174.01626695663435 81.27638190961443,173.915272100945 80.6884422111325,174.1172617948032 80.14572864305228,173.81427722773515 79.64824120607227,174.06676437787246" stroke="#ff9d00" stroke-linecap="round" stroke-linejoin="round" stroke-width="0.5"><title>2026-02-23 6.0km</title><desc>17493745395</desc></polyline><polyline fill="none" points="133.0,204.49912000191398 133.05875952122733,204.88016054863692 133.23503808490932,204.94366727457964 133.4994559303159,204.88016054863692 133.85201305756345,204.59438016923377 134.08705114235636,203.99106543062953 134.58650707278866,203.2607359653921 135.0565832426073,202.27637695797603 135.1447225244483,202.0223484725284 135.2328618062893,201.482537458156 135.40914036985487,201.00623307644855 136.08487486385275,199.92660791857634 137.26006528828293,198.62470349881914 138.5233949945541,197.67208808849682 139.49292709468864,196.84648641187232 140.55059847643133,195.70334309255122 142.93035908590537,193.73458936047973 144.01741022849455,192.68670074705733 144.92818280740175,191.95635267402395 145.48639825882856,191.35302075036452 146.48531011969317,190.46389852516586 147.13166485296097,190.05109117203392 148.07181719259825,188.97143935557688 148.27747551677749,188.62213967589196 148.36561479861848,188.1458214877348 148.45375408045948,187.95529406925198 148.65941240475513,187.73301197760156 148.80631120782346,187.6695027880487 148.89445048954803,187.6695027880487 149.27638737752568,187.44722055320744 149.335146898753,187.28844746015966 149.18824809568468,186.71686385464272 149.18824809568468,185.60544917994412 149.4232861804776,184.49403172082384 149.45266594120767,183.92244451469742 149.30576713825576,183.79542503558332 149.51142546231858,183.66840551997302 150.21653971704654,183.6048957486346 151.18607181706466,183.35085657206946 152.86071817181073,183.192082012858 153.4776931446977,183.192082012858 153.8008705113316,183.47787617857102 154.3003264417639,183.66840551997302 154.41784548421856,183.6048957486346 154.32970620237757,183.38261147710728 154.3884657236049,183.31910166479065 155.24047878128476,183.28734675521264 155.534276387305,182.77926789296907 155.50489662680775,182.6204931292159 155.56365614791866,181.9536385006504 155.534276387305,181.50906819140073 155.622415669146,181.19151769770542 155.68117519037332,180.4293955853209 155.79869423282798,180.14359945559409 155.65179542975966,180.17535459029023 158.20783460279927,179.6037618193077 158.11969532095827,179.6037618193077 158.2665941240266,179.4132307319378 158.3547334058676,179.4132307319378 158.61915125127416,180.20710972254165 158.7660500544589,181.2867828696908 158.9129488574108,181.66784335300326 159.67682263324969,182.81102283889777 160.3231773666339,183.6366506354825 160.76387377583887,184.04946395743173 161.02829162136186,184.39876723760972 161.29270946676843,184.4622768953268 161.5571273122914,184.36701240530238 161.70402611524332,184.4622768953268 162.20348204567563,183.70016040233895 163.0554951033555,182.81102283889777 164.49510337307584,182.6204931292159 164.99455930350814,182.5887381696084 165.14145810657647,182.7157579943305 165.22959738841746,182.90628766309237 165.72905331873335,183.4461212803435 166.28726877039298,184.49403172082384 166.55168661591597,184.8750894490222 166.66920565837063,185.28790161863435 166.55168661591597,185.60544917994412 166.31664853100665,185.82773233760963 165.67029379750602,186.17703421751503 165.6115342763951,186.2405436207191 166.110990206711,186.65335451959982 166.3460282915039,186.71686385464272 167.28618063102476,186.30405301478459 168.37323177361395,185.66895866495906 169.5778019586578,185.19263730585226 171.5462459194241,184.2082382098597 172.39825897710398,183.6366506354825 173.2796517952811,182.87453272397397 174.57236126216594,181.9853935057472 175.1011969532119,181.76310842265957 176.2763873776421,181.69959837847273 176.77584330795798,181.5408232282498 177.45157780207228,181.25502781462274 178.36235038086306,180.55641602832475 178.77366702933796,180.30237510596635 178.94994559301995,179.7942928247503 179.03808487486094,179.69902733230265 179.4787812838331,179.6037618193077 180.15451577794738,179.95306860012352 180.41893362347037,180.0483340380888 180.68335146899335,180.01657889439957 180.94776931451634,179.85780314181466 181.3884657236049,179.44498591890442 181.53536452667322,179.03216831185273 181.65288356912788,178.90514743237873 181.77040261146612,178.90514743237873 182.09357997821644,179.00041309540393 182.8574537540553,178.39706355080125 183.32752992375754,177.8572237888875 183.5919477691641,177.44440470411791 183.8563656146871,177.25387268935447 184.32644178450573,176.74578691628994 184.4439608269604,176.45998841317487 184.4439608269604,175.79312452315935 184.0914036995964,174.45939373524743 184.0914036995964,174.17359375898377 184.82589771482162,171.02978186513064 185.11969532095827,169.34672189498087 185.5897714907769,167.1873148434097 185.88356909679715,166.13936351437587 186.05984766047914,165.85355817666277 186.17736670281738,165.40897172974655 186.0892274210928,164.26574739121133 186.14798694232013,163.56710884469794 185.94232861802448,162.2968541221344 186.0010881392518,161.66172539643594 185.79542981495615,161.24889123695903 186.03046789986547,160.16916931059677 186.03046789986547,159.85160353782703 185.97170837863814,159.53403753763996 185.85418933618348,159.31174120222568 185.41349292709492,158.83539153676247 185.11969532095827,158.6448515272641 183.6213275298942,158.00971757119987 182.8574537540553,157.5651232607197 182.3873775843531,157.18404206828563 182.1229597388301,156.92998775810702 181.7997823721962,156.48539236510987 181.18280739930924,155.342145021772 181.09466811746825,155.11984658497386 181.12404787819833,155.05633272542036 181.3884657236049,155.11984658497386 182.0348204569891,155.69147091158084 183.56256800866686,156.739446929947 185.5897714907769,158.2955279640446 186.55930359091144,159.18471467471682 186.91186071827542,159.66106396497344 187.0,159.88336012529908 187.0,160.2961955559731 186.79434167570435,161.69348185425042 186.70620239386335,162.83671282374416 186.0010881392518,165.37721553794108 185.88356909679715,165.94882664302713 185.70729053311516,167.1873148434097 184.94341675727628,170.3311539735878 184.5908596299123,172.10947735107038" stroke="#4dd2ff" stroke-linecap="round" stroke-linejoin="round" stroke-width="0.5"><title>2026-01-03 4.3km</title><desc>17507819708</desc></polyline><polyline fill="none" points="20.490881775447633,228.609629648985 20.54868657013867,228.59289986437943 20.63539376220433,228.64308921319025 20.77990574913565,228.62635943193163 20.996673729387112,228.59289986437943 21.28569770307513,228.47579132429382 21.73368486232357,228.4088721210428 22.644110379449558,228.2081143478281 23.699047883448657,227.94043693537242 23.84355987032177,227.94043693537242 24.04587665188592,228.00735632931173 24.6817293940112,228.4088721210428 24.884046175633557,228.57617007802764 24.956302169011906,228.67654877048335 25.01410696381936,228.91076548112324 25.11526535457233,229.94800690149714 25.12971655325964,230.53354352209135 25.173070149321575,230.68410974442668 25.21642374538351,230.78448714938713 25.303130937507376,230.85140538529959 25.56325251387898,230.98524177538638 26.19910525600426,231.1525371096941 27.066177177010104,231.20272567681968 28.43904105213005,231.20272567681968 28.684711429756135,231.21945519575092 29.04599139688071,231.3198322737444 29.219405781128444,231.33656178075762 30.274343285069335,231.1358075839089 30.809037636383437,230.9183235939854 31.661658358818386,230.8179462707485 32.22525510756532,230.65065059585322 32.58653507463168,230.4666251567396 32.716595862817485,230.34951795185043 35.606835599814076,227.52219010551926 35.83805477875285,227.27124149663723 36.09817635512445,226.90318284381647 36.70512669987511,226.38455334289756 36.965248276188504,226.13360299679334 37.615552217001095,225.23017857769446 37.846771395998076,224.84538518717454 38.19360016443534,224.46059089568735 38.36701454868307,224.17617714454536 39.118476880248636,223.20582064188784 39.436403251311276,222.72064024167776 40.33237756974995,221.48258721163438 40.53469435137231,221.16470722590748 40.80926712631481,220.77990431524813 41.08383990143193,220.37836988238269 41.96536302118329,219.24068366069696 42.32664298824966,218.8726070200646 42.47115497512277,218.63837600125407 43.150361313368194,217.76837215090927 43.33822689624503,217.46721589862136 43.54054367780918,217.28317569493083 43.75731165811885,217.03221144863346 43.8295676514972,216.88163271684607 44.29200600943295,216.2123922392202 44.422066797618754,216.14546804151905 44.68218837393215,216.0785438165476 45.21688272530446,215.86103989722324 46.9943801634945,215.0077525099914 47.847000885987654,214.75678478798363 48.1793784556794,214.60620397080493 48.84413359523751,214.37196686968673 49.335474350547884,214.17119194590487 49.55224233074114,214.05407312697207 49.98577829130227,213.90349166576925 51.243032576923724,213.60232832920155 51.35864216636401,213.5186717488541 51.63321494142292,213.23423905709933 51.90778771636542,213.06692547895364 52.22571408748627,213.0 52.35577487561386,213.01673137227772 52.413579670363106,213.06692547895364 52.63034765061457,213.60232832920155 52.77485963748768,214.22138569984236 52.948274021735415,214.68985999737924 53.04943241243018,215.442762319959 53.165042001986876,216.0785438165476 53.20839559804881,216.71432285297487 53.280651591485366,217.09913528514153 53.30955398880178,217.60106319002807 53.280651591485366,217.66798679484054 53.25174919416895,217.70144858697313 53.00607881642645,217.76837215090927 52.96272522036452,217.81856480597344 52.97717641905183,217.86875744565623 53.12168840598315,218.03606613395095 53.5985779624898,218.42087547056144 53.7286387506756,218.63837600125407 54.017662724421825,218.7052991835517 54.24888190330239,218.88933779437502 54.61016187054338,219.34106805596093 54.95699063886423,219.8764504614519 55.4483313941746,220.52894540970738 56.05528173892526,221.59970073554723 56.19979372579837,221.9008494138252 56.546622494235635,222.40276265106513 56.74893927585799,222.77083138404123 57.2836336272303,223.59061787161045 57.399243216670584,223.87503263626422 57.529304004856385,223.97541420033667 57.87613277323544,224.51078150652756 57.99174236273393,224.56097210208827 58.150705548294354,224.5777022971888 58.39637592592044,224.47732110098877 58.52643671410624,224.46059089568735 58.61314390611369,224.51078150652756 58.685399899608456,224.59443249055767 58.685399899608456,224.67808343206707 58.656497502175625,224.76173433091026 58.46863191929879,224.92903600088903 58.367473528545815,225.06287721425178 58.324119932425674,225.1799881865154 58.33857113117119,225.3305593139812 58.49753431667341,225.64843124101753 58.69985109823756,225.9328424439882 59.090033462736756,226.56858335316065 59.6825326088001,227.7229487166769 59.88484939048067,228.2415739936987 59.92820298648439,228.5259807088587 59.870398191793356,229.21190076148196 59.98600778123364,229.81416966670076 59.98600778123364,230.09857366033248 59.942654185171705,230.33278834434168 59.8125933969859,230.65065059585322 59.69698380754562,230.76775758621807 58.33857113117119,231.57077470044896 58.251863939047325,231.63769261620473 57.84723037586082,231.721339972617 57.717169587733224,231.82171674401616 57.5437552035437,232.0893878348288 57.00906085217139,233.1767971583322 56.850097666610964,233.61175887320132 56.72003687848337,233.82923929898243 56.647780885046814,234.56532475855784 56.60442728898488,235.3014069215278 56.647780885046814,236.12113090504135 56.850097666610964,236.6731876105914 56.92235365998931,237.1750557338819 56.92235365998931,237.49290475266753 56.907902461418416,237.79402430876507 56.83564646792365,238.19551619209233 56.662232083734125,238.6471933886205 56.28650091792224,239.36652858361776 56.141988931107335,239.71783067430079 55.925220950797666,240.0858606306283 55.79516016267007,240.40370402067492 55.491684990236536,241.13976003798598 55.33272180473432,241.6583429802413 55.274917009985074,241.992911752066 55.20266101654852,242.193652688351 54.91363704280229,242.86278737206885 54.79802745336201,243.06352724602039 54.53790587699041,243.4148214355955 54.26333310204791,243.6824736475537 54.14772351254942,243.91666897552204 54.03211392310914,244.2512331510079 53.64193155855173,244.85344695099047 53.30955398880178,245.2716496807261 52.933822822989896,245.8236756549304 52.76040843874216,246.17496394610498 52.702603643992916,246.5262514865608 52.81821323354961,247.07827324784012 52.76040843874216,247.9313941419532 52.77485963748768,248.2492223627487 52.76040843874216,248.3495890416234 52.99162761779735,249.03542637424835 53.12168840598315,249.82162662591145 53.07833480986301,250.13945119235723 53.09278600855032,250.32345460790384 53.136139604554046,250.5910955719737 53.20839559804881,250.95910118619213 53.22284679667791,251.3605609166989 53.17949320061598,251.57801786142227 53.23729799542343,251.87911161774537 53.20839559804881,252.0463856885035 53.22284679667791,252.28056910169835 53.17949320061598,252.61511625624553 53.136139604554046,252.74893492739648 52.731506041425746,253.51839017303428 52.615896451927256,253.95329806674272 52.50028686248697,254.20420594366442 52.24016528611537,254.50529489055043 51.96559251117287,254.72274767594354 51.214130179490894,255.49219368420017 51.011813397926744,255.75982623426535 50.88175260974094,255.96055036097823 50.76614302030066,256.21145517473633 50.52047264267458,256.88053280627355 50.43376545055071,257.348885528394 50.44821664917981,257.6499687166797 50.41931425180519,257.8506905359536 50.173643874179106,258.5030347561842 50.043583085993305,258.7204822545027 49.92797349655302,258.8542959566839 49.26321835699491,259.43972962324915 49.19096236361656,259.6404492576985 49.06090157543076,259.84116864710813 48.80077999911737,260.89494142172043 48.80077999911737,261.0287533543451 48.8296823965502,261.6643585471611 48.91638958861586,262.0490657597984 48.85858479386661,262.23305584769696 49.03199917811435,262.70139332425606 49.14760876755463,263.83877878561907 49.16205996630015,264.0896715782728 49.14760876755463,264.2402070701937 49.06090157543076,264.3907424242934 48.887487191241235,264.52455151217873 48.46840242942562,264.69181271900015 48.36724403855624,264.7419910478784 48.33834164123982,264.7921693614044 48.237183250370435,264.7921693614044 48.00596407148987,264.8590737556806 47.919256879366,264.8590737556806 47.500172117492184,264.9594302960322 46.64755139511544,265.0597867750912 46.47413701086771,265.0597867750912 46.30072262661997,265.12669106049 45.99724745430285,265.19359531864757 45.31804111605743,265.2939516548795 44.89895635418361,265.3775818882568 44.33535960549489,265.4277600078349 43.84401885024272,265.3775818882568 42.57231336599216,264.97615638011484 41.60408305400051,265.04306069952145 41.459571067243814,265.10996499168687 41.25725428562146,265.04306069952145 41.09829110006103,265.07651284903113 40.93932791455882,265.0597867750912 40.693657536874525,265.09323892119573 40.46243835793575,265.17686925668386 39.27744006575085,265.3775818882568 38.93061129731359,265.47793811217707 38.65603852237109,265.47793811217707 38.4103681446868,265.5615682519274 37.58664981968468,265.69537638720067 37.13866266043624,265.86263640315155 36.70512669987511,265.9128143747512 36.213785944564734,265.9128143747512 36.141529951186385,265.9797183130722 35.8958595735603,265.9964442933997 35.46232361299917,266.1135261080635 34.68195888400078,266.3644154302601 33.97385014849715,266.63203028538555 33.43915579706663,266.96654824177676 33.28019261150621,267.0 33.20793661812786,266.96654824177676 32.99116863781819,266.53167476570525 32.80330305494135,266.2975116484158 32.702144664130174,265.9964442933997 32.55763267731527,265.81245841625787 32.26860870362725,265.19359531864757 31.92177993513178,264.3907424242934 31.632755961443763,263.57115938482457 31.430439179879613,263.2868132942385 31.242573597002774,262.85193008703936 30.79458643781254,261.94870744331274 30.606720854877494,261.747990626478 30.592269656131975,261.71453779988224 30.66452564962674,261.6978113840014 30.678976848255843,261.6643585471611 30.505562464008108,261.51382069721876 30.288794483756647,261.1123857569037 29.99977051006863,260.54368458053796 29.132698589004576,258.9546561618481 28.569101840315852,257.6499687166797 28.3812362573226,257.3823392431659 28.222273071820382,256.9641673188162 27.918797899386846,256.3118169930385 27.75983471388463,255.75982623426535 27.384103548072744,254.62238488763978 27.282945157319773,254.2209331218328 27.13843317044666,253.8863892348745 27.109530773072038,253.6856625759683 27.051725978381,253.5685719117755 26.878311594191473,252.94966272998136 26.83495799812954,252.68202560540522 26.675994812510908,252.19693220677436 26.372519640193786,250.9256461643672 26.213556454633363,250.1227235989354 26.155751659884118,249.93871995875088 26.097946865134872,249.60416735796025 26.097946865134872,249.48707378687686 25.895630083570722,248.9016046803299 25.780020494072232,248.41650012689934 25.606606109882705,247.8979385040002 25.519898917758837,247.37937524542212 25.259777341445442,246.47606759818154 25.187521348008886,246.02441191325488 25.01410696381936,245.50584274466382 25.071911758568604,245.35529009900347 24.869594976946246,244.73634999600472 24.623924599320162,243.8330278252688 24.49386381113436,243.4148214355955 24.334900625573937,242.62859054256114 24.147035042697098,242.0932822508621 24.016974254511297,241.40741595438158 23.7568526781979,240.55426120143966 23.684596684761345,240.13604646991007 23.51118230051361,239.5170867144043 23.077646340010688,238.11187213064113 22.904231955762953,237.7271088995476 22.759719968948048,237.25870027209749 22.268379213637672,235.56907234525715 22.225025617633946,235.21776138721907 22.13831842551008,234.98355366468604 22.109416028135456,234.81626222992782 22.02270883595338,234.5820539352717 21.979355239949655,234.34784530679462 21.993806438636966,234.2474700781895 21.791489657072816,233.77905153397296 21.690331266261637,233.4946539093944 21.64697767025791,233.1935264763597 21.53136808075942,232.95931586925872 21.444660888635553,232.72510492832225 21.415758491202723,232.49089365365217 21.31460010050796,232.1730349612917 21.28569770307513,231.88863455760293 21.06892972282367,231.18599615612766 21.025576126761734,230.98524177538638 20.9822225306998,230.43316596385557 20.63539376220433,229.6970619968779 20.56313776882598,229.412657308465 20.46197937807301,229.29554935252236 20.389723384578247,229.07806292721943 20.288564993883483,229.0111439692264 20.21630900038872,228.86057621409418 20.144053006952163,228.84384645499813 20.01399221876636,228.84384645499813" stroke="red" stroke-linecap="round" stroke-linejoin="round" stroke-width="0.5"><title>2025-10-17 10.6km</title><desc>17538333095</desc></polyline><polyline fill="none" points="96.21821334818378,214.2388831304852 96.5809746576706,214.32287493775948 97.179530818481,214.28087903835694 97.2702211458236,214.32287493775948 97.57856825890485,214.93181451785495 97.7962250446435,215.49875664888532 98.24967668158934,217.43054776478675 98.70312831853516,218.96336914710992 98.81195671134628,219.48830535833258 99.21099415188655,220.6851549251296 99.4286509376252,221.21008675497433 99.80955031258054,222.84786547868862 100.40810647327453,225.07354392851994 100.7345916518243,226.01840016059577 100.95224843756296,226.50132500813925 101.13362909236457,227.04723869191366 101.46011427091435,228.34902703131957 101.7684613839956,229.25187541042396 101.9317039733287,230.23870516588795 102.49398400308564,232.04438143450534 102.60281239601318,232.71625694216345 102.7116407888243,233.15717405501346 102.94743564003147,233.8710378590913 103.00184983643703,234.35394432597968 103.16509242577013,234.92083308404835 103.27392081858125,235.52971186714421 103.69109632459003,236.99941187158402 103.72737245552707,237.2933506162226 103.98130537231918,238.11217776834383 104.0901337651303,238.6580607312062 104.27151441993192,239.16195141509525 104.47103314008564,240.52664917131187 104.7793802532833,241.38745388321695 104.8700705806259,241.91233304269554 104.99703703902196,242.29024521079555 105.14214156277012,242.9830823881348 105.57745513424743,244.6626780111983 105.74069772346411,245.1035695970204 105.77697385451756,245.48147592076566 106.04904483654536,246.3002705815161 106.32111581868958,247.24502961455437 106.52063453895971,247.62293201666034 106.66573906282429,248.10580630127515 106.91967197949998,248.79862395345117 107.04663843777962,249.30248987585946 107.35498555086087,250.01629782679083 107.75402299140114,250.64612632144417 107.93540364620276,251.06601091664925 108.29816495568957,251.69583620764024 108.67906433076132,252.57758838593145 109.0055495093111,253.20740906389256 109.15065403317567,253.45933679692098 109.25948242598679,253.66927633954037 109.47713921172544,253.96319134040095 110.07569537241943,255.24381610193814 110.42031861655414,255.76866002006864 110.58356120588724,256.1885341935558 111.43605028325692,257.8890158612194 111.56301674165297,258.2249118175241 111.83508772368077,258.72875472696614 112.4517819499597,260.1772962406394 112.97778584866319,261.2899371667154 113.12289037252776,261.7098001084087 113.26799489639234,262.04568984682555 113.26799489639234,262.12966219605005 113.2317187654553,262.2766137249273 113.03220004518516,262.5495234296104 112.70571486663539,262.82243277340604 112.21598709875252,263.1163347401889 109.7673482594546,264.4178955626994 109.22320629504975,264.77477370930137 108.62465013435576,265.0266873237124 107.8809894497972,265.4675354091305 107.57264233671594,265.5724991002062 106.95594811043702,265.86639715128695 106.28483968786895,266.3072434433707 106.04904483654536,266.4122067073913 105.39607447944582,266.60114044831425 104.88820864609443,266.9160296321352 104.67055186035577,267.0 104.4347570091486,266.9790074111952 104.23523828899488,266.89503703480295 103.92689117579721,266.6851109442505 103.78178665193263,266.5381625538721 103.50971566978842,266.0133460199577 102.92929757456295,265.1736367901176 102.56653626507614,264.35491700211423 102.20377495558932,263.8510878262168 102.07680849719327,263.5571869056439 101.55080459837336,262.99037680563924 100.86155811022036,261.7727794760285 100.53507293167058,261.2899371667154 100.33555421140045,260.80709372789715 100.0272070983192,260.4082222090801 99.8639645089861,260.0093499194627 99.33796061016619,259.23259640652395 99.21099415188655,258.91769550100435 98.86637090775184,258.4558399703383 98.7394044494722,258.203918336294 98.52174766373355,257.91000937442004 98.28595281252638,257.49013870306953 98.01388183038216,257.1962287248898 97.41532566968817,256.16754050519376 97.19766888394952,255.8946223618259 96.88932177086826,255.62170385754143 96.29076561005786,255.24381610193814 95.9824184969766,254.8239400064922 95.67407138389535,254.48803851517732 95.202481681481,254.15213647705968 94.38626873504836,253.3333729688893 93.95095516345464,252.99746905149368 93.64260805037338,252.66156458739715 92.73570477659814,252.01074813237938 92.30039120523725,251.61185961322917 92.08273441938218,251.33893544538296 91.53859245509375,250.94004562770715 91.33907373494003,250.75109755038284 91.10327888373286,250.62513206929725 90.59541305026505,250.12126937610446 89.77920010383241,249.44945053820265 88.92671102646273,248.86160726101662 88.43698325857986,248.3577402621304 88.31001680030022,248.16878982030903 88.00166968710255,247.97983920550905 87.80215096683241,247.74889933028317 87.6026322466787,247.4759700535942 87.53007998480462,247.2870188045199 87.38497546094004,247.07707276922883 87.27614706812892,246.82513724494493 87.07662834785879,246.57320141306263 86.94966188957915,246.32126527365472 86.73200510372408,244.93561100872466 86.87710962758865,244.38974465269712 87.29428513359744,243.50795748895325 87.54821805015672,243.27701260904723 87.76587483601179,242.9830823881348 87.98353162175044,242.79412702503032 88.27374066924676,242.4792010353267 88.58208778232802,242.20626478882332 88.96298715739977,241.72337669908302 89.43457685981411,241.30347309377976 89.99685688968748,240.88356863407535 90.64982724678703,240.1067431307747 91.9194918301655,238.97299255279358 92.35480540152639,238.70005166853662 92.40921959804837,238.61606978533382 92.49990992539097,238.15416881676356 92.39108153257985,237.90222239811555 92.15528668137267,236.97841623095155 91.84693956829142,236.43252882435627 91.7562492408324,236.20157602528343 91.70183504442684,235.69767811181373 91.59300665161572,235.1727831432363 91.59300665161572,234.81585380189063 91.53859245509375,234.54290741842124 91.08514081826434,233.28315019991715 90.84934596705716,232.88422547724622 90.75865563959815,232.65326870627177 90.64982724678703,231.96039684217249 90.55913691944443,231.6664504999062 90.55913691944443,231.24652642734873 90.46844659210183,230.9105865538877 90.30520400276873,230.53265354239556 90.12382334808353,229.58781798482232 89.97871882410254,229.1678896814119 89.90616656222846,228.4960026180779 89.74292397301178,227.76112363715947 89.74292397301178,227.48816792036814 89.77920010383241,227.17321856760827 89.63409558008425,226.62730521724734 89.56154331809375,226.22836762457155 89.43457685981411,225.15753132432292 89.36202459794004,224.84257841354702 89.34388653247152,224.1706772633479 89.1625058776699,223.2468096086668 89.12622974673286,222.889859634015 89.01740135392174,222.34393494862888 89.05367748474237,221.44105633687286 88.9992632883368,220.58016839888296 88.89043489552569,220.01324023380585 88.89043489552569,219.46730793552706 88.8178826336516,218.71139929117635 88.78160650259815,217.9344902979792 88.8178826336516,217.5565335135325 88.8178826336516,216.82161556126084 88.78160650259815,215.519754475652 89.01740135392174,213.79792558100598 89.08995361579582,213.58794546419813 89.325748467003,213.20998071535723 89.48899105633609,213.06299423702876 89.63409558008425,213.0 89.79733816941734,213.04199616017286 90.32334206823725,213.27297488824115 90.92189822893124,213.2939729415666 91.01258855639026,213.33596904188744 90.99445049080532,213.3779651336663 90.90376016346272,213.41996121688862 90.50472272292245,213.39896317636885 90.0331330205081,213.3149709928257 89.74292397301178,213.20998071535723 89.65223364566918,213.27297488824115 89.61595751461573,213.3779651336663 89.59781944914721,213.50395335762005 89.65223364566918,213.60894348550937" stroke="#ff7f00" stroke-linecap="round" stroke-linejoin="round" stroke-width="0.5"><title>2025-10-14 6.9km</title><desc>17538333076</desc></polyline><polyline fill="none" points="157.7285859362455,215.958740350703 157.7285859362455,216.01851258968236 157.59804489801172,215.958740350703 157.75469414365944,216.10817092610523 157.91134338953998,216.13805703242542 158.12020905071404,216.07828481690376 158.22464188106824,215.98862647163332 157.91134338953998,215.958740350703 157.441395652364,216.07828481690376 157.31085461413022,216.01851258968236 157.23252999107353,215.958740350703 157.04977253777906,215.3012449563248 157.0236643301323,214.6437481554167 156.91923149954528,214.10579518138547 156.9714479148388,213.86670466841315 157.15420536824968,213.7471593421942 157.91134338953998,213.59772761908243 159.34729480929673,213.53795490946504 159.79113433894236,213.44829582321108 160.31329849152826,213.23909118704614 161.749249911285,213.02988640853437 162.24530585622415,213.0 162.95022746222094,213.0 163.159093123395,213.05977281424566 163.65514906821772,213.32875033433083 163.94233935221564,213.59772761908243 164.22952963621356,214.04602257048828 164.36007067433093,214.46443060203455 164.33396246668417,215.65987898223102 164.5428281277418,217.42315685655922 164.56893633538857,217.87144622887718 164.4906117124483,219.06688135876902 164.56893633538857,219.51516833383357 164.62115275056567,220.6209400772059 164.4383952972712,221.84625006577699 164.56893633538857,222.8623570833879 164.62115275056567,223.96811678618542 164.62115275056567,224.35662600782234 164.51671992009506,224.71524946892168 164.4906117124483,225.49226553260814 164.33396246668417,225.9106579842337 164.22952963621356,226.3290498663264 164.46450350480154,227.49456710676895 164.4906117124483,227.91295683319913 164.4383952972712,228.45088564470643 164.51671992009506,228.89915893532452 164.4383952972712,229.5566252457793 164.4383952972712,230.03478167930734 164.4906117124483,230.75201493513305 164.4383952972712,231.230169509392 164.4383952972712,232.00716910636402 164.4906117124483,233.38185589041677 164.38617888197768,234.72665223121294 163.94233935221564,235.56341142999008 163.57682444539387,235.8024850685324 162.63692897069268,236.6392413393187 161.9320073646959,237.38634322793223 160.88767905940767,238.940309341182 160.49605594493914,239.65752182138385 160.07832462282386,240.6138025256223 159.97389179235324,241.30112744463258 159.73891792376526,242.43670437924447 159.37340301682707,243.0642582543369 159.37340301682707,243.27344259468373 159.45172763976734,243.42285989352968 159.4778358474141,243.60216055632918 159.34729480929673,244.49866230168846 159.26897018635646,244.85726226802217 159.11232094059233,245.27562836671132 159.03399631765205,245.72387712649652 158.8251306565944,246.23189159765025 158.7729142414173,246.7697883580695 158.66848141083028,246.97897017744253 158.4857239574194,246.91920395783382 158.7206978261238,246.82955460669473 159.45172763976734,246.97897017744253 159.5822686778847,247.0686194850132 159.68670150835533,247.2180349396367 159.7128097161185,247.4570995158865 159.50394405506086,248.2041751188226 159.26897018635646,248.56277076352853 159.16453735600226,249.01101473119343 159.0601045252988,250.02703197218943 158.95567169471178,250.74421859162976 158.92956348718144,251.3119901456812 158.98177990247495,251.73034746205667 158.66848141083028,252.5072952537157 158.4857239574194,253.04518103646114 158.45961574988905,253.4336535166076 158.45961574988905,253.79224306269316 158.27685829636175,254.68871509845485 158.0679926353041,255.43577313178685 157.9635598048335,256.4816513294645 157.59804489801172,258.8423347568314 157.59804489801172,259.0813902959635 157.676369520952,259.4399732561724 157.62415310565848,260.0674924304767 157.36307102942374,260.6053649891692 157.18031357589643,261.6512256048736 156.50150017743,263.8923435183533 156.42317555460613,264.04175079861307 156.0315524401376,264.5198536074313 155.61382111802232,265.29676908662077 155.37884724943433,265.8943950427347 155.4049554570811,266.10356385301566 155.66603753343225,266.3127325209789 156.94533970730845,266.9402376714861 157.12809716060292,267.0 157.4936120675411,266.9402376714861 157.65026131330524,266.76095061629894 157.91134338953998,265.9242763100483 157.98966801236384,265.4760569953942 158.5379403727129,264.4003279749304 158.85123886435758,263.38435822274187 158.90345527953468,262.96601676093997 159.08621273294557,262.24885864538373 159.42561943212058,261.5316988573468 159.50394405506086,261.2926452230604 159.4778358474141,261.0237096622586 159.19064556341618,260.42607424076414 159.19064556341618,260.24678338787635 159.5300522627076,259.8284376579395 159.76502613141201,259.380209458468 159.9477835848229,258.5733970531728 160.4177313222317,257.67693634243915 160.5221641525859,257.1988228946866 160.7049216061132,255.6449490558589 160.57438056799583,254.3898913769226 160.80935443658382,253.22447608824586 160.83546264423057,252.95553347145324 160.83546264423057,252.20846941234777 160.73102981364354,251.8498780192749 160.73102981364354,251.3119901456812 160.86157085176092,250.80398406775203 160.9398954748176,250.08679758771905 161.09654472046532,249.57878948561847 161.09654472046532,249.25007791348617 161.2270857586991,248.68230255210074 161.20097755105235,247.93522811087314 161.43595141975675,247.0686194850132 161.5664924577577,245.30551163773634 161.82757453422528,244.34924552575103 161.9320073646959,243.66192742067506 162.03644019528292,243.27344259468373 162.08865661046002,242.85507377167232 162.37584689434152,241.7493819988158 162.79357821657322,240.67356997088064 163.4462834072765,239.74717326372047 163.60293265304063,239.2690319356625 163.7856901063351,238.16332726637484 163.7856901063351,237.7748354926007 163.62904086068738,237.38634322793223 163.36795878433622,237.08750269032316 163.34185057680588,237.02773454796989 164.12509680562653,236.7587777634326 164.17731322092004,236.66912544966908 164.17731322092004,236.31051593308803 164.3078542590374,235.83236926031532 164.2556378437439,235.8024850685324 164.28174605150707,235.7726008738391 164.2556378437439,235.86225344912964 164.3078542590374,235.86225344912964 164.2556378437439,235.74271667632274 164.3078542590374,235.74271667632274 164.22952963621356,235.83236926031532 163.9684475598624,235.35422184379422 164.0206639750395,235.11514785676263 164.22952963621356,234.51746207565884 164.33396246668417,232.78416673961328 164.17731322092004,231.3795926613093 164.2034214285668,230.2738596170966 164.3078542590374,229.5865100446099 164.22952963621356,228.80950432943064 164.33396246668417,228.06238159743953 164.2556378437439,227.49456710676895 164.22952963621356,226.62790086204768 163.7856901063351,226.7175561041513 163.05466029280797,227.01640672216308 162.63692897069268,227.07617681086413 162.2191976485774,227.07617681086413 161.48816783493385,227.22560198194697 160.80935443658382,227.2554870074091 160.5221641525859,227.22560198194697 160.4177313222317,227.10606185090728 160.2349738687044,226.2991647507297 160.26108207623474,225.79111734189792 160.15664924576413,225.0439872739953 160.15664924576413,224.2669700772385 160.0522164151771,223.4600655248214 160.10443283058703,222.50373146063066 160.0522164151771,222.05544884395204 159.84335075411946,221.6968222798023 159.8172425465891,221.51750884091598 159.60837688553147,221.30830969661474 159.39951122459024,221.03933915903326 158.66848141083028,220.38185463190894 158.12020905071404,219.99334038674715 157.9635598048335,219.81402595405234 157.91134338953998,219.63471141675836 157.83301876671612,219.5749398811313 157.98966801236384,218.31973494734848 158.0679926353041,218.05076179475873 158.09410084306728,217.66224460309604 158.59015678800642,217.6024726839678 158.66848141083028,217.51281478328747 158.64237320318352,217.42315685655922 158.45961574988905,216.94498080541962 158.40739933447912,216.61623433884233" stroke="#4dd2ff" stroke-linecap="round" stroke-linejoin="round" stroke-width="0.5"><title>2025-09-30 4.8km</title><desc>17538333066</desc></polyline></svg>