<?xml version="1.0" encoding="utf-8" ?>
<svg baseProfile="full" height="200mm" version="1.1" viewBox="0,0,200,200" width="200mm" xmlns="http://www.w3.org/2000/svg" xmlns:ev="http://www.w3.org/2001/xml-events" xmlns:xlink="http://www.w3.org/1999/xlink"><defs /><rect fill="#1a1a1a" height="200" width="200" x="0" y="0" /><rect fill="#1a1a1a" height="200" width="180" x="10" y="0" /><text alignment-baseline="middle" fill="#e1ed5e" style="dominant-baseline: central; font-size:9.0px; font-family:Arial;" text-anchor="middle" x="100.0" y="100.0">2026</text><line stroke="#e1ed5e" stroke-width="0.3" x1="100.0" x2="100.0" y1="15.0" y2="10.0" /><path d="M 100.0 14.0 a86.0,86.0 0 0,1 42.46469731375804,11.215312516191453" fill="none" id="id13" stroke="none" /><text fill="#e1ed5e" style="font-size:6.75px; font-family:Arial;" text-anchor="middle"><textPath startOffset="22.20632615414155" xlink:href="#id13">January</textPath></text><path d="M 100.72285384407766 79.0124445844662 l 0.20686585044338807 -6.0062051759604245 a27.00976655917794,27.00976655917794 0 0,0 0.46451546704148444,0.020003013145047346 l -0.3102221498742041 6.001754436291183" fill="#ff4006" stroke="none" /><line stroke="#e1ed5e" stroke-width="0.3" x1="143.23703022742887" x2="145.7803849466894" y1="26.81831364943548" y2="22.513508569990506" /><path d="M 143.74570117128098 25.957352633546492 a86.0,86.0 0 0,1 28.547481713284135,27.462654790039103" fill="none" id="id14" stroke="none" /><text fill="#e1ed5e" style="font-size:6.75px; font-family:Arial;" text-anchor="middle"><textPath startOffset="19.985693538727396" xlink:href="#id14">February</textPath></text><path d="M 116.60985879189232 87.15038557335679 l 6.598348787878854 -5.104573063447 a29.342354157344978,29.342354157344978 0 0,0 0.30561327736554067,0.4021512494273491 l -6.685238005468508 4.990237038138617" fill="#ff6108" stroke="none" /><path d="M 116.82858285166822 87.43820079747576 l 5.198343682698226 -3.8803356232276154 a27.486893061577153,27.486893061577153 0 0,0 0.27976079586184904,0.3815934111540561 l -5.2643670910737015 3.7902797684020655" fill="#ff4706" stroke="none" /><line stroke="#e1ed5e" stroke-width="0.3" x1="172.23445277983987" x2="176.4835382374775" y1="55.19839476539836" y2="52.563006222186495" /><path d="M 173.08426987136738 54.67131705675599 a86.0,86.0 0 0,1 12.851231095245387,41.99856678651699" fill="none" id="id15" stroke="none" /><text fill="#e1ed5e" style="font-size:6.75px; font-family:Arial;" text-anchor="middle"><textPath startOffset="22.20632615414155" xlink:href="#id15">March</textPath></text><path d="M 118.89224826269711 90.83032412892265 l 3.0714982754888287 -1.4908042300299897 a24.414176168361287,24.414176168361287 0 0,0 0.1802484747146803,0.3796492568412548 l -3.0967049440452654 1.4377125575481946" fill="#ff1b02" stroke="none" /><path d="M 119.34039704204932 91.81776055985345 l 4.054146500349395 -1.7151663080736828 a25.40203354265348,25.40203354265348 0 0,0 0.1669014160893123,0.4041650175618427 l -4.083069603324905 1.6451267200585369" fill="#ff2904" stroke="none" /><path d="M 119.61058180528143 92.48833698450437 l 5.300797435057965 -2.0304244127441184 a26.676361223828554,26.676361223828554 0 0,0 0.16056045972214752,0.43022220641707576 l -5.334962483281738 1.9388790692977094" fill="#ff3b05" stroke="none" /><path d="M 120.53481517161879 95.60439243477599 l 8.030598175056667 -1.719000526498071 a29.212519093391755,29.212519093391755 0 0,0 0.1010206526027955,0.4926125788457695 l -8.05899812357446 1.5805122914888896" fill="#ff5f08" stroke="none" /><path d="M 120.73433829027371 96.67025291283417 l 5.507482201235832 -0.8844517997367246 a26.57804761390462,26.57804761390462 0 0,0 0.06865249747352398,0.4523341813378578 l -5.521890592148656 0.7895185060067846" fill="#ff3a05" stroke="none" /><path d="M 120.78858239683441 97.02765380044208 l 5.805339394762807 -0.830045943382587 a26.86437905975653,26.86437905975653 0 0,0 0.06151175371523708,0.45833401280632774 l -5.818767147535881 0.7299935885115948" fill="#ff3e05" stroke="none" /><path d="M 120.87857604477298 97.74499172005257 l 6.942666917392307 -0.7498486175524511 a27.983043525218708,27.983043525218708 0 0,0 0.04760165461333869,0.47934216578019034 l -6.954545697687874 0.6302309210678259" fill="#ff4e07" stroke="none" /><line stroke="#e1ed5e" stroke-width="0.3" x1="184.98032266829074" x2="189.97916517819016" y1="98.17113171792111" y2="98.06355123074" /><path d="M 185.9800911702706 98.14961562048488 a86.0,86.0 0 0,1 -9.607161424134198,41.387399972396054" fill="none" id="id16" stroke="none" /><text fill="#e1ed5e" style="font-size:6.75px; font-family:Arial;" text-anchor="middle"><textPath startOffset="21.466115282336823" xlink:href="#id16">April</textPath></text><path d="M 120.9764740272857 100.99374915477107 l 1.5769424556551337 0.07470679916898654 a22.578711061052566,22.578711061052566 0 0,0 -0.021733244895237026,0.388061687172576 l -1.5754228598723674 -0.10184020267698583" fill="#ff0000" stroke="none" /><path d="M 120.76222939487914 103.15116336523771 l 8.415390928305218 1.277236229938277 a29.51176461512351,29.51176461512351 0 0,0 -0.08055059873530884,0.5015886552163191 l -8.39215857520862 -1.4219041148478009" fill="#ff6309" stroke="none" /><path d="M 120.5718875245553 104.21870165774334 l 7.269588163748625 1.490783167121201 a28.420872355854534,28.420872355854534 0 0,0 -0.10240441081407786,0.47839931513960027 l -7.242849714210104 -1.6156963016769703" fill="#ff5407" stroke="none" /><path d="M 120.13307415673323 105.97154293290107 l 9.803452886398524 2.9077397393990774 a31.225587459306002,31.225587459306002 0 0,0 -0.15727767456965827,0.5139925405189917 l -9.751948439322733 -3.076059252470126" fill="#ff7b0b" stroke="none" /><path d="M 120.02730092923936 106.31721596034902 l 9.288446496905951 2.9298567322886275 a30.73957385092497,30.73957385092497 0 0,0 -0.16351659998126974,0.5032523478172288 l -9.236637645908436 -3.0893079800836514" fill="#ff740a" stroke="none" /><line stroke="#e1ed5e" stroke-width="0.3" x1="174.80103733775053" x2="179.2010983576182" y1="140.37084112569926" y2="142.7455964860345" /><path d="M 175.68104954172406 140.8457921977663 a86.0,86.0 0 0,1 -30.038265399797805,32.042727171017184" fill="none" id="id17" stroke="none" /><text fill="#e1ed5e" style="font-size:6.75px; font-family:Arial;" text-anchor="middle"><textPath startOffset="22.206326154141568" xlink:href="#id17">May</textPath></text><path d="M 117.94076556474637 110.91462005526583 l 4.464242947073914 2.715910612948294 a26.225479456281917,26.225479456281917 0 0,0 -0.23794672276586246,0.3836458809844979 l -4.4168315846400885 -2.792352825298065" fill="#ff3505" stroke="none" /><path d="M 117.14729908036423 112.12312394758627 l 17.670307746337507 12.492890571095879 a42.64051964883588,42.64051964883588 0 0,0 -0.4288828292113953,0.5956807386223418 l -17.452645124750507 -12.795204915169354" fill="#f1ff19" stroke="none" /><path d="M 116.71984013943494 112.70617746262583 l 24.739294466767888 18.800530577652612 a52.07237745514017,52.07237745514017 0 0,0 -0.5484788049678359,0.7089827911078818 l -24.412008844581983 -19.223591362873744" fill="#84ff25" stroke="none" /><path d="M 115.80600337817218 113.82643327865902 l 2.8505718835260216 2.493561529160682 a24.787295758566955,24.787295758566955 0 0,0 -0.28368605603432606,0.3187242912897972 l -2.8072269778433574 -2.542259990191346" fill="#ff2003" stroke="none" /><path d="M 115.56566222782051 114.09645910891815 l 5.155914827348658 4.669261189728499 a27.955965624180337,27.955965624180337 0 0,0 -0.32609115226624247,0.3539075420002553 l -5.074777267086693 -4.7573199865300895" fill="#ff4d07" stroke="none" /><path d="M 115.07121518719521 114.62390073753431 l 6.838487777884074 6.635521105397316 a30.528643944887598,30.528643944887598 0 0,0 -0.3691921587688458,0.37398970765247413 l -6.723254994059693 -6.752251307030455" fill="#ff710a" stroke="none" /><path d="M 112.92097659922987 116.55440617244103 l 23.977274327029694 30.7197784214972 a59.96940428617715,59.96940428617715 0 0,0 -0.8192142504315889,0.628138554143237 l -23.44493134810461 -31.127956317467806" fill="#33ff2f" stroke="none" /><path d="M 111.7513745106137 117.40417183066458 l 13.049024478559371 19.326034077313658 a44.318932930122045,44.318932930122045 0 0,0 -0.6359245626996357,0.421456124250786 l -12.714425217119771 -19.54778822265576" fill="#ddff1b" stroke="none" /><line stroke="#e1ed5e" stroke-width="0.3" x1="143.8653032363475" x2="146.44561519142675" y1="172.8068346515853" y2="177.08958963109032" /><path d="M 144.38136562736335 173.6633856474863 a86.0,86.0 0 0,1 -40.68145358897372,12.25698825130547" fill="none" id="id18" stroke="none" /><text fill="#e1ed5e" style="font-size:6.75px; font-family:Arial;" text-anchor="middle"><textPath startOffset="21.466115282336833" xlink:href="#id18">June</textPath></text><path d="M 109.89434966115114 118.52300852407294 l 29.683048983453418 55.56902557221878 a84.0,84.0 0 0,0 -1.2812363898940176,0.6702823242211329 l -28.722121691032903 -56.07173731538463" fill="#4dd2ff" stroke="none" /><line stroke="#e1ed5e" stroke-width="0.3" x1="102.19456741930631" x2="102.32365962044197" y1="184.97166512339345" y2="189.96999836594603" /><path d="M 102.22038585953345 185.97133177190398 a86.0,86.0 0 0,1 -42.740103519485714,-10.115201625700543" fill="none" id="id19" stroke="none" /><text fill="#e1ed5e" style="font-size:6.75px; font-family:Arial;" text-anchor="middle"><textPath startOffset="22.20632615414155" xlink:href="#id19">July</textPath></text><line stroke="#e1ed5e" stroke-width="0.3" x1="58.666819895761336" x2="56.23545636021788" y1="174.27360380694188" y2="178.64263932499728" /><path d="M 58.180547188652646 175.14741091055294 a86.0,86.0 0 0,1 -31.652253787137756,-30.449443065178592" fill="none" id="id20" stroke="none" /><text fill="#e1ed5e" style="font-size:6.75px; font-family:Arial;" text-anchor="middle"><textPath startOffset="22.20632615414155" xlink:href="#id20">August</textPath></text><line stroke="#e1ed5e" stroke-width="0.3" x1="26.63291911575756" x2="22.317208475507996" y1="142.92168965132927" y2="145.44649492493687" /><path d="M 25.769776987707644 143.4266507060508 a86.0,86.0 0 0,1 -11.730757126820373,-40.83630448921669" fill="none" id="id21" stroke="none" /><text fill="#e1ed5e" style="font-size:6.75px; font-family:Arial;" text-anchor="middle"><textPath startOffset="21.46611528233685" xlink:href="#id21">September</textPath></text><line stroke="#e1ed5e" stroke-width="0.3" x1="15.007084014347285" x2="10.007500721073583" y1="101.09737516637583" y2="101.16192664675087" /><path d="M 14.007167355692545 101.11028546245083 a86.0,86.0 0 0,1 10.666146001902534,-42.60595125391555" fill="none" id="id22" stroke="none" /><text fill="#e1ed5e" style="font-size:6.75px; font-family:Arial;" text-anchor="middle"><textPath startOffset="22.20632615414155" xlink:href="#id22">October</textPath></text><line stroke="#e1ed5e" stroke-width="0.3" x1="26.266209847984243" x2="21.928928074336255" y1="57.711370442889674" y2="55.22380399835377" /><path d="M 25.398753493254645 57.213857153982495 a86.0,86.0 0 0,1 29.58750427330803,-30.492523968695096" fill="none" id="id23" stroke="none" /><text fill="#e1ed5e" style="font-size:6.75px; font-family:Arial;" text-anchor="middle"><textPath startOffset="21.46611528233685" xlink:href="#id23">November</textPath></text><line stroke="#e1ed5e" stroke-width="0.3" x1="56.762969772571076" x2="54.21961505331055" y1="26.818313649435495" y2="22.513508569990535" /><path d="M 56.25429882871897 25.957352633546506 a86.0,86.0 0 0,1 42.265352541879196,-11.944610805530505" fill="none" id="id24" stroke="none" /><text fill="#e1ed5e" style="font-size:6.75px; font-family:Arial;" text-anchor="middle"><textPath startOffset="22.20632615414155" xlink:href="#id24">December</textPath></text></svg>