<?xml version="1.0" encoding="utf-8" ?>
<svg baseProfile="full" height="200mm" version="1.1" viewBox="0,0,200,200" width="200mm" xmlns="http://www.w3.org/2000/svg" xmlns:ev="http://www.w3.org/2001/xml-events" xmlns:xlink="http://www.w3.org/1999/xlink"><defs /><rect fill="#1a1a1a" height="200" width="200" x="0" y="0" /><rect fill="#1a1a1a" height="200" width="180" x="10" y="0" /><text alignment-baseline="middle" fill="#e1ed5e" style="dominant-baseline: central; font-size:9.0px; font-family:Arial;" text-anchor="middle" x="100.0" y="100.0">2026</text><line stroke="#e1ed5e" stroke-width="0.3" x1="100.0" x2="100.0" y1="15.0" y2="10.0" /><path d="M 100.0 14.0 a86.0,86.0 0 0,1 42.46469731375804,11.215312516191453" fill="none" id="id13" stroke="none" /><text fill="#e1ed5e" style="font-size:6.75px; font-family:Arial;" text-anchor="middle"><textPath startOffset="22.20632615414155" xlink:href="#id13">January</textPath></text><path d="M 100.72285384407766 79.0124445844662 l 1.5311218257583765 -44.455050532434896 a65.48141018320635,65.48141018320635 0 0,0 1.126152933130455,0.048494514226219185 l -2.2961155912781632 44.42210829168448" fill="red" stroke="none" /><line stroke="#e1ed5e" stroke-width="0.3" x1="143.23703022742887" x2="145.7803849466894" y1="26.81831364943548" y2="22.513508569990506" /><path d="M 143.74570117128098 25.957352633546492 a86.0,86.0 0 0,1 28.547481713284135,27.462654790039103" fill="none" id="id14" stroke="none" /><text fill="#e1ed5e" style="font-size:6.75px; font-family:Arial;" text-anchor="middle"><textPath startOffset="19.985693538727396" xlink:href="#id14">February</textPath></text><path d="M 116.60985879189232 87.15038557335679 l 48.837813594817774 -37.7816019989287 a82.74610502960994,82.74610502960994 0 0,0 0.8618363820341993,1.1340756554318439 l -49.480925917076085 36.93534156761582" fill="red" stroke="none" /><path d="M 116.82858285166822 87.43820079747576 l 38.47564715641942 -28.7203835299894 a69.01287175555085,69.01287175555085 0 0,0 0.7024109958077895,0.9580878088964708 l -38.96432076474083 28.053833277421436" fill="red" stroke="none" /><line stroke="#e1ed5e" stroke-width="0.3" x1="172.23445277983987" x2="176.4835382374775" y1="55.19839476539836" y2="52.563006222186495" /><path d="M 173.08426987136738 54.67131705675599 a86.0,86.0 0 0,1 12.851231095245387,41.99856678651699" fill="none" id="id15" stroke="none" /><text fill="#e1ed5e" style="font-size:6.75px; font-family:Arial;" text-anchor="middle"><textPath startOffset="22.20632615414155" xlink:href="#id15">March</textPath></text><path d="M 118.89224826269711 90.83032412892265 l 22.73375734709368 -11.034218019259272 a46.270094784410325,46.270094784410325 0 0,0 0.3416094793565768,0.7195166848038222 l -22.920325020292015 10.641258918814911" fill="red" stroke="none" /><path d="M 119.34039704204932 91.81776055985345 l 30.00684829420717 -12.694838531677847 a53.581741357652085,53.581741357652085 0 0,0 0.352053251725186,0.852524873665977 l -30.220923232818556 12.176439087558567" fill="red" stroke="none" /><path d="M 119.61058180528143 92.48833698450437 l 39.23396070132115 -15.028227845445809 a63.0137037701682,63.0137037701682 0 0,0 0.37926871514605226,1.0162515960496876 l -39.486834004968834 14.350653112366787" fill="red" stroke="none" /><path d="M 120.53481517161879 95.60439243477599 l 59.43863674632749 -12.723217577816804 a81.78512814656509,81.78512814656509 0 0,0 0.28282350427075054,1.3791478495473162 l -59.64883954651324 11.698194072106075" fill="red" stroke="none" /><path d="M 120.73433829027371 96.67025291283417 l 40.76374222818221 -6.546288096878382 a62.28603357423691,62.28603357423691 0 0,0 0.16088810678305962,1.06005160404804 l -40.87038622840457 5.84363738043826" fill="red" stroke="none" /><path d="M 120.78858239683441 97.02765380044208 l 42.96833834199606 -6.143602037606885 a64.40532163074865,64.40532163074865 0 0,0 0.14746978790348955,1.0988212101772934 l -43.06772412895739 5.403062485364927" fill="red" stroke="none" /><path d="M 120.87857604477298 97.74499172005257 l 51.3862912772017 -5.5500198891624235 a72.68513956637356,72.68513956637356 0 0,0 0.12364390978567764,1.245077297913705 l -51.47421231266961 4.664667060544283" fill="red" stroke="none" /><line stroke="#e1ed5e" stroke-width="0.3" x1="184.98032266829074" x2="189.97916517819016" y1="98.17113171792111" y2="98.06355123074" /><path d="M 185.9800911702706 98.14961562048488 a86.0,86.0 0 0,1 -9.607161424134198,41.387399972396054" fill="none" id="id16" stroke="none" /><text fill="#e1ed5e" style="font-size:6.75px; font-family:Arial;" text-anchor="middle"><textPath startOffset="21.466115282336823" xlink:href="#id16">April</textPath></text><path d="M 120.9764740272857 100.99374915477107 l 11.671771859122527 0.5529439029932409 a32.68486222816777,32.68486222816777 0 0,0 -0.03146096839855384,0.5617567250393212 l -11.660524539836445 -0.7537723443679855" fill="red" stroke="none" /><path d="M 120.76222939487914 103.15116336523771 l 62.28668818463745 9.453490095713112 a84.0,84.0 0 0,0 -0.2292729825548463,1.4276830812271801 l -62.114733447721314 -10.524252406633499" fill="red" stroke="none" /><path d="M 120.5718875245553 104.21870165774334 l 53.80600557285476 11.03406212170881 a75.92573861689806,75.92573861689806 0 0,0 -0.27357114276210787,1.2780333024615989 l -53.60810039136821 -11.958609243586578" fill="red" stroke="none" /><path d="M 120.13307415673323 105.97154293290107 l 49.52288892000856 14.688668756937949 a72.65533386625772,72.65533386625772 0 0,0 -0.36595186465136,1.1959518675138265 l -49.262710282851074 -15.538947597003832" fill="red" stroke="none" /><line stroke="#e1ed5e" stroke-width="0.3" x1="174.80103733775053" x2="179.2010983576182" y1="140.37084112569926" y2="142.7455964860345" /><path d="M 175.68104954172406 140.8457921977663 a86.0,86.0 0 0,1 -30.038265399797805,32.042727171017184" fill="none" id="id17" stroke="none" /><text fill="#e1ed5e" style="font-size:6.75px; font-family:Arial;" text-anchor="middle"><textPath startOffset="22.206326154141568" xlink:href="#id17">May</textPath></text><line stroke="#e1ed5e" stroke-width="0.3" x1="143.8653032363475" x2="146.44561519142675" y1="172.8068346515853" y2="177.08958963109032" /><path d="M 144.38136562736335 173.6633856474863 a86.0,86.0 0 0,1 -40.68145358897372,12.25698825130547" fill="none" id="id18" stroke="none" /><text fill="#e1ed5e" style="font-size:6.75px; font-family:Arial;" text-anchor="middle"><textPath startOffset="21.466115282336833" xlink:href="#id18">June</textPath></text><line stroke="#e1ed5e" stroke-width="0.3" x1="102.19456741930631" x2="102.32365962044197" y1="184.97166512339345" y2="189.96999836594603" /><path d="M 102.22038585953345 185.97133177190398 a86.0,86.0 0 0,1 -42.740103519485714,-10.115201625700543" fill="none" id="id19" stroke="none" /><text fill="#e1ed5e" style="font-size:6.75px; font-family:Arial;" text-anchor="middle"><textPath startOffset="22.20632615414155" xlink:href="#id19">July</textPath></text><line stroke="#e1ed5e" stroke-width="0.3" x1="58.666819895761336" x2="56.23545636021788" y1="174.27360380694188" y2="178.64263932499728" /><path d="M 58.180547188652646 175.14741091055294 a86.0,86.0 0 0,1 -31.652253787137756,-30.449443065178592" fill="none" id="id20" stroke="none" /><text fill="#e1ed5e" style="font-size:6.75px; font-family:Arial;" text-anchor="middle"><textPath startOffset="22.20632615414155" xlink:href="#id20">August</textPath></text><line stroke="#e1ed5e" stroke-width="0.3" x1="26.63291911575756" x2="22.317208475507996" y1="142.92168965132927" y2="145.44649492493687" /><path d="M 25.769776987707644 143.4266507060508 a86.0,86.0 0 0,1 -11.730757126820373,-40.83630448921669" fill="none" id="id21" stroke="none" /><text fill="#e1ed5e" style="font-size:6.75px; font-family:Arial;" text-anchor="middle"><textPath startOffset="21.46611528233685" xlink:href="#id21">September</textPath></text><line stroke="#e1ed5e" stroke-width="0.3" x1="15.007084014347285" x2="10.007500721073583" y1="101.09737516637583" y2="101.16192664675087" /><path d="M 14.007167355692545 101.11028546245083 a86.0,86.0 0 0,1 10.666146001902534,-42.60595125391555" fill="none" id="id22" stroke="none" /><text fill="#e1ed5e" style="font-size:6.75px; font-family:Arial;" text-anchor="middle"><textPath startOffset="22.20632615414155" xlink:href="#id22">October</textPath></text><line stroke="#e1ed5e" stroke-width="0.3" x1="26.266209847984243" x2="21.928928074336255" y1="57.711370442889674" y2="55.22380399835377" /><path d="M 25.398753493254645 57.213857153982495 a86.0,86.0 0 0,1 29.58750427330803,-30.492523968695096" fill="none" id="id23" stroke="none" /><text fill="#e1ed5e" style="font-size:6.75px; font-family:Arial;" text-anchor="middle"><textPath startOffset="21.46611528233685" xlink:href="#id23">November</textPath></text><line stroke="#e1ed5e" stroke-width="0.3" x1="56.762969772571076" x2="54.21961505331055" y1="26.818313649435495" y2="22.513508569990535" /><path d="M 56.25429882871897 25.957352633546506 a86.0,86.0 0 0,1 42.265352541879196,-11.944610805530505" fill="none" id="id24" stroke="none" /><text fill="#e1ed5e" style="font-size:6.75px; font-family:Arial;" text-anchor="middle"><textPath startOffset="22.20632615414155" xlink:href="#id24">December</textPath></text></svg>