<?xml version="1.0" encoding="utf-8" ?>
<svg baseProfile="full" height="200mm" version="1.1" viewBox="0,0,200,200" width="200mm" xmlns="http://www.w3.org/2000/svg" xmlns:ev="http://www.w3.org/2001/xml-events" xmlns:xlink="http://www.w3.org/1999/xlink"><defs /><rect fill="#1a1a1a" height="200" width="200" x="0" y="0" /><rect fill="#1a1a1a" height="200" width="180" x="10" y="0" /><text alignment-baseline="middle" fill="#e1ed5e" style="dominant-baseline: central; font-size:9.0px; font-family:Arial;" text-anchor="middle" x="100.0" y="100.0">2026</text><line stroke="#e1ed5e" stroke-width="0.3" x1="100.0" x2="100.0" y1="15.0" y2="10.0" /><path d="M 100.0 14.0 a86.0,86.0 0 0,1 42.46469731375804,11.215312516191453" fill="none" id="id13" stroke="none" /><text fill="#e1ed5e" style="font-size:6.75px; font-family:Arial;" text-anchor="middle"><textPath startOffset="22.20632615414155" xlink:href="#id13">January</textPath></text><path d="M 100.72285384407766 79.0124445844662 l 1.2745036536823042 -37.00432152102367 a58.0262632572414,58.0262632572414 0 0,0 0.9979389017877534,0.0429733483312232 l -1.9112833878593891 36.97690044616825" fill="red" stroke="none" /><line stroke="#e1ed5e" stroke-width="0.3" x1="143.23703022742887" x2="145.7803849466894" y1="26.81831364943548" y2="22.513508569990506" /><path d="M 143.74570117128098 25.957352633546492 a86.0,86.0 0 0,1 28.547481713284135,27.462654790039103" fill="none" id="id14" stroke="none" /><text fill="#e1ed5e" style="font-size:6.75px; font-family:Arial;" text-anchor="middle"><textPath startOffset="19.985693538727396" xlink:href="#id14">February</textPath></text><path d="M 116.60985879189232 87.15038557335679 l 40.65252732820305 -31.449352350362336 a72.3973709583237,72.3973709583237 0 0,0 0.7540498520526392,0.9922412165711375 l -41.1878531204798 30.744926357910163" fill="red" stroke="none" /><path d="M 116.82858285166822 87.43820079747576 l 32.02707456303102 -23.906806844712182 a60.965846901777596,60.965846901777596 0 0,0 0.6205086115561985,0.8463730488210514 l -32.43384578710084 23.351971352219635" fill="red" stroke="none" /><line stroke="#e1ed5e" stroke-width="0.3" x1="172.23445277983987" x2="176.4835382374775" y1="55.19839476539836" y2="52.563006222186495" /><path d="M 173.08426987136738 54.67131705675599 a86.0,86.0 0 0,1 12.851231095245387,41.99856678651699" fill="none" id="id15" stroke="none" /><text fill="#e1ed5e" style="font-size:6.75px; font-family:Arial;" text-anchor="middle"><textPath startOffset="22.20632615414155" xlink:href="#id15">March</textPath></text><path d="M 118.89224826269711 90.83032412892265 l 18.92354763243392 -9.184867555596025 a42.03479134697646,42.03479134697646 0 0,0 0.31034047485334043,0.6536561867296452 l -19.078846301129015 8.857768953225838" fill="red" stroke="none" /><path d="M 119.34039704204932 91.81776055985345 l 24.9776583045671 -10.567165733867338 a48.120995668056324,48.120995668056324 0 0,0 0.31617399083976255,0.765640397514479 l -25.15585398229306 10.135650765899555" fill="red" stroke="none" /><path d="M 119.61058180528143 92.48833698450437 l 32.6582936909638 -12.50947571588821 a55.97214791075382,55.97214791075382 0 0,0 0.33688679369655355,0.9026891175306792 l -32.86878507316198 11.945463461328197" fill="red" stroke="none" /><path d="M 120.53481517161879 95.60439243477599 l 49.47663760561165 -10.59078841194797 a71.59745515284021,71.59745515284021 0 0,0 0.24759321923303282,1.2073524679223377 l -49.65161012075968 9.737560287862221" fill="red" stroke="none" /><path d="M 120.73433829027371 96.67025291283417 l 33.93168168172959 -5.449121002109673 a55.36643626339304,55.36643626339304 0 0,0 0.14301442231227157,0.9422863554392326 l -34.02045199748116 4.864235534278358" fill="red" stroke="none" /><path d="M 120.78858239683441 97.02765380044208 l 35.76678438530307 -5.113925692896281 a57.130528660085005,57.130528660085005 0 0,0 0.130812590186564,0.9747057393836889 l -35.849512974547466 4.497501611447928" fill="red" stroke="none" /><path d="M 120.87857604477298 97.74499172005257 l 42.77387656565995 -4.619828747619999 a64.02263746112794,64.02263746112794 0 0,0 0.10890822054838627,1.0966909182669815 l -42.84706191189056 3.882862298648582" fill="red" stroke="none" /><line stroke="#e1ed5e" stroke-width="0.3" x1="184.98032266829074" x2="189.97916517819016" y1="98.17113171792111" y2="98.06355123074" /><path d="M 185.9800911702706 98.14961562048488 a86.0,86.0 0 0,1 -9.607161424134198,41.387399972396054" fill="none" id="id16" stroke="none" /><text fill="#e1ed5e" style="font-size:6.75px; font-family:Arial;" text-anchor="middle"><textPath startOffset="21.466115282336823" xlink:href="#id16">April</textPath></text><path d="M 120.9764740272857 100.99374915477107 l 9.715566474947156 0.46026972693513885 a30.72646287972406,30.72646287972406 0 0,0 -0.02957590186276658,0.5280975957267682 l -9.706204222196861 -0.6274390389973303" fill="red" stroke="none" /><path d="M 120.76222939487914 103.15116336523771 l 51.847351616042076 7.869071855904164 a73.44111136761771,73.44111136761771 0 0,0 -0.2004531267309088,1.2482218115008208 l -51.704216734949874 -8.76037289709819" fill="red" stroke="none" /><path d="M 120.5718875245553 104.21870165774334 l 44.78804334115454 9.184737786694349 a66.72010755170496,66.72010755170496 0 0,0 -0.24040195591944283,1.1230779041235526 l -44.62330734651066 -9.95432951023407" fill="red" stroke="none" /><path d="M 120.13307415673323 105.97154293290107 l 60.399222470199675 17.914628798703227 a84.0,84.0 0 0,0 -0.4230929099754692,1.3826921097917715 l -60.08190278771807 -18.951647881047055" fill="red" stroke="none" /><path d="M 120.02730092923936 106.31721596034902 l 57.22626026463907 18.050891928580768 a81.00566276022215,81.00566276022215 0 0,0 -0.43090286866102123,1.326182664999625 l -56.907065144961805 -19.033273493558188" fill="red" stroke="none" /><line stroke="#e1ed5e" stroke-width="0.3" x1="174.80103733775053" x2="179.2010983576182" y1="140.37084112569926" y2="142.7455964860345" /><path d="M 175.68104954172406 140.8457921977663 a86.0,86.0 0 0,1 -30.038265399797805,32.042727171017184" fill="none" id="id17" stroke="none" /><text fill="#e1ed5e" style="font-size:6.75px; font-family:Arial;" text-anchor="middle"><textPath startOffset="22.206326154141568" xlink:href="#id17">May</textPath></text><line stroke="#e1ed5e" stroke-width="0.3" x1="143.8653032363475" x2="146.44561519142675" y1="172.8068346515853" y2="177.08958963109032" /><path d="M 144.38136562736335 173.6633856474863 a86.0,86.0 0 0,1 -40.68145358897372,12.25698825130547" fill="none" id="id18" stroke="none" /><text fill="#e1ed5e" style="font-size:6.75px; font-family:Arial;" text-anchor="middle"><textPath startOffset="21.466115282336833" xlink:href="#id18">June</textPath></text><line stroke="#e1ed5e" stroke-width="0.3" x1="102.19456741930631" x2="102.32365962044197" y1="184.97166512339345" y2="189.96999836594603" /><path d="M 102.22038585953345 185.97133177190398 a86.0,86.0 0 0,1 -42.740103519485714,-10.115201625700543" fill="none" id="id19" stroke="none" /><text fill="#e1ed5e" style="font-size:6.75px; font-family:Arial;" text-anchor="middle"><textPath startOffset="22.20632615414155" xlink:href="#id19">July</textPath></text><line stroke="#e1ed5e" stroke-width="0.3" x1="58.666819895761336" x2="56.23545636021788" y1="174.27360380694188" y2="178.64263932499728" /><path d="M 58.180547188652646 175.14741091055294 a86.0,86.0 0 0,1 -31.652253787137756,-30.449443065178592" fill="none" id="id20" stroke="none" /><text fill="#e1ed5e" style="font-size:6.75px; font-family:Arial;" text-anchor="middle"><textPath startOffset="22.20632615414155" xlink:href="#id20">August</textPath></text><line stroke="#e1ed5e" stroke-width="0.3" x1="26.63291911575756" x2="22.317208475507996" y1="142.92168965132927" y2="145.44649492493687" /><path d="M 25.769776987707644 143.4266507060508 a86.0,86.0 0 0,1 -11.730757126820373,-40.83630448921669" fill="none" id="id21" stroke="none" /><text fill="#e1ed5e" style="font-size:6.75px; font-family:Arial;" text-anchor="middle"><textPath startOffset="21.46611528233685" xlink:href="#id21">September</textPath></text><line stroke="#e1ed5e" stroke-width="0.3" x1="15.007084014347285" x2="10.007500721073583" y1="101.09737516637583" y2="101.16192664675087" /><path d="M 14.007167355692545 101.11028546245083 a86.0,86.0 0 0,1 10.666146001902534,-42.60595125391555" fill="none" id="id22" stroke="none" /><text fill="#e1ed5e" style="font-size:6.75px; font-family:Arial;" text-anchor="middle"><textPath startOffset="22.20632615414155" xlink:href="#id22">October</textPath></text><line stroke="#e1ed5e" stroke-width="0.3" x1="26.266209847984243" x2="21.928928074336255" y1="57.711370442889674" y2="55.22380399835377" /><path d="M 25.398753493254645 57.213857153982495 a86.0,86.0 0 0,1 29.58750427330803,-30.492523968695096" fill="none" id="id23" stroke="none" /><text fill="#e1ed5e" style="font-size:6.75px; font-family:Arial;" text-anchor="middle"><textPath startOffset="21.46611528233685" xlink:href="#id23">November</textPath></text><line stroke="#e1ed5e" stroke-width="0.3" x1="56.762969772571076" x2="54.21961505331055" y1="26.818313649435495" y2="22.513508569990535" /><path d="M 56.25429882871897 25.957352633546506 a86.0,86.0 0 0,1 42.265352541879196,-11.944610805530505" fill="none" id="id24" stroke="none" /><text fill="#e1ed5e" style="font-size:6.75px; font-family:Arial;" text-anchor="middle"><textPath startOffset="22.20632615414155" xlink:href="#id24">December</textPath></text></svg>