<?xml version="1.0" encoding="utf-8" ?>
<svg baseProfile="full" height="200mm" version="1.1" viewBox="0,0,200,200" width="200mm" xmlns="http://www.w3.org/2000/svg" xmlns:ev="http://www.w3.org/2001/xml-events" xmlns:xlink="http://www.w3.org/1999/xlink"><defs /><rect fill="#1a1a1a" height="200" width="200" x="0" y="0" /><rect fill="#1a1a1a" height="200" width="180" x="10" y="0" /><text alignment-baseline="middle" fill="#e1ed5e" style="dominant-baseline: central; font-size:9.0px; font-family:Arial;" text-anchor="middle" x="100.0" y="100.0">2026</text><line stroke="#e1ed5e" stroke-width="0.3" x1="100.0" x2="100.0" y1="15.0" y2="10.0" /><path d="M 100.0 14.0 a86.0,86.0 0 0,1 42.46469731375804,11.215312516191453" fill="none" id="id13" stroke="none" /><text fill="#e1ed5e" style="font-size:6.75px; font-family:Arial;" text-anchor="middle"><textPath startOffset="22.20632615414155" xlink:href="#id13">January</textPath></text><path d="M 100.72285384407766 79.0124445844662 l 0.6022290032501376 -17.485297591079878 a38.49566550951919,38.49566550951919 0 0,0 0.66205059581127,0.02850929131605551 l -0.9031204314507392 17.472340573239627" fill="red" stroke="none" /><line stroke="#e1ed5e" stroke-width="0.3" x1="143.23703022742887" x2="145.7803849466894" y1="26.81831364943548" y2="22.513508569990506" /><path d="M 143.74570117128098 25.957352633546492 a86.0,86.0 0 0,1 28.547481713284135,27.462654790039103" fill="none" id="id14" stroke="none" /><text fill="#e1ed5e" style="font-size:6.75px; font-family:Arial;" text-anchor="middle"><textPath startOffset="19.985693538727396" xlink:href="#id14">February</textPath></text><path d="M 116.60985879189232 87.15038557335679 l 19.20914933568748 -14.86046121884417 a45.28630737344635,45.28630737344635 0 0,0 0.4716764286180404,0.6206708907718506 l -19.462101704529637 14.527605552191286" fill="red" stroke="none" /><path d="M 116.82858285166822 87.43820079747576 l 15.133446762106997 -11.296454439646054 a39.88467881136785,39.88467881136785 0 0,0 0.4059450976130898,0.5537086569339779 l -15.325654472233712 11.034283339040583" fill="red" stroke="none" /><line stroke="#e1ed5e" stroke-width="0.3" x1="172.23445277983987" x2="176.4835382374775" y1="55.19839476539836" y2="52.563006222186495" /><path d="M 173.08426987136738 54.67131705675599 a86.0,86.0 0 0,1 12.851231095245387,41.99856678651699" fill="none" id="id15" stroke="none" /><text fill="#e1ed5e" style="font-size:6.75px; font-family:Arial;" text-anchor="middle"><textPath startOffset="22.20632615414155" xlink:href="#id15">March</textPath></text><path d="M 118.89224826269711 90.83032412892265 l 8.941762697745817 -4.3400374859732915 a30.939368466982796,30.939368466982796 0 0,0 0.22842359850078225,0.4811183537231019 l -9.015144490088355 4.185476716609649" fill="red" stroke="none" /><path d="M 119.34039704204932 91.81776055985345 l 11.80245362249198 -4.993201603384543 a33.81522429624687,33.81522429624687 0 0,0 0.2221794098076674,0.5380250639619707 l -11.886654719185845 4.789301968969269" fill="red" stroke="none" /><path d="M 119.61058180528143 92.48833698450437 l 15.431710690302957 -5.9109827341766525 a37.525054060817624,37.525054060817624 0 0,0 0.22585688807218104,0.6051841710534472 l -15.531172166876763 5.644475426093871" fill="red" stroke="none" /><path d="M 120.53481517161879 95.60439243477599 l 23.378721640623166 -5.00436380118091 a44.90833082012025,44.90833082012025 0 0,0 0.15529879063997032,0.7572920564034054 l -23.461399727178133 4.601196088614093" fill="red" stroke="none" /><path d="M 120.73433829027371 96.67025291283417 l 16.033412520041875 -2.57482095104916 a37.23884293808513,37.23884293808513 0 0,0 0.09618989354907927,0.6337712152173081 l -16.075358307030253 2.2984506234397704" fill="red" stroke="none" /><path d="M 120.78858239683441 97.02765380044208 l 16.90053602246705 -2.4164343223576883 a38.0724126203936,38.0724126203936 0 0,0 0.08717494877664071,0.649554624534896 l -16.93962697030153 2.125161355758128" fill="red" stroke="none" /><path d="M 120.87857604477298 97.74499172005257 l 20.211530170868325 -2.1829634256655033 a41.32907477397124,41.32907477397124 0 0,0 0.0703044449438261,0.7079561661687395 l -20.24611174149438 1.834731728792329" fill="red" stroke="none" /><line stroke="#e1ed5e" stroke-width="0.3" x1="184.98032266829074" x2="189.97916517819016" y1="98.17113171792111" y2="98.06355123074" /><path d="M 185.9800911702706 98.14961562048488 a86.0,86.0 0 0,1 -9.607161424134198,41.387399972396054" fill="none" id="id16" stroke="none" /><text fill="#e1ed5e" style="font-size:6.75px; font-family:Arial;" text-anchor="middle"><textPath startOffset="21.466115282336823" xlink:href="#id16">April</textPath></text><path d="M 120.9764740272857 100.99374915477107 l 4.590803562871825 0.21748684523383593 a25.595952336646498,25.595952336646498 0 0,0 -0.02463750472535699,0.4399191974107682 l -4.5863797072589385 -0.29647775898002743" fill="red" stroke="none" /><path d="M 120.76222939487914 103.15116336523771 l 24.498932423360184 3.7182971477507913 a45.77949603126223,45.77949603126223 0 0,0 -0.12495239993982428,0.7780787137016658 l -24.43129826905907 -4.1394550911456625" fill="red" stroke="none" /><path d="M 120.5718875245553 104.21870165774334 l 21.163265103978226 4.3399761675172135 a42.603684477326546,42.603684477326546 0 0,0 -0.15350708285035408,0.7171339859375623 l -21.08542398240343 -4.703623972870944" fill="red" stroke="none" /><path d="M 120.13307415673323 105.97154293290107 l 28.539866041355936 8.465027945481713 a50.7687865351668,50.7687865351668 0 0,0 -0.25571325751294216,0.8356857210223555 l -28.38992601133686 -8.955040639056127" fill="red" stroke="none" /><path d="M 120.02730092923936 106.31721596034902 l 27.040576603554587 8.529415057004545 a49.35390104143272,49.35390104143272 0 0,0 -0.2625339613764454,0.8079964508776956 l -26.889750391161893 -8.993610407860036" fill="red" stroke="none" /><line stroke="#e1ed5e" stroke-width="0.3" x1="174.80103733775053" x2="179.2010983576182" y1="140.37084112569926" y2="142.7455964860345" /><path d="M 175.68104954172406 140.8457921977663 a86.0,86.0 0 0,1 -30.038265399797805,32.042727171017184" fill="none" id="id17" stroke="none" /><text fill="#e1ed5e" style="font-size:6.75px; font-family:Arial;" text-anchor="middle"><textPath startOffset="22.206326154141568" xlink:href="#id17">May</textPath></text><path d="M 117.94076556474637 110.91462005526583 l 12.99632865705172 7.90657393594274 a36.2124445756306,36.2124445756306 0 0,0 -0.3285595797962714,0.5297426582793058 l -12.858304437587485 -8.12911292558732" fill="red" stroke="none" /><path d="M 117.14729908036423 112.12312394758627 l 51.44189724109271 36.36937184275882 a84.0,84.0 0 0,0 -0.8448808304975888,1.1734655781954753 l -50.80823661821952 -37.24947102640542" fill="red" stroke="none" /><path d="M 116.71984013943494 112.70617746262583 l 8.218677475930345 6.245751971692353 a31.322600309285626,31.322600309285626 0 0,0 -0.32992122168653343,0.42646765285808563 l -8.109949437025744 -6.386297618663691" fill="red" stroke="none" /><path d="M 116.498646956653 112.99209946851258 l 4.322871423041215 3.4041079650531234 a26.502287558632727,26.502287558632727 0 0,0 -0.28531869078944544,0.35597893651408175 l -4.263634820196915 -3.4780147351454556" fill="red" stroke="none" /><path d="M 115.56566222782051 114.09645910891815 l 15.009927644710636 13.59317889433027 a41.250245439320345,41.250245439320345 0 0,0 -0.48116170435331457,0.522205999484775 l -14.773719532361598 -13.849536148616378" fill="red" stroke="none" /><line stroke="#e1ed5e" stroke-width="0.3" x1="143.8653032363475" x2="146.44561519142675" y1="172.8068346515853" y2="177.08958963109032" /><path d="M 144.38136562736335 173.6633856474863 a86.0,86.0 0 0,1 -40.68145358897372,12.25698825130547" fill="none" id="id18" stroke="none" /><text fill="#e1ed5e" style="font-size:6.75px; font-family:Arial;" text-anchor="middle"><textPath startOffset="21.466115282336833" xlink:href="#id18">June</textPath></text><line stroke="#e1ed5e" stroke-width="0.3" x1="102.19456741930631" x2="102.32365962044197" y1="184.97166512339345" y2="189.96999836594603" /><path d="M 102.22038585953345 185.97133177190398 a86.0,86.0 0 0,1 -42.740103519485714,-10.115201625700543" fill="none" id="id19" stroke="none" /><text fill="#e1ed5e" style="font-size:6.75px; font-family:Arial;" text-anchor="middle"><textPath startOffset="22.20632615414155" xlink:href="#id19">July</textPath></text><line stroke="#e1ed5e" stroke-width="0.3" x1="58.666819895761336" x2="56.23545636021788" y1="174.27360380694188" y2="178.64263932499728" /><path d="M 58.180547188652646 175.14741091055294 a86.0,86.0 0 0,1 -31.652253787137756,-30.449443065178592" fill="none" id="id20" stroke="none" /><text fill="#e1ed5e" style="font-size:6.75px; font-family:Arial;" text-anchor="middle"><textPath startOffset="22.20632615414155" xlink:href="#id20">August</textPath></text><line stroke="#e1ed5e" stroke-width="0.3" x1="26.63291911575756" x2="22.317208475507996" y1="142.92168965132927" y2="145.44649492493687" /><path d="M 25.769776987707644 143.4266507060508 a86.0,86.0 0 0,1 -11.730757126820373,-40.83630448921669" fill="none" id="id21" stroke="none" /><text fill="#e1ed5e" style="font-size:6.75px; font-family:Arial;" text-anchor="middle"><textPath startOffset="21.46611528233685" xlink:href="#id21">September</textPath></text><line stroke="#e1ed5e" stroke-width="0.3" x1="15.007084014347285" x2="10.007500721073583" y1="101.09737516637583" y2="101.16192664675087" /><path d="M 14.007167355692545 101.11028546245083 a86.0,86.0 0 0,1 10.666146001902534,-42.60595125391555" fill="none" id="id22" stroke="none" /><text fill="#e1ed5e" style="font-size:6.75px; font-family:Arial;" text-anchor="middle"><textPath startOffset="22.20632615414155" xlink:href="#id22">October</textPath></text><line stroke="#e1ed5e" stroke-width="0.3" x1="26.266209847984243" x2="21.928928074336255" y1="57.711370442889674" y2="55.22380399835377" /><path d="M 25.398753493254645 57.213857153982495 a86.0,86.0 0 0,1 29.58750427330803,-30.492523968695096" fill="none" id="id23" stroke="none" /><text fill="#e1ed5e" style="font-size:6.75px; font-family:Arial;" text-anchor="middle"><textPath startOffset="21.46611528233685" xlink:href="#id23">November</textPath></text><line stroke="#e1ed5e" stroke-width="0.3" x1="56.762969772571076" x2="54.21961505331055" y1="26.818313649435495" y2="22.513508569990535" /><path d="M 56.25429882871897 25.957352633546506 a86.0,86.0 0 0,1 42.265352541879196,-11.944610805530505" fill="none" id="id24" stroke="none" /><text fill="#e1ed5e" style="font-size:6.75px; font-family:Arial;" text-anchor="middle"><textPath startOffset="22.20632615414155" xlink:href="#id24">December</textPath></text></svg>