<?xml version="1.0" encoding="utf-8" ?>
<svg baseProfile="full" height="200mm" version="1.1" viewBox="0,0,200,200" width="200mm" xmlns="http://www.w3.org/2000/svg" xmlns:ev="http://www.w3.org/2001/xml-events" xmlns:xlink="http://www.w3.org/1999/xlink"><defs /><rect fill="#1a1a1a" height="200" width="200" x="0" y="0" /><rect fill="#1a1a1a" height="200" width="180" x="10" y="0" /><text alignment-baseline="middle" fill="#e1ed5e" style="dominant-baseline: central; font-size:9.0px; font-family:Arial;" text-anchor="middle" x="100.0" y="100.0">2026</text><line stroke="#e1ed5e" stroke-width="0.3" x1="100.0" x2="100.0" y1="15.0" y2="10.0" /><path d="M 100.0 14.0 a86.0,86.0 0 0,1 42.46469731375804,11.215312516191453" fill="none" id="id13" stroke="none" /><text fill="#e1ed5e" style="font-size:6.75px; font-family:Arial;" text-anchor="middle"><textPath startOffset="22.20632615414155" xlink:href="#id13">January</textPath></text><path d="M 100.72285384407766 79.0124445844662 l 0.3344302746387178 -9.709948946274396 a30.71570646673983,30.71570646673983 0 0,0 0.5282504276238754,0.022747574617776056 l -0.5015215346519247 9.702753645132425" fill="#ff6809" stroke="none" /><line stroke="#e1ed5e" stroke-width="0.3" x1="143.23703022742887" x2="145.7803849466894" y1="26.81831364943548" y2="22.513508569990506" /><path d="M 143.74570117128098 25.957352633546492 a86.0,86.0 0 0,1 28.547481713284135,27.462654790039103" fill="none" id="id14" stroke="none" /><text fill="#e1ed5e" style="font-size:6.75px; font-family:Arial;" text-anchor="middle"><textPath startOffset="19.985693538727396" xlink:href="#id14">February</textPath></text><path d="M 116.60985879189232 87.15038557335679 l 10.667239626853096 -8.252322787270103 a34.486690944853834,34.486690944853834 0 0,0 0.35919376436641587,0.47265688968641123 l -10.807709331443625 8.067481121702658" fill="#ff9c0e" stroke="none" /><path d="M 116.82858285166822 87.43820079747576 l 8.403917329733325 -6.273155793404126 a31.48705440499437,31.48705440499437 0 0,0 0.32047432134118137,0.4371266141530852 l -8.510654263588131 6.127566735579547" fill="#ff730a" stroke="none" /><line stroke="#e1ed5e" stroke-width="0.3" x1="172.23445277983987" x2="176.4835382374775" y1="55.19839476539836" y2="52.563006222186495" /><path d="M 173.08426987136738 54.67131705675599 a86.0,86.0 0 0,1 12.851231095245387,41.99856678651699" fill="none" id="id15" stroke="none" /><text fill="#e1ed5e" style="font-size:6.75px; font-family:Arial;" text-anchor="middle"><textPath startOffset="22.20632615414155" xlink:href="#id15">March</textPath></text><path d="M 118.89224826269711 90.83032412892265 l 4.965546558904779 -2.4101129645752355 a26.51953776422127,26.51953776422127 0 0,0 0.1957922396879343,0.4123883900292173 l -5.00629699243447 2.324282158905478" fill="#ff2c04" stroke="none" /><path d="M 119.34039704204932 91.81776055985345 l 6.554147649945188 -2.7728285661007757 a28.11656024173663,28.11656024173663 0 0,0 0.18473693108178238,0.44735513181646813 l -6.600906267913167 2.6595988638310044" fill="#ff4306" stroke="none" /><path d="M 119.61058180528143 92.48833698450437 l 8.569549484417118 -3.2824914916200756 a30.17670576832623,30.17670576832623 0 0,0 0.1816284353929987,0.4866739068764548 l -8.624782508311743 3.1344944477142875" fill="#ff6008" stroke="none" /><path d="M 120.53481517161879 95.60439243477599 l 12.982689735599267 -2.77902716639147 a34.27679271369318,34.27679271369318 0 0,0 0.11853356288781443,0.5780117489790164 l -13.028602594402079 2.555139761249042" fill="#ff990e" stroke="none" /><path d="M 120.73433829027371 96.67025291283417 l 8.90368700865493 -1.4298515567295509 a30.017766786869824,30.017766786869824 0 0,0 0.07753747334767673,0.5108750711254644 l -8.926980375441907 1.2763773732120043" fill="#ff5e08" stroke="none" /><path d="M 120.78858239683441 97.02765380044208 l 9.385218700912688 -1.3418961719066311 a30.48066534585727,30.48066534585727 0 0,0 0.06979201624799908,0.5200315864326606 l -9.406926716218523 1.1801462434093062" fill="#ff6509" stroke="none" /><path d="M 120.87857604477298 97.74499172005257 l 11.223882525472973 -1.2122449334582488 a32.2891574851409,32.2891574851409 0 0,0 0.05492673879373398,0.5531047638258682 l -11.243086389948935 1.0188646389279457" fill="#ff7e0b" stroke="none" /><line stroke="#e1ed5e" stroke-width="0.3" x1="184.98032266829074" x2="189.97916517819016" y1="98.17113171792111" y2="98.06355123074" /><path d="M 185.9800911702706 98.14961562048488 a86.0,86.0 0 0,1 -9.607161424134198,41.387399972396054" fill="none" id="id16" stroke="none" /><text fill="#e1ed5e" style="font-size:6.75px; font-family:Arial;" text-anchor="middle"><textPath startOffset="21.466115282336823" xlink:href="#id16">April</textPath></text><path d="M 120.9764740272857 100.99374915477107 l 2.5493685758371485 0.12077496266258322 a23.552227796861416,23.552227796861416 0 0,0 -0.022670308023939784,0.4047935788189679 l -2.5469119169256795 -0.16464025781697442" fill="#ff0000" stroke="none" /><path d="M 120.76222939487914 103.15116336523771 l 13.604766051588967 2.0648476403488027 a34.76056885075329,34.76056885075329 0 0,0 -0.094876896377563,0.5907985243101547 l -13.567207400850116 -2.2987253943521626" fill="#ff9f0e" stroke="none" /><path d="M 120.5718875245553 104.21870165774334 l 11.752400702687035 2.4100789131629052 a32.99697472883023,32.99697472883023 0 0,0 -0.1188927529543904,0.5554273603673995 l -11.709173911008202 -2.612020092946474" fill="#ff880c" stroke="none" /><path d="M 120.13307415673323 105.97154293290107 l 15.848780425472974 4.700805848528724 a37.53122550207386,37.53122550207386 0 0,0 -0.1890380406264044,0.6177872544349196 l -15.765515612340437 -4.972920075515701" fill="#ffc412" stroke="none" /><path d="M 120.02730092923936 106.31721596034902 l 15.016193858335203 4.736561348967201 a36.74551019826394,36.74551019826394 0 0,0 -0.19546467759560024,0.6015784203352518 l -14.932436929723355 -4.994338669280248" fill="#ffba11" stroke="none" /><line stroke="#e1ed5e" stroke-width="0.3" x1="174.80103733775053" x2="179.2010983576182" y1="140.37084112569926" y2="142.7455964860345" /><path d="M 175.68104954172406 140.8457921977663 a86.0,86.0 0 0,1 -30.038265399797805,32.042727171017184" fill="none" id="id17" stroke="none" /><text fill="#e1ed5e" style="font-size:6.75px; font-family:Arial;" text-anchor="middle"><textPath startOffset="22.206326154141568" xlink:href="#id17">May</textPath></text><path d="M 117.94076556474637 110.91462005526583 l 7.217131255081001 4.390684737165313 a29.44778645647743,29.44778645647743 0 0,0 -0.26718307635551475,0.4307841920286609 l -7.140483539057524 -4.514265260559248" fill="#ff5608" stroke="none" /><path d="M 117.14729908036423 112.12312394758627 l 28.566754057724637 20.196667626715968 a55.98520859761399,55.98520859761399 0 0,0 -0.5631051135182483,0.7821037521118261 l -28.214869151830786 -20.685404984278925" fill="#60ff29" stroke="none" /><path d="M 116.71984013943494 112.70617746262583 l 39.99485185764617 30.393932062550032 a71.23324876352285,71.23324876352285 0 0,0 -0.7503004292333671,0.969864446299815 l -39.46574461119474 -31.077874502963102" fill="#3dffab" stroke="none" /><path d="M 115.80600337817218 113.82643327865902 l 4.608385269205675 4.0312234486182765 a27.122742627460482,27.122742627460482 0 0,0 -0.3104148173226621,0.3487543379468957 l -4.538311602234675 -4.1099519563060385" fill="#ff3505" stroke="none" /><path d="M 115.56566222782051 114.09645910891815 l 8.335324598179275 7.548574589251243 a32.24538191821434,32.24538191821434 0 0,0 -0.3761248631626857,0.4082092534004291 l -8.204153327020869 -7.690935097453007" fill="#ff7d0b" stroke="none" /><path d="M 115.07121518719521 114.62390073753431 l 11.05546101867189 10.727334361339295 a36.40450975641044,36.40450975641044 0 0,0 -0.440250787757031,0.4459717236576297 l -10.869169605859323 -10.916046578977591" fill="#ffb510" stroke="none" /><path d="M 112.92097659922987 116.55440617244103 l 38.762929797689644 49.6632185173231 a84.0,84.0 0 0,0 -1.147485086026025,0.8798426326905142 l -37.90231598317012 -50.32310049184099" fill="#4dd2ff" stroke="none" /><line stroke="#e1ed5e" stroke-width="0.3" x1="143.8653032363475" x2="146.44561519142675" y1="172.8068346515853" y2="177.08958963109032" /><path d="M 144.38136562736335 173.6633856474863 a86.0,86.0 0 0,1 -40.68145358897372,12.25698825130547" fill="none" id="id18" stroke="none" /><text fill="#e1ed5e" style="font-size:6.75px; font-family:Arial;" text-anchor="middle"><textPath startOffset="21.466115282336833" xlink:href="#id18">June</textPath></text><line stroke="#e1ed5e" stroke-width="0.3" x1="102.19456741930631" x2="102.32365962044197" y1="184.97166512339345" y2="189.96999836594603" /><path d="M 102.22038585953345 185.97133177190398 a86.0,86.0 0 0,1 -42.740103519485714,-10.115201625700543" fill="none" id="id19" stroke="none" /><text fill="#e1ed5e" style="font-size:6.75px; font-family:Arial;" text-anchor="middle"><textPath startOffset="22.20632615414155" xlink:href="#id19">July</textPath></text><line stroke="#e1ed5e" stroke-width="0.3" x1="58.666819895761336" x2="56.23545636021788" y1="174.27360380694188" y2="178.64263932499728" /><path d="M 58.180547188652646 175.14741091055294 a86.0,86.0 0 0,1 -31.652253787137756,-30.449443065178592" fill="none" id="id20" stroke="none" /><text fill="#e1ed5e" style="font-size:6.75px; font-family:Arial;" text-anchor="middle"><textPath startOffset="22.20632615414155" xlink:href="#id20">August</textPath></text><line stroke="#e1ed5e" stroke-width="0.3" x1="26.63291911575756" x2="22.317208475507996" y1="142.92168965132927" y2="145.44649492493687" /><path d="M 25.769776987707644 143.4266507060508 a86.0,86.0 0 0,1 -11.730757126820373,-40.83630448921669" fill="none" id="id21" stroke="none" /><text fill="#e1ed5e" style="font-size:6.75px; font-family:Arial;" text-anchor="middle"><textPath startOffset="21.46611528233685" xlink:href="#id21">September</textPath></text><line stroke="#e1ed5e" stroke-width="0.3" x1="15.007084014347285" x2="10.007500721073583" y1="101.09737516637583" y2="101.16192664675087" /><path d="M 14.007167355692545 101.11028546245083 a86.0,86.0 0 0,1 10.666146001902534,-42.60595125391555" fill="none" id="id22" stroke="none" /><text fill="#e1ed5e" style="font-size:6.75px; font-family:Arial;" text-anchor="middle"><textPath startOffset="22.20632615414155" xlink:href="#id22">October</textPath></text><line stroke="#e1ed5e" stroke-width="0.3" x1="26.266209847984243" x2="21.928928074336255" y1="57.711370442889674" y2="55.22380399835377" /><path d="M 25.398753493254645 57.213857153982495 a86.0,86.0 0 0,1 29.58750427330803,-30.492523968695096" fill="none" id="id23" stroke="none" /><text fill="#e1ed5e" style="font-size:6.75px; font-family:Arial;" text-anchor="middle"><textPath startOffset="21.46611528233685" xlink:href="#id23">November</textPath></text><line stroke="#e1ed5e" stroke-width="0.3" x1="56.762969772571076" x2="54.21961505331055" y1="26.818313649435495" y2="22.513508569990535" /><path d="M 56.25429882871897 25.957352633546506 a86.0,86.0 0 0,1 42.265352541879196,-11.944610805530505" fill="none" id="id24" stroke="none" /><text fill="#e1ed5e" style="font-size:6.75px; font-family:Arial;" text-anchor="middle"><textPath startOffset="22.20632615414155" xlink:href="#id24">December</textPath></text></svg>