<?xml version="1.0" encoding="utf-8" ?>
<svg baseProfile="full" height="200mm" version="1.1" viewBox="0,0,200,200" width="200mm" xmlns="http://www.w3.org/2000/svg" xmlns:ev="http://www.w3.org/2001/xml-events" xmlns:xlink="http://www.w3.org/1999/xlink"><defs /><rect fill="#1a1a1a" height="200" width="200" x="0" y="0" /><rect fill="#1a1a1a" height="200" width="180" x="10" y="0" /><text alignment-baseline="middle" fill="#e1ed5e" style="dominant-baseline: central; font-size:9.0px; font-family:Arial;" text-anchor="middle" x="100.0" y="100.0">2026</text><line stroke="#e1ed5e" stroke-width="0.3" x1="100.0" x2="100.0" y1="15.0" y2="10.0" /><path d="M 100.0 14.0 a86.0,86.0 0 0,1 42.46469731375804,11.215312516191453" fill="none" id="id13" stroke="none" /><text fill="#e1ed5e" style="font-size:6.75px; font-family:Arial;" text-anchor="middle"><textPath startOffset="22.20632615414155" xlink:href="#id13">January</textPath></text><path d="M 100.72285384407766 79.0124445844662 l 0.41942553629019247 -12.177726877571489 a33.184947668546606,33.184947668546606 0 0,0 0.5707165751036136,0.02457625625816772 l -0.6289829437831376 12.168702894789126" fill="#ff830c" stroke="none" /><line stroke="#e1ed5e" stroke-width="0.3" x1="143.23703022742887" x2="145.7803849466894" y1="26.81831364943548" y2="22.513508569990506" /><path d="M 143.74570117128098 25.957352633546492 a86.0,86.0 0 0,1 28.547481713284135,27.462654790039103" fill="none" id="id14" stroke="none" /><text fill="#e1ed5e" style="font-size:6.75px; font-family:Arial;" text-anchor="middle"><textPath startOffset="19.985693538727396" xlink:href="#id14">February</textPath></text><path d="M 116.60985879189232 87.15038557335679 l 13.378312433173697 -10.34964586991917 a37.914325679504486,37.914325679504486 0 0,0 0.3948940588707794,0.5196342925126699 l -13.55448243226859 10.117826801525466" fill="#ffc312" stroke="none" /><path d="M 116.82858285166822 87.43820079747576 l 10.539768078023654 -7.867474724657724 a34.15233324097495,34.15233324097495 0 0,0 0.34760145159476286,0.4741279893328882 l -10.673632142132043 7.684884291653342" fill="#ff900d" stroke="none" /><line stroke="#e1ed5e" stroke-width="0.3" x1="172.23445277983987" x2="176.4835382374775" y1="55.19839476539836" y2="52.563006222186495" /><path d="M 173.08426987136738 54.67131705675599 a86.0,86.0 0 0,1 12.851231095245387,41.99856678651699" fill="none" id="id15" stroke="none" /><text fill="#e1ed5e" style="font-size:6.75px; font-family:Arial;" text-anchor="middle"><textPath startOffset="22.20632615414155" xlink:href="#id15">March</textPath></text><path d="M 118.89224826269711 90.83032412892265 l 6.227537356456304 -3.0226417861808126 a27.922325107478347,27.922325107478347 0 0,0 0.20614893889529154,0.4342022398475056 l -6.278644489193352 2.9149971306927664" fill="#ff3705" stroke="none" /><path d="M 119.34039704204932 91.81776055985345 l 8.219880499673842 -3.477541348892401 a29.92522992769232,29.92522992769232 0 0,0 0.19662060690312702,0.476132395422565 l -8.278522793463168 3.335534383016533" fill="#ff5407" stroke="none" /><path d="M 119.61058180528143 92.48833698450437 l 10.747495549408233 -4.116734813342026 a32.508960253121565,32.508960253121565 0 0,0 0.19566587659893375,0.5242872703316811 l -10.816766014508792 3.931124405981011" fill="#ff790b" stroke="none" /><path d="M 120.53481517161879 95.60439243477599 l 16.28223285324686 -3.485315319876285 a37.651081933805855,37.651081933805855 0 0,0 0.13020228950452958,0.6349126040260294 l -16.339814438666387 3.2045270596868436" fill="#ffbf11" stroke="none" /><path d="M 120.73433829027371 96.67025291283417 l 11.166553932951766 -1.79324750620896 a32.30962702108452,32.30962702108452 0 0,0 0.08345746909848498,0.5498804464579227 l -11.19576729548955 1.6007679473589551" fill="#ff760a" stroke="none" /><path d="M 120.78858239683441 97.02765380044208 l 11.770466627411368 -1.6829383109998355 a32.890170982186746,32.890170982186746 0 0,0 0.0753090958331141,0.5611402375845016 l -11.797691722302318 1.4800797313506695" fill="#ff7e0b" stroke="none" /><path d="M 120.87857604477298 97.74499172005257 l 14.076425803824677 -1.5203362849851587 a35.15829035689068,35.15829035689068 0 0,0 0.059807389887948446,0.6022522542843753 l -14.100510319394854 1.2778084999963484" fill="#ff9e0e" stroke="none" /><line stroke="#e1ed5e" stroke-width="0.3" x1="184.98032266829074" x2="189.97916517819016" y1="98.17113171792111" y2="98.06355123074" /><path d="M 185.9800911702706 98.14961562048488 a86.0,86.0 0 0,1 -9.607161424134198,41.387399972396054" fill="none" id="id16" stroke="none" /><text fill="#e1ed5e" style="font-size:6.75px; font-family:Arial;" text-anchor="middle"><textPath startOffset="21.466115282336823" xlink:href="#id16">April</textPath></text><path d="M 120.9764740272857 100.99374915477107 l 3.1972891308269955 0.1514698498510796 a24.20087502122753,24.20087502122753 0 0,0 -0.023294666471135726,0.4159419183139323 l -3.1942081134683304 -0.20648348450043524" fill="#ff0000" stroke="none" /><path d="M 120.76222939487914 103.15116336523771 l 17.0624095065994 2.589627478691699 a38.25780949742141,38.25780949742141 0 0,0 -0.1044224058272492,0.650238420765251 l -17.015305346410862 -2.882945129150155" fill="#ffc712" stroke="none" /><path d="M 120.5718875245553 104.21870165774334 l 14.739266571325752 3.0225990806216534 a36.045998945326815,36.045998945326815 0 0,0 -0.12987881715885066,0.6067505948815417 l -14.685053715442457 -3.2758634949193643" fill="#ffaa0f" stroke="none" /><path d="M 120.13307415673323 105.97154293290107 l 19.876738840945603 5.895512947041583 a41.73262694064335,41.73262694064335 0 0,0 -0.21019974491949356,0.6869449284727509 l -19.772312323519976 -6.236784848066391" fill="#fff417" stroke="none" /><path d="M 120.02730092923936 106.31721596034902 l 18.83255087737975 5.940355687319607 a40.74722254498002,40.74722254498002 0 0,0 -0.2167514527542738,0.667092377800653 l -18.72750717360923 -6.263646965098055" fill="#ffe815" stroke="none" /><line stroke="#e1ed5e" stroke-width="0.3" x1="174.80103733775053" x2="179.2010983576182" y1="140.37084112569926" y2="142.7455964860345" /><path d="M 175.68104954172406 140.8457921977663 a86.0,86.0 0 0,1 -30.038265399797805,32.042727171017184" fill="none" id="id17" stroke="none" /><text fill="#e1ed5e" style="font-size:6.75px; font-family:Arial;" text-anchor="middle"><textPath startOffset="22.206326154141568" xlink:href="#id17">May</textPath></text><path d="M 117.94076556474637 110.91462005526583 l 9.051361006144418 5.5065747338698685 a31.594786518059045,31.594786518059045 0 0,0 -0.2866630492301033,0.4621921108608921 l -8.955233317246352 -5.661563176096034" fill="#ff6c0a" stroke="none" /><path d="M 117.14729908036423 112.12312394758627 l 35.826978145668285 25.329639069791927 a64.87667920953137,64.87667920953137 0 0,0 -0.6525364596485062,0.9063160700001798 l -35.385661893644176 -25.94258874524324" fill="#34ff5f" stroke="none" /><path d="M 116.71984013943494 112.70617746262583 l 50.159520418304794 38.11853238787748 a84.0,84.0 0 0,0 -0.8847727311277263,1.1436880235469893 l -49.495940869959 -38.97629840553772" fill="#4dd2ff" stroke="none" /><path d="M 115.80600337817218 113.82643327865902 l 5.7796037307222905 5.055756565905629 a28.678834139234738,28.678834139234738 0 0,0 -0.3282239994175326,0.3687631428243258 l -5.69172088165642 -5.154493878470821" fill="#ff4206" stroke="none" /><path d="M 115.56566222782051 114.09645910891815 l 10.453742543257865 9.467040472766694 a35.10338925484658,35.10338925484658 0 0,0 -0.4094619661666213,0.44439009455339384 l -10.289234169095522 -9.645581822121423" fill="#ff9d0e" stroke="none" /><path d="M 115.07121518719521 114.62390073753431 l 13.865200068089006 13.453680209812102 a40.31955703726214,40.31955703726214 0 0,0 -0.4875966430105131,0.49393282506307024 l -13.631562800022959 -13.690353528855837" fill="#ffe215" stroke="none" /><line stroke="#e1ed5e" stroke-width="0.3" x1="143.8653032363475" x2="146.44561519142675" y1="172.8068346515853" y2="177.08958963109032" /><path d="M 144.38136562736335 173.6633856474863 a86.0,86.0 0 0,1 -40.68145358897372,12.25698825130547" fill="none" id="id18" stroke="none" /><text fill="#e1ed5e" style="font-size:6.75px; font-family:Arial;" text-anchor="middle"><textPath startOffset="21.466115282336833" xlink:href="#id18">June</textPath></text><line stroke="#e1ed5e" stroke-width="0.3" x1="102.19456741930631" x2="102.32365962044197" y1="184.97166512339345" y2="189.96999836594603" /><path d="M 102.22038585953345 185.97133177190398 a86.0,86.0 0 0,1 -42.740103519485714,-10.115201625700543" fill="none" id="id19" stroke="none" /><text fill="#e1ed5e" style="font-size:6.75px; font-family:Arial;" text-anchor="middle"><textPath startOffset="22.20632615414155" xlink:href="#id19">July</textPath></text><line stroke="#e1ed5e" stroke-width="0.3" x1="58.666819895761336" x2="56.23545636021788" y1="174.27360380694188" y2="178.64263932499728" /><path d="M 58.180547188652646 175.14741091055294 a86.0,86.0 0 0,1 -31.652253787137756,-30.449443065178592" fill="none" id="id20" stroke="none" /><text fill="#e1ed5e" style="font-size:6.75px; font-family:Arial;" text-anchor="middle"><textPath startOffset="22.20632615414155" xlink:href="#id20">August</textPath></text><line stroke="#e1ed5e" stroke-width="0.3" x1="26.63291911575756" x2="22.317208475507996" y1="142.92168965132927" y2="145.44649492493687" /><path d="M 25.769776987707644 143.4266507060508 a86.0,86.0 0 0,1 -11.730757126820373,-40.83630448921669" fill="none" id="id21" stroke="none" /><text fill="#e1ed5e" style="font-size:6.75px; font-family:Arial;" text-anchor="middle"><textPath startOffset="21.46611528233685" xlink:href="#id21">September</textPath></text><line stroke="#e1ed5e" stroke-width="0.3" x1="15.007084014347285" x2="10.007500721073583" y1="101.09737516637583" y2="101.16192664675087" /><path d="M 14.007167355692545 101.11028546245083 a86.0,86.0 0 0,1 10.666146001902534,-42.60595125391555" fill="none" id="id22" stroke="none" /><text fill="#e1ed5e" style="font-size:6.75px; font-family:Arial;" text-anchor="middle"><textPath startOffset="22.20632615414155" xlink:href="#id22">October</textPath></text><line stroke="#e1ed5e" stroke-width="0.3" x1="26.266209847984243" x2="21.928928074336255" y1="57.711370442889674" y2="55.22380399835377" /><path d="M 25.398753493254645 57.213857153982495 a86.0,86.0 0 0,1 29.58750427330803,-30.492523968695096" fill="none" id="id23" stroke="none" /><text fill="#e1ed5e" style="font-size:6.75px; font-family:Arial;" text-anchor="middle"><textPath startOffset="21.46611528233685" xlink:href="#id23">November</textPath></text><line stroke="#e1ed5e" stroke-width="0.3" x1="56.762969772571076" x2="54.21961505331055" y1="26.818313649435495" y2="22.513508569990535" /><path d="M 56.25429882871897 25.957352633546506 a86.0,86.0 0 0,1 42.265352541879196,-11.944610805530505" fill="none" id="id24" stroke="none" /><text fill="#e1ed5e" style="font-size:6.75px; font-family:Arial;" text-anchor="middle"><textPath startOffset="22.20632615414155" xlink:href="#id24">December</textPath></text></svg>